<svg width="135" height="41" viewBox="0 0 135 41" fill="none" xmlns="http://www.w3.org/2000/svg">
<path d="M97.8 31.8L96.1001 38.6H73.8L75.5001 31.8H97.8Z" fill="#E4862D"/>
<path d="M97.8 31.8L96.1001 38.6H73.8L75.5001 31.8H97.8Z" fill="#E4862D"/>
<path d="M71.1 0.399994H56.2L54.5 7.10001H69.4L71.1 0.399994Z" fill="#131F6B"/>
<path d="M25.6001 0.399994H11.3001L9.6001 7.10001H23.8001L25.6001 0.399994Z" fill="#131F6B"/>
<path d="M90.2001 0.399994H82.3001L80.6001 7.10001H88.5001L90.2001 0.399994Z" fill="#131F6B"/>
<path d="M88.0001 10.1H81.6001L79.6001 17.8C79.1001 19.8 78.6001 22.4 72.6001 22.4C69.7001 22.4 68.0001 21.7 67.2001 20.3C66.6001 19.1 67.2001 17.6 67.3001 17L69.1001 10.1H61.8001L60.0001 17C59.9001 17.2 59.9001 17.4 59.9001 17.6L59.8001 17.8C59.2001 20 59.5001 22.2 55.3001 22.2H47.0001C46.6001 17.9 42.5001 13.8 40.2001 11.2C39.6001 10.5 38.9001 9.7 38.3001 9C45.0001 5.5 48.8001 7.1 48.9001 7L50.6001 0.100006C50.2001 0.300006 42.2001 0.0999999 35.0001 4C32.5001 5.3 31.6001 7 31.2001 8.2C30.2001 11.3 32.2001 13.7 34.6001 16.3C36.2001 18 38.0001 20.1 38.8001 22.2H24.9001C26.1001 20.2 26.6001 18.4 26.8001 17.5L28.7001 10.1H22.3001L20.4001 17.5C19.9001 19.5 19.2001 22.1 13.2001 22.1C10.3001 22.1 8.40006 21.4 7.70006 20C7.10006 18.8 7.40007 17.3 7.60007 16.7L9.30007 10.1H2.60007L0.900056 16.7C-0.499944 22.1 1.20007 28.4 10.6001 28.8H51.1001C55.4001 28.8 58.8001 28 61.6001 25.9C63.3001 27.8 66.2001 29.2 70.7001 29.2C75.8001 29.2 79.8001 27.6 82.7001 24.5C85.1001 21.9 85.7001 19.1 86.0001 17.9L88.0001 10.1Z" fill="#131F6B"/>
<path d="M119.1 4.10001C116.6 5.40001 115.7 7.1 115.3 8.3C114.3 11.4 116.3 13.8 118.7 16.4C120.3 18.1 122.1 20.2 122.9 22.3H108.6L109.4 19C109.7 18 109.9 17.1 110 16.4V16.2C110.2 15.1 110.2 14.4 110.2 14.4C110.1 6.89999 103.3 6.5 102 6.5H101.9C98.2001 6.5 95.2 7.70001 92.8 10.1C88.9 14.1 88.2001 20 88.2001 21.3C88.3001 28.2 94.1001 29 96.6001 29H96.9001C97.8001 29 98.6001 28.9 99.4001 28.8C99.5001 28.8 99.7 28.7 99.8 28.7C100 28.6 100.3 28.6 100.5 28.5L98.1001 38.6H104.8L107.1 28.9H128.8L129.7 25.4C131.3 19 127.3 14.5 124.3 11.2C123.7 10.5 123 9.7 122.5 9C129.2 5.5 133 7.1 133.1 7L134.8 0.100006C134.4 0.400006 126.3 0.200006 119.1 4.10001ZM95.9001 22.4C95.4001 21.9 95.2 21.1 95.3 20.2C95.3 20.1 96.2001 12.5 101.2 12.5C101.8 12.5 103.7 12.7 103.7 15.1C103.7 15.9 102.5 22.9 97.5001 23.2C97.4001 23.2 96.5001 23 95.9001 22.4Z" fill="#131F6B"/>
<path d="M122 31.8L120.9 38.6H106.8L108.5 31.8H122Z" fill="#E8AC42"/>
<path d="M120.9 31.8L119.6 38.6H127.3L128.3 31.8H120.9Z" fill="#DFDA44"/>
<path d="M9.70003 36.9C9.70003 38 9.10003 38.6 8.00003 38.6H4.30003C2.10003 38.6 0.900024 37.6 0.900024 35.7V33.9H2.30003V35.7C2.30003 36.3 2.50002 36.7 2.90002 36.9C3.20002 37.1 3.70003 37.2 4.30003 37.2H6.90002C7.30002 37.2 7.60003 37.2 7.70003 37.1C8.00003 37 8.20003 36.6 8.20003 36.2V34H9.60004V36.9H9.70003ZM5.10004 33.9H3.80003V32.7H5.10004V33.9ZM7.00003 33.9H5.70003V32.7H7.00003V33.9ZM12.2 38.6H10.8V32H12.2V38.6ZM16 37.7C16 38.6 15.8 39.3 15.3 39.8C14.9 40.2 14.2 40.4 13.2 40.4V39.2C14.1 39.2 14.6 38.7 14.6 37.8V34H16V37.7ZM20.1 38.6H18.8C17.7 38.6 17.1 38 17.1 36.9V31.9H18.5V36.1C18.5 36.8 18.7 37.2 19.7 37.2H20.1V38.6ZM20.9 40.3H19.6V39.1H20.9V40.3ZM24.5 38.6H19.9V37.2H20.8C21.3 37.2 21.5 36.9 21.5 36.2V33.9H22.9V36.1C22.9 36.5 22.8 36.8 22.7 37.1H24.4V38.6H24.5ZM22.8 40.3H21.5V39.1H22.8V40.3ZM34.7 38.6H24.2V37.2H25.3C25.8 37.2 26 36.9 26 36.2V33.9H27.4V36.1C27.4 36.5 27.3 36.8 27.2 37.1H28.1C28.6 37.1 28.8 36.8 28.8 36.2V33.8H30.2V36C30.2 36.4 30.1 36.7 30 37H30.9C31.4 37 31.6 36.7 31.6 36.1V33.7H33V35.9C33 36.3 32.9 36.6 32.8 37H34.5V38.6H34.7ZM37.4 36.6C37.4 37.1 37.2 37.6 37 38C36.7 38.4 36.2 38.6 35.6 38.6H34.3V37.2H35.3C35.8 37.2 36 36.9 36 36.2V32H37.4V36.6ZM39.9 38.6H38.5V32H39.9V38.6ZM50.7 38.6H48.7C48.1 39.7 47.1 40.3 45.9 40.3C44.1 40.3 42.7 38.8 42.7 36.8V35.8H44.1V36.7C44.1 38.1 44.8 39 45.9 39C47 39 47.7 38.1 47.7 36.7V32H49.1V37.3H50.6V38.6H50.7ZM51.5 40.3H50.2V39.1H51.5V40.3ZM53.5 36.6C53.5 37.1 53.3 37.6 53.1 38C52.8 38.4 52.3 38.6 51.7 38.6H50.5V37.2H51.4C51.9 37.2 52.1 36.9 52.1 36.2V33.9H53.5V36.6ZM53.4 40.3H52.1V39.1H53.4V40.3ZM60.4 38.6H59C58.8 39.7 58.1 40.3 56.7 40.3H56.5V39.1H56.6C57.1 39.1 57.5 38.9 57.6 38.5C57.5 38.5 57.2 38.6 56.7 38.6C55.4 38.6 54.4 37.6 54.4 36.2C54.4 34.8 55.4 33.9 56.7 33.9C58 33.9 59 34.9 59 36.3V37.2H60.3V38.6H60.4ZM57.6 37.2V36.2C57.6 35.6 57.2 35.2 56.7 35.2C56.2 35.2 55.9 35.6 55.9 36.2C55.9 36.8 56.2 37.2 56.8 37.2H57.6ZM67 38.6H65.4C65 39.2 64.3 39.5 63.5 39.5C62.6 39.5 62 39.2 61.6 38.6H60V37.2H61.1C61.1 35.7 61.9 34.8 63.4 34.8C64.9 34.8 65.8 35.7 65.8 37.2H67V38.6ZM64.4 37.2C64.4 36.4 64.1 36 63.5 36H63.4C62.9 36 62.5 36.5 62.5 37.2C62.5 37.9 62.8 38.4 63.4 38.4C64.1 38.3 64.4 37.9 64.4 37.2ZM67.7 33.2H66.4V32H67.7V33.2ZM69.7 36.6C69.7 37.1 69.5 37.6 69.3 38C69 38.4 68.5 38.6 67.9 38.6H66.7V37.2H67.6C68.1 37.2 68.3 36.9 68.3 36.2V33.9H69.7V36.6ZM69.7 33.2H68.4V32H69.7V33.2Z" fill="#0367A5"/>
</svg>
