<svg width="95" height="30" viewBox="0 0 95 30" fill="none" xmlns="http://www.w3.org/2000/svg">
<path d="M72.6 28.6337L72.2 29.6337H70.8L73.4 23.8337H74.8L77.4 29.6337H76L75.6 28.6337H72.6ZM73.1 27.4337H75.1L74.1 25.0338L73.1 27.4337Z" fill="#0168A6"/>
<path d="M78.9001 27.7337C78.9001 28.3337 79.2001 28.7337 79.7001 28.7337C80.3001 28.7337 80.6001 28.2337 80.6001 27.7337V25.5338H81.8001V29.6337H80.7001V29.1337C80.3001 29.6337 79.9001 29.7337 79.4001 29.7337C78.5001 29.7337 77.6001 29.3337 77.6001 27.7337V25.5338H78.8001V27.7337H78.9001Z" fill="#0168A6"/>
<path d="M84.5001 25.5337H85.5001V26.5337H84.5001V28.1337C84.5001 28.5337 84.7001 28.6337 85.0001 28.6337C85.1001 28.6337 85.4001 28.6337 85.5001 28.5337L85.8001 29.5337C85.5001 29.6337 85.3001 29.7337 84.9001 29.7337C84.0001 29.7337 83.3001 29.3337 83.3001 28.1337V26.5337H82.6001V25.5337H83.3001V24.5337L84.5001 24.4337V25.5337Z" fill="#0168A6"/>
<path d="M86.2 27.5338C86.2 26.3338 87.1 25.3337 88.4 25.3337C89.8 25.3337 90.7 26.2338 90.7 27.5338C90.7 28.8338 89.8 29.7337 88.4 29.7337C87 29.7337 86.2 28.9338 86.2 27.5338ZM89.5 27.5338C89.5 27.0338 89.2 26.4337 88.5 26.4337C87.8 26.4337 87.5 27.0338 87.5 27.5338C87.5 28.1338 87.8 28.6337 88.5 28.6337C89.1 28.7337 89.5 28.1338 89.5 27.5338Z" fill="#0168A6"/>
<path fill-rule="evenodd" clip-rule="evenodd" d="M25.6 5.03376C17.2 5.03376 16 14.1338 16.1 15.3338C16.2 20.8338 21.5 20.5338 22.1 20.5338C30.8 20.5338 31.4 10.6338 31.3 10.3338C31.2 4.93376 26.1 5.03376 25.6 5.03376ZM22.5 17.0338C22.3 17.0338 20.4 16.7338 20.6 14.5338C20.7 13.6338 21.6 8.83376 25.1 8.83376C25.9 8.83376 27.1 9.23376 27.2 11.0338C27.2 11.3338 26.5 16.8338 22.5 17.0338Z" fill="#282781"/>
<path d="M65.5999 13.4337L64.8999 16.4337C64.8999 16.4337 63.7999 17.5337 62.2999 17.5337C61.8999 17.5337 60.5999 17.5337 60.5999 16.3337C60.4999 13.0337 65.5999 13.4337 65.5999 13.4337ZM66.2999 10.6337C66.2999 10.6337 62.6999 10.3337 59.7999 11.6337C57.5999 12.5337 55.8999 14.4337 55.8999 17.3337C55.8999 18.1337 56.8999 20.4337 59.9999 20.6337C60.0999 20.6337 62.6999 20.8337 64.0999 19.8337L63.8999 20.6337H68.2999C68.2999 20.6337 69.8999 14.8337 71.0999 8.93374C71.0999 8.73374 71.7999 4.83374 65.0999 5.03374C64.2999 5.03374 61.4999 5.03374 60.0999 5.03374L59.1999 8.73375H63.7999C67.2999 8.83375 66.5999 10.6337 66.2999 10.6337Z" fill="#282781"/>
<path d="M18.0001 5.03376L19.0001 0.833759C19.0001 0.833759 18.5001 0.833759 14.7001 0.833759C13.5001 0.833759 3.10012 -0.0662394 2.30012 14.2338C2.30012 15.1338 2.20012 20.6338 9.60012 20.6338C10.2001 20.6338 13.4001 20.6338 14.2001 20.6338L15.3001 16.4338C15.3001 16.4338 14.2001 16.5338 11.6001 16.4338C8.90012 16.4338 6.70012 17.0338 7.00012 13.1338C7.10012 12.2338 8.20012 5.03376 14.0001 5.03376H18.0001Z" fill="#282781"/>
<path d="M30.3999 20.6337H34.9999C34.9999 20.6337 37.4999 10.4337 37.4999 10.1337C37.5999 9.83374 38.0999 8.73375 40.0999 8.73375C40.6999 8.73375 41.9999 8.93375 41.8999 10.5337C41.8999 11.0337 39.4999 20.6337 39.4999 20.6337H43.8999C43.8999 20.6337 46.3999 10.8337 46.4999 10.1337C46.4999 9.93374 47.5999 5.53374 43.2999 5.13374C42.7999 5.13374 41.3999 4.83375 38.5999 5.93375L38.7999 5.13374H34.3999L30.3999 20.6337Z" fill="#282781"/>
<path d="M86.3 2.73376H90.7L90.2 5.03376H91.8H94.4L94.1 6.13376L93.5 8.73376H89.8H89.1C89.1 8.73376 87.6 14.8338 87.6 15.0338C87.5 15.4338 87 16.9338 89 16.9338C89.8 16.9338 91.4 16.9338 91.4 16.9338L90.5 20.5338C90.5 20.5338 89 20.5338 87.2 20.5338C86.7 20.5338 82.4 20.7338 82.6 17.3338C82.9 16.7338 86.3 2.73376 86.3 2.73376Z" fill="#282781"/>
<path d="M50.0999 2.73376H54.4999L53.9999 5.03376H55.5999H58.1999L57.8999 6.13376L57.2999 8.73376H53.5999H52.9999C52.9999 8.73376 51.4999 14.8338 51.4999 15.0338C51.3999 15.4338 50.8999 16.9338 52.8999 16.9338C53.6999 16.9338 55.2999 16.9338 55.2999 16.9338L54.3999 20.5338C54.3999 20.5338 52.8999 20.5338 51.0999 20.5338C50.5999 20.5338 46.2999 20.7338 46.4999 17.3338C46.5999 16.7338 50.0999 2.73376 50.0999 2.73376Z" fill="#282781"/>
<path d="M83.0999 8.83375C83.0999 8.83375 83.2999 8.83375 80.2999 8.83375C75.6999 8.83375 75.2999 13.8337 75.2999 14.6337C75.2999 17.1337 77.2999 17.0337 78.1999 17.0337C81.0999 17.0337 81.1999 17.0337 81.1999 17.0337L80.2999 20.6337C79.5999 20.6337 77.8999 20.6337 76.9999 20.6337C70.4999 20.6337 70.5999 15.8337 70.5999 15.2337C71.5999 4.53375 80.6999 5.03374 80.9999 5.03374C84.0999 5.03374 84.0999 5.03374 84.0999 5.03374L83.0999 8.83375Z" fill="#282781"/>
<path d="M16.5 25.7338L15.7 29.6338H67.8L68.9 25.7338H16.5Z" fill="#F58220"/>
<path d="M16.5 25.6337L15.7 29.6337H6L6.7 25.6337H16.5Z" fill="#FDB933"/>
<path d="M6.7 25.6337L6 29.6337H0L0.9 25.6337H6.7Z" fill="#FFDE22"/>
</svg>
