<svg width="95" height="32" viewBox="0 0 95 32" fill="none" xmlns="http://www.w3.org/2000/svg">
<path d="M56.6001 23.6675H60.8001V24.8675H57.9001V26.2675H60.7001V27.4675H57.9001V29.5675H56.6001V23.6675Z" fill="#967859"/>
<path d="M62.1001 23.5675C62.4001 23.5675 62.8001 23.7675 62.8001 24.2675C62.8001 24.7675 62.5001 24.9675 62.1001 24.9675C61.8001 24.9675 61.4001 24.7675 61.4001 24.2675C61.4001 23.7675 61.8001 23.5675 62.1001 23.5675ZM62.7001 29.4675H61.5001V25.3675H62.7001V29.4675Z" fill="#967859"/>
<path d="M66.5001 27.2675C66.5001 26.6675 66.2001 26.2675 65.7001 26.2675C65.1001 26.2675 64.8001 26.7675 64.8001 27.2675V29.3675H63.6001V25.2675H64.7001V25.7675C65.1001 25.2675 65.5001 25.1675 66.0001 25.1675C66.9001 25.1675 67.8001 25.5675 67.8001 27.1675V29.3675H66.6001V27.2675H66.5001Z" fill="#967859"/>
<path d="M69.1001 23.5675C69.4001 23.5675 69.8001 23.7675 69.8001 24.2675C69.8001 24.7675 69.5001 24.9675 69.1001 24.9675C68.7001 24.9675 68.4001 24.7675 68.4001 24.2675C68.5001 23.7675 68.8001 23.5675 69.1001 23.5675ZM69.7001 29.4675H68.5001V25.3675H69.7001V29.4675Z" fill="#967859"/>
<path d="M72.2 26.2675C71.8 26.2675 71.6 26.3675 71.6 26.5675C71.6 26.7675 71.8 26.9675 72.2 26.9675C73 26.9675 74 27.1675 74 28.2675C74 28.8675 73.5 29.6675 72.2 29.6675C71.6 29.6675 71 29.5675 70.3 28.9675L70.8 28.1675C71.3 28.5675 71.8 28.6675 72.3 28.6675C72.6 28.6675 72.9 28.5675 72.9 28.3675C72.9 28.1675 72.8 28.0675 72.2 27.9675C71.4 27.9675 70.5 27.5675 70.5 26.6675C70.5 25.7675 71.4 25.3675 72.3 25.3675C72.9 25.3675 73.4 25.5675 73.9 25.8675L73.3 26.5675C72.9 26.3675 72.6 26.2675 72.2 26.2675Z" fill="#967859"/>
<path d="M75.8 25.8675C76.1 25.4675 76.6 25.2675 77 25.2675C78 25.2675 78.6 25.7675 78.6 27.2675V29.4675H77.4V27.2675C77.4 26.6675 77.1 26.3675 76.6 26.3675C76.1 26.3675 75.7 26.6675 75.7 27.3675V29.4675H74.5V23.6675H75.7V25.8675H75.8Z" fill="#967859"/>
<path d="M80.1001 23.5675C80.4001 23.5675 80.8001 23.7675 80.8001 24.2675C80.8001 24.7675 80.5001 24.9675 80.1001 24.9675C79.7001 24.9675 79.4001 24.7675 79.4001 24.2675C79.4001 23.7675 79.7001 23.5675 80.1001 23.5675ZM80.7001 29.4675H79.5001V25.3675H80.7001V29.4675Z" fill="#967859"/>
<path d="M84.5001 27.2675C84.5001 26.6675 84.2001 26.2675 83.7001 26.2675C83.1001 26.2675 82.8001 26.7675 82.8001 27.2675V29.3675H81.6001V25.2675H82.7001V25.7675C83.1001 25.2675 83.5001 25.1675 84.0001 25.1675C84.9001 25.1675 85.8001 25.5675 85.8001 27.1675V29.3675H84.6001V27.2675H84.5001Z" fill="#967859"/>
<path d="M88.5 30.8675C89 30.8675 89.5 30.6675 89.5 30.0675C89.5 29.6675 89.2 29.3675 88.5 29.3675C87.2 29.3675 86.3 28.5675 86.3 27.2675C86.3 25.8675 87.4 25.1675 88.5 25.1675C88.8 25.1675 89.2 25.1675 89.5 25.3675L89.9 24.7675L90.8 25.4675L90.3 26.0675C90.6 26.3675 90.7 26.7675 90.7 27.1675C90.7 27.7675 90.4 28.3675 89.8 28.6675C90.7 29.0675 90.7 29.7675 90.7 29.9675C90.7 31.1675 89.6 31.7675 88.5 31.7675C87.1 31.7675 86.3 31.0675 86.4 29.8675H87.5C87.5 30.6675 87.9 30.8675 88.5 30.8675ZM87.4 27.3675C87.4 27.9675 87.9 28.3675 88.5 28.3675C89 28.3675 89.5 28.0675 89.5 27.3675C89.5 26.7675 89.1 26.3675 88.5 26.3675C87.9 26.3675 87.4 26.6675 87.4 27.3675Z" fill="#967859"/>
<path fill-rule="evenodd" clip-rule="evenodd" d="M25.6 4.96753C17.2 4.96753 16 14.0676 16.1 15.2676C16.2 20.7676 21.5 20.4675 22.1 20.4675C30.8 20.4675 31.4 10.5676 31.3 10.2676C31.2 4.86755 26.1 4.96753 25.6 4.96753ZM22.5 16.8675C22.3 16.8675 20.4 16.5675 20.6 14.3675C20.7 13.4675 21.6 8.66755 25.1 8.66755C25.9 8.66755 27.1 9.06753 27.2 10.8675C27.2 11.1675 26.5 16.6675 22.5 16.8675Z" fill="#282781"/>
<path d="M65.5999 13.2676L64.8999 16.2676C64.8999 16.2676 63.7999 17.3675 62.2999 17.3675C61.8999 17.3675 60.5999 17.3676 60.5999 16.1676C60.4999 12.8676 65.5999 13.2676 65.5999 13.2676ZM66.2999 10.4675C66.2999 10.4675 62.6999 10.1675 59.7999 11.4675C57.5999 12.3675 55.8999 14.2676 55.8999 17.1676C55.8999 17.9676 56.8999 20.2675 59.9999 20.4675C60.0999 20.4675 62.6999 20.6676 64.0999 19.6676L63.8999 20.4675H68.2999C68.2999 20.4675 69.8999 14.6676 71.0999 8.76757C71.0999 8.56757 71.7999 4.66754 65.0999 4.86754C64.2999 4.86754 61.4999 4.86754 60.0999 4.86754L59.1999 8.56755H63.7999C67.2999 8.66755 66.5999 10.4675 66.2999 10.4675Z" fill="#282781"/>
<path d="M18.0001 4.96752L19.0001 0.767536C19.0001 0.767536 18.5001 0.767536 14.7001 0.767536C13.5001 0.767536 3.10012 -0.13247 2.30012 14.1675C2.30012 15.0675 2.20012 20.5675 9.60012 20.5675C10.2001 20.5675 13.4001 20.5675 14.2001 20.5675L15.3001 16.3675C15.3001 16.3675 14.2001 16.4675 11.6001 16.3675C8.90012 16.3675 6.70012 16.9675 7.00012 13.0675C7.10012 12.1675 8.20012 4.96752 14.0001 4.96752H18.0001Z" fill="#282781"/>
<path d="M30.3999 20.4675H34.9999C34.9999 20.4675 37.4999 10.2675 37.4999 9.96754C37.5999 9.66754 38.0999 8.56755 40.0999 8.56755C40.6999 8.56755 41.9999 8.76753 41.8999 10.3675C41.8999 10.8675 39.4999 20.4675 39.4999 20.4675H43.8999C43.8999 20.4675 46.3999 10.6675 46.4999 9.96754C46.4999 9.76754 47.5999 5.36754 43.2999 4.96754C42.7999 4.96754 41.3999 4.66756 38.5999 5.76756L38.7999 4.96754H34.3999L30.3999 20.4675Z" fill="#282781"/>
<path d="M86.3 2.5675H90.7L90.2 4.86749H91.8H94.4L94.1 5.9675L93.5 8.5675H89.8H89.1C89.1 8.5675 87.6 14.6675 87.6 14.8675C87.5 15.2675 87 16.7675 89 16.7675C89.8 16.7675 91.4 16.7675 91.4 16.7675L90.5 20.3675C90.5 20.3675 89 20.3675 87.2 20.3675C86.7 20.3675 82.4 20.5675 82.6 17.1675C82.9 16.5675 86.3 2.5675 86.3 2.5675Z" fill="#282781"/>
<path d="M50.0999 2.66754H54.4999L53.9999 4.96753H55.5999H58.1999L57.9999 6.06754L57.3999 8.66754H53.6999H52.9999C52.9999 8.66754 51.4999 14.7675 51.4999 14.9675C51.3999 15.3675 50.8999 16.8675 52.8999 16.8675C53.6999 16.8675 55.2999 16.8675 55.2999 16.8675L54.3999 20.4675C54.3999 20.4675 52.8999 20.4675 51.0999 20.4675C50.5999 20.4675 46.2999 20.6675 46.4999 17.2675C46.5999 16.5675 50.0999 2.66754 50.0999 2.66754Z" fill="#282781"/>
<path d="M83.0999 8.66756C83.0999 8.66756 83.2999 8.66756 80.2999 8.66756C75.6999 8.66756 75.2999 13.6676 75.2999 14.4676C75.2999 16.9676 77.2999 16.8675 78.1999 16.8675C81.0999 16.8675 81.1999 16.8675 81.1999 16.8675L80.2999 20.4676C79.5999 20.4676 77.8999 20.4676 76.9999 20.4676C70.4999 20.4676 70.5999 15.6676 70.5999 15.0676C71.5999 4.36756 80.6999 4.86754 80.9999 4.86754C84.0999 4.86754 84.0999 4.86754 84.0999 4.86754L83.0999 8.66756Z" fill="#282781"/>
<path d="M16.5 25.5675L15.7 29.4675H52.9L54.0999 25.5675H16.5Z" fill="#F58220"/>
<path d="M16.5 25.5675L15.7 29.4675H6L6.7 25.5675H16.5Z" fill="#FDB933"/>
<path d="M6.7 25.5675L6 29.4675H0L0.9 25.5675H6.7Z" fill="#FFDE22"/>
</svg>
