<svg width="135" height="41" viewBox="0 0 135 41" fill="none" xmlns="http://www.w3.org/2000/svg">
<path d="M97.8 32L96.1 38.8H79.6L81.3 32H97.8Z" fill="#E4862D"/>
<path d="M97.8 32L96.1 38.8H79.6L81.3 32H97.8Z" fill="#E4862D"/>
<path d="M71.1 0.599998H56.2L54.5 7.2H69.4L71.1 0.599998Z" fill="#131F6B"/>
<path d="M25.6 0.599998H11.3L9.59998 7.2H23.8L25.6 0.599998Z" fill="#131F6B"/>
<path d="M90.2 0.599998H82.3L80.6 7.2H88.5L90.2 0.599998Z" fill="#131F6B"/>
<path d="M88 10.3H81.6L79.6 18C79.1 20 78.6 22.6 72.6 22.6C69.7 22.6 68 21.9 67.2 20.5C66.6 19.3 67.2 17.8 67.3 17.2L69.1 10.3H61.8L60 17.2C59.9 17.4 59.9 17.6 59.9 17.8L60 18C59.4 20.2 59.7 22.4 55.5 22.4H47.2C46.8 18.1 42.7 14 40.4 11.4C39.8 10.7 39.1 9.9 38.5 9.2C45.2 5.7 49 7.3 49.1 7.2L50.8 0.299999C50.4 0.499999 42.4 0.300001 35.2 4.2C32.7 5.5 31.8 7.2 31.4 8.4C30.4 11.5 32.4 13.9 34.8 16.5C36.4 18.2 38.2 20.3 39 22.4H25.1C26.3 20.4 26.8 18.6 27 17.7L28.9 10.3H22.5L20.6 17.7C20.1 19.7 19.4 22.3 13.4 22.3C10.5 22.3 8.6 21.6 7.9 20.2C7.3 19 7.60001 17.5 7.80001 16.9L9.5 10.3H2.80001L1.10001 16.9C-0.299991 22.3 1.40001 28.6 10.8 29H51.3C55.6 29 59 28.2 61.8 26.1C63.5 28 66.4 29.4 70.9 29.4C76 29.4 80 27.8 82.9 24.7C85.3 22.1 85.9 19.3 86.2 18.1L88 10.3Z" fill="#131F6B"/>
<path d="M119.1 4.3C116.6 5.6 115.7 7.3 115.3 8.5C114.3 11.6 116.3 14 118.7 16.6C120.3 18.3 122.1 20.4 122.9 22.5H108.6L109.4 19.2C109.7 18.2 109.9 17.3 110 16.6V16.4C110.2 15.3 110.2 14.6 110.2 14.6C110.1 7.1 103.3 6.7 102 6.7H101.9C98.1999 6.7 95.1999 7.9 92.7999 10.3C88.8999 14.3 88.2 20.2 88.2 21.5C88.3 28.4 94.0999 29.2 96.5999 29.2H96.8999C97.7999 29.2 98.5999 29.1 99.3999 29C99.4999 29 99.6999 28.9 99.7999 28.9C99.9999 28.8 100.3 28.8 100.5 28.7L98.0999 38.8H104.8L107.1 29.1H128.8L129.7 25.6C131.3 19.2 127.3 14.7 124.3 11.4C123.7 10.7 123 9.9 122.5 9.2C129.2 5.7 133 7.3 133.1 7.2L134.8 0.299999C134.4 0.599999 126.3 0.399999 119.1 4.3ZM95.8999 22.5C95.3999 22 95.1999 21.2 95.2999 20.3C95.2999 20.2 96.2 12.6 101.2 12.6C101.8 12.6 103.7 12.8 103.7 15.2C103.7 16 102.5 23 97.4999 23.3C97.3999 23.3 96.4999 23.2 95.8999 22.5Z" fill="#131F6B"/>
<path d="M122 31.9V32L120.9 38.8H106.8L108.5 32V31.9H122Z" fill="#E8AC42"/>
<path d="M120.9 32L119.6 38.8H127.3L128.3 32H120.9Z" fill="#DFDA44"/>
<path d="M11.4 38.8H4.49997C2.29997 38.8 1.09998 37.8 1.09998 35.9V34.1H2.49997V35.9C2.49997 36.5 2.69998 36.9 3.09998 37.1C3.39998 37.3 3.89997 37.4 4.49997 37.4H7.69997C8.19997 37.4 8.39996 37.1 8.39996 36.4V34.1H9.79997V36.3C9.79997 36.7 9.69998 37 9.59998 37.3H11.3V38.8H11.4ZM6.29997 40.5H4.99997V39.3H6.29997V40.5ZM12.3 40.5H11V39.3H12.3V40.5ZM15.8 38.8H11.2V37.4H12.1C12.6 37.4 12.8 37.1 12.8 36.4V34.1H14.2V36.3C14.2 36.7 14.1 37 14 37.3H15.7V38.8H15.8ZM14.2 40.5H12.9V39.3H14.2V40.5ZM25.3 38.8H15.7V37.4H17.3V32.1H18.7L18.6 35.5C19.5 34.5 20.4 34.1 21.4 34.1C23.1 34.1 24 35.3 24.2 37.4H25.3V38.8ZM22.7 37.4C22.7 37.3 22.7 37.3 22.7 37.2C22.7 36.1 22.2 35.4 21.3 35.4C20.3 35.4 19.3 36.1 18.5 37.5H22.7V37.4ZM35.5 38.8H24.8V37.4H26.1C26.6 37.4 26.8 37.1 26.8 36.4V34.1H28.2V36.3C28.2 36.7 28.1 37 28 37.3H28.9C29.4 37.3 29.6 37 29.6 36.4V34H31V36.2C31 36.6 30.9 36.9 30.8 37.2H31.7C32.2 37.2 32.4 36.9 32.4 36.3V33.9H33.8V36.1C33.8 36.5 33.7 36.8 33.6 37.2H35.3V38.8H35.5ZM30.1 33.3H28.8V32.1H30.1V33.3ZM31 31.6H29.7V30.4H31V31.6ZM32 33.3H30.7V32.1H32V33.3ZM36.3 33.3H35V32.1H36.3V33.3ZM39.9 38.8H35.3V37.4H36.2C36.7 37.4 36.9 37.1 36.9 36.4V34.1H38.3V36.3C38.3 36.7 38.2 37 38.1 37.3H39.8V38.8H39.9ZM38.3 33.3H37V32.1H38.3V33.3ZM42.6 36.8C42.6 37.3 42.4 37.8 42.2 38.2C41.9 38.6 41.4 38.8 40.8 38.8H39.5V37.4H40.5C41 37.4 41.2 37.1 41.2 36.4V32.2H42.6V36.8ZM45.1 38.8H43.7V32.1H45.1V38.8ZM55.9 38.8H53.9C53.3 39.9 52.3 40.5 51.1 40.5C49.3 40.5 47.9 39 47.9 37V36H49.3V36.9C49.3 38.3 50 39.2 51.1 39.2C52.2 39.2 52.9 38.3 52.9 36.9V32.2H54.3V37.5H55.8V38.8H55.9ZM56.7 40.5H55.4V39.3H56.7V40.5ZM58.7 36.8C58.7 37.3 58.5 37.8 58.3 38.2C58 38.6 57.5 38.8 56.9 38.8H55.7V37.4H56.6C57.1 37.4 57.3 37.1 57.3 36.4V34.1H58.7V36.8ZM58.6 40.5H57.3V39.3H58.6V40.5ZM65.5 38.8H64.2C64 39.9 63.3 40.5 61.9 40.5H61.7V39.3H61.8C62.3 39.3 62.7 39.1 62.8 38.7C62.7 38.7 62.4 38.8 61.9 38.8C60.6 38.8 59.6 37.8 59.6 36.4C59.6 35 60.6 34.1 61.9 34.1C63.2 34.1 64.2 35.1 64.2 36.5V37.4H65.5V38.8ZM62.8 37.4V36.4C62.8 35.8 62.4 35.4 61.9 35.4C61.4 35.4 61.1 35.8 61.1 36.4C61.1 37 61.4 37.4 62 37.4H62.8ZM72.2 38.8H70.6C70.2 39.4 69.5 39.7 68.7 39.7C67.8 39.7 67.2 39.4 66.8 38.8H65.2V37.4H66.3C66.3 35.9 67.1 35 68.6 35C70.1 35 71 35.9 71 37.4H72.2V38.8ZM69.6 37.4C69.6 36.6 69.3 36.2 68.7 36.2H68.6C68.1 36.2 67.7 36.7 67.7 37.4C67.7 38.1 68 38.6 68.6 38.6C69.2 38.5 69.6 38.1 69.6 37.4ZM72.9 33.3H71.6V32.1H72.9V33.3ZM74.9 36.8C74.9 37.3 74.7 37.8 74.5 38.2C74.2 38.6 73.7 38.8 73.1 38.8H71.9V37.4H72.8C73.3 37.4 73.5 37.1 73.5 36.4V34.1H74.9V36.8ZM74.8 33.3H73.5V32.1H74.8V33.3Z" fill="#806F64"/>
</svg>
