<svg width="136" height="41" viewBox="0 0 136 41" fill="none" xmlns="http://www.w3.org/2000/svg">
<path d="M98.2 32.4L96.5 39.2H74.7L76.3 32.4H98.2Z" fill="#E4862D"/>
<path d="M98.2 32.4L96.5 39.2H74.7L76.3 32.4H98.2Z" fill="#E4862D"/>
<path d="M71.5 1H56.6L54.9 7.7H69.8L71.5 1Z" fill="#131F6B"/>
<path d="M25.9 1H11.7L9.90002 7.7H24.2L25.9 1Z" fill="#131F6B"/>
<path d="M90.6 1H82.7L81 7.7H88.9L90.6 1Z" fill="#131F6B"/>
<path d="M88.4 10.7H82L80 18.4C79.5 20.4 79 23 73 23C70.1 23 68.4 22.3 67.6 20.9C67 19.7 67.6 18.2 67.7 17.6L69.5 10.7H62.2L60.4 17.6C60.3 17.8 60.3 18 60.3 18.2L60.2 18.4C59.6 20.6 59.9 22.8 55.7 22.8H47.4C47 18.5 42.9 14.4 40.6 11.8C40 11.1 39.3 10.3 38.7 9.6C45.4 6.1 49.2 7.7 49.3 7.6L51 0.700001C50.6 0.900001 42.6 0.7 35.4 4.5C32.9 5.8 32 7.5 31.6 8.7C30.6 11.8 32.6 14.2 35 16.8C36.6 18.5 38.4 20.6 39.2 22.7H25.4C26.6 20.7 27.1 18.9 27.3 18L29.2 10.6H22.8L20.9 18C20.4 20 19.7 22.6 13.7 22.6C10.8 22.6 8.90001 21.9 8.20001 20.5C7.60001 19.3 7.9 17.8 8.1 17.2L9.8 10.6H3.1L1.40001 17.2C6.25849e-06 22.7 1.8 29 11.1 29.4H51.6C55.9 29.4 59.3 28.6 62.1 26.5C63.8 28.5 66.7 29.8 71.2 29.8C76.3 29.8 80.3 28.2 83.2 25.1C85.6 22.5 86.2 19.7 86.5 18.5L88.4 10.7Z" fill="#131F6B"/>
<path d="M119.5 4.7C117 6 116.1 7.7 115.7 8.9C114.7 12 116.7 14.4 119.1 17C120.7 18.7 122.5 20.8 123.3 22.9H109L109.8 19.6C110.1 18.6 110.3 17.7 110.4 17V16.8C110.6 15.7 110.6 15 110.6 15C110.5 7.5 103.7 7.1 102.4 7.1H102.3C98.6 7.1 95.6 8.3 93.2 10.7C89.3 14.7 88.6 20.6 88.6 21.9C88.7 28.8 94.5 29.6 97 29.6H97.3C98.2 29.6 99 29.5 99.8 29.4C99.9 29.4 100.1 29.3 100.2 29.3C100.4 29.2 100.7 29.2 100.9 29.1L98.5 39.2H105.2L107.5 29.5H129.2L130 26C131.6 19.6 127.6 15.1 124.6 11.8C124 11.1 123.3 10.3 122.8 9.6C129.5 6.1 133.3 7.7 133.4 7.6L135.1 0.700001C134.7 1 126.7 0.800001 119.5 4.7ZM96.3 22.9C95.8 22.4 95.6 21.6 95.7 20.7C95.7 20.6 96.6 13 101.6 13C102.2 13 104.1 13.2 104.1 15.6C104.1 16.4 102.9 23.4 97.9 23.7C97.8 23.8 96.9 23.6 96.3 22.9Z" fill="#131F6B"/>
<path d="M122.3 32.4L121.3 39.2H107.2L108.9 32.4H122.3Z" fill="#E8AC42"/>
<path d="M121.3 32.4L120 39.2H127.6L128.7 32.4H121.3Z" fill="#DFDA44"/>
<path d="M7.90002 39.1H6.50002C5.70002 39.1 5.10002 38.7 4.80002 37.8C4.50002 38.2 4.10002 38.4 3.40002 38.4C2.20002 38.4 1.40002 37.3 1.40002 35.9C1.40002 34.4 2.20002 33.4 3.50002 33.4C3.50002 33.4 4.40002 33.4 6.20002 33.4V36.6C6.20002 37.3 6.50002 37.7 7.20002 37.7H7.90002V39.1ZM3.70002 32.5H2.40002V31.3H3.70002V32.5ZM4.70002 35.9V34.5H3.80002C3.20002 34.5 2.80002 35.1 2.80002 36C2.80002 36.7 3.20002 37.3 3.80002 37.3C4.30002 37.3 4.70002 36.7 4.70002 35.9ZM5.60002 32.5H4.30002V31.3H5.60002V32.5ZM8.70002 40.8H7.40002V39.6H8.70002V40.8ZM12.2 39.1H7.60002V37.7H8.50002C9.00002 37.7 9.20002 37.4 9.20002 36.7V34.4H10.6V36.6C10.6 37 10.5 37.3 10.4 37.6H12.1V39.1H12.2ZM10.6 40.8H9.30002V39.6H10.6V40.8ZM16.6 39.1H12V37.7H12.9C13.4 37.7 13.6 37.4 13.6 36.7V34.4H15V36.6C15 37 14.9 37.3 14.8 37.6H16.5V39.1H16.6ZM15 33.7H13.7V32.5H15V33.7ZM17.4 40.8H16.1V39.6H17.4V40.8ZM21 39.1H16.4V37.7H17.3C17.8 37.7 18 37.4 18 36.7V34.4H19.4V36.6C19.4 37 19.3 37.3 19.2 37.6H21V39.1ZM19.3 40.8H18V39.6H19.3V40.8ZM26.8 37.7C26.8 39.1 25.9 40.1 24.5 40.1C23.6 40.1 23 39.8 22.6 39.2H20.8V37.8H22.2C22.2 36.3 23 35.4 24.5 35.4C26 35.4 26.8 36.3 26.8 37.7ZM25.4 37.7C25.4 36.9 25.1 36.5 24.5 36.5H24.4C23.9 36.5 23.5 37 23.5 37.7C23.5 38.4 23.8 38.9 24.5 38.9C25 38.8 25.4 38.4 25.4 37.7ZM29.4 31.9H27.6V31.4H28C28 31.3 28 31.2 28 31.1C28 30.6 28.3 30.3 28.8 30.3C29.1 30.3 29.3 30.5 29.5 30.8L28.9 31C28.9 30.9 28.8 30.8 28.7 30.8C28.5 30.8 28.5 30.9 28.5 31.1C28.5 31.3 28.6 31.4 28.6 31.4H29.4V31.9ZM30.9 39.1H29.6C28.5 39.1 27.9 38.5 27.9 37.4V32.4H29.3V36.6C29.3 37.3 29.5 37.7 30.5 37.7H30.9V39.1ZM31.7 33.7H30.4V32.5H31.7V33.7ZM33.7 37.1C33.7 37.6 33.5 38.1 33.3 38.5C33 38.9 32.5 39.1 31.9 39.1H30.7V37.7H31.6C32.1 37.7 32.3 37.4 32.3 36.7V34.4H33.7V37.1ZM33.6 33.7H32.3V32.5H33.6V33.7ZM43 39.1H41.6C40.8 39.1 40.2 38.7 39.9 37.8C39.6 38.2 39.2 38.4 38.5 38.4C37.3 38.4 36.5 37.3 36.5 35.9C36.5 34.4 37.3 33.4 38.6 33.4C38.6 33.4 39.5 33.4 41.3 33.4V36.6C41.3 37.3 41.6 37.7 42.3 37.7H43V39.1ZM38.8 32.5H37.5V31.3H38.8V32.5ZM39.8 35.9V34.5H38.9C38.3 34.5 37.9 35.1 37.9 36C37.9 36.7 38.3 37.3 38.9 37.3C39.4 37.3 39.8 36.7 39.8 35.9ZM40.7 32.5H39.4V31.3H40.7V32.5ZM51.2 39.1H42.3V37.7H44.4V32.4H45.8L45.7 35.8C46.6 34.8 47.5 34.4 48.5 34.4C50.3 34.4 51.3 35.8 51.3 38.1C51.3 38.5 51.3 38.8 51.2 39.1ZM49.8 37.7C49.8 37.6 49.8 37.6 49.8 37.5C49.8 36.4 49.3 35.7 48.4 35.7C47.4 35.7 46.4 36.4 45.6 37.8H49.8V37.7ZM55.4 39.1H54.1C53 39.1 52.4 38.5 52.4 37.4V32.4H53.8V36.6C53.8 37.3 54 37.7 55 37.7H55.4V39.1ZM55 39.1V37.7H56.3C56.6 37.7 56.8 37.5 57 37.2C57 37.1 57.1 36.9 57.1 36.7V34.4H58.5V36.6C58.5 37 58.4 37.3 58.3 37.6H59.2C59.7 37.6 59.9 37.3 59.9 36.7V34.3H61.3V36.5C61.3 36.9 61.2 37.2 61.1 37.5H62C62.5 37.5 62.7 37.2 62.7 36.6V34.2H64.1V36.4C64.1 37.2 63.9 37.8 63.4 38.3C63 38.7 62.5 38.8 62 38.8H55V39.1ZM69.7 38.9C69.7 40.2 68.9 40.8 67.4 40.8H67.3V39.6H67.4C68 39.6 68.5 39.2 68.5 38.6C68.3 38.9 68 39.1 67.5 39.1C66.2 39.1 65.2 38.1 65.2 36.7C65.2 35.3 66.2 34.3 67.5 34.3C68.8 34.3 69.8 35.3 69.8 36.7V38.9H69.7ZM68.3 36.8C68.3 36.2 67.9 35.7 67.4 35.7C66.9 35.7 66.6 36.1 66.6 36.7C66.6 37.3 66.9 37.8 67.5 37.8C68 37.8 68.3 37.4 68.3 36.8Z" fill="#64696D"/>
</svg>
