<svg width="95" height="31" viewBox="0 0 95 31" fill="none" xmlns="http://www.w3.org/2000/svg">
<path d="M26.8999 24.2112H27.8999V28.7112H26.8999V24.2112Z" fill="#6E6F72"/>
<path d="M31 27.1113C31 26.6113 30.7999 26.4113 30.2999 26.4113C29.8999 26.4113 29.6 26.8113 29.6 27.2113V28.9113H28.7V25.7113H29.5V26.1113C29.8 25.7113 30.1 25.6113 30.5 25.6113C31.2 25.6113 31.9 25.9113 31.9 27.2113V28.9113H31V27.1113Z" fill="#6E6F72"/>
<path d="M33.7998 26.3112C33.4998 26.3112 33.2998 26.4112 33.2998 26.6112C33.2998 26.8112 33.4998 26.9112 33.7998 26.9112C34.3998 26.9112 35.1998 27.0112 35.1998 27.9112C35.1998 28.4112 34.7998 29.0112 33.7998 29.0112C33.2998 29.0112 32.7998 28.9112 32.2998 28.5112L32.6998 27.9112C33.0998 28.2112 33.4998 28.3112 33.7998 28.3112C34.0998 28.3112 34.2998 28.2112 34.2998 28.0112C34.2998 27.9112 34.1998 27.7112 33.7998 27.7112C33.1998 27.7112 32.4998 27.4112 32.4998 26.7112C32.4998 26.0112 33.1998 25.7112 33.8998 25.7112C34.3998 25.7112 34.7998 25.8112 35.0998 26.1112L34.5998 26.7112C34.3998 26.3112 34.0998 26.3112 33.7998 26.3112Z" fill="#6E6F72"/>
<path d="M36.5999 27.3112C36.5999 27.8112 36.7999 28.0112 37.2999 28.0112C37.6999 28.0112 37.9999 27.6112 37.9999 27.2112V25.5112H38.8999V28.7112H37.9999V28.3112C37.6999 28.7112 37.3999 28.8112 36.9999 28.8112C36.2999 28.8112 35.5999 28.5112 35.5999 27.2112V25.5112H36.4999V27.3112H36.5999Z" fill="#6E6F72"/>
<path d="M40.5 25.9112C40.7 25.6112 41 25.5112 41.4 25.5112C41.7 25.5112 42 25.6112 42.2 25.8112L41.7999 26.5112C41.6999 26.4112 41.4999 26.3112 41.2999 26.3112C40.8999 26.3112 40.5999 26.6112 40.5999 27.0112V28.7112H39.7V25.5112H40.5999L40.5 25.9112Z" fill="#6E6F72"/>
<path d="M45.6999 25.6112V28.8112H44.8999L44.7999 28.4112C44.5999 28.8112 44.0999 28.9112 43.7999 28.9112C42.7999 28.9112 42.0999 28.3112 42.0999 27.2112C42.0999 26.2112 42.7999 25.5112 43.6999 25.5112C44.0999 25.5112 44.4999 25.6112 44.6999 25.9112V25.5112H45.6999V25.6112ZM43.0999 27.2112C43.0999 27.7112 43.4999 28.0112 43.8999 28.0112C44.3999 28.0112 44.7999 27.6112 44.7999 27.2112C44.7999 26.7112 44.4999 26.3112 43.8999 26.3112C43.4999 26.3112 43.0999 26.6112 43.0999 27.2112Z" fill="#6E6F72"/>
<path d="M48.6999 27.1113C48.6999 26.6113 48.4999 26.4113 47.9999 26.4113C47.5999 26.4113 47.2999 26.8113 47.2999 27.2113V28.9113H46.3999V25.7113H47.1999V26.1113C47.4999 25.7113 47.7999 25.6113 48.1999 25.6113C48.8999 25.6113 49.5999 25.9113 49.5999 27.2113V28.9113H48.6999V27.1113Z" fill="#6E6F72"/>
<path d="M51.8 28.9112C50.9 28.9112 50 28.4112 50 27.2112C50 26.1112 50.8 25.5112 51.7 25.5112C52.2 25.5112 52.5 25.6112 52.9 26.0112L52.4 26.6112C52.2 26.5112 52 26.4112 51.8 26.4112C51.3 26.4112 51 26.7112 51 27.2112C51 27.7112 51.4 28.0112 51.8 28.0112C52 28.0112 52.3 27.9112 52.4 27.8112L53 28.4112C52.7 28.8112 52.3 28.9112 51.8 28.9112Z" fill="#6E6F72"/>
<path d="M55.0999 28.1112C55.3999 28.1112 55.7 28.0112 55.9 27.8112L56.4 28.4112C56.1 28.7112 55.5 28.9112 55 28.9112C53.8 28.9112 53.2 28.2112 53.2 27.2112C53.2 26.2112 53.9 25.5112 54.9 25.5112C55.9 25.5112 56.5 26.0112 56.5 27.1112C56.5 27.2112 56.5 27.4112 56.5 27.5112H54.0999C54.2999 27.8112 54.5999 28.1112 55.0999 28.1112ZM55 26.3112C54.6 26.3112 54.3 26.5112 54.2 26.8112H55.7C55.7 26.5112 55.4 26.3112 55 26.3112Z" fill="#6E6F72"/>
<path d="M62.4 25.5113C62.4 25.9113 62.2 26.2113 61.8 26.4113C62.3 26.6113 62.5 27.0113 62.5 27.5113C62.5 27.6113 62.5 27.7113 62.5 27.7113C62.4 28.4113 61.8 28.8113 60.8 28.8113H58.5V24.3113H60.7C61.7 24.2113 62.4 24.6113 62.4 25.5113ZM60.8 26.0113C61.2 26.0113 61.4 25.8113 61.4 25.6113C61.4 25.3113 61.2 25.1113 60.8 25.1113H59.6V26.0113H60.8ZM60.8 27.9113C61.3 27.9113 61.5 27.7113 61.5 27.4113C61.5 27.1113 61.3 26.9113 60.8 26.9113H59.6V28.0113H60.8V27.9113Z" fill="#6E6F72"/>
<path d="M64 25.9112C64.2 25.6112 64.5 25.5112 64.9 25.5112C65.2 25.5112 65.4999 25.6112 65.6999 25.8112L65.3 26.5112C65.2 26.4112 65 26.3112 64.8 26.3112C64.4 26.3112 64.0999 26.6112 64.0999 27.0112V28.7112H63.2V25.5112H64.0999L64 25.9112Z" fill="#6E6F72"/>
<path d="M65.7 27.2112C65.7 26.2112 66.4 25.5112 67.5 25.5112C68.6 25.5112 69.3 26.2112 69.3 27.2112C69.3 28.2112 68.6 28.9112 67.5 28.9112C66.4 28.9112 65.7 28.2112 65.7 27.2112ZM68.3 27.2112C68.3 26.8112 68.1 26.4112 67.5 26.4112C66.9 26.4112 66.7 26.8112 66.7 27.2112C66.7 27.6112 66.9 28.1112 67.5 28.1112C68 28.0112 68.3 27.6112 68.3 27.2112Z" fill="#6E6F72"/>
<path d="M70.6 26.8112L71.5 25.6112H72.6V25.7112L71.4 27.1112L72.8 28.7112V28.8112H71.7L70.6 27.4112V28.8112H69.7V24.3112H70.6V26.8112Z" fill="#6E6F72"/>
<path d="M74.7999 28.1112C75.0999 28.1112 75.3999 28.0112 75.5999 27.8112L76.0999 28.4112C75.7999 28.7112 75.1999 28.9112 74.6999 28.9112C73.4999 28.9112 72.8999 28.2112 72.8999 27.2112C72.8999 26.2112 73.5999 25.5112 74.5999 25.5112C75.5999 25.5112 76.1999 26.0112 76.1999 27.1112C76.1999 27.2112 76.1999 27.4112 76.1999 27.5112H73.7999C73.8999 27.8112 74.1999 28.1112 74.7999 28.1112ZM74.6999 26.3112C74.2999 26.3112 73.9999 26.5112 73.8999 26.8112H75.3999C75.3999 26.5112 74.9999 26.3112 74.6999 26.3112Z" fill="#6E6F72"/>
<path d="M77.6999 25.9112C77.8999 25.6112 78.1999 25.5112 78.5999 25.5112C78.8999 25.5112 79.1999 25.6112 79.3999 25.8112L78.9999 26.5112C78.8999 26.4112 78.6999 26.3112 78.4999 26.3112C78.0999 26.3112 77.7999 26.6112 77.7999 27.0112V28.7112H76.8999V25.5112H77.7999L77.6999 25.9112Z" fill="#6E6F72"/>
<path d="M82.8998 25.6112V28.8112H82.0998L81.9998 28.4112C81.7998 28.8112 81.2998 28.9112 80.9998 28.9112C79.9998 28.9112 79.2998 28.3112 79.2998 27.2112C79.2998 26.2112 79.9998 25.5112 80.8998 25.5112C81.2998 25.5112 81.6998 25.6112 81.8998 25.9112V25.5112H82.8998V25.6112ZM80.2998 27.2112C80.2998 27.7112 80.6998 28.0112 81.0998 28.0112C81.5998 28.0112 81.9998 27.6112 81.9998 27.2112C81.9998 26.7112 81.6998 26.3112 81.0998 26.3112C80.6998 26.3112 80.2998 26.6112 80.2998 27.2112Z" fill="#6E6F72"/>
<path d="M85.0999 29.9112C85.4999 29.9112 85.8999 29.7112 85.8999 29.3112C85.8999 29.0112 85.6999 28.7112 85.0999 28.7112C83.9999 28.7112 83.3999 28.1112 83.3999 27.1112C83.3999 26.0112 84.1999 25.5112 85.0999 25.5112C85.2999 25.5112 85.5999 25.5112 85.8999 25.7112L86.2999 25.2112L86.9999 25.7112L86.5999 26.2112C86.7999 26.5112 86.8999 26.8112 86.8999 27.1112C86.8999 27.6112 86.6999 28.0112 86.1999 28.3112C86.8999 28.6112 86.8999 29.2112 86.8999 29.3112C86.8999 30.3112 85.9999 30.7112 85.1999 30.7112C84.0999 30.7112 83.4999 30.2112 83.4999 29.2112H84.3999C84.3999 29.7112 84.6999 29.9112 85.0999 29.9112ZM84.2999 27.1112C84.2999 27.6112 84.6999 27.9112 85.0999 27.9112C85.4999 27.9112 85.8999 27.6112 85.8999 27.1112C85.8999 26.7112 85.5999 26.3112 85.0999 26.3112C84.6999 26.3112 84.2999 26.6112 84.2999 27.1112Z" fill="#6E6F72"/>
<path d="M88.9999 28.1112C89.2999 28.1112 89.5999 28.0112 89.7999 27.8112L90.2999 28.4112C89.9999 28.7112 89.3999 28.9112 88.8999 28.9112C87.6999 28.9112 87.0999 28.2112 87.0999 27.2112C87.0999 26.2112 87.7999 25.5112 88.7999 25.5112C89.7999 25.5112 90.3999 26.0112 90.3999 27.1112C90.3999 27.2112 90.3999 27.4112 90.3999 27.5112H87.9999C88.1999 27.8112 88.4999 28.1112 88.9999 28.1112ZM88.8999 26.3112C88.4999 26.3112 88.1999 26.5112 88.0999 26.8112H89.5999C89.6999 26.5112 89.2999 26.3112 88.8999 26.3112Z" fill="#6E6F72"/>
<path fill-rule="evenodd" clip-rule="evenodd" d="M25.6 4.21125C17.2 4.21125 16 13.3112 16.1 14.5112C16.2 20.0112 21.5 19.7112 22.1 19.7112C30.8 19.7112 31.4 9.81125 31.3 9.51125C31.2 4.11125 26.1 4.21125 25.6 4.21125ZM22.5 16.2112C22.3 16.2112 20.4 15.9112 20.6 13.7112C20.7 12.8112 21.6 8.01125 25.1 8.01125C25.9 8.01125 27.1 8.41125 27.2 10.2112C27.2 10.4112 26.5 16.0112 22.5 16.2112Z" fill="#282781"/>
<path d="M65.5999 12.5112L64.8999 15.5112C64.8999 15.5112 63.7999 16.6112 62.2999 16.6112C61.8999 16.6112 60.5999 16.6112 60.5999 15.4112C60.4999 12.2112 65.5999 12.5112 65.5999 12.5112ZM66.2999 9.81123C66.2999 9.81123 62.6999 9.51123 59.7999 10.8112C57.5999 11.7112 55.8999 13.6112 55.8999 16.5112C55.8999 17.3112 56.8999 19.6112 59.9999 19.8112C60.0999 19.8112 62.6999 20.0112 64.0999 19.0112L63.8999 19.8112H68.2999C68.2999 19.8112 69.8999 14.0112 71.0999 8.11123C71.0999 7.91123 71.7999 4.01123 65.0999 4.21123C64.2999 4.21123 61.4999 4.21123 60.0999 4.21123L59.1999 7.91123H63.7999C67.2999 7.91123 66.5999 9.81123 66.2999 9.81123Z" fill="#282781"/>
<path d="M18.0001 4.21125L19.0001 0.0112496C19.0001 0.0112496 18.5001 0.0112496 14.7001 0.0112496C13.5001 0.0112496 3.10012 -0.888751 2.30012 13.4112C2.30012 14.3112 2.20012 19.8112 9.60012 19.8112C10.2001 19.8112 13.4001 19.8112 14.2001 19.8112L15.3001 15.6112C15.3001 15.6112 14.2001 15.7113 11.6001 15.6112C8.90012 15.6112 6.70012 16.2113 7.00012 12.3112C7.10012 11.4113 8.20012 4.21125 14.0001 4.21125H18.0001Z" fill="#282781"/>
<path d="M30.3999 19.8112H34.9999C34.9999 19.8112 37.4999 9.61124 37.4999 9.31123C37.4999 9.11124 37.9999 7.91124 39.9999 7.91124C40.5999 7.91124 41.8999 8.11123 41.7999 9.71123C41.7999 10.2112 39.3999 19.8112 39.3999 19.8112H43.7999C43.7999 19.8112 46.2999 10.0112 46.3999 9.31123C46.3999 9.11124 47.4999 4.71124 43.1999 4.31124C42.6999 4.31124 41.2999 4.01123 38.4999 5.11123L38.6999 4.31124H34.2999L30.3999 19.8112Z" fill="#282781"/>
<path d="M86.3 1.91125H90.7L90.2 4.21125H91.8H94.4L94.1 5.31125L93.5 7.91125H89.8H89.1C89.1 7.91125 87.6 14.0113 87.6 14.2113C87.5 14.6113 87 16.1113 89 16.1113C89.8 16.1113 91.4 16.1113 91.4 16.1113L90.5 19.7113C90.5 19.7113 89 19.7113 87.2 19.7113C86.7 19.7113 82.4 19.9113 82.6 16.5113C82.9 15.9113 86.3 1.91125 86.3 1.91125Z" fill="#282781"/>
<path d="M50.0999 1.91125H54.4999L53.9999 4.31125H55.5999H58.1999L57.9999 5.31125L57.2999 8.01125H53.5999H52.9999C52.9999 8.01125 51.4999 14.1113 51.4999 14.3113C51.3999 14.7113 50.8999 16.2113 52.8999 16.2113C53.6999 16.2113 55.2999 16.2113 55.2999 16.2113L54.3999 19.8113C54.3999 19.8113 52.8999 19.8113 51.0999 19.8113C50.5999 19.8113 46.2999 20.0113 46.4999 16.6113C46.5999 15.9113 50.0999 1.91125 50.0999 1.91125Z" fill="#282781"/>
<path d="M83.0999 7.91124C83.0999 7.91124 83.2999 7.91124 80.2999 7.91124C75.6999 7.91124 75.2999 12.9112 75.2999 13.7112C75.2999 16.2112 77.2999 16.1112 78.1999 16.1112C81.0999 16.1112 81.1999 16.1112 81.1999 16.1112L80.2999 19.7112C79.5999 19.7112 77.8999 19.7112 76.9999 19.7112C70.4999 19.7112 70.5999 14.9112 70.5999 14.3112C71.5999 3.71124 80.6999 4.21124 80.9999 4.21124C84.0999 4.21124 84.0999 4.21124 84.0999 4.21124L83.0999 7.91124Z" fill="#282781"/>
<path d="M12 24.8113L11.2 28.8113H24.1L25.2 24.8113H12Z" fill="#F58220"/>
<path d="M12 24.8113L11.2 28.8113H6L6.7 24.8113H12Z" fill="#FDB933"/>
<path d="M6.7 24.8113L6 28.8113H0L0.9 24.8113H6.7Z" fill="#FFDE22"/>
</svg>
