<svg width="135" height="41" viewBox="0 0 135 41" fill="none" xmlns="http://www.w3.org/2000/svg">
<path d="M97.8 31.8L96.1 38.6H63.4L65.1 31.8H97.8Z" fill="#E4862D"/>
<path d="M97.8 31.8L96.1 38.6H63.4L65.1 31.8H97.8Z" fill="#E4862D"/>
<path d="M71.1 0.399994H56.2L54.5 7.10001H69.4L71.1 0.399994Z" fill="#131F6B"/>
<path d="M25.6001 0.399994H11.3001L9.6001 7.10001H23.8001L25.6001 0.399994Z" fill="#131F6B"/>
<path d="M90.2001 0.399994H82.3001L80.6001 7.10001H88.5001L90.2001 0.399994Z" fill="#131F6B"/>
<path d="M88.0001 10.1H81.6001L79.6001 17.8C79.1001 19.8 78.6001 22.4 72.6001 22.4C69.7001 22.4 68.0001 21.7 67.2001 20.3C66.6001 19.1 67.2001 17.6 67.3001 17L69.1001 10.1H61.8001L60.0001 17C59.9001 17.2 59.9001 17.4 59.9001 17.6L59.8001 17.8C59.2001 20 59.5001 22.2 55.3001 22.2H47.0001C46.6001 17.9 42.5001 13.8 40.2001 11.2C39.6001 10.5 38.9001 9.7 38.3001 9C45.0001 5.5 48.8001 7.1 48.9001 7L50.6001 0.100006C50.2001 0.300006 42.2001 0.0999999 35.0001 4C32.5001 5.3 31.6001 7 31.2001 8.2C30.2001 11.3 32.2001 13.7 34.6001 16.3C36.2001 18 38.0001 20.1 38.8001 22.2H24.9001C26.1001 20.2 26.6001 18.4 26.8001 17.5L28.7001 10.1H22.3001L20.4001 17.5C19.9001 19.5 19.2001 22.1 13.2001 22.1C10.3001 22.1 8.40006 21.4 7.70006 20C7.10006 18.8 7.40007 17.3 7.60007 16.7L9.30007 10.1H2.60007L0.900056 16.7C-0.499944 22.1 1.20007 28.4 10.6001 28.8H51.1001C55.4001 28.8 58.8001 28 61.6001 25.9C63.3001 27.8 66.2001 29.2 70.7001 29.2C75.8001 29.2 79.8001 27.6 82.7001 24.5C85.1001 21.9 85.7001 19.1 86.0001 17.9L88.0001 10.1Z" fill="#131F6B"/>
<path d="M119.1 4.10001C116.6 5.40001 115.7 7.1 115.3 8.3C114.3 11.4 116.3 13.8 118.7 16.4C120.3 18.1 122.1 20.2 122.9 22.3H108.6L109.4 19C109.7 18 109.9 17.1 110 16.4V16.2C110.2 15.1 110.2 14.4 110.2 14.4C110.1 6.89999 103.3 6.5 102 6.5H101.9C98.2001 6.5 95.2 7.70001 92.8 10.1C88.9 14.1 88.2001 20 88.2001 21.3C88.3001 28.2 94.1001 29 96.6001 29H96.9001C97.8001 29 98.6001 28.9 99.4001 28.8C99.5001 28.8 99.7 28.7 99.8 28.7C100 28.6 100.3 28.6 100.5 28.5L98.1001 38.6H104.8L107.1 28.9H128.8L129.7 25.4C131.3 19 127.3 14.5 124.3 11.2C123.7 10.5 123 9.7 122.5 9C129.2 5.5 133 7.1 133.1 7L134.8 0.100006C134.4 0.400006 126.3 0.200006 119.1 4.10001ZM95.9001 22.4C95.4001 21.9 95.2 21.1 95.3 20.2C95.3 20.1 96.2001 12.5 101.2 12.5C101.8 12.5 103.7 12.7 103.7 15.1C103.7 15.9 102.5 22.9 97.5001 23.2C97.4001 23.2 96.5001 23 95.9001 22.4Z" fill="#131F6B"/>
<path d="M122 31.8L120.9 38.6H106.8L108.5 31.8H122Z" fill="#E8AC42"/>
<path d="M120.9 31.8L119.6 38.6H127.3L128.3 31.8H120.9Z" fill="#DFDA44"/>
<path d="M10.1001 38.6C9.20008 38.6 8.60007 38.4 8.20007 38C7.90007 39.4 6.40008 40.3 4.80008 40.3C2.80008 40.3 1.20007 38.8 1.20007 36.8V35.6H2.60008V36.7C2.60008 38.1 3.40008 39 4.80008 39C5.90008 39 6.90007 38.3 6.90007 37.3C6.90007 36.8 6.40008 36.4 6.00008 36.4C5.90008 36.4 5.80008 36.4 5.80008 36.4V35.1C5.80008 35.1 6.00007 35.1 6.40007 35.1C7.40007 35.1 8.20007 35.6 8.70007 36.5C8.90007 37 9.30007 37.1 9.90007 37.1H10.1001V38.6ZM14.5001 38.6H9.90007V37.2H10.9001C11.4001 37.2 11.6001 36.9 11.6001 36.2V32H13.0001V36.2C13.0001 36.6 12.9001 36.9 12.8001 37.2H14.5001V38.6ZM15.4001 40.4H14.1001V39.2H15.4001V40.4ZM17.4001 36.7C17.4001 37.2 17.2001 37.7 17.0001 38.1C16.7001 38.5 16.2001 38.7 15.6001 38.7H14.4001V37.3H15.3001C15.8001 37.3 16.0001 37 16.0001 36.3V34H17.4001V36.7ZM17.3001 40.4H16.0001V39.2H17.3001V40.4ZM24.2001 38.6H22.9001C22.7001 39.7 22.0001 40.3 20.6001 40.3H20.4001V39.1H20.5001C21.0001 39.1 21.4001 38.9 21.5001 38.5C21.4001 38.5 21.1001 38.6 20.6001 38.6C19.3001 38.6 18.3001 37.6 18.3001 36.2C18.3001 34.8 19.3001 33.9 20.6001 33.9C21.9001 33.9 22.9001 34.9 22.9001 36.3V37.2H24.2001V38.6ZM21.5001 37.3V36.3C21.5001 35.7 21.1001 35.3 20.6001 35.3C20.1001 35.3 19.8001 35.7 19.8001 36.3C19.8001 36.9 20.1001 37.3 20.7001 37.3H21.5001ZM30.9001 38.6H29.3001C28.9001 39.2 28.2001 39.5 27.4001 39.5C26.5001 39.5 25.9001 39.2 25.5001 38.6H23.9001V37.2H25.0001C25.0001 35.7 25.8001 34.8 27.3001 34.8C28.8001 34.8 29.7001 35.7 29.7001 37.2H30.9001V38.6ZM28.3001 37.2C28.3001 36.4 28.0001 36 27.4001 36H27.3001C26.8001 36 26.4001 36.5 26.4001 37.2C26.4001 37.9 26.7001 38.4 27.3001 38.4C27.9001 38.4 28.3001 37.9 28.3001 37.2ZM31.6001 33.2H30.3001V32H31.6001V33.2ZM33.6001 36.7C33.6001 37.2 33.4001 37.7 33.2001 38.1C32.9001 38.5 32.4001 38.7 31.8001 38.7H30.6001V37.3H31.5001C32.0001 37.3 32.2001 37 32.2001 36.3V34H33.6001V36.7ZM33.5001 33.2H32.2001V32H33.5001V33.2ZM40.9001 38.6H39.3001C39.1001 39.7 38.2001 40.3 36.5001 40.3V39.1C37.4001 39.1 37.9001 38.6 37.9001 37.7V34H39.3001V37.3H40.8001V38.6H40.9001ZM41.6001 40.4H40.3001V39.2H41.6001V40.4ZM45.1001 38.6H40.5001V37.2H41.4001C41.9001 37.2 42.1001 36.9 42.1001 36.2V34H43.5001V36.2C43.5001 36.6 43.4001 36.9 43.3001 37.2H45.0001V38.6H45.1001ZM43.5001 40.4H42.2001V39.2H43.5001V40.4ZM52.1001 38.6H44.8001V37.2H50.6001C50.5001 36 49.7001 35.1 48.5001 35.1C47.9001 35.1 47.2001 35.4 46.8001 35.8C46.7001 35.6 46.4001 35.3 46.1001 34.8C46.8001 34.1 47.6001 33.7 48.6001 33.7C50.9001 33.7 52.1001 35.3 52.1001 38V38.6ZM49.4001 40.4H48.1001V39.2H49.4001V40.4ZM54.8001 31.4H53.0001V30.9H53.4001C53.4001 30.8 53.4001 30.7 53.4001 30.6C53.4001 30.1 53.7001 29.8 54.2001 29.8C54.5001 29.8 54.7001 30 54.9001 30.3L54.4001 30.5C54.4001 30.4 54.3001 30.3 54.2001 30.3C54.0001 30.3 54.0001 30.4 54.0001 30.6C54.0001 30.8 54.1001 30.9 54.1001 30.9H54.9001V31.4H54.8001ZM56.2001 38.6H54.9001C53.8001 38.6 53.2001 38 53.2001 36.9V31.9H54.6001V36.1C54.6001 36.8 54.8001 37.2 55.8001 37.2H56.2001V38.6ZM57.0001 33.2H55.7001V32H57.0001V33.2ZM59.1001 36.7C59.1001 37.2 58.9001 37.7 58.7001 38.1C58.4001 38.5 57.9001 38.7 57.3001 38.7H56.0001V37.3H56.9001C57.4001 37.3 57.6001 37 57.6001 36.3V34H59.0001V36.7H59.1001ZM59.0001 33.2H57.7001V32H59.0001V33.2Z" fill="#4B000B"/>
</svg>
