<svg width="95" height="32" viewBox="0 0 95 32" fill="none" xmlns="http://www.w3.org/2000/svg">
<path d="M62.1999 28.3788H65.0999V29.5788H60.8999V23.7788H62.1999V28.3788Z" fill="#7A1315"/>
<path d="M67.6999 28.5789C67.9999 28.5789 68.4999 28.4788 68.7999 28.2788L69.4999 29.0789C69.0999 29.4789 68.3999 29.6788 67.6999 29.6788C66.1999 29.6788 65.3999 28.7789 65.3999 27.4789C65.3999 26.2789 66.1999 25.3788 67.5999 25.3788C68.7999 25.3788 69.6999 26.0788 69.6999 27.3788C69.6999 27.5788 69.6999 27.7789 69.6999 27.9789H66.6999C66.6999 28.2789 67.0999 28.5789 67.6999 28.5789ZM67.5999 26.3788C67.0999 26.3788 66.7999 26.5789 66.5999 27.0789H68.4999C68.4999 26.5789 68.0999 26.3788 67.5999 26.3788Z" fill="#7A1315"/>
<path d="M74.6 25.3788V29.4788H73.5L73.4 28.9788C73.1 29.4788 72.5 29.5788 72.1 29.5788C70.9 29.5788 70 28.7788 70 27.3788C70 26.0788 70.9 25.2788 72.1 25.2788C72.6 25.2788 73.1 25.4788 73.4 25.8788V25.3788H74.6ZM71.2 27.4788C71.2 28.1788 71.7 28.5788 72.3 28.5788C73 28.5788 73.4 28.0788 73.4 27.5788C73.4 26.9788 73 26.4788 72.3 26.4788C71.7 26.3788 71.2 26.7788 71.2 27.4788Z" fill="#7A1315"/>
<path d="M76.9999 26.2788C76.5999 26.2788 76.3999 26.3789 76.3999 26.5789C76.3999 26.7789 76.5999 26.9789 76.9999 26.9789C77.7999 26.9789 78.7999 27.1788 78.7999 28.2788C78.7999 28.8788 78.2999 29.6788 76.9999 29.6788C76.3999 29.6788 75.7999 29.5789 75.0999 28.9789L75.5999 28.1788C76.0999 28.5788 76.5999 28.6788 77.0999 28.6788C77.3999 28.6788 77.6999 28.5788 77.6999 28.3788C77.6999 28.1788 77.5999 28.0789 76.9999 27.9789C76.1999 27.9789 75.2999 27.6788 75.2999 26.6788C75.2999 25.7788 76.1999 25.3788 77.0999 25.3788C77.6999 25.3788 78.1999 25.5788 78.6999 25.8788L78.0999 26.5789C77.6999 26.3789 77.3999 26.2788 76.9999 26.2788Z" fill="#7A1315"/>
<path d="M79.9998 23.6788C80.2998 23.6788 80.6998 23.8788 80.6998 24.3788C80.6998 24.8788 80.3998 25.0789 79.9998 25.0789C79.5998 25.0789 79.2998 24.8788 79.2998 24.3788C79.2998 23.8788 79.6998 23.6788 79.9998 23.6788ZM80.5998 29.4789H79.3998V25.3788H80.5998V29.4789Z" fill="#7A1315"/>
<path d="M84.4 27.3788C84.4 26.7788 84.1 26.3788 83.6 26.3788C83 26.3788 82.7 26.8788 82.7 27.3788V29.4788H81.5V25.3788H82.6V25.8788C83 25.3788 83.4 25.2788 83.9 25.2788C84.8 25.2788 85.7 25.6788 85.7 27.2788V29.4788H84.5V27.3788H84.4Z" fill="#7A1315"/>
<path d="M88.4 30.9789C88.9 30.9789 89.4 30.6788 89.4 30.1788C89.4 29.7788 89.1 29.4789 88.4 29.4789C87.1 29.4789 86.2 28.6788 86.2 27.3788C86.2 25.9788 87.3 25.2788 88.4 25.2788C88.7 25.2788 89.1 25.2789 89.4 25.4789L89.8 24.8788L90.7 25.5789L90.2 26.1788C90.5 26.4788 90.6 26.8788 90.6 27.2788C90.6 27.8788 90.3 28.4788 89.7 28.7788C90.6 29.1788 90.6 29.8789 90.6 30.0789C90.6 31.2789 89.5 31.8788 88.4 31.8788C87 31.8788 86.2 31.1789 86.3 29.9789H87.4C87.4 30.7789 87.8 30.9789 88.4 30.9789ZM87.3 27.3788C87.3 27.9788 87.8 28.3788 88.4 28.3788C88.9 28.3788 89.4 28.0788 89.4 27.3788C89.4 26.7788 89 26.3788 88.4 26.3788C87.8 26.3788 87.3 26.7788 87.3 27.3788Z" fill="#7A1315"/>
<path fill-rule="evenodd" clip-rule="evenodd" d="M25.6 4.97889C17.2 4.97889 16 14.0789 16.1 15.2789C16.2 20.7789 21.5 20.4789 22.1 20.4789C30.8 20.4789 31.4 10.5789 31.3 10.2789C31.2 4.87888 26.1 4.97889 25.6 4.97889ZM22.5 16.9789C22.3 16.9789 20.4 16.6789 20.6 14.4789C20.7 13.5789 21.6 8.77888 25.1 8.77888C25.9 8.77888 27.1 9.17889 27.2 10.9789C27.2 11.1789 26.5 16.7789 22.5 16.9789Z" fill="#282781"/>
<path d="M65.5999 13.2789L64.8999 16.2789C64.8999 16.2789 63.7999 17.3789 62.2999 17.3789C61.8999 17.3789 60.5999 17.3789 60.5999 16.1789C60.4999 12.8789 65.5999 13.2789 65.5999 13.2789ZM66.2999 10.5789C66.2999 10.5789 62.6999 10.2789 59.7999 11.5789C57.5999 12.4789 55.8999 14.3789 55.8999 17.2789C55.8999 18.0789 56.8999 20.3789 59.9999 20.5789C60.0999 20.5789 62.6999 20.7789 64.0999 19.7789L63.8999 20.5789H68.2999C68.2999 20.5789 69.8999 14.7789 71.0999 8.87886C71.0999 8.67886 71.7999 4.77887 65.0999 4.97887C64.2999 4.97887 61.4999 4.97887 60.0999 4.97887L59.1999 8.67885H63.7999C67.2999 8.67885 66.5999 10.5789 66.2999 10.5789Z" fill="#282781"/>
<path d="M18.0001 4.97884L19.0001 0.778828C19.0001 0.778828 18.5001 0.778828 14.7001 0.778828C13.5001 0.778828 3.10012 -0.121179 2.30012 14.1788C2.30012 15.0788 2.20012 20.5788 9.60012 20.5788C10.2001 20.5788 13.4001 20.5788 14.2001 20.5788L15.3001 16.3788C15.3001 16.3788 14.2001 16.4788 11.6001 16.3788C8.90012 16.3788 6.70012 16.9788 7.00012 13.0788C7.10012 12.1788 8.20012 4.97884 14.0001 4.97884H18.0001Z" fill="#282781"/>
<path d="M30.3999 20.4788H34.9999C34.9999 20.4788 37.4999 10.2788 37.4999 9.97884C37.5999 9.67884 38.0999 8.57885 40.0999 8.57885C40.6999 8.57885 41.9999 8.77883 41.8999 10.3788C41.8999 10.8788 39.4999 20.4788 39.4999 20.4788H43.8999C43.8999 20.4788 46.3999 10.6788 46.4999 9.97884C46.4999 9.77884 47.5999 5.37884 43.2999 4.97884C42.7999 4.97884 41.3999 4.67883 38.5999 5.77883L38.7999 4.97884H34.3999L30.3999 20.4788Z" fill="#282781"/>
<path d="M86.3 2.67883H90.7L90.2 4.97885H91.8H94.4L94.1 6.07886L93.5 8.67883H89.8H89.1C89.1 8.67883 87.6 14.7789 87.6 14.9789C87.5 15.3789 87 16.8788 89 16.8788C89.8 16.8788 91.4 16.8788 91.4 16.8788L90.5 20.4789C90.5 20.4789 89 20.4789 87.2 20.4789C86.7 20.4789 82.4 20.6788 82.6 17.2788C82.9 16.5788 86.3 2.67883 86.3 2.67883Z" fill="#282781"/>
<path d="M50.0999 2.67883H54.4999L53.9999 4.97885H55.5999H58.1999L57.8999 6.07886L57.2999 8.67883H53.5999H52.9999C52.9999 8.67883 51.4999 14.7789 51.4999 14.9789C51.3999 15.3789 50.8999 16.8788 52.8999 16.8788C53.6999 16.8788 55.2999 16.8788 55.2999 16.8788L54.3999 20.4789C54.3999 20.4789 52.8999 20.4789 51.0999 20.4789C50.5999 20.4789 46.2999 20.6788 46.4999 17.2788C46.5999 16.6788 50.0999 2.67883 50.0999 2.67883Z" fill="#282781"/>
<path d="M83.0999 8.67882C83.0999 8.67882 83.2999 8.67882 80.2999 8.67882C75.6999 8.67882 75.2999 13.6788 75.2999 14.4788C75.2999 16.9788 77.2999 16.8788 78.1999 16.8788C81.0999 16.8788 81.1999 16.8788 81.1999 16.8788L80.2999 20.4788C79.5999 20.4788 77.8999 20.4788 76.9999 20.4788C70.4999 20.4788 70.5999 15.6788 70.5999 15.0788C71.5999 4.37885 80.6999 4.87884 80.9999 4.87884C84.0999 4.87884 84.0999 4.87884 84.0999 4.87884L83.0999 8.67882Z" fill="#282781"/>
<path d="M16.5 25.5789L15.7 29.4789H57.2999L58.4 25.5789H16.5Z" fill="#F58220"/>
<path d="M16.5 25.5789L15.7 29.4789H6L6.7 25.5789H16.5Z" fill="#FDB933"/>
<path d="M6.7 25.5789L6 29.4789H0L0.9 25.5789H6.7Z" fill="#FFDE22"/>
</svg>
