<svg width="31" height="31" viewBox="0 0 31 31" fill="none" xmlns="http://www.w3.org/2000/svg">
<path d="M21.9868 29.2239H2.64724C1.43588 29.2239 0.453857 28.2418 0.453857 27.0305V2.64798C0.453857 1.43661 1.43588 0.45459 2.64724 0.45459H21.9868C23.1981 0.45459 24.1801 1.43661 24.1801 2.64798V27.0305C24.1801 28.2418 23.1981 29.2239 21.9868 29.2239Z" fill="#8C9BA6"/>
<path d="M21.9868 0.454102H18.2685C19.4799 0.454102 20.4619 1.43612 20.4619 2.64749V27.03C20.4619 28.2414 19.4799 29.2234 18.2685 29.2234H21.9868C23.1981 29.2234 24.1802 28.2414 24.1802 27.03V2.64749C24.1802 1.43612 23.1981 0.454102 21.9868 0.454102Z" fill="#7C8B96"/>
<path d="M2.90979 7.95691V3.39083C2.90979 3.18871 3.0736 3.0249 3.27572 3.0249H21.3582C21.5604 3.0249 21.7242 3.18871 21.7242 3.39083V7.95697C21.7242 8.15908 21.5604 8.32289 21.3582 8.32289H3.27572C3.0736 8.32283 2.90979 8.15902 2.90979 7.95691Z" fill="#DDEAFB"/>
<path d="M21.3582 3.0249H17.64C17.8421 3.0249 18.0059 3.18871 18.0059 3.39083V7.95697C18.0059 8.15908 17.8421 8.32289 17.64 8.32289H21.3582C21.5603 8.32289 21.7242 8.15908 21.7242 7.95697V3.39083C21.7242 3.18871 21.5603 3.0249 21.3582 3.0249Z" fill="#BED8FB"/>
<path d="M5.6059 14.2354H3.36271C3.20102 14.2354 3.06995 14.1043 3.06995 13.9426V11.6995C3.06995 11.5378 3.20102 11.4067 3.36271 11.4067H5.6059C5.76759 11.4067 5.89867 11.5378 5.89867 11.6995V13.9426C5.89867 14.1043 5.76759 14.2354 5.6059 14.2354Z" fill="#DAE4EA"/>
<path d="M10.8277 14.2349H8.58458C8.42288 14.2349 8.29181 14.1038 8.29181 13.9421V11.699C8.29181 11.5373 8.42288 11.4062 8.58458 11.4062H10.8277C10.9894 11.4062 11.1205 11.5373 11.1205 11.699V13.9421C11.1205 14.1038 10.9894 14.2349 10.8277 14.2349Z" fill="#DAE4EA"/>
<path d="M16.0494 14.2349H13.8063C13.6446 14.2349 13.5135 14.1038 13.5135 13.9421V11.699C13.5135 11.5373 13.6446 11.4062 13.8063 11.4062H16.0494C16.2111 11.4062 16.3422 11.5373 16.3422 11.699V13.9421C16.3423 14.1038 16.2112 14.2349 16.0494 14.2349Z" fill="#DAE4EA"/>
<path d="M21.2712 14.2349H19.0281C18.8664 14.2349 18.7354 14.1038 18.7354 13.9421V11.699C18.7354 11.5373 18.8664 11.4062 19.0281 11.4062H21.2712C21.4329 11.4062 21.564 11.5373 21.564 11.699V13.9421C21.5641 14.1038 21.4329 14.2349 21.2712 14.2349Z" fill="#DAE4EA"/>
<path d="M5.6059 19.7598H3.36271C3.20102 19.7598 3.06995 19.6287 3.06995 19.467V17.2239C3.06995 17.0622 3.20102 16.9312 3.36271 16.9312H5.6059C5.76759 16.9312 5.89867 17.0622 5.89867 17.2239V19.467C5.89867 19.6287 5.76759 19.7598 5.6059 19.7598Z" fill="#DAE4EA"/>
<path d="M10.8277 19.7593H8.58458C8.42288 19.7593 8.29181 19.6283 8.29181 19.4666V17.2234C8.29181 17.0617 8.42288 16.9307 8.58458 16.9307H10.8277C10.9894 16.9307 11.1205 17.0617 11.1205 17.2234V19.4666C11.1205 19.6283 10.9894 19.7593 10.8277 19.7593Z" fill="#DAE4EA"/>
<path d="M16.0494 19.7593H13.8063C13.6446 19.7593 13.5135 19.6283 13.5135 19.4666V17.2234C13.5135 17.0617 13.6446 16.9307 13.8063 16.9307H16.0494C16.2111 16.9307 16.3422 17.0617 16.3422 17.2234V19.4666C16.3423 19.6283 16.2112 19.7593 16.0494 19.7593Z" fill="#DAE4EA"/>
<path d="M5.6059 25.2837H3.36271C3.20102 25.2837 3.06995 25.1527 3.06995 24.991V22.7478C3.06995 22.5862 3.20102 22.4551 3.36271 22.4551H5.6059C5.76759 22.4551 5.89867 22.5862 5.89867 22.7478V24.991C5.89867 25.1527 5.76759 25.2837 5.6059 25.2837Z" fill="#DAE4EA"/>
<path d="M10.8277 25.2833H8.58458C8.42288 25.2833 8.29181 25.1522 8.29181 24.9905V22.7474C8.29181 22.5857 8.42288 22.4546 8.58458 22.4546H10.8277C10.9894 22.4546 11.1205 22.5857 11.1205 22.7474V24.9905C11.1205 25.1522 10.9894 25.2833 10.8277 25.2833Z" fill="#DAE4EA"/>
<path d="M16.0494 25.2833H13.8063C13.6446 25.2833 13.5135 25.1522 13.5135 24.9905V22.7474C13.5135 22.5857 13.6446 22.4546 13.8063 22.4546H16.0494C16.2111 22.4546 16.3422 22.5857 16.3422 22.7474V24.9905C16.3423 25.1522 16.2112 25.2833 16.0494 25.2833Z" fill="#DAE4EA"/>
<path d="M22.6245 30.5294C26.7059 30.5294 30.0146 27.2207 30.0146 23.1392C30.0146 19.0577 26.7059 15.749 22.6245 15.749C18.543 15.749 15.2343 19.0577 15.2343 23.1392C15.2343 27.2207 18.543 30.5294 22.6245 30.5294Z" fill="#EAB14D"/>
<path d="M22.6245 28.7072C25.6996 28.7072 28.1924 26.2143 28.1924 23.1392C28.1924 20.0641 25.6996 17.5713 22.6245 17.5713C19.5494 17.5713 17.0565 20.0641 17.0565 23.1392C17.0565 26.2143 19.5494 28.7072 22.6245 28.7072Z" fill="#FBE77B"/>
<path d="M22.6244 17.5713C21.9729 17.5713 21.3477 17.6835 20.7666 17.8892C22.9281 18.6542 24.4767 20.7157 24.4767 23.1392C24.4767 25.5628 22.9281 27.6243 20.7666 28.3892C21.3477 28.5949 21.9729 28.7072 22.6244 28.7072C25.6995 28.7072 28.1924 26.2143 28.1924 23.1392C28.1924 20.0642 25.6995 17.5713 22.6244 17.5713Z" fill="#FFD064"/>
<path d="M23.4759 22.6715C23.331 22.6233 23.1827 22.5726 23.0349 22.5199V20.3551C23.4336 20.4344 23.6715 20.6252 23.6914 20.6416C23.8807 20.8033 24.1652 20.7823 24.3287 20.5941C24.493 20.4048 24.4729 20.1182 24.2837 19.9539C24.2563 19.9302 23.7923 19.537 23.035 19.4364V19.2575C23.035 19.0069 22.8318 18.8037 22.5812 18.8037C22.3306 18.8037 22.1274 19.0069 22.1274 19.2575V19.4693C22.0507 19.4847 21.9726 19.503 21.8929 19.5256C21.1952 19.7236 20.6806 20.2931 20.5498 21.0119C20.4344 21.6464 20.6542 22.2558 21.1233 22.6023C21.3767 22.7895 21.6929 22.961 22.1274 23.1426V25.8795C21.7247 25.8564 21.4579 25.7716 21.0104 25.4959C20.7969 25.3644 20.5174 25.431 20.386 25.6443C20.2545 25.8577 20.3209 26.1373 20.5344 26.2687C21.155 26.6511 21.5763 26.7609 22.1274 26.7873V27.021C22.1274 27.2716 22.3306 27.4747 22.5812 27.4747C22.8318 27.4747 23.035 27.2715 23.035 27.021V26.7527C24.1002 26.5583 24.7727 25.7143 24.9049 24.8825C25.0638 23.8813 24.503 23.0134 23.4759 22.6715ZM21.6624 21.8722C21.4371 21.7058 21.4012 21.4026 21.4427 21.1743C21.4957 20.883 21.7036 20.5295 22.1273 20.4032V22.1467C21.951 22.0597 21.7923 21.9682 21.6624 21.8722ZM24.0083 24.7401C23.9381 25.1824 23.6093 25.6532 23.0348 25.8221V23.4806C23.0854 23.4978 23.1363 23.5151 23.1892 23.5327C23.7904 23.7329 24.0967 24.1842 24.0083 24.7401Z" fill="black"/>
<path d="M22.178 3.39052C22.178 2.93848 21.8102 2.5708 21.3582 2.5708H3.27565C2.82368 2.5708 2.45593 2.93854 2.45593 3.39052V4.61363C2.45593 4.86428 2.65914 5.06742 2.90973 5.06742C3.16031 5.06742 3.36352 4.86422 3.36352 4.61363V3.47839H21.2702V7.86867H3.36358V6.73543C3.36358 6.48478 3.16037 6.28163 2.90979 6.28163C2.6592 6.28163 2.45599 6.48484 2.45599 6.73543V7.9566C2.45599 8.40858 2.82374 8.77632 3.27571 8.77632H21.3582C21.8103 8.77632 22.178 8.40858 22.178 7.9566V3.39052Z" fill="black"/>
<path d="M6.35246 11.6987C6.35246 11.287 6.01751 10.9521 5.6059 10.9521H3.36271C2.95103 10.9521 2.61615 11.2871 2.61615 11.6987V13.9418C2.61615 14.3535 2.95109 14.6885 3.36271 14.6885H5.6059C6.01757 14.6885 6.35246 14.3535 6.35246 13.9418V11.6987ZM5.44481 13.7808H3.52374V11.8597H5.44481V13.7808Z" fill="black"/>
<path d="M11.5743 11.6987C11.5743 11.287 11.2393 10.9521 10.8276 10.9521H8.58451C8.17284 10.9521 7.83795 11.2871 7.83795 11.6987V13.9418C7.83795 14.3535 8.1729 14.6885 8.58451 14.6885H10.8276C11.2393 14.6885 11.5743 14.3535 11.5743 13.9418V11.6987ZM10.6666 13.7808H8.74554V11.8597H10.6666V13.7808Z" fill="black"/>
<path d="M13.8063 10.9521C13.3946 10.9521 13.0597 11.2871 13.0597 11.6987V13.9418C13.0597 14.3535 13.3946 14.6885 13.8063 14.6885H16.0494C16.4611 14.6885 16.796 14.3535 16.796 13.9418V11.6987C16.796 11.287 16.4611 10.9521 16.0494 10.9521H13.8063ZM15.8884 13.7808H13.9673V11.8597H15.8884V13.7808Z" fill="black"/>
<path d="M21.2713 10.9521H19.0281C18.6164 10.9521 18.2816 11.2871 18.2816 11.6987V13.9418C18.2816 14.3535 18.6165 14.6885 19.0281 14.6885H21.2713C21.683 14.6885 22.0179 14.3535 22.0179 13.9418V11.6987C22.0179 11.287 21.6829 10.9521 21.2713 10.9521ZM21.1102 13.7808H19.1891V11.8597H21.1102V13.7808Z" fill="black"/>
<path d="M6.35246 17.2226C6.35246 16.811 6.01751 16.4761 5.6059 16.4761H3.36271C2.95103 16.4761 2.61615 16.811 2.61615 17.2226V19.4658C2.61615 19.8774 2.95109 20.2124 3.36271 20.2124H5.6059C6.01757 20.2124 6.35246 19.8774 6.35246 19.4658V17.2226ZM5.44481 19.3047H3.52374V17.3837H5.44481V19.3047Z" fill="black"/>
<path d="M11.5743 17.2226C11.5743 16.811 11.2393 16.4761 10.8276 16.4761H8.58451C8.17284 16.4761 7.83795 16.811 7.83795 17.2226V19.4658C7.83795 19.8774 8.1729 20.2124 8.58451 20.2124H10.8276C11.2393 20.2124 11.5743 19.8774 11.5743 19.4658V17.2226ZM10.6666 19.3047H8.74554V17.3837H10.6666V19.3047Z" fill="black"/>
<path d="M10.8276 22.0005H8.58451C8.17284 22.0005 7.83795 22.3354 7.83795 22.747V24.9902C7.83795 25.4019 8.1729 25.7368 8.58451 25.7368H10.8276C11.2393 25.7368 11.5743 25.4019 11.5743 24.9902V22.747C11.5743 22.3354 11.2393 22.0005 10.8276 22.0005ZM10.6666 24.8292H8.74554V22.9081H10.6666V24.8292Z" fill="black"/>
<path d="M22.6245 15.2944C20.3134 15.2944 18.2328 16.2993 16.7961 17.8947V17.2224C16.7961 16.8107 16.4611 16.4758 16.0495 16.4758H13.8064C13.3947 16.4758 13.0598 16.8107 13.0598 17.2224V19.4655C13.0598 19.8772 13.3947 20.2121 13.8064 20.2121H15.3471C15.1186 20.7785 14.9543 21.3775 14.8634 21.9999H13.8064C13.3947 21.9999 13.0598 22.3349 13.0598 22.7465V24.9897C13.0598 25.4013 13.3947 25.7362 13.8064 25.7362H15.2232C16.2977 28.7885 19.2094 30.9825 22.6245 30.9825C26.9497 30.9825 30.4685 27.4637 30.4685 23.1384C30.4685 18.8132 26.9497 15.2944 22.6245 15.2944ZM13.9673 19.3045V17.3834H15.8884V19.1235C15.8527 19.1833 15.8177 19.2437 15.7835 19.3045H13.9673ZM13.9673 24.8287V22.9076H14.7841C14.7819 22.9843 14.7805 23.0612 14.7805 23.1385C14.7805 23.7186 14.8444 24.2841 14.9644 24.8287H13.9673ZM22.6245 30.0748C18.7997 30.0748 15.6881 26.9631 15.6881 23.1384C15.6881 19.3137 18.7997 16.202 22.6245 16.202C26.4492 16.202 29.5609 19.3137 29.5609 23.1384C29.5609 26.9631 26.4492 30.0748 22.6245 30.0748Z" fill="black"/>
<path d="M22.6245 17.1172C19.3041 17.1172 16.6027 19.8185 16.6027 23.1389C16.6027 26.4593 19.3041 29.1607 22.6245 29.1607C25.9449 29.1607 28.6462 26.4593 28.6462 23.1389C28.6462 19.8185 25.9449 17.1172 22.6245 17.1172ZM22.6245 28.2531C19.8045 28.2531 17.5103 25.9589 17.5103 23.1389C17.5103 20.319 19.8045 18.0248 22.6245 18.0248C25.4444 18.0248 27.7386 20.319 27.7386 23.1389C27.7386 25.9589 25.4444 28.2531 22.6245 28.2531Z" fill="black"/>
<path d="M5.6059 22.0005H3.36271C2.95103 22.0005 2.61615 22.3354 2.61615 22.747V24.9902C2.61615 25.4019 2.95109 25.7368 3.36271 25.7368H5.6059C6.01757 25.7368 6.35246 25.4019 6.35246 24.9902V22.747C6.35246 22.3354 6.01751 22.0005 5.6059 22.0005ZM5.44481 24.8292H3.52374V22.9081H5.44481V24.8292Z" fill="black"/>
<path d="M16.0473 28.7693H2.64724C1.68803 28.7693 0.907648 27.9889 0.907648 27.0297V2.64718C0.907648 1.68797 1.68803 0.907587 2.64724 0.907587H21.9868C22.946 0.907587 23.7264 1.68797 23.7264 2.64718V13.7849C23.7264 14.0356 23.9296 14.2387 24.1802 14.2387C24.4308 14.2387 24.634 14.0355 24.634 13.7849V2.64718C24.634 1.18752 23.4465 0 21.9868 0H2.64724C1.18752 0 0 1.18752 0 2.64718V27.0297C0 28.4895 1.18752 29.677 2.64718 29.677H16.0473C16.298 29.677 16.5011 29.4738 16.5011 29.2232C16.5011 28.9726 16.298 28.7693 16.0473 28.7693Z" fill="black"/>
</svg>
