<svg width="28" height="28" viewBox="0 0 28 28" fill="none" xmlns="http://www.w3.org/2000/svg">
<path d="M15.3333 9.99984H12.6666V7.33317H15.3333V9.99984ZM15.3333 20.6665H12.6666V12.6665H15.3333V20.6665ZM14 0.666504C12.249 0.666504 10.5152 1.01138 8.89751 1.68144C7.27984 2.35151 5.80998 3.33363 4.57187 4.57175C2.07138 7.07223 0.666626 10.4636 0.666626 13.9998C0.666626 17.5361 2.07138 20.9274 4.57187 23.4279C5.80998 24.666 7.27984 25.6482 8.89751 26.3182C10.5152 26.9883 12.249 27.3332 14 27.3332C17.5362 27.3332 20.9276 25.9284 23.4281 23.4279C25.9285 20.9274 27.3333 17.5361 27.3333 13.9998C27.3333 12.2489 26.9884 10.5151 26.3184 8.89739C25.6483 7.27972 24.6662 5.80986 23.4281 4.57175C22.1899 3.33363 20.7201 2.35151 19.1024 1.68144C17.4847 1.01138 15.7509 0.666504 14 0.666504Z" fill="#0F206C"/>
</svg>
