<svg width="135" height="41" viewBox="0 0 135 41" fill="none" xmlns="http://www.w3.org/2000/svg">
<path d="M97.8 32L96.1001 38.8H61.8L63.5 32H97.8Z" fill="#E4862D"/>
<path d="M97.8 32L96.1001 38.8H61.8L63.5 32H97.8Z" fill="#E4862D"/>
<path d="M71.1 0.599998H56.2L54.5 7.2H69.4L71.1 0.599998Z" fill="#131F6B"/>
<path d="M25.6 0.599998H11.3L9.59998 7.2H23.8L25.6 0.599998Z" fill="#131F6B"/>
<path d="M90.2 0.599998H82.3L80.6 7.2H88.5L90.2 0.599998Z" fill="#131F6B"/>
<path d="M88 10.3H81.6L79.6 18C79.1 20 78.6 22.6 72.6 22.6C69.7 22.6 68 21.9 67.2 20.5C66.6 19.3 67.2 17.8 67.3 17.2L69.1 10.3H61.8L60 17.2C59.9 17.4 59.9 17.6 59.9 17.8L60 18C59.4 20.2 59.7 22.4 55.5 22.4H47.2C46.8 18.1 42.7 14 40.4 11.4C39.8 10.7 39.1 9.9 38.5 9.2C45.2 5.7 49 7.3 49.1 7.2L50.8 0.300003C50.4 0.500003 42.4 0.299997 35.2 4.2C32.7 5.5 31.8 7.2 31.4 8.4C30.4 11.5 32.4 13.9 34.8 16.5C36.4 18.2 38.2 20.3 39 22.4H25.1C26.3 20.4 26.8 18.6 27 17.7L28.9 10.3H22.5L20.6 17.7C20.1 19.7 19.4 22.3 13.4 22.3C10.5 22.3 8.6 21.6 7.9 20.2C7.3 19 7.60001 17.5 7.80001 16.9L9.5 10.3H2.80001L1.10001 16.9C-0.299991 22.3 1.40001 28.6 10.8 29H51.3C55.6 29 59 28.2 61.8 26.1C63.5 28 66.4 29.4 70.9 29.4C76 29.4 80 27.8 82.9 24.7C85.3 22.1 85.9 19.3 86.2 18.1L88 10.3Z" fill="#131F6B"/>
<path d="M119.1 4.3C116.6 5.6 115.7 7.3 115.3 8.5C114.3 11.6 116.3 14 118.7 16.6C120.3 18.3 122.1 20.4 122.9 22.5H108.6L109.4 19.2C109.7 18.2 109.9 17.3 110 16.6V16.4C110.2 15.3 110.2 14.6 110.2 14.6C110.1 7.1 103.3 6.7 102 6.7H101.9C98.1999 6.7 95.1999 7.9 92.7999 10.3C88.8999 14.3 88.2 20.2 88.2 21.5C88.3 28.4 94.0999 29.2 96.5999 29.2H96.8999C97.7999 29.2 98.5999 29.1 99.3999 29C99.4999 29 99.6999 28.9 99.7999 28.9C99.9999 28.8 100.3 28.8 100.5 28.7L98.0999 38.8H104.8L107.1 29.1H128.8L129.7 25.6C131.3 19.2 127.3 14.7 124.3 11.4C123.7 10.7 123 9.9 122.5 9.2C129.2 5.7 133 7.3 133.1 7.2L134.8 0.300003C134.4 0.600003 126.3 0.400003 119.1 4.3ZM95.8999 22.5C95.3999 22 95.1999 21.2 95.2999 20.3C95.2999 20.2 96.2 12.6 101.2 12.6C101.8 12.6 103.7 12.8 103.7 15.2C103.7 16 102.5 23 97.4999 23.3C97.3999 23.3 96.4999 23.2 95.8999 22.5Z" fill="#131F6B"/>
<path d="M122 32L120.9 38.8H106.8L108.5 32H122Z" fill="#E8AC42"/>
<path d="M120.9 32L119.6 38.8H127.3L128.3 32H120.9Z" fill="#DFDA44"/>
<path d="M8.49995 35.8V37C8.49995 38 8.19995 38.8 7.49995 39.5C6.79995 40.2 5.89995 40.5 4.89995 40.5H4.79996C3.79996 40.5 2.89995 40.2 2.19995 39.5C1.49995 38.8 1.19995 38 1.19995 37V35.8H2.59996V36.9C2.59996 37.3 2.69996 37.7 2.79996 38C3.09996 38.7 3.89995 39.2 4.89995 39.2C5.89995 39.2 6.59995 38.7 6.99995 38C7.09995 37.8 7.19995 37.5 7.19995 37.2H4.49995C4.49995 36.2 4.79996 35.3 5.29996 34.7C5.89996 34.1 6.59995 33.7 7.49995 33.7H8.09996V35.1H7.49995C6.89995 35.1 6.49996 35.3 6.09996 35.8H8.49995ZM12.2 37.8C12.2 38.7 12 39.4 11.5 39.9C11.1 40.3 10.3999 40.5 9.39995 40.5V39.3C10.2999 39.3 10.8 38.8 10.8 37.9V34.1H12.2V37.8ZM16.3 38.8H15C13.9 38.8 13.3 38.2 13.3 37.1V32.1H14.7V36.3C14.7 37 14.8999 37.4 15.8999 37.4H16.3V38.8ZM22.7 38.8H21.8999C20.8999 38.8 20.0999 38.7 19.3999 38.4C18.6999 38.7 17.7999 38.8 16.8999 38.8H16V37.4H16.8999C17.2999 37.4 17.6 37.4 17.7 37.3C17.3 36.8 17 36.2 17 35.6C17 35.3 17 35.1 17.1 34.8C17.4 33.8 18.3 33.2 19.3 33.2C20.4 33.2 21.2 33.8 21.5 34.8C21.6 35.1 21.6 35.3 21.6 35.6C21.6 36.2 21.3999 36.8 20.8999 37.3C20.9999 37.4 21.3 37.4 21.7 37.4H22.5V38.8H22.7ZM19 32.3H17.7V31.1H19V32.3ZM19.8 36.7C20.2 36.4 20.3999 36 20.3999 35.5C20.3999 34.9 20 34.3 19.3 34.3C19 34.3 18.7 34.4 18.5 34.7C18.3 34.9 18.2 35.2 18.2 35.5C18.2 36 18.4 36.4 18.8 36.7C19 36.8 19.1 36.9 19.3 37C19.5 36.9 19.7 36.8 19.8 36.7ZM20.8999 32.3H19.6V31.1H20.8999V32.3ZM28.1 38.8H22.3999V37.4H24C23.9 37 23.8 36.7 23.8 36.4C23.8 35.7 23.9999 35.2 24.3999 34.7C24.7999 34.2 25.4 34 26.1 34C27 34 27.7 34.5 28.1 35.3L26.8999 35.8C26.7999 35.4 26.5 35.2 26.1 35.2C25.8 35.2 25.5999 35.3 25.3999 35.6C25.2999 35.8 25.2 36.1 25.2 36.4C25.2 36.9 25.4 37.3 25.8 37.5H28.2V38.8H28.1ZM38.8 38.8H36.8C36.2 39.9 35.2 40.5 34 40.5C32.2 40.5 30.8 39 30.8 37V36H32.2V36.9C32.2 38.3 32.9 39.2 34 39.2C35.1 39.2 35.8 38.3 35.8 36.9V32.2H37.2V37.5H38.7V38.8H38.8ZM39.5 40.5H38.2V39.3H39.5V40.5ZM41.6 36.8C41.6 37.3 41.4 37.8 41.2 38.2C40.9 38.6 40.4 38.8 39.8 38.8H38.6V37.4H39.5C40 37.4 40.2 37.1 40.2 36.4V34.1H41.6V36.8ZM41.5 40.5H40.2V39.3H41.5V40.5ZM48.3999 38.8H47C46.8 39.9 46.1 40.5 44.7 40.5H44.5V39.3H44.6C45.1 39.3 45.5 39.1 45.6 38.7C45.5 38.7 45.2 38.8 44.7 38.8C43.4 38.8 42.3999 37.8 42.3999 36.4C42.3999 35 43.4 34.1 44.7 34.1C46 34.1 47 35.1 47 36.5V37.4H48.3V38.8H48.3999ZM45.6 37.4V36.4C45.6 35.8 45.2 35.4 44.7 35.4C44.2 35.4 43.8999 35.8 43.8999 36.4C43.8999 37 44.2 37.4 44.8 37.4H45.6ZM55 38.8H53.3999C52.9999 39.4 52.3 39.7 51.5 39.7C50.6 39.7 50 39.4 49.6 38.8H48V37.4H49.1C49.1 35.9 49.8999 35 51.3999 35C52.8999 35 53.8 35.9 53.8 37.4H55V38.8ZM52.3999 37.4C52.3999 36.6 52.1 36.2 51.5 36.2H51.3999C50.8999 36.2 50.5 36.7 50.5 37.4C50.5 38.1 50.7999 38.6 51.3999 38.6C52.0999 38.5 52.3999 38 52.3999 37.4ZM55.8 33.3H54.5V32.1H55.8V33.3ZM57.8 36.8C57.8 37.3 57.5999 37.8 57.3999 38.2C57.0999 38.6 56.6 38.8 56 38.8H54.8V37.4H55.7C56.2 37.4 56.3999 37.1 56.3999 36.4V34.1H57.8V36.8ZM57.7 33.3H56.3999V32.1H57.7V33.3Z" fill="#2B978D"/>
</svg>
