<svg width="95" height="32" viewBox="0 0 95 32" fill="none" xmlns="http://www.w3.org/2000/svg">
<path d="M55.8001 27.645H55.6001L53.9001 25.345V29.445H52.6001V23.645H54.0001L55.7001 25.845L57.4001 23.645H58.9001V29.445H57.6001V25.345L55.8001 27.645Z" fill="#2C988E"/>
<path d="M59.6001 27.445C59.6001 26.245 60.5001 25.245 61.8001 25.245C63.2001 25.245 64.1001 26.145 64.1001 27.445C64.1001 28.745 63.2001 29.645 61.8001 29.645C60.5001 29.645 59.6001 28.745 59.6001 27.445ZM62.9001 27.445C62.9001 26.945 62.6001 26.345 61.9001 26.345C61.2001 26.345 60.9001 26.945 60.9001 27.445C60.9001 28.045 61.2001 28.545 61.9001 28.545C62.6001 28.545 62.9001 28.045 62.9001 27.445Z" fill="#2C988E"/>
<path d="M65.9001 25.845C66.2001 25.445 66.5001 25.245 67.0001 25.245C67.4001 25.245 67.7001 25.345 68.0001 25.645L67.5001 26.545C67.3001 26.445 67.1001 26.345 66.8001 26.345C66.3001 26.345 65.8001 26.645 65.8001 27.245V29.345H64.6001V25.245H65.7001L65.9001 25.845Z" fill="#2C988E"/>
<path d="M70 25.345H71V26.345H70V27.945C70 28.345 70.2 28.545 70.5 28.545C70.6 28.545 70.9 28.545 71 28.445L71.3 29.445C71 29.545 70.8 29.645 70.4 29.645C69.5 29.645 68.8 29.345 68.8 28.045V26.445H68V25.445H68.7V24.445L69.9 24.345V25.345H70Z" fill="#2C988E"/>
<path d="M73.6001 30.945C74.1001 30.945 74.6001 30.745 74.6001 30.145C74.6001 29.745 74.3001 29.445 73.6001 29.445C72.3001 29.445 71.4001 28.645 71.4001 27.345C71.4001 25.945 72.5001 25.245 73.6001 25.245C73.9001 25.245 74.3001 25.245 74.6001 25.445L75.0001 24.845L75.9001 25.545L75.4001 26.145C75.7001 26.445 75.8001 26.845 75.8001 27.245C75.8001 27.845 75.5001 28.445 74.9001 28.745C75.8001 29.145 75.8001 29.845 75.8001 30.045C75.8001 31.245 74.7001 31.845 73.6001 31.845C72.2001 31.845 71.4001 31.145 71.5001 29.945H72.6001C72.7001 30.745 73.1001 30.945 73.6001 30.945ZM72.6001 27.345C72.6001 27.945 73.1001 28.345 73.7001 28.345C74.2001 28.345 74.7001 28.045 74.7001 27.345C74.7001 26.745 74.3001 26.345 73.7001 26.345C73.1001 26.345 72.6001 26.745 72.6001 27.345Z" fill="#2C988E"/>
<path d="M80.9 25.345V29.445H79.8L79.7 28.945C79.4 29.445 78.8 29.545 78.4 29.545C77.2 29.545 76.3 28.745 76.3 27.345C76.3 26.045 77.2 25.245 78.4 25.245C78.9 25.245 79.4 25.445 79.7 25.845V25.345H80.9ZM77.5 27.445C77.5 28.145 78 28.545 78.6 28.545C79.3 28.545 79.7 28.045 79.7 27.545C79.7 26.945 79.3 26.445 78.6 26.445C78 26.345 77.5 26.745 77.5 27.445Z" fill="#2C988E"/>
<path d="M83.7 30.945C84.2 30.945 84.7 30.745 84.7 30.145C84.7 29.745 84.4 29.445 83.7 29.445C82.4 29.445 81.5 28.645 81.5 27.345C81.5 25.945 82.6 25.245 83.7 25.245C84 25.245 84.4 25.245 84.7 25.445L85.1 24.845L86 25.545L85.5 26.145C85.8 26.445 85.9 26.845 85.9 27.245C85.9 27.845 85.6 28.445 85 28.745C85.9 29.145 85.9 29.845 85.9 30.045C85.9 31.245 84.8 31.845 83.7 31.845C82.3 31.845 81.5 31.145 81.6 29.945H82.7C82.7 30.745 83.1 30.945 83.7 30.945ZM82.6 27.345C82.6 27.945 83.1 28.345 83.7 28.345C84.2 28.345 84.7 28.045 84.7 27.345C84.7 26.745 84.3 26.345 83.7 26.345C83.1 26.345 82.6 26.745 82.6 27.345Z" fill="#2C988E"/>
<path d="M88.7001 28.545C89.0001 28.545 89.5001 28.445 89.8001 28.245L90.5001 28.945C90.1001 29.345 89.4001 29.545 88.7001 29.545C87.2001 29.545 86.4001 28.645 86.4001 27.345C86.4001 26.145 87.2001 25.245 88.6001 25.245C89.8001 25.245 90.7001 25.945 90.7001 27.245C90.7001 27.445 90.7001 27.645 90.7001 27.845H87.7001C87.6001 28.245 88.0001 28.545 88.7001 28.545ZM88.5001 26.345C88.0001 26.345 87.7001 26.645 87.5001 27.045H89.4001C89.5001 26.545 89.0001 26.345 88.5001 26.345Z" fill="#2C988E"/>
<path fill-rule="evenodd" clip-rule="evenodd" d="M25.6 4.94501C17.2 4.94501 16 14.045 16.1 15.245C16.2 20.745 21.5 20.445 22.1 20.445C30.8 20.445 31.4 10.545 31.3 10.245C31.2 4.84502 26.1 4.94501 25.6 4.94501ZM22.5 16.945C22.3 16.945 20.4 16.645 20.6 14.445C20.7 13.545 21.6 8.74502 25.1 8.74502C25.9 8.74502 27.1 9.14501 27.2 10.945C27.2 11.145 26.5 16.745 22.5 16.945Z" fill="#282781"/>
<path d="M65.5999 13.245L64.8999 16.245C64.8999 16.245 63.7999 17.345 62.2999 17.345C61.8999 17.345 60.5999 17.345 60.5999 16.145C60.4999 12.845 65.5999 13.245 65.5999 13.245ZM66.2999 10.545C66.2999 10.545 62.6999 10.245 59.7999 11.545C57.5999 12.445 55.8999 14.345 55.8999 17.245C55.8999 18.045 56.8999 20.345 59.9999 20.545C60.0999 20.545 62.6999 20.745 64.0999 19.745L63.8999 20.545H68.2999C68.2999 20.545 69.8999 14.745 71.0999 8.845C71.0999 8.645 71.7999 4.745 65.0999 4.945C64.2999 4.945 61.4999 4.945 60.0999 4.945L59.1999 8.64501H63.7999C67.2999 8.64501 66.5999 10.545 66.2999 10.545Z" fill="#282781"/>
<path d="M18.0001 4.94501L19.0001 0.745014C19.0001 0.745014 18.5001 0.745014 14.7001 0.745014C13.5001 0.745014 3.10012 -0.154977 2.30012 14.145C2.30012 15.045 2.20012 20.545 9.60012 20.545C10.2001 20.545 13.4001 20.545 14.2001 20.545L15.3001 16.345C15.3001 16.345 14.2001 16.445 11.6001 16.345C8.90012 16.345 6.70012 16.945 7.00012 13.045C7.10012 12.145 8.20012 4.94501 14.0001 4.94501H18.0001Z" fill="#282781"/>
<path d="M30.3999 20.445H34.9999C34.9999 20.445 37.4999 10.245 37.4999 9.94502C37.5999 9.64502 38.0999 8.54503 40.0999 8.54503C40.6999 8.54503 41.9999 8.74503 41.8999 10.345C41.8999 10.845 39.4999 20.445 39.4999 20.445H43.8999C43.8999 20.445 46.3999 10.645 46.4999 9.94502C46.4999 9.74502 47.5999 5.34502 43.2999 4.94502C42.7999 4.94502 41.3999 4.64503 38.5999 5.74503L38.7999 4.94502H34.3999L30.3999 20.445Z" fill="#282781"/>
<path d="M86.3 2.64502H90.7L90.2 4.94501H91.8H94.4L94.1 6.04501L93.5 8.64502H89.8H89.1C89.1 8.64502 87.6 14.745 87.6 14.945C87.5 15.345 87 16.845 89 16.845C89.8 16.845 91.4 16.845 91.4 16.845L90.5 20.445C90.5 20.445 89 20.445 87.2 20.445C86.7 20.445 82.4 20.645 82.6 17.245C82.9 16.545 86.3 2.64502 86.3 2.64502Z" fill="#282781"/>
<path d="M50.0999 2.64502H54.4999L53.9999 4.94501H55.5999H58.1999L57.8999 6.04501L57.2999 8.64502H53.5999H52.9999C52.9999 8.64502 51.4999 14.745 51.4999 14.945C51.3999 15.345 50.8999 16.845 52.8999 16.845C53.6999 16.845 55.2999 16.845 55.2999 16.845L54.3999 20.445C54.3999 20.445 52.8999 20.445 51.0999 20.445C50.5999 20.445 46.2999 20.645 46.4999 17.245C46.5999 16.545 50.0999 2.64502 50.0999 2.64502Z" fill="#282781"/>
<path d="M83.0999 8.64503C83.0999 8.64503 83.2999 8.64503 80.2999 8.64503C75.6999 8.64503 75.2999 13.645 75.2999 14.445C75.2999 16.945 77.2999 16.845 78.1999 16.845C81.0999 16.845 81.1999 16.845 81.1999 16.845L80.2999 20.445C79.5999 20.445 77.8999 20.445 76.9999 20.445C70.4999 20.445 70.5999 15.645 70.5999 15.045C71.5999 4.34502 80.6999 4.84502 80.9999 4.84502C84.0999 4.84502 84.0999 4.84502 84.0999 4.84502L83.0999 8.64503Z" fill="#282781"/>
<path d="M16.5 25.545L15.7 29.445H48.7999L49.9 25.545H16.5Z" fill="#F58220"/>
<path d="M16.5 25.545L15.7 29.445H6L6.7 25.545H16.5Z" fill="#FDB933"/>
<path d="M6.7 25.545L6 29.445H0L0.9 25.545H6.7Z" fill="#FFDE22"/>
</svg>
