<svg width="95" height="32" viewBox="0 0 95 32" fill="none" xmlns="http://www.w3.org/2000/svg">
<path d="M56.2999 24.6225C55.6999 24.6225 55.2999 24.8225 55.2999 25.2225C55.2999 25.7225 55.8 25.8225 56.5 25.9225C57.7 26.0225 58.7 26.4225 58.7 27.8225C58.7 29.1225 57.5 29.6225 56.2 29.6225C55.2 29.6225 54.1 29.2225 53.7 28.4225L54.5 27.6225C54.9 28.2225 55.6999 28.4225 56.2999 28.4225C56.9999 28.4225 57.5 28.1225 57.5 27.7225C57.5 27.2225 57.0999 27.0225 56.2999 26.9225C55.0999 26.8225 54 26.5225 54 25.1225C54 23.9225 55.0999 23.4225 56.2999 23.4225C57.1999 23.4225 57.9 23.6225 58.5 24.3225L57.5999 25.0225C57.2999 24.7225 56.6999 24.6225 56.2999 24.6225Z" fill="#73347C"/>
<path d="M60.5 25.8225C60.8 25.4225 61.3 25.2225 61.7 25.2225C62.7 25.2225 63.2999 25.7225 63.2999 27.2225V29.4225H62.0999V27.2225C62.0999 26.6225 61.7999 26.3225 61.2999 26.3225C60.7999 26.3225 60.4 26.6225 60.4 27.3225V29.4225H59.2V23.6225H60.4V25.8225H60.5Z" fill="#73347C"/>
<path d="M64 27.4225C64 26.2225 64.9 25.2225 66.2 25.2225C67.6 25.2225 68.5 26.1225 68.5 27.4225C68.5 28.7225 67.6 29.6225 66.2 29.6225C64.8 29.6225 64 28.7225 64 27.4225ZM67.3 27.4225C67.3 26.9225 67 26.3225 66.3 26.3225C65.6 26.3225 65.3 26.9225 65.3 27.4225C65.3 28.0225 65.6 28.5225 66.3 28.5225C67 28.5225 67.3 28.0225 67.3 27.4225Z" fill="#73347C"/>
<path d="M69.0999 25.3225H70.1999L70.2999 25.8225C70.6999 25.3225 71.0999 25.2225 71.6999 25.2225C72.8999 25.2225 73.6999 26.1225 73.6999 27.3225C73.6999 28.6225 72.8999 29.5225 71.6999 29.5225C71.2999 29.5225 70.7999 29.4225 70.3999 29.0225V31.2225H69.1999V25.3225H69.0999ZM72.3999 27.4225C72.3999 26.8225 71.9999 26.3225 71.3999 26.3225C70.8999 26.3225 70.2999 26.6225 70.2999 27.4225C70.2999 28.1225 70.7999 28.5225 71.3999 28.5225C72.0999 28.5225 72.3999 28.0225 72.3999 27.4225Z" fill="#73347C"/>
<path d="M74.3 25.3225H75.4L75.5 25.8225C75.9 25.3225 76.3 25.2225 76.9 25.2225C78.1 25.2225 78.9 26.1225 78.9 27.3225C78.9 28.6225 78.1 29.5225 76.9 29.5225C76.5 29.5225 76 29.4225 75.6 29.0225V31.2225H74.4V25.3225H74.3ZM77.6 27.4225C77.6 26.8225 77.2 26.3225 76.6 26.3225C76.1 26.3225 75.5 26.6225 75.5 27.4225C75.5 28.1225 76 28.5225 76.6 28.5225C77.2 28.5225 77.6 28.0225 77.6 27.4225Z" fill="#73347C"/>
<path d="M80 23.6225C80.3 23.6225 80.7 23.8225 80.7 24.3225C80.7 24.8225 80.4 25.0225 80 25.0225C79.6 25.0225 79.3 24.8225 79.3 24.3225C79.3 23.8225 79.7 23.6225 80 23.6225ZM80.6 29.5225H79.4V25.4225H80.6V29.5225Z" fill="#73347C"/>
<path d="M84.4 27.3225C84.4 26.7225 84.1 26.3225 83.6 26.3225C83 26.3225 82.7 26.8225 82.7 27.3225V29.4225H81.5V25.3225H82.6V25.8225C83 25.3225 83.4 25.2225 83.9 25.2225C84.8 25.2225 85.7 25.6225 85.7 27.2225V29.4225H84.5V27.3225H84.4Z" fill="#73347C"/>
<path d="M88.4 30.9225C88.9 30.9225 89.4 30.6225 89.4 30.1225C89.4 29.7225 89.1 29.4225 88.4 29.4225C87.1 29.4225 86.2 28.6225 86.2 27.3225C86.2 25.9225 87.3 25.2225 88.4 25.2225C88.7 25.2225 89.1 25.2225 89.4 25.4225L89.8 24.8225L90.7 25.5225L90.2 26.1225C90.5 26.4225 90.6 26.8225 90.6 27.2225C90.6 27.8225 90.3 28.4225 89.7 28.7225C90.6 29.1225 90.6 29.8225 90.6 30.0225C90.6 31.2225 89.5 31.8225 88.4 31.8225C87 31.8225 86.2 31.1225 86.3 29.9225H87.4C87.4 30.7225 87.9 30.9225 88.4 30.9225ZM87.4 27.3225C87.4 27.9225 87.9 28.3225 88.5 28.3225C89 28.3225 89.5 28.0225 89.5 27.3225C89.5 26.7225 89.1 26.3225 88.5 26.3225C87.8 26.3225 87.4 26.7225 87.4 27.3225Z" fill="#73347C"/>
<path fill-rule="evenodd" clip-rule="evenodd" d="M25.6 4.92249C17.2 4.92249 16 14.0225 16.1 15.2225C16.2 20.7225 21.5 20.4225 22.1 20.4225C30.8 20.4225 31.4 10.5225 31.3 10.2225C31.2 4.82249 26.1 4.92249 25.6 4.92249ZM22.5 16.9225C22.3 16.9225 20.4 16.6225 20.6 14.4225C20.7 13.5225 21.6 8.72249 25.1 8.72249C25.9 8.72249 27.1 9.12249 27.2 10.9225C27.2 11.1225 26.5 16.7225 22.5 16.9225Z" fill="#282781"/>
<path d="M65.5999 13.2225L64.8999 16.2225C64.8999 16.2225 63.7999 17.3225 62.2999 17.3225C61.8999 17.3225 60.5999 17.3225 60.5999 16.1225C60.4999 12.8225 65.5999 13.2225 65.5999 13.2225ZM66.2999 10.5225C66.2999 10.5225 62.6999 10.2225 59.7999 11.5225C57.5999 12.4225 55.8999 14.3225 55.8999 17.2225C55.8999 18.0225 56.8999 20.3225 59.9999 20.5225C60.0999 20.5225 62.6999 20.7225 64.0999 19.7225L63.8999 20.5225H68.2999C68.2999 20.5225 69.8999 14.7225 71.0999 8.82247C71.0999 8.62247 71.7999 4.72247 65.0999 4.92247C64.2999 4.92247 61.4999 4.92247 60.0999 4.92247L59.1999 8.62247H63.7999C67.2999 8.62247 66.5999 10.5225 66.2999 10.5225Z" fill="#282781"/>
<path d="M18.0001 4.92249L19.0001 0.722492C19.0001 0.722492 18.5001 0.722492 14.7001 0.722492C13.5001 0.722492 3.10012 -0.17751 2.30012 14.1225C2.30012 15.0225 2.20012 20.5225 9.60012 20.5225C10.2001 20.5225 13.4001 20.5225 14.2001 20.5225L15.3001 16.3225C15.3001 16.3225 14.2001 16.4225 11.6001 16.3225C8.90012 16.3225 6.70012 16.9225 7.00012 13.0225C7.10012 12.1225 8.20012 4.92249 14.0001 4.92249H18.0001Z" fill="#282781"/>
<path d="M30.3999 20.5225H34.9999C34.9999 20.5225 37.4999 10.3225 37.4999 10.0225C37.5999 9.72248 38.0999 8.62248 40.0999 8.62248C40.6999 8.62248 41.9999 8.82248 41.8999 10.4225C41.8999 10.9225 39.4999 20.5225 39.4999 20.5225H43.8999C43.8999 20.5225 46.3999 10.7225 46.4999 10.0225C46.4999 9.82248 47.5999 5.42248 43.2999 5.02248C42.7999 5.02248 41.3999 4.72248 38.5999 5.82248L38.7999 5.02248H34.3999L30.3999 20.5225Z" fill="#282781"/>
<path d="M86.3001 2.6225H90.7001L90.2001 4.9225H91.8001H94.4001L94.2001 6.0225L93.6001 8.6225H89.9001H89.2001C89.2001 8.6225 87.7001 14.7225 87.7001 14.9225C87.6001 15.3225 87.1001 16.8225 89.1001 16.8225C89.9001 16.8225 91.5001 16.8225 91.5001 16.8225L90.6001 20.4225C90.6001 20.4225 89.1001 20.4225 87.3001 20.4225C86.8001 20.4225 82.5001 20.6225 82.7001 17.2225C82.9001 16.5225 86.3001 2.6225 86.3001 2.6225Z" fill="#282781"/>
<path d="M50.0999 2.6225H54.4999L53.9999 4.9225H55.5999H58.1999L57.9999 6.0225L57.3999 8.6225H53.6999H52.9999C52.9999 8.6225 51.4999 14.7225 51.4999 14.9225C51.3999 15.3225 50.8999 16.8225 52.8999 16.8225C53.6999 16.8225 55.2999 16.8225 55.2999 16.8225L54.3999 20.4225C54.3999 20.4225 52.8999 20.4225 51.0999 20.4225C50.5999 20.4225 46.2999 20.6225 46.4999 17.2225C46.5999 16.6225 50.0999 2.6225 50.0999 2.6225Z" fill="#282781"/>
<path d="M83.0999 8.6225C83.0999 8.6225 83.2999 8.6225 80.2999 8.6225C75.6999 8.6225 75.2999 13.6225 75.2999 14.4225C75.2999 16.9225 77.2999 16.8225 78.1999 16.8225C81.0999 16.8225 81.1999 16.8225 81.1999 16.8225L80.2999 20.4225C79.5999 20.4225 77.8999 20.4225 76.9999 20.4225C70.4999 20.4225 70.5999 15.6225 70.5999 15.0225C71.5999 4.3225 80.6999 4.8225 80.9999 4.8225C84.0999 4.8225 84.0999 4.8225 84.0999 4.8225L83.0999 8.6225Z" fill="#282781"/>
<path d="M16.5 25.5225L15.7 29.5225H50.5L51.5999 25.5225H16.5Z" fill="#F58220"/>
<path d="M16.5 25.5225L15.7 29.4225H6L6.7 25.5225H16.5Z" fill="#FDB933"/>
<path d="M6.7 25.5225L6 29.4225H0L0.9 25.5225H6.7Z" fill="#FFDE22"/>
</svg>
