<svg width="136" height="41" viewBox="0 0 136 41" fill="none" xmlns="http://www.w3.org/2000/svg">
<path d="M98.1 31.8L96.4 38.6H60L61.6 31.8H98.1Z" fill="#E4862D"/>
<path d="M75.4999 31.8L73.7999 38.6H32.7999L34.4999 31.8H75.4999Z" fill="#E4862D"/>
<path d="M71.3999 0.399994H56.4999L54.7999 7.10001H69.6999L71.3999 0.399994Z" fill="#131F6B"/>
<path d="M25.7999 0.399994H11.5999L9.8999 7.10001H24.0999L25.7999 0.399994Z" fill="#131F6B"/>
<path d="M90.4999 0.399994H82.5999L80.8999 7.10001H88.7999L90.4999 0.399994Z" fill="#131F6B"/>
<path d="M88.3 10.1H82L80 17.8C79.5 19.8 79 22.4 73 22.4C70.1 22.4 68.4 21.7 67.6 20.3C67 19.1 67.6 17.6 67.7 17L69.5 10.1H62.2L60.4 17C60.3 17.2 60.3 17.4 60.3 17.6L60.2 17.8C59.6 20 59.9 22.2 55.7 22.2H47.4C47 17.9 42.9 13.8 40.6 11.2C40 10.5 39.3 9.7 38.7 9C45.4 5.5 49.2 7.1 49.3 7L51 0.100006C50.6 0.300006 42.6 0.0999999 35.4 4C32.9 5.3 32 7 31.6 8.2C30.6 11.3 32.6 13.7 35 16.3C36.6 18 38.4 20.1 39.2 22.2H25.3C26.5 20.2 27 18.4 27.2 17.5L29.1 10.1H22.7L20.8 17.5C20.3 19.5 19.6 22.1 13.6 22.1C10.7 22.1 8.79996 21.4 8.09996 20C7.49996 18.8 7.79996 17.3 7.99996 16.7L9.69996 10.1H2.99996L1.29996 16.7C-0.10004 22.1 1.59996 28.4 11 28.8H51.5C55.8 28.8 59.2 28 62 25.9C63.7 27.8 66.6 29.2 71.1 29.2C76.2 29.2 80.2 27.6 83.1 24.5C85.5 21.9 86.1 19.1 86.4 17.9L88.3 10.1Z" fill="#131F6B"/>
<path d="M119.4 4.10001C116.9 5.40001 116 7.1 115.6 8.3C114.6 11.4 116.6 13.8 119 16.4C120.6 18.1 122.4 20.2 123.2 22.3H108.9L109.7 19C110 18 110.2 17.1 110.3 16.4V16.2C110.5 15.1 110.5 14.4 110.5 14.4C110.4 6.89999 103.6 6.5 102.3 6.5H102.2C98.5 6.5 95.5 7.70001 93.1 10.1C89.2 14.1 88.5 20 88.5 21.3C88.6 28.2 94.4 29 96.9 29H97.2C98.1 29 98.9 28.9 99.7 28.8C99.8 28.8 100 28.7 100.1 28.7C100.3 28.6 100.6 28.6 100.8 28.5L98.4 38.6H105.1L107.4 28.9H129.1L130 25.4C131.6 19 127.6 14.5 124.6 11.2C124 10.5 123.3 9.7 122.8 9C129.5 5.5 133.3 7.1 133.4 7L135.1 0.100006C134.7 0.400006 126.6 0.200006 119.4 4.10001ZM96.2 22.4C95.7 21.9 95.5 21.1 95.6 20.2C95.6 20.1 96.5 12.5 101.5 12.5C102.1 12.5 104 12.7 104 15.1C104 15.9 102.8 22.9 97.8 23.2C97.7 23.2 96.8 23 96.2 22.4Z" fill="#131F6B"/>
<path d="M122.3 31.8L121.2 38.6H107.1L108.8 31.8H122.3Z" fill="#E8AC42"/>
<path d="M121.2 31.8L119.9 38.6H127.5L128.6 31.8H121.2Z" fill="#DFDA44"/>
<path d="M8.4999 36.9C8.4999 38.8 6.9999 40.3 4.9999 40.3C2.9999 40.3 1.3999 38.9 1.3999 36.9V34.9H2.7999V36.7C2.7999 38.1 3.5999 38.9 4.9999 38.9C5.8999 38.9 6.4999 38.6 6.8999 37.9C6.6999 37.9 6.4999 38 6.2999 38C4.8999 38 3.9999 37.1 3.9999 35.7C3.9999 34.3 4.8999 33.5 6.1999 33.5C7.5999 33.5 8.4999 34.3 8.4999 35.7V36.9ZM5.7999 33.1H4.5999V32H5.7999V33.1ZM7.0999 35.9C7.0999 35.1 6.7999 34.7 6.1999 34.7H6.0999C5.5999 34.7 5.2999 35.2 5.2999 35.8C5.2999 36.5 5.5999 36.9 6.1999 36.9C6.7999 37 7.0999 36.5 7.0999 35.9ZM7.6999 33.1H6.4999V32H7.6999V33.1ZM15.2999 38.6H13.9999C13.7999 39.7 13.0999 40.3 11.6999 40.3H11.4999V39.1H11.5999C12.0999 39.1 12.4999 38.9 12.5999 38.5C12.4999 38.5 12.1999 38.6 11.6999 38.6C10.3999 38.6 9.3999 37.6 9.3999 36.2C9.3999 34.8 10.3999 33.9 11.6999 33.9C12.9999 33.9 13.9999 34.9 13.9999 36.3V37.2H15.2999V38.6ZM12.5999 37.2V36.2C12.5999 35.6 12.1999 35.2 11.6999 35.2C11.1999 35.2 10.8999 35.6 10.8999 36.2C10.8999 36.8 11.1999 37.2 11.7999 37.2H12.5999ZM25.4999 38.6H14.9999V37.2H16.0999C16.5999 37.2 16.7999 36.9 16.7999 36.2V33.9H18.1999V36.1C18.1999 36.5 18.0999 36.8 17.9999 37.1H18.9999C19.4999 37.1 19.6999 36.8 19.6999 36.2V33.8H21.0999V36C21.0999 36.4 20.9999 36.7 20.8999 37H21.7999C22.2999 37 22.4999 36.7 22.4999 36.1V33.7H23.9999V35.9C23.9999 36.3 23.8999 36.6 23.7999 37H25.4999V38.6ZM26.2999 33.2H24.9999V32H26.2999V33.2ZM28.2999 36.6C28.2999 37.1 28.0999 37.6 27.8999 38C27.5999 38.4 27.0999 38.6 26.4999 38.6H25.2999V37.2H26.1999C26.6999 37.2 26.8999 36.9 26.8999 36.2V33.9H28.2999V36.6ZM28.1999 33.2H26.8999V32H28.1999V33.2Z" fill="#71337B"/>
</svg>
