<svg width="136" height="41" viewBox="0 0 136 41" fill="none" xmlns="http://www.w3.org/2000/svg">
<path d="M98.2001 32L96.5001 38.8H59.7001L61.4001 32H98.2001Z" fill="#E4862D"/>
<path d="M71.5 0.599998H56.6L54.9 7.2H69.8L71.5 0.599998Z" fill="#131F6B"/>
<path d="M25.9 0.599998H11.7L9.90002 7.2H24.2L25.9 0.599998Z" fill="#131F6B"/>
<path d="M90.6 0.599998H82.7L81 7.2H88.9L90.6 0.599998Z" fill="#131F6B"/>
<path d="M88.4001 10.3H82.0001L80.0001 18C79.5001 20 79.0001 22.6 73.0001 22.6C70.1001 22.6 68.4001 21.9 67.6001 20.5C67.0001 19.3 67.6001 17.8 67.7001 17.2L69.5001 10.3H62.2001L60.4001 17.2C60.3001 17.4 60.3001 17.6 60.3001 17.8L60.2001 18C59.6001 20.2 59.9001 22.4 55.7001 22.4H47.4001C47.0001 18.1 42.9001 14 40.6001 11.4C40.0001 10.7 39.3001 9.9 38.7001 9.2C45.4001 5.7 49.2001 7.3 49.3001 7.2L51.0001 0.300003C50.6001 0.500003 42.6001 0.299997 35.4001 4.2C32.9001 5.5 32.0001 7.2 31.6001 8.4C30.6001 11.5 32.6001 13.9 35.0001 16.5C36.6001 18.2 38.4001 20.3 39.2001 22.4H25.4001C26.6001 20.4 27.1001 18.6 27.3001 17.7L29.2001 10.3H22.8001L20.9001 17.7C20.4001 19.7 19.7001 22.3 13.7001 22.3C10.8001 22.3 8.90006 21.6 8.20006 20.2C7.60006 19 7.90005 17.5 8.10005 16.9L9.80006 10.3H3.10005L1.40006 16.9C5.78761e-05 22.3 1.70006 28.6 11.1001 29H51.6001C55.9001 29 59.3001 28.2 62.1001 26.1C63.8001 28 66.7001 29.4 71.2001 29.4C76.3 29.4 80.3 27.8 83.2001 24.7C85.6001 22.1 86.2001 19.3 86.5001 18.1L88.4001 10.3Z" fill="#131F6B"/>
<path d="M119.5 4.3C117 5.6 116.1 7.3 115.7 8.5C114.7 11.6 116.7 14 119.1 16.6C120.7 18.3 122.5 20.4 123.3 22.5H109L109.8 19.2C110.1 18.2 110.3 17.3 110.4 16.6V16.4C110.6 15.3 110.6 14.6 110.6 14.6C110.5 7.1 103.7 6.7 102.4 6.7H102.3C98.6001 6.7 95.6001 7.9 93.2001 10.3C89.3001 14.3 88.6001 20.2 88.6001 21.5C88.7001 28.4 94.5001 29.2 97.0001 29.2H97.3001C98.2001 29.2 99.0001 29.1 99.8001 29C99.9001 29 100.1 28.9 100.2 28.9C100.4 28.8 100.7 28.8 100.9 28.7L98.5001 38.8H105.2L107.5 29.1H129.2L130.1 25.6C131.7 19.2 127.7 14.7 124.7 11.4C124.1 10.7 123.4 9.9 122.9 9.2C129.6 5.7 133.4 7.3 133.5 7.2L135.2 0.300003C134.7 0.600003 126.7 0.400003 119.5 4.3ZM96.3001 22.5C95.8001 22 95.6001 21.2 95.7001 20.3C95.7001 20.2 96.6001 12.6 101.6 12.6C102.2 12.6 104.1 12.8 104.1 15.2C104.1 16 102.9 23 97.9001 23.3C97.8001 23.3 96.9001 23.2 96.3001 22.5Z" fill="#131F6B"/>
<path d="M122.3 32L121.3 38.8H107.2L108.9 32H122.3Z" fill="#E8AC42"/>
<path d="M121.3 32L120 38.8H127.6L128.7 32H121.3Z" fill="#DFDA44"/>
<path d="M9.40002 38.8H7.40002C6.80002 39.9 5.80002 40.5 4.60002 40.5C2.80002 40.5 1.40002 39 1.40002 37V36H2.80002V36.9C2.80002 38.3 3.50002 39.2 4.60002 39.2C5.70002 39.2 6.40002 38.3 6.40002 36.9V32.2H7.80002V37.5H9.30002V38.8H9.40002ZM15.9 38.8H15C14 38.8 13.2 38.7 12.5 38.4C11.8 38.7 10.9 38.8 10 38.8H9.00002V37.4H10C10.4 37.4 10.7 37.4 10.8 37.3C10.4 36.8 10.1 36.2 10.1 35.6C10.1 35.3 10.1 35.1 10.2 34.8C10.5 33.8 11.4 33.2 12.4 33.2C13.5 33.2 14.3 33.8 14.6 34.8C14.7 35.1 14.7 35.3 14.7 35.6C14.7 36.2 14.5 36.8 14 37.3C14.1 37.4 14.4 37.4 14.8 37.4H15.6V38.8H15.9ZM12.2 32.3H10.9V31.1H12.2V32.3ZM13 36.7C13.4 36.4 13.6 36 13.6 35.5C13.6 34.9 13.2 34.3 12.5 34.3C12.2 34.3 11.9 34.4 11.7 34.7C11.5 34.9 11.4 35.2 11.4 35.5C11.4 36 11.6 36.4 12 36.7C12.2 36.8 12.3 36.9 12.5 37C12.7 36.9 12.8 36.8 13 36.7ZM14.1 32.3H12.8V31.1H14.1V32.3ZM20.1 38.8H15.5V37.4H16.4C16.9 37.4 17.1 37.1 17.1 36.4V34.1H18.5V36.3C18.5 36.7 18.4 37 18.3 37.3H20V38.8H20.1ZM18.5 33.3H17.2V32.1H18.5V33.3ZM22.9 36.8C22.9 37.3 22.7 37.8 22.5 38.2C22.2 38.6 21.7 38.8 21.1 38.8H19.8V37.4H20.8C21.3 37.4 21.5 37.1 21.5 36.4V32.2H22.9V36.8ZM25.3 38.8H23.9V32.1H25.3V38.8ZM36.2 38.8H34.2C33.6 39.9 32.6 40.5 31.4 40.5C29.6 40.5 28.2 39 28.2 37V36H29.6V36.9C29.6 38.3 30.3 39.2 31.4 39.2C32.5 39.2 33.2 38.3 33.2 36.9V32.2H34.6V37.5H36.1V38.8H36.2ZM37 40.5H35.7V39.3H37V40.5ZM39 36.8C39 37.3 38.8 37.8 38.6 38.2C38.3 38.6 37.8 38.8 37.2 38.8H36V37.4H36.9C37.4 37.4 37.6 37.1 37.6 36.4V34.1H39V36.8ZM38.9 40.5H37.6V39.3H38.9V40.5ZM45.8 38.8H44.5C44.3 39.9 43.6 40.5 42.2 40.5H42V39.3H42.1C42.6 39.3 43 39.1 43.1 38.7C43 38.7 42.7 38.8 42.2 38.8C40.9 38.8 39.9 37.8 39.9 36.4C39.9 35 40.9 34.1 42.2 34.1C43.5 34.1 44.5 35.1 44.5 36.5V37.4H45.8V38.8ZM43.1 37.4V36.4C43.1 35.8 42.7 35.4 42.2 35.4C41.7 35.4 41.4 35.8 41.4 36.4C41.4 37 41.7 37.4 42.3 37.4H43.1ZM52.5 38.8H50.9C50.5 39.4 49.8 39.7 49 39.7C48.1 39.7 47.5 39.4 47.1 38.8H45.5V37.4H46.6C46.6 35.9 47.4 35 48.9 35C50.4 35 51.3 35.9 51.3 37.4H52.5V38.8ZM49.9 37.4C49.9 36.6 49.6 36.2 49 36.2H48.9C48.4 36.2 48 36.7 48 37.4C48 38.1 48.3 38.6 48.9 38.6C49.5 38.5 49.9 38.1 49.9 37.4ZM53.2 33.3H51.9V32.1H53.2V33.3ZM55.2 36.8C55.2 37.3 55 37.8 54.8 38.2C54.5 38.6 54 38.8 53.4 38.8H52.2V37.4H53.1C53.6 37.4 53.8 37.1 53.8 36.4V34.1H55.2V36.8ZM55.1 33.3H53.8V32.1H55.1V33.3Z" fill="#23516D"/>
</svg>
