<svg width="95" height="30" viewBox="0 0 95 30" fill="none" xmlns="http://www.w3.org/2000/svg">
<path d="M64.8999 24.9563V23.7563H69.6999V24.9563H67.8999V29.6563H66.5999V24.9563H64.8999Z" fill="#1F4256"/>
<path d="M71.3999 25.9563C71.6999 25.5563 71.9999 25.3563 72.4999 25.3563C72.8999 25.3563 73.1999 25.4563 73.4999 25.7563L72.9999 26.6563C72.7999 26.5563 72.5999 26.4563 72.2999 26.4563C71.7999 26.4563 71.2999 26.7563 71.2999 27.3563V29.4563H70.0999V25.3563H71.1999L71.3999 25.9563Z" fill="#1F4256"/>
<path d="M75 27.7563C75 28.3563 75.3 28.7563 75.8 28.7563C76.4 28.7563 76.7 28.2563 76.7 27.7563V25.4563H77.9V29.5563H76.8V29.0563C76.4 29.5563 76 29.6563 75.5 29.6563C74.6 29.6563 73.7 29.2563 73.7 27.6563V25.4563H75V27.7563Z" fill="#1F4256"/>
<path d="M80.7999 29.7563C79.5999 29.7563 78.5999 29.0563 78.5999 27.5563C78.5999 26.1563 79.5999 25.3563 80.7999 25.3563C81.3999 25.3563 81.8999 25.4563 82.2999 25.9563L81.5999 26.7563C81.2999 26.5563 81.0999 26.5563 80.7999 26.5563C80.1999 26.5563 79.6999 26.9563 79.6999 27.6563C79.6999 28.3563 80.1999 28.6563 80.7999 28.6563C81.0999 28.6563 81.3999 28.5563 81.5999 28.3563L82.3999 29.1563C81.8999 29.6563 81.2999 29.7563 80.7999 29.7563Z" fill="#1F4256"/>
<path d="M83.9998 27.1563L85.1998 25.5563H86.5998V25.6563L85.0998 27.4563L86.7998 29.5563V29.6563H85.3998L83.9998 27.8563V29.6563H82.7998V23.8563H83.9998V27.1563Z" fill="#1F4256"/>
<path d="M88.9 26.3563C88.5 26.3563 88.3 26.4563 88.3 26.6563C88.3 26.8563 88.5 27.0563 88.9 27.0563C89.7 27.0563 90.7 27.2563 90.7 28.3563C90.7 28.9563 90.2 29.7563 88.9 29.7563C88.3 29.7563 87.7 29.6563 87 29.0563L87.5 28.2563C88 28.6563 88.5 28.7563 89 28.7563C89.3 28.7563 89.6 28.6563 89.6 28.4563C89.6 28.2563 89.5 28.1563 88.9 28.0563C88.1 28.0563 87.2 27.6563 87.2 26.7563C87.2 25.8563 88.1 25.4563 89 25.4563C89.6 25.4563 90.1 25.6563 90.6 25.9563L90 26.6563C89.5 26.4563 89.2 26.3563 88.9 26.3563Z" fill="#1F4256"/>
<path fill-rule="evenodd" clip-rule="evenodd" d="M25.6 5.05628C17.2 5.05628 16 14.1563 16.1 15.3563C16.2 20.8563 21.5 20.5563 22.1 20.5563C30.8 20.5563 31.4 10.6563 31.3 10.3563C31.2 4.95627 26.1 5.05628 25.6 5.05628ZM22.5 17.0563C22.3 17.0563 20.4 16.7563 20.6 14.5563C20.7 13.6563 21.6 8.85627 25.1 8.85627C25.9 8.85627 27.1 9.25628 27.2 11.0563C27.2 11.2563 26.5 16.8563 22.5 17.0563Z" fill="#282781"/>
<path d="M65.5999 13.3563L64.8999 16.3563C64.8999 16.3563 63.7999 17.4563 62.2999 17.4563C61.8999 17.4563 60.5999 17.4563 60.5999 16.2563C60.4999 13.0563 65.5999 13.3563 65.5999 13.3563ZM66.2999 10.6563C66.2999 10.6563 62.6999 10.3563 59.7999 11.6563C57.5999 12.5563 55.8999 14.4563 55.8999 17.3563C55.8999 18.1563 56.8999 20.4563 59.9999 20.6563C60.0999 20.6563 62.6999 20.8563 64.0999 19.8563L63.8999 20.6563H68.2999C68.2999 20.6563 69.8999 14.8563 71.0999 8.95626C71.0999 8.75626 71.7999 4.85626 65.0999 5.05626C64.2999 5.05626 61.4999 5.05626 60.0999 5.05626L59.1999 8.75626H63.7999C67.2999 8.75626 66.5999 10.6563 66.2999 10.6563Z" fill="#282781"/>
<path d="M18.0001 5.05629L19.0001 0.856281C19.0001 0.856281 18.5001 0.856281 14.7001 0.856281C13.5001 0.856281 3.10012 -0.0437098 2.30012 14.2563C2.30012 15.1563 2.20012 20.6563 9.60012 20.6563C10.2001 20.6563 13.4001 20.6563 14.2001 20.6563L15.3001 16.4563C15.3001 16.4563 14.2001 16.5563 11.6001 16.4563C8.90012 16.4563 6.70012 17.0563 7.00012 13.1563C7.10012 12.2563 8.20012 5.05629 14.0001 5.05629H18.0001Z" fill="#282781"/>
<path d="M30.3999 20.6563H34.9999C34.9999 20.6563 37.4999 10.4563 37.4999 10.1563C37.5999 9.85627 38.0999 8.75627 40.0999 8.75627C40.6999 8.75627 41.9999 8.95627 41.8999 10.5563C41.8999 11.0563 39.4999 20.6563 39.4999 20.6563H43.8999C43.8999 20.6563 46.3999 10.8563 46.4999 10.1563C46.4999 9.95627 47.5999 5.55627 43.2999 5.15627C42.7999 5.15627 41.3999 4.85627 38.5999 5.95627L38.7999 5.15627H34.3999L30.3999 20.6563Z" fill="#282781"/>
<path d="M86.3 2.75629H90.7L90.2 5.05629H91.8H94.4L94.1 6.15628L93.5 8.75629H89.8H89.1C89.1 8.75629 87.6 14.8563 87.6 15.0563C87.5 15.4563 87 16.9563 89 16.9563C89.8 16.9563 91.4 16.9563 91.4 16.9563L90.5 20.5563C90.5 20.5563 89 20.5563 87.2 20.5563C86.7 20.5563 82.4 20.7563 82.6 17.3563C82.9 16.7563 86.3 2.75629 86.3 2.75629Z" fill="#282781"/>
<path d="M50.0999 2.75629H54.4999L53.9999 5.05629H55.5999H58.1999L57.8999 6.15628L57.2999 8.75629H53.5999H52.9999C52.9999 8.75629 51.4999 14.8563 51.4999 15.0563C51.3999 15.4563 50.8999 16.9563 52.8999 16.9563C53.6999 16.9563 55.2999 16.9563 55.2999 16.9563L54.3999 20.5563C54.3999 20.5563 52.8999 20.5563 51.0999 20.5563C50.5999 20.5563 46.2999 20.7563 46.4999 17.3563C46.5999 16.7563 50.0999 2.75629 50.0999 2.75629Z" fill="#282781"/>
<path d="M83.0999 8.75629C83.0999 8.75629 83.2999 8.75629 80.2999 8.75629C75.6999 8.75629 75.2999 13.7563 75.2999 14.5563C75.2999 17.0563 77.2999 16.9563 78.1999 16.9563C81.0999 16.9563 81.1999 16.9563 81.1999 16.9563L80.2999 20.5563C79.5999 20.5563 77.8999 20.5563 76.9999 20.5563C70.4999 20.5563 70.5999 15.7563 70.5999 15.1563C71.5999 4.45629 80.6999 4.95629 80.9999 4.95629C84.0999 4.95629 84.0999 4.95629 84.0999 4.95629L83.0999 8.75629Z" fill="#282781"/>
<path d="M16.5 25.6562L15.7 29.6562H61.7L62.7999 25.6562H16.5Z" fill="#F58220"/>
<path d="M16.5 25.6562L15.7 29.6562H6L6.7 25.6562H16.5Z" fill="#FDB933"/>
<path d="M6.7 25.6562L6 29.6562H0L0.9 25.6562H6.7Z" fill="#FFDE22"/>
</svg>
