<svg width="95" height="30" viewBox="0 0 95 30" fill="none" xmlns="http://www.w3.org/2000/svg">
<path d="M72.6 28.7L72.2 29.7H70.8L73.4 23.9H74.8L77.4 29.7H76L75.6 28.7H72.6ZM73.1 27.5H75.1L74.1 25.1L73.1 27.5Z" fill="#0168A6"/>
<path d="M78.9001 27.8C78.9001 28.4 79.2001 28.8 79.7001 28.8C80.3001 28.8 80.6001 28.3 80.6001 27.8V25.6H81.8001V29.7H80.7001V29.2C80.3001 29.7 79.9001 29.8 79.4001 29.8C78.5001 29.8 77.6001 29.4 77.6001 27.8V25.6H78.8001V27.8H78.9001Z" fill="#0168A6"/>
<path d="M84.5001 25.6H85.5001V26.6H84.5001V28.2C84.5001 28.6 84.7001 28.7 85.0001 28.7C85.1001 28.7 85.4001 28.7 85.5001 28.6L85.8001 29.6C85.5001 29.7 85.3001 29.8 84.9001 29.8C84.0001 29.8 83.3001 29.4 83.3001 28.2V26.6H82.6001V25.6H83.3001V24.6L84.5001 24.5V25.6Z" fill="#0168A6"/>
<path d="M86.2 27.6C86.2 26.4 87.1 25.4 88.4 25.4C89.8 25.4 90.7 26.3 90.7 27.6C90.7 28.9 89.8 29.8 88.4 29.8C87 29.8 86.2 29 86.2 27.6ZM89.5 27.6C89.5 27.1 89.2 26.5 88.5 26.5C87.8 26.5 87.5 27.1 87.5 27.6C87.5 28.2 87.8 28.7 88.5 28.7C89.1 28.8 89.5 28.2 89.5 27.6Z" fill="#0168A6"/>
<path fill-rule="evenodd" clip-rule="evenodd" d="M25.6 5.09998C17.2 5.09998 16 14.2 16.1 15.4C16.2 20.9 21.5 20.6 22.1 20.6C30.8 20.6 31.4 10.7 31.3 10.4C31.2 4.99998 26.1 5.09998 25.6 5.09998ZM22.5 17.1C22.3 17.1 20.4 16.8 20.6 14.6C20.7 13.7 21.6 8.89998 25.1 8.89998C25.9 8.89998 27.1 9.29998 27.2 11.1C27.2 11.4 26.5 16.9 22.5 17.1Z" fill="#282781"/>
<path d="M65.5999 13.5L64.8999 16.5C64.8999 16.5 63.7999 17.6 62.2999 17.6C61.8999 17.6 60.5999 17.6 60.5999 16.4C60.4999 13.1 65.5999 13.5 65.5999 13.5ZM66.2999 10.7C66.2999 10.7 62.6999 10.4 59.7999 11.7C57.5999 12.6 55.8999 14.5 55.8999 17.4C55.8999 18.2 56.8999 20.5 59.9999 20.7C60.0999 20.7 62.6999 20.9 64.0999 19.9L63.8999 20.7H68.2999C68.2999 20.7 69.8999 14.9 71.0999 8.99997C71.0999 8.79997 71.7999 4.89996 65.0999 5.09996C64.2999 5.09996 61.4999 5.09996 60.0999 5.09996L59.1999 8.79997H63.7999C67.2999 8.89997 66.5999 10.7 66.2999 10.7Z" fill="#282781"/>
<path d="M18 5.09998L19 0.899982C19 0.899982 18.5 0.899982 14.7 0.899982C13.5 0.899982 3.1 -1.62125e-05 2.3 14.3C2.3 15.2 2.2 20.7 9.6 20.7C10.2 20.7 13.4 20.7 14.2 20.7L15.3 16.5C15.3 16.5 14.2 16.6 11.6 16.5C8.9 16.5 6.7 17.1 7 13.2C7.1 12.3 8.2 5.09998 14 5.09998H18Z" fill="#282781"/>
<path d="M30.3999 20.7H34.9999C34.9999 20.7 37.4999 10.5 37.4999 10.2C37.5999 9.89997 38.0999 8.79997 40.0999 8.79997C40.6999 8.79997 41.9999 8.99997 41.8999 10.6C41.8999 11.1 39.4999 20.7 39.4999 20.7H43.8999C43.8999 20.7 46.3999 10.9 46.4999 10.2C46.4999 9.99997 47.5999 5.59997 43.2999 5.19997C42.7999 5.19997 41.3999 4.89997 38.5999 5.99997L38.7999 5.19997H34.3999L30.3999 20.7Z" fill="#282781"/>
<path d="M86.3 2.79999H90.7L90.2 5.09998H91.8H94.4L94.1 6.19998L93.5 8.79999H89.8H89.1C89.1 8.79999 87.6 14.9 87.6 15.1C87.5 15.5 87 17 89 17C89.8 17 91.4 17 91.4 17L90.5 20.6C90.5 20.6 89 20.6 87.2 20.6C86.7 20.6 82.4 20.8 82.6 17.4C82.9 16.8 86.3 2.79999 86.3 2.79999Z" fill="#282781"/>
<path d="M50.0999 2.79999H54.4999L53.9999 5.09998H55.5999H58.1999L57.8999 6.19998L57.2999 8.79999H53.5999H52.9999C52.9999 8.79999 51.4999 14.9 51.4999 15.1C51.3999 15.5 50.8999 17 52.8999 17C53.6999 17 55.2999 17 55.2999 17L54.3999 20.6C54.3999 20.6 52.8999 20.6 51.0999 20.6C50.5999 20.6 46.2999 20.8 46.4999 17.4C46.5999 16.8 50.0999 2.79999 50.0999 2.79999Z" fill="#282781"/>
<path d="M83.0999 8.89997C83.0999 8.89997 83.2999 8.89997 80.2999 8.89997C75.6999 8.89997 75.2999 13.9 75.2999 14.7C75.2999 17.2 77.2999 17.1 78.1999 17.1C81.0999 17.1 81.1999 17.1 81.1999 17.1L80.2999 20.7C79.5999 20.7 77.8999 20.7 76.9999 20.7C70.4999 20.7 70.5999 15.9 70.5999 15.3C71.5999 4.59997 80.6999 5.09997 80.9999 5.09997C84.0999 5.09997 84.0999 5.09997 84.0999 5.09997L83.0999 8.89997Z" fill="#282781"/>
<path d="M16.5 25.8L15.7 29.7H67.8L68.9 25.8H16.5Z" fill="#F58220"/>
<path d="M16.5 25.7L15.7 29.7H6L6.7 25.7H16.5Z" fill="#FDB933"/>
<path d="M6.7 25.7L6 29.7H0L0.9 25.7H6.7Z" fill="#FFDE22"/>
</svg>
