<svg width="21" height="21" viewBox="0 0 21 21" fill="none" xmlns="http://www.w3.org/2000/svg">
<path d="M18.375 13.125C18.375 12.6418 18.7668 12.25 19.25 12.25C19.7332 12.25 20.125 12.6418 20.125 13.125V16.625C20.125 18.558 18.558 20.125 16.625 20.125H4.375C2.442 20.125 0.875 18.558 0.875 16.625V13.125C0.875 12.6418 1.26675 12.25 1.75 12.25C2.23325 12.25 2.625 12.6418 2.625 13.125V16.625C2.625 17.5915 3.4085 18.375 4.375 18.375H16.625C17.5915 18.375 18.375 17.5915 18.375 16.625V13.125ZM20.125 7V9.625C20.125 9.90041 19.9953 10.1598 19.775 10.325C17.2821 12.1946 14.181 13.125 10.5 13.125C6.81905 13.125 3.71786 12.1946 1.225 10.325C1.00467 10.1598 0.875 9.90041 0.875 9.625V7C0.875 5.55025 2.05025 4.375 3.5 4.375H17.5C18.9497 4.375 20.125 5.55025 20.125 7ZM18.375 7C18.375 6.51675 17.9832 6.125 17.5 6.125H3.5C3.01675 6.125 2.625 6.51675 2.625 7V9.17716C4.73978 10.6399 7.35669 11.375 10.5 11.375C13.6433 11.375 16.2602 10.6399 18.375 9.17716V7Z" fill="#828282"/>
<path d="M11.375 8.75C11.8583 8.75 12.25 9.14175 12.25 9.625C12.25 10.1082 11.8583 10.5 11.375 10.5H9.625C9.14175 10.5 8.75 10.1082 8.75 9.625C8.75 9.14175 9.14175 8.75 9.625 8.75H11.375ZM7.61872 3.24372C7.27701 3.58543 6.72299 3.58543 6.38128 3.24372C6.03957 2.90201 6.03957 2.34799 6.38128 2.00628L6.74372 1.64384C7.236 1.15156 7.90368 0.875 8.59987 0.875H12.4001C13.0963 0.875 13.764 1.15156 14.2563 1.64384L14.6187 2.00628C14.9604 2.34799 14.9604 2.90201 14.6187 3.24372C14.277 3.58543 13.723 3.58543 13.3813 3.24372L13.0188 2.88128C12.8548 2.71719 12.6322 2.625 12.4001 2.625H8.59987C8.36781 2.625 8.14525 2.71719 7.98116 2.88128L7.61872 3.24372Z" fill="#828282"/>
</svg>
