<svg width="52" height="52" viewBox="0 0 52 52" fill="none" xmlns="http://www.w3.org/2000/svg">
<circle cx="26" cy="26" r="25" stroke="#EEE433" stroke-width="2"/>
<mask id="path-2-inside-1" fill="white">
<path d="M1.52177 17.2355C3.59607 11.4422 7.65788 6.5724 12.9849 3.49209C18.3118 0.411776 24.5587 -0.679348 30.6144 0.412759C36.6702 1.50487 42.1424 4.70941 46.0577 9.4565C49.9731 14.2036 52.0779 20.1855 51.9978 26.3384C51.9177 32.4914 49.6579 38.4165 45.6203 43.06C41.5826 47.7036 36.0289 50.7646 29.9468 51.6987C23.8646 52.6328 17.6483 51.3794 12.4033 48.1615C7.15835 44.9435 3.22469 39.9696 1.3019 34.1243L26 26L1.52177 17.2355Z"/>
</mask>
<path d="M1.52177 17.2355C3.59607 11.4422 7.65788 6.5724 12.9849 3.49209C18.3118 0.411776 24.5587 -0.679348 30.6144 0.412759C36.6702 1.50487 42.1424 4.70941 46.0577 9.4565C49.9731 14.2036 52.0779 20.1855 51.9978 26.3384C51.9177 32.4914 49.6579 38.4165 45.6203 43.06C41.5826 47.7036 36.0289 50.7646 29.9468 51.6987C23.8646 52.6328 17.6483 51.3794 12.4033 48.1615C7.15835 44.9435 3.22469 39.9696 1.3019 34.1243L26 26L1.52177 17.2355Z" stroke="#F4B938" stroke-width="4" mask="url(#path-2-inside-1)"/>
<mask id="path-3-inside-2" fill="white">
<path d="M1.52177 17.2355C3.25522 12.3942 6.38536 8.1756 10.5164 5.11322C14.6474 2.05085 19.5937 0.282241 24.7299 0.0310405C29.8661 -0.22016 34.9614 1.05733 39.3715 3.70197C43.7817 6.34661 47.3085 10.2396 49.5061 14.8887C51.7038 19.5378 52.4734 24.7341 51.7178 29.8206C50.9621 34.9071 48.7151 39.6553 45.2609 43.4647C41.8067 47.2742 37.3005 49.9738 32.312 51.2222C27.3235 52.4706 22.0769 52.2117 17.2355 50.4782L26 26L1.52177 17.2355Z"/>
</mask>
<path d="M1.52177 17.2355C3.25522 12.3942 6.38536 8.1756 10.5164 5.11322C14.6474 2.05085 19.5937 0.282241 24.7299 0.0310405C29.8661 -0.22016 34.9614 1.05733 39.3715 3.70197C43.7817 6.34661 47.3085 10.2396 49.5061 14.8887C51.7038 19.5378 52.4734 24.7341 51.7178 29.8206C50.9621 34.9071 48.7151 39.6553 45.2609 43.4647C41.8067 47.2742 37.3005 49.9738 32.312 51.2222C27.3235 52.4706 22.0769 52.2117 17.2355 50.4782L26 26L1.52177 17.2355Z" stroke="#EE8F21" stroke-width="4" mask="url(#path-3-inside-2)"/>
<circle cx="26" cy="26" r="24" fill="#0F206C"/>
<path d="M34.1733 18.024L35.1625 14.0123C35.1625 14.0123 34.6404 14.0123 31.0408 14.0123C29.8868 14.0123 19.9675 13.1056 19.2256 26.8443C19.1706 27.6961 19.1157 32.9168 26.2323 32.9168C26.7818 32.9168 29.8318 32.8893 30.5737 32.8893L31.6179 28.8776C31.6179 28.8776 30.5462 28.9326 28.1282 28.9051C25.6003 28.8776 23.4571 29.4546 23.7868 25.7452C23.8692 24.8934 24.8859 18.0515 30.4363 18.0515H34.1733V18.024Z" fill="white"/>
<path d="M25.958 35.1699L25.381 38.0001H29.9524L30.7493 35.1699L25.958 35.1699Z" fill="#EE8F21"/>
<path d="M26.2036 35.1699L25.6266 38.0001H21.2865L21.8086 35.1699H26.2036Z" fill="#F4B938"/>
<path d="M21.8085 35.1699L21.2865 38.0001H17L17.632 35.1699H21.8085Z" fill="#EEE433"/>
</svg>
