<svg width="95" height="32" viewBox="0 0 95 32" fill="none" xmlns="http://www.w3.org/2000/svg">
<path d="M56.6001 23.6H60.8001V24.8H57.9001V26.2H60.7001V27.4H57.9001V29.5H56.6001V23.6Z" fill="#967859"/>
<path d="M62.1001 23.5C62.4001 23.5 62.8001 23.7 62.8001 24.2C62.8001 24.7 62.5001 24.9 62.1001 24.9C61.8001 24.9 61.4001 24.7 61.4001 24.2C61.4001 23.7 61.8001 23.5 62.1001 23.5ZM62.7001 29.4H61.5001V25.3H62.7001V29.4Z" fill="#967859"/>
<path d="M66.5001 27.2C66.5001 26.6 66.2001 26.2 65.7001 26.2C65.1001 26.2 64.8001 26.7 64.8001 27.2V29.3H63.6001V25.2H64.7001V25.7C65.1001 25.2 65.5001 25.1 66.0001 25.1C66.9001 25.1 67.8001 25.5 67.8001 27.1V29.3H66.6001V27.2H66.5001Z" fill="#967859"/>
<path d="M69.1001 23.5C69.4001 23.5 69.8001 23.7 69.8001 24.2C69.8001 24.7 69.5001 24.9 69.1001 24.9C68.7001 24.9 68.4001 24.7 68.4001 24.2C68.5001 23.7 68.8001 23.5 69.1001 23.5ZM69.7001 29.4H68.5001V25.3H69.7001V29.4Z" fill="#967859"/>
<path d="M72.2 26.2001C71.8 26.2001 71.6 26.3001 71.6 26.5001C71.6 26.7001 71.8 26.9001 72.2 26.9001C73 26.9001 74 27.1001 74 28.2001C74 28.8001 73.5 29.6001 72.2 29.6001C71.6 29.6001 71 29.5001 70.3 28.9001L70.8 28.1001C71.3 28.5001 71.8 28.6001 72.3 28.6001C72.6 28.6001 72.9 28.5 72.9 28.3C72.9 28.1 72.8 28.0001 72.2 27.9001C71.4 27.9001 70.5 27.5001 70.5 26.6001C70.5 25.7001 71.4 25.3 72.3 25.3C72.9 25.3 73.4 25.5 73.9 25.8L73.3 26.5001C72.9 26.3001 72.6 26.2001 72.2 26.2001Z" fill="#967859"/>
<path d="M75.8 25.8C76.1 25.4 76.6 25.2 77 25.2C78 25.2 78.6 25.7 78.6 27.2V29.4H77.4V27.2C77.4 26.6 77.1 26.3 76.6 26.3C76.1 26.3 75.7 26.6 75.7 27.3V29.4H74.5V23.6H75.7V25.8H75.8Z" fill="#967859"/>
<path d="M80.1001 23.5C80.4001 23.5 80.8001 23.7 80.8001 24.2C80.8001 24.7 80.5001 24.9 80.1001 24.9C79.7001 24.9 79.4001 24.7 79.4001 24.2C79.4001 23.7 79.7001 23.5 80.1001 23.5ZM80.7001 29.4H79.5001V25.3H80.7001V29.4Z" fill="#967859"/>
<path d="M84.5001 27.2C84.5001 26.6 84.2001 26.2 83.7001 26.2C83.1001 26.2 82.8001 26.7 82.8001 27.2V29.3H81.6001V25.2H82.7001V25.7C83.1001 25.2 83.5001 25.1 84.0001 25.1C84.9001 25.1 85.8001 25.5 85.8001 27.1V29.3H84.6001V27.2H84.5001Z" fill="#967859"/>
<path d="M88.5 30.7999C89 30.7999 89.5 30.5999 89.5 29.9999C89.5 29.5999 89.2 29.2999 88.5 29.2999C87.2 29.2999 86.3 28.5 86.3 27.2C86.3 25.8 87.4 25.0999 88.5 25.0999C88.8 25.0999 89.2 25.0999 89.5 25.2999L89.9 24.7L90.8 25.3999L90.3 25.9999C90.6 26.2999 90.7 26.6999 90.7 27.0999C90.7 27.6999 90.4 28.2999 89.8 28.5999C90.7 28.9999 90.7 29.6999 90.7 29.8999C90.7 31.0999 89.6 31.7 88.5 31.7C87.1 31.7 86.3 30.9999 86.4 29.7999H87.5C87.5 30.5999 87.9 30.7999 88.5 30.7999ZM87.4 27.2999C87.4 27.8999 87.9 28.2999 88.5 28.2999C89 28.2999 89.5 27.9999 89.5 27.2999C89.5 26.6999 89.1 26.2999 88.5 26.2999C87.9 26.2999 87.4 26.5999 87.4 27.2999Z" fill="#967859"/>
<path fill-rule="evenodd" clip-rule="evenodd" d="M25.6 4.90003C17.2 4.90003 16 14 16.1 15.2C16.2 20.7 21.5 20.4 22.1 20.4C30.8 20.4 31.4 10.5 31.3 10.2C31.2 4.80005 26.1 4.90003 25.6 4.90003ZM22.5 16.8C22.3 16.8 20.4 16.5 20.6 14.3C20.7 13.4 21.6 8.60004 25.1 8.60004C25.9 8.60004 27.1 9.00002 27.2 10.8C27.2 11.1 26.5 16.6 22.5 16.8Z" fill="#282781"/>
<path d="M65.5999 13.1999L64.8999 16.1999C64.8999 16.1999 63.7999 17.2999 62.2999 17.2999C61.8999 17.2999 60.5999 17.2999 60.5999 16.0999C60.4999 12.7999 65.5999 13.1999 65.5999 13.1999ZM66.2999 10.3999C66.2999 10.3999 62.6999 10.0999 59.7999 11.3999C57.5999 12.2999 55.8999 14.1999 55.8999 17.0999C55.8999 17.8999 56.8999 20.1999 59.9999 20.3999C60.0999 20.3999 62.6999 20.5999 64.0999 19.5999L63.8999 20.3999H68.2999C68.2999 20.3999 69.8999 14.5999 71.0999 8.69994C71.0999 8.49994 71.7999 4.59991 65.0999 4.79991C64.2999 4.79991 61.4999 4.79991 60.0999 4.79991L59.1999 8.49993H63.7999C67.2999 8.59993 66.5999 10.3999 66.2999 10.3999Z" fill="#282781"/>
<path d="M18 4.89995L19 0.69997C19 0.69997 18.5 0.69997 14.7 0.69997C13.5 0.69997 3.1 -0.200036 2.3 14.1C2.3 15 2.2 20.5 9.6 20.5C10.2 20.5 13.4 20.5 14.2 20.5L15.3 16.2999C15.3 16.2999 14.2 16.3999 11.6 16.2999C8.9 16.2999 6.7 16.9 7 13C7.1 12.1 8.2 4.89995 14 4.89995H18Z" fill="#282781"/>
<path d="M30.3999 20.3999H34.9999C34.9999 20.3999 37.4999 10.1999 37.4999 9.89991C37.5999 9.59991 38.0999 8.49992 40.0999 8.49992C40.6999 8.49992 41.9999 8.69991 41.8999 10.2999C41.8999 10.7999 39.4999 20.3999 39.4999 20.3999H43.8999C43.8999 20.3999 46.3999 10.5999 46.4999 9.89991C46.4999 9.69991 47.5999 5.29991 43.2999 4.89991C42.7999 4.89991 41.3999 4.59993 38.5999 5.69993L38.7999 4.89991H34.3999L30.3999 20.3999Z" fill="#282781"/>
<path d="M86.3 2.5H90.7L90.2 4.79999H91.8H94.4L94.1 5.89999L93.5 8.5H89.8H89.1C89.1 8.5 87.6 14.6 87.6 14.8C87.5 15.2 87 16.7 89 16.7C89.8 16.7 91.4 16.7 91.4 16.7L90.5 20.3C90.5 20.3 89 20.3 87.2 20.3C86.7 20.3 82.4 20.5 82.6 17.1C82.9 16.5 86.3 2.5 86.3 2.5Z" fill="#282781"/>
<path d="M50.0999 2.59998H54.4999L53.9999 4.89996H55.5999H58.1999L57.9999 5.99997L57.3999 8.59998H53.6999H52.9999C52.9999 8.59998 51.4999 14.7 51.4999 14.9C51.3999 15.3 50.8999 16.8 52.8999 16.8C53.6999 16.8 55.2999 16.8 55.2999 16.8L54.3999 20.4C54.3999 20.4 52.8999 20.4 51.0999 20.4C50.5999 20.4 46.2999 20.6 46.4999 17.2C46.5999 16.5 50.0999 2.59998 50.0999 2.59998Z" fill="#282781"/>
<path d="M83.0999 8.59994C83.0999 8.59994 83.2999 8.59994 80.2999 8.59994C75.6999 8.59994 75.2999 13.5999 75.2999 14.3999C75.2999 16.8999 77.2999 16.7999 78.1999 16.7999C81.0999 16.7999 81.1999 16.7999 81.1999 16.7999L80.2999 20.3999C79.5999 20.3999 77.8999 20.3999 76.9999 20.3999C70.4999 20.3999 70.5999 15.5999 70.5999 14.9999C71.5999 4.29993 80.6999 4.79992 80.9999 4.79992C84.0999 4.79992 84.0999 4.79992 84.0999 4.79992L83.0999 8.59994Z" fill="#282781"/>
<path d="M16.5 25.5L15.7 29.4H52.9L54.0999 25.5H16.5Z" fill="#F58220"/>
<path d="M16.5 25.5L15.7 29.4H6L6.7 25.5H16.5Z" fill="#FDB933"/>
<path d="M6.7 25.5L6 29.4H0L0.9 25.5H6.7Z" fill="#FFDE22"/>
</svg>
