<svg width="22" height="24" viewBox="0 0 22 24" fill="none" xmlns="http://www.w3.org/2000/svg">
<path fill-rule="evenodd" clip-rule="evenodd" d="M0 6.16216C0 2.75889 2.75889 0 6.16216 0H19.1351C20.389 0 21.4054 1.01643 21.4054 2.27027V21.7297C21.4054 22.9836 20.389 24 19.1351 24H4.86486C2.17807 24 0 21.8219 0 19.1351V6.16216ZM19.4595 2.27027V14.2703H4.86486C3.76968 14.2703 2.75902 14.6322 1.94595 15.2429V6.16216C1.94595 3.83361 3.83361 1.94595 6.16216 1.94595H10.3238C9.9822 4.51659 10.0129 7.12513 10.4166 9.69083L10.4975 10.2053C10.5555 10.5737 10.819 10.8766 11.1759 10.985C11.5328 11.0934 11.9203 10.9882 12.1734 10.7143L13.946 8.79532L15.7185 10.7143C15.9716 10.9882 16.3591 11.0934 16.716 10.985C17.0729 10.8766 17.3364 10.5737 17.3944 10.2053L17.4753 9.69083C17.879 7.12513 17.9097 4.51659 17.5681 1.94595H19.1351C19.3143 1.94595 19.4595 2.09115 19.4595 2.27027ZM15.6037 1.94595H12.2882C12.0065 3.91029 11.9595 5.90036 12.1477 7.87417L12.993 6.9591C13.5066 6.40307 14.3853 6.40307 14.8989 6.9591L15.7442 7.87417C15.9324 5.90036 15.8855 3.91029 15.6037 1.94595ZM4.86486 16.2162H19.4595V21.7297C19.4595 21.9088 19.3143 22.0541 19.1351 22.0541H4.86486C3.25279 22.0541 1.94595 20.7472 1.94595 19.1351C1.94595 17.5231 3.25279 16.2162 4.86486 16.2162Z" fill="#FF3365"/>
</svg>
