<svg width="22" height="24" viewBox="0 0 22 24" fill="none" xmlns="http://www.w3.org/2000/svg">
<path fill-rule="evenodd" clip-rule="evenodd" d="M12.9648 2.78245C11.8257 1.68942 10.0272 1.68942 8.8881 2.78245L2.83462 8.59111C2.6863 8.73343 2.58653 8.91882 2.54946 9.121C1.8244 13.075 1.77088 17.1228 2.39115 21.0946L2.53837 22.0373H6.43293V13.9101C6.43293 13.3681 6.87229 12.9287 7.41427 12.9287H14.4386C14.9806 12.9287 15.4199 13.3681 15.4199 13.9101V22.0373H19.3145L19.4617 21.0946C20.082 17.1228 20.0285 13.075 19.3034 9.121C19.2663 8.91882 19.1666 8.73343 19.0183 8.59111L12.9648 2.78245ZM7.5292 1.36629C9.4277 -0.455429 12.4252 -0.455429 14.3237 1.36629L20.3771 7.17495C20.8228 7.60254 21.1225 8.15954 21.2339 8.767C21.9987 12.9379 22.0552 17.2078 21.4009 21.3974L21.1644 22.9119C21.0666 23.5382 20.5271 24 19.8932 24H14.4386C13.8966 24 13.4573 23.5606 13.4573 23.0187V14.8914H8.39561V23.0187C8.39561 23.5606 7.95625 24 7.41427 24H1.95968C1.32576 24 0.786303 23.5382 0.688489 22.9119L0.45197 21.3974C-0.20232 17.2078 -0.145864 12.9379 0.618967 8.767C0.730359 8.15954 1.03011 7.60254 1.47572 7.17494L7.5292 1.36629Z" fill="#FF3365"/>
</svg>
