<svg width="21" height="21" viewBox="0 0 21 21" fill="none" xmlns="http://www.w3.org/2000/svg">
<path d="M7 18.375V14C7 13.5168 7.39175 13.125 7.875 13.125H13.125C13.6082 13.125 14 13.5167 14 13.9999L14.0004 19.2499C14.0005 19.7332 13.6087 20.125 13.1255 20.125C12.6422 20.125 12.2505 19.7333 12.2504 19.2501L12.2501 14.875H8.75V19.25C8.75 19.7332 8.35825 20.125 7.875 20.125H4.375C2.442 20.125 0.875 18.558 0.875 16.625V7.875C0.875 7.58948 1.01431 7.32191 1.24822 7.15817L9.99822 1.03317C10.2995 0.822276 10.7005 0.822276 11.0018 1.03317L19.7518 7.15817C19.9857 7.32191 20.125 7.58948 20.125 7.875V16.6287C20.125 18.5617 18.558 20.1287 16.625 20.1287C16.1418 20.1287 15.75 19.737 15.75 19.2537C15.75 18.7705 16.1418 18.3787 16.625 18.3787C17.5915 18.3787 18.375 17.5952 18.375 16.6287V8.33057L10.5 2.81807L2.625 8.33057V16.625C2.625 17.5915 3.4085 18.375 4.375 18.375H7Z" fill="#0F206C"/>
<path d="M7.875 11.375C7.39175 11.375 7 10.9832 7 10.5C7 10.0168 7.39175 9.625 7.875 9.625H13.125C13.6082 9.625 14 10.0168 14 10.5C14 10.9832 13.6082 11.375 13.125 11.375H7.875Z" fill="#EE8F21"/>
</svg>
