<svg width="95" height="31" viewBox="0 0 95 31" fill="none" xmlns="http://www.w3.org/2000/svg">
<path d="M26.9 24.2H27.9V28.7H26.9V24.2Z" fill="#6E6F72"/>
<path d="M31.0001 27.1C31.0001 26.6 30.8001 26.4 30.3001 26.4C29.9001 26.4 29.6001 26.8 29.6001 27.2V28.9H28.7001V25.7H29.5001V26.1C29.8001 25.7 30.1001 25.6 30.5001 25.6C31.2001 25.6 31.9001 25.9 31.9001 27.2V28.9H31.0001V27.1Z" fill="#6E6F72"/>
<path d="M33.8 26.3C33.5 26.3 33.3 26.4 33.3 26.6C33.3 26.8 33.5 26.9 33.8 26.9C34.4 26.9 35.2001 27 35.2001 27.9C35.2001 28.4 34.8 29 33.8 29C33.3 29 32.8 28.9 32.3 28.5L32.7001 27.9C33.1001 28.2 33.5 28.3 33.8 28.3C34.1 28.3 34.3 28.2 34.3 28C34.3 27.9 34.2 27.7 33.8 27.7C33.2 27.7 32.5 27.4 32.5 26.7C32.5 26 33.2001 25.7 33.9001 25.7C34.4001 25.7 34.8 25.8 35.1 26.1L34.6 26.7C34.4 26.3 34.1 26.3 33.8 26.3Z" fill="#6E6F72"/>
<path d="M36.6001 27.3C36.6001 27.8 36.8001 28 37.3001 28C37.7001 28 38.0001 27.6 38.0001 27.2V25.5H38.9001V28.7H38.0001V28.3C37.7001 28.7 37.4001 28.8 37.0001 28.8C36.3001 28.8 35.6001 28.5 35.6001 27.2V25.5H36.5001V27.3H36.6001Z" fill="#6E6F72"/>
<path d="M40.5 25.9C40.7 25.6 41 25.5 41.4 25.5C41.7 25.5 42 25.6 42.2 25.8L41.7999 26.5C41.6999 26.4 41.4999 26.3 41.2999 26.3C40.8999 26.3 40.5999 26.6 40.5999 27V28.7H39.7V25.5H40.5999L40.5 25.9Z" fill="#6E6F72"/>
<path d="M45.7001 25.6V28.8H44.9001L44.8001 28.4C44.6001 28.8 44.1001 28.9 43.8001 28.9C42.8001 28.9 42.1001 28.3 42.1001 27.2C42.1001 26.2 42.8001 25.5 43.7001 25.5C44.1001 25.5 44.5001 25.6 44.7001 25.9V25.5H45.7001V25.6ZM43.1001 27.2C43.1001 27.7 43.5001 28 43.9001 28C44.4001 28 44.8001 27.6 44.8001 27.2C44.8001 26.7 44.5001 26.3 43.9001 26.3C43.5001 26.3 43.1001 26.6 43.1001 27.2Z" fill="#6E6F72"/>
<path d="M48.7001 27.1C48.7001 26.6 48.5001 26.4 48.0001 26.4C47.6001 26.4 47.3001 26.8 47.3001 27.2V28.9H46.4001V25.7H47.2001V26.1C47.5001 25.7 47.8001 25.6 48.2001 25.6C48.9001 25.6 49.6001 25.9 49.6001 27.2V28.9H48.7001V27.1Z" fill="#6E6F72"/>
<path d="M51.8 28.9C50.9 28.9 50 28.4 50 27.2C50 26.1 50.8 25.5 51.7 25.5C52.2 25.5 52.5 25.6 52.9 26L52.4 26.6C52.2 26.5 52 26.4 51.8 26.4C51.3 26.4 51 26.7 51 27.2C51 27.7 51.4 28 51.8 28C52 28 52.3 27.9 52.4 27.8L53 28.4C52.7 28.8 52.3 28.9 51.8 28.9Z" fill="#6E6F72"/>
<path d="M55.0999 28.1C55.3999 28.1 55.7 28 55.9 27.8L56.4 28.4C56.1 28.7 55.5 28.9 55 28.9C53.8 28.9 53.2 28.2 53.2 27.2C53.2 26.2 53.9 25.5 54.9 25.5C55.9 25.5 56.5 26 56.5 27.1C56.5 27.2 56.5 27.4 56.5 27.5H54.0999C54.2999 27.8 54.5999 28.1 55.0999 28.1ZM55 26.3C54.6 26.3 54.3 26.5 54.2 26.8H55.7C55.7 26.5 55.4 26.3 55 26.3Z" fill="#6E6F72"/>
<path d="M62.4 25.5C62.4 25.9 62.2 26.2 61.8 26.4C62.3 26.6 62.5 27 62.5 27.5C62.5 27.6 62.5 27.7 62.5 27.7C62.4 28.4 61.8 28.8 60.8 28.8H58.5V24.3H60.7C61.7 24.2 62.4 24.6 62.4 25.5ZM60.8 26C61.2 26 61.4 25.8 61.4 25.6C61.4 25.3 61.2 25.1 60.8 25.1H59.6V26H60.8ZM60.8 27.9C61.3 27.9 61.5 27.7 61.5 27.4C61.5 27.1 61.3 26.9 60.8 26.9H59.6V28H60.8V27.9Z" fill="#6E6F72"/>
<path d="M64 25.9C64.2 25.6 64.5 25.5 64.9 25.5C65.2 25.5 65.4999 25.6 65.6999 25.8L65.3 26.5C65.2 26.4 65 26.3 64.8 26.3C64.4 26.3 64.0999 26.6 64.0999 27V28.7H63.2V25.5H64.0999L64 25.9Z" fill="#6E6F72"/>
<path d="M65.7 27.2C65.7 26.2 66.4 25.5 67.5 25.5C68.6 25.5 69.3 26.2 69.3 27.2C69.3 28.2 68.6 28.9 67.5 28.9C66.4 28.9 65.7 28.2 65.7 27.2ZM68.3 27.2C68.3 26.8 68.1 26.4 67.5 26.4C66.9 26.4 66.7 26.8 66.7 27.2C66.7 27.6 66.9 28.1 67.5 28.1C68 28 68.3 27.6 68.3 27.2Z" fill="#6E6F72"/>
<path d="M70.6 26.8L71.5 25.6H72.6V25.7L71.4 27.1L72.8 28.7V28.8H71.7L70.6 27.4V28.8H69.7V24.3H70.6V26.8Z" fill="#6E6F72"/>
<path d="M74.7999 28.1C75.0999 28.1 75.3999 28 75.5999 27.8L76.0999 28.4C75.7999 28.7 75.1999 28.9 74.6999 28.9C73.4999 28.9 72.8999 28.2 72.8999 27.2C72.8999 26.2 73.5999 25.5 74.5999 25.5C75.5999 25.5 76.1999 26 76.1999 27.1C76.1999 27.2 76.1999 27.4 76.1999 27.5H73.7999C73.8999 27.8 74.1999 28.1 74.7999 28.1ZM74.6999 26.3C74.2999 26.3 73.9999 26.5 73.8999 26.8H75.3999C75.3999 26.5 74.9999 26.3 74.6999 26.3Z" fill="#6E6F72"/>
<path d="M77.6999 25.9C77.8999 25.6 78.1999 25.5 78.5999 25.5C78.8999 25.5 79.1999 25.6 79.3999 25.8L78.9999 26.5C78.8999 26.4 78.6999 26.3 78.4999 26.3C78.0999 26.3 77.7999 26.6 77.7999 27V28.7H76.8999V25.5H77.7999L77.6999 25.9Z" fill="#6E6F72"/>
<path d="M82.9 25.6V28.8H82.1L82 28.4C81.8 28.8 81.3 28.9 81 28.9C80 28.9 79.3 28.3 79.3 27.2C79.3 26.2 80 25.5 80.9 25.5C81.3 25.5 81.7 25.6 81.9 25.9V25.5H82.9V25.6ZM80.3 27.2C80.3 27.7 80.7 28 81.1 28C81.6 28 82 27.6 82 27.2C82 26.7 81.7 26.3 81.1 26.3C80.7 26.3 80.3 26.6 80.3 27.2Z" fill="#6E6F72"/>
<path d="M85.0999 29.9C85.4999 29.9 85.8999 29.7 85.8999 29.3C85.8999 29 85.6999 28.7 85.0999 28.7C83.9999 28.7 83.3999 28.1 83.3999 27.1C83.3999 26 84.1999 25.5 85.0999 25.5C85.2999 25.5 85.5999 25.5 85.8999 25.7L86.2999 25.2L86.9999 25.7L86.5999 26.2C86.7999 26.5 86.8999 26.8 86.8999 27.1C86.8999 27.6 86.6999 28 86.1999 28.3C86.8999 28.6 86.8999 29.2 86.8999 29.3C86.8999 30.3 85.9999 30.7 85.1999 30.7C84.0999 30.7 83.4999 30.2 83.4999 29.2H84.3999C84.3999 29.7 84.6999 29.9 85.0999 29.9ZM84.2999 27.1C84.2999 27.6 84.6999 27.9 85.0999 27.9C85.4999 27.9 85.8999 27.6 85.8999 27.1C85.8999 26.7 85.5999 26.3 85.0999 26.3C84.6999 26.3 84.2999 26.6 84.2999 27.1Z" fill="#6E6F72"/>
<path d="M89.0001 28.1C89.3001 28.1 89.6001 28 89.8001 27.8L90.3001 28.4C90.0001 28.7 89.4001 28.9 88.9001 28.9C87.7001 28.9 87.1001 28.2 87.1001 27.2C87.1001 26.2 87.8001 25.5 88.8001 25.5C89.8001 25.5 90.4001 26 90.4001 27.1C90.4001 27.2 90.4001 27.4 90.4001 27.5H88.0001C88.2001 27.8 88.5001 28.1 89.0001 28.1ZM88.9001 26.3C88.5001 26.3 88.2001 26.5 88.1001 26.8H89.6001C89.7001 26.5 89.3001 26.3 88.9001 26.3Z" fill="#6E6F72"/>
<path fill-rule="evenodd" clip-rule="evenodd" d="M25.6 4.20002C17.2 4.20002 16 13.3 16.1 14.5C16.2 20 21.5 19.7 22.1 19.7C30.8 19.7 31.4 9.80002 31.3 9.50002C31.2 4.10002 26.1 4.20002 25.6 4.20002ZM22.5 16.2C22.3 16.2 20.4 15.9 20.6 13.7C20.7 12.8 21.6 8.00002 25.1 8.00002C25.9 8.00002 27.1 8.40002 27.2 10.2C27.2 10.4 26.5 16 22.5 16.2Z" fill="#282781"/>
<path d="M65.5999 12.5L64.8999 15.5C64.8999 15.5 63.7999 16.6 62.2999 16.6C61.8999 16.6 60.5999 16.6 60.5999 15.4C60.4999 12.2 65.5999 12.5 65.5999 12.5ZM66.2999 9.8C66.2999 9.8 62.6999 9.5 59.7999 10.8C57.5999 11.7 55.8999 13.6 55.8999 16.5C55.8999 17.3 56.8999 19.6 59.9999 19.8C60.0999 19.8 62.6999 20 64.0999 19L63.8999 19.8H68.2999C68.2999 19.8 69.8999 14 71.0999 8.1C71.0999 7.9 71.7999 4 65.0999 4.2C64.2999 4.2 61.4999 4.2 60.0999 4.2L59.1999 7.9H63.7999C67.2999 7.9 66.5999 9.8 66.2999 9.8Z" fill="#282781"/>
<path d="M18 4.20002L19 1.91173e-05C19 1.91173e-05 18.5 1.91173e-05 14.7 1.91173e-05C13.5 1.91173e-05 3.1 -0.899981 2.3 13.4C2.3 14.3 2.2 19.8 9.6 19.8C10.2 19.8 13.4 19.8 14.2 19.8L15.3 15.6C15.3 15.6 14.2 15.7 11.6 15.6C8.9 15.6 6.7 16.2 7 12.3C7.1 11.4 8.2 4.20002 14 4.20002H18Z" fill="#282781"/>
<path d="M30.3999 19.8H34.9999C34.9999 19.8 37.4999 9.6 37.4999 9.3C37.4999 9.1 37.9999 7.9 39.9999 7.9C40.5999 7.9 41.8999 8.1 41.7999 9.7C41.7999 10.2 39.3999 19.8 39.3999 19.8H43.7999C43.7999 19.8 46.2999 10 46.3999 9.3C46.3999 9.1 47.4999 4.7 43.1999 4.3C42.6999 4.3 41.2999 4 38.4999 5.1L38.6999 4.3H34.2999L30.3999 19.8Z" fill="#282781"/>
<path d="M86.3 1.90002H90.7L90.2 4.20002H91.8H94.4L94.1 5.30002L93.5 7.90002H89.8H89.1C89.1 7.90002 87.6 14 87.6 14.2C87.5 14.6 87 16.1 89 16.1C89.8 16.1 91.4 16.1 91.4 16.1L90.5 19.7C90.5 19.7 89 19.7 87.2 19.7C86.7 19.7 82.4 19.9 82.6 16.5C82.9 15.9 86.3 1.90002 86.3 1.90002Z" fill="#282781"/>
<path d="M50.0999 1.90002H54.4999L53.9999 4.30002H55.5999H58.1999L57.9999 5.30002L57.2999 8.00002H53.5999H52.9999C52.9999 8.00002 51.4999 14.1 51.4999 14.3C51.3999 14.7 50.8999 16.2 52.8999 16.2C53.6999 16.2 55.2999 16.2 55.2999 16.2L54.3999 19.8C54.3999 19.8 52.8999 19.8 51.0999 19.8C50.5999 19.8 46.2999 20 46.4999 16.6C46.5999 15.9 50.0999 1.90002 50.0999 1.90002Z" fill="#282781"/>
<path d="M83.0999 7.90001C83.0999 7.90001 83.2999 7.90001 80.2999 7.90001C75.6999 7.90001 75.2999 12.9 75.2999 13.7C75.2999 16.2 77.2999 16.1 78.1999 16.1C81.0999 16.1 81.1999 16.1 81.1999 16.1L80.2999 19.7C79.5999 19.7 77.8999 19.7 76.9999 19.7C70.4999 19.7 70.5999 14.9 70.5999 14.3C71.5999 3.7 80.6999 4.2 80.9999 4.2C84.0999 4.2 84.0999 4.2 84.0999 4.2L83.0999 7.90001Z" fill="#282781"/>
<path d="M12 24.8L11.2 28.8H24.1L25.2 24.8H12Z" fill="#F58220"/>
<path d="M12 24.8L11.2 28.8H6L6.7 24.8H12Z" fill="#FDB933"/>
<path d="M6.7 24.8L6 28.8H0L0.9 24.8H6.7Z" fill="#FFDE22"/>
</svg>
