<svg width="60" height="53" viewBox="0 0 60 53" fill="none" xmlns="http://www.w3.org/2000/svg">
<g clip-path="url(#clip0)">
<path d="M53.2569 9.40918H24.4954V52.9993H53.2569C56.9725 52.9993 60 49.9549 60 46.2186V16.1899C60 12.4536 56.9725 9.40918 53.2569 9.40918Z" fill="#EE8F21"/>
<path d="M24.4954 53.0007V43.5908H33.578L24.4954 53.0007Z" fill="#915B1C"/>
<path d="M6.74312 43.5901H33.4404V0H6.74312C3.02752 0 0 3.04439 0 6.78068V36.8094C0 40.5457 3.02752 43.5901 6.74312 43.5901Z" fill="#F0EFFF"/>
<path d="M46.9266 28.3683C45.1376 29.0602 43.4863 29.7521 42.2477 30.5824C40.8716 31.4126 39.9083 32.5197 39.9083 33.6267C39.9083 35.9792 42.5229 37.6398 46.2385 37.6398C47.6147 37.6398 48.8532 37.5014 49.8165 37.2247L49.9541 37.5014C49.2661 38.0549 48.4404 38.6085 47.6147 39.0236C47.2018 39.3004 46.3762 39.4388 45.2752 39.4388C41.8349 39.4388 39.0826 37.7782 39.0826 34.1803C39.0826 32.3813 40.0459 30.8591 41.422 29.6137C39.9083 28.5066 39.3578 27.8147 39.3578 26.5693C39.3578 26.0158 39.633 25.1855 40.0459 24.4936C40.734 23.3865 41.5596 22.833 42.6606 22.833C43.8991 22.833 44.8624 23.3865 45.6881 24.632L45.4129 24.9087C44.7248 24.632 44.0367 24.4936 43.211 24.4936C41.6973 24.4936 40.4587 25.3239 40.4587 25.8774C40.4587 26.5693 40.8716 26.9844 41.6973 27.6764C42.2477 28.0915 42.9358 28.3683 43.211 28.3683C43.4862 28.3683 43.7615 28.2299 44.0367 28.0915C45.2752 27.538 46.5138 26.9844 47.7523 26.4309H47.8899L46.9266 28.3683Z" fill="#F0EFFF"/>
<path d="M6.05505 27.6758V16.0518H14.5872V18.4042H8.66973V20.6183H14.3119V22.8324H8.66973V25.1849H15V27.6758H6.05505Z" fill="#0F206C"/>
<path d="M24.7707 19.9264V16.0518H27.3854V27.6758H25.1835L19.4037 20.2032L19.5413 24.0779V27.6758H16.9266V16.0518H19.1285L24.9083 23.6627L24.7707 19.9264Z" fill="#0F206C"/>
</g>
<defs>
<clipPath id="clip0">
<rect width="60" height="53" fill="white"/>
</clipPath>
</defs>
</svg>
