<svg width="28" height="24" viewBox="0 0 28 24" fill="none" xmlns="http://www.w3.org/2000/svg">
<path d="M24.2507 4.26099H11.1541V23.9999H24.2507C25.9426 23.9999 27.3212 22.6213 27.3212 20.9294V7.33148C27.3212 5.63958 25.9426 4.26099 24.2507 4.26099Z" fill="#EE8F21"/>
<path d="M11.1541 24.0001V19.739H15.2898L11.1541 24.0001Z" fill="#915B1C"/>
<path d="M3.0705 19.7389H15.2272V0H3.0705C1.37859 0 0 1.37859 0 3.0705V16.6684C0 18.3603 1.37859 19.7389 3.0705 19.7389Z" fill="#F0EFFF"/>
<path d="M21.3681 12.8459C20.5535 13.1592 19.8015 13.4725 19.2376 13.8485C18.6109 14.2245 18.1723 14.7258 18.1723 15.2271C18.1723 16.2924 19.3629 17.0443 21.0548 17.0443C21.6814 17.0443 22.2454 16.9817 22.6841 16.8563L22.7467 16.9817C22.4334 17.2323 22.0574 17.483 21.6814 17.6709C21.4935 17.7963 21.1175 17.8589 20.6162 17.8589C19.0496 17.8589 17.7963 17.107 17.7963 15.4777C17.7963 14.6631 18.235 13.9738 18.8616 13.4099C18.1723 12.9085 17.9217 12.5952 17.9217 12.0313C17.9217 11.7806 18.047 11.4046 18.235 11.0913C18.5483 10.59 18.9243 10.3394 19.4256 10.3394C19.9895 10.3394 20.4282 10.59 20.8042 11.154L20.6788 11.2793C20.3655 11.154 20.0522 11.0913 19.6762 11.0913C18.9869 11.0913 18.423 11.4673 18.423 11.7179C18.423 12.0313 18.6109 12.2193 18.9869 12.5326C19.2376 12.7206 19.5509 12.8459 19.6762 12.8459C19.8015 12.8459 19.9269 12.7832 20.0522 12.7206C20.6162 12.4699 21.1801 12.2193 21.7441 11.9686H21.8068L21.3681 12.8459Z" fill="#F0EFFF"/>
<path d="M2.7572 12.5325V7.2688H6.64232V8.33407H3.9478V9.33668H6.51699V10.3393H3.9478V11.4046H6.83031V12.5325H2.7572Z" fill="#0F206C"/>
<path d="M11.2794 9.02337V7.2688H12.47V12.5325H11.4674L8.83552 9.14869L8.89818 10.9033V12.5325H7.70758V7.2688H8.71019L11.342 10.7153L11.2794 9.02337Z" fill="#0F206C"/>
</svg>
