<svg width="95" height="32" viewBox="0 0 95 32" fill="none" xmlns="http://www.w3.org/2000/svg">
<path d="M62.1999 28.4999H65.0999V29.6999H60.8999V23.8999H62.1999V28.4999Z" fill="#7A1315"/>
<path d="M67.6999 28.7C67.9999 28.7 68.4999 28.6 68.7999 28.4L69.4999 29.2C69.0999 29.6 68.3999 29.8 67.6999 29.8C66.1999 29.8 65.3999 28.9 65.3999 27.6C65.3999 26.4 66.1999 25.5 67.5999 25.5C68.7999 25.5 69.6999 26.2 69.6999 27.5C69.6999 27.7 69.6999 27.9 69.6999 28.1H66.6999C66.6999 28.4 67.0999 28.7 67.6999 28.7ZM67.5999 26.5C67.0999 26.5 66.7999 26.7 66.5999 27.2H68.4999C68.4999 26.7 68.0999 26.5 67.5999 26.5Z" fill="#7A1315"/>
<path d="M74.6 25.4999V29.5999H73.5L73.4 29.0999C73.1 29.5999 72.5 29.6999 72.1 29.6999C70.9 29.6999 70 28.8999 70 27.4999C70 26.1999 70.9 25.3999 72.1 25.3999C72.6 25.3999 73.1 25.5999 73.4 25.9999V25.4999H74.6ZM71.2 27.5999C71.2 28.2999 71.7 28.6999 72.3 28.6999C73 28.6999 73.4 28.1999 73.4 27.6999C73.4 27.0999 73 26.5999 72.3 26.5999C71.7 26.4999 71.2 26.8999 71.2 27.5999Z" fill="#7A1315"/>
<path d="M76.9999 26.4C76.5999 26.4 76.3999 26.5 76.3999 26.7C76.3999 26.9 76.5999 27.1 76.9999 27.1C77.7999 27.1 78.7999 27.3 78.7999 28.4C78.7999 29 78.2999 29.8 76.9999 29.8C76.3999 29.8 75.7999 29.7 75.0999 29.1L75.5999 28.3C76.0999 28.7 76.5999 28.8 77.0999 28.8C77.3999 28.8 77.6999 28.7 77.6999 28.5C77.6999 28.3 77.5999 28.2 76.9999 28.1C76.1999 28.1 75.2999 27.8 75.2999 26.8C75.2999 25.9 76.1999 25.5 77.0999 25.5C77.6999 25.5 78.1999 25.7 78.6999 26L78.0999 26.7C77.6999 26.5 77.3999 26.4 76.9999 26.4Z" fill="#7A1315"/>
<path d="M79.9998 23.7999C80.2998 23.7999 80.6998 23.9999 80.6998 24.4999C80.6998 24.9999 80.3998 25.2 79.9998 25.2C79.5998 25.2 79.2998 24.9999 79.2998 24.4999C79.2998 23.9999 79.6998 23.7999 79.9998 23.7999ZM80.5998 29.5999H79.3998V25.4999H80.5998V29.5999Z" fill="#7A1315"/>
<path d="M84.4 27.4999C84.4 26.8999 84.1 26.4999 83.6 26.4999C83 26.4999 82.7 26.9999 82.7 27.4999V29.5999H81.5V25.4999H82.6V25.9999C83 25.4999 83.4 25.3999 83.9 25.3999C84.8 25.3999 85.7 25.7999 85.7 27.3999V29.5999H84.5V27.4999H84.4Z" fill="#7A1315"/>
<path d="M88.4 31.1C88.9 31.1 89.4 30.8 89.4 30.3C89.4 29.9 89.1 29.6 88.4 29.6C87.1 29.6 86.2 28.8 86.2 27.5C86.2 26.1 87.3 25.4 88.4 25.4C88.7 25.4 89.1 25.4 89.4 25.6L89.8 25L90.7 25.7L90.2 26.3C90.5 26.6 90.6 27 90.6 27.4C90.6 28 90.3 28.6 89.7 28.9C90.6 29.3 90.6 30 90.6 30.2C90.6 31.4 89.5 32 88.4 32C87 32 86.2 31.3 86.3 30.1H87.4C87.4 30.9 87.8 31.1 88.4 31.1ZM87.3 27.5C87.3 28.1 87.8 28.5 88.4 28.5C88.9 28.5 89.4 28.2 89.4 27.5C89.4 26.9 89 26.5 88.4 26.5C87.8 26.5 87.3 26.9 87.3 27.5Z" fill="#7A1315"/>
<path fill-rule="evenodd" clip-rule="evenodd" d="M25.6 5.09998C17.2 5.09998 16 14.2 16.1 15.4C16.2 20.9 21.5 20.6 22.1 20.6C30.8 20.6 31.4 10.7 31.3 10.4C31.2 4.99997 26.1 5.09998 25.6 5.09998ZM22.5 17.1C22.3 17.1 20.4 16.8 20.6 14.6C20.7 13.7 21.6 8.89997 25.1 8.89997C25.9 8.89997 27.1 9.29998 27.2 11.1C27.2 11.3 26.5 16.9 22.5 17.1Z" fill="#282781"/>
<path d="M65.5999 13.4L64.8999 16.4C64.8999 16.4 63.7999 17.5 62.2999 17.5C61.8999 17.5 60.5999 17.4999 60.5999 16.2999C60.4999 12.9999 65.5999 13.4 65.5999 13.4ZM66.2999 10.7C66.2999 10.7 62.6999 10.4 59.7999 11.7C57.5999 12.6 55.8999 14.5 55.8999 17.4C55.8999 18.2 56.8999 20.5 59.9999 20.7C60.0999 20.7 62.6999 20.9 64.0999 19.9L63.8999 20.7H68.2999C68.2999 20.7 69.8999 14.9 71.0999 8.99996C71.0999 8.79996 71.7999 4.89996 65.0999 5.09996C64.2999 5.09996 61.4999 5.09996 60.0999 5.09996L59.1999 8.79995H63.7999C67.2999 8.79995 66.5999 10.7 66.2999 10.7Z" fill="#282781"/>
<path d="M18 5.09993L19 0.899922C19 0.899922 18.5 0.899922 14.7 0.899922C13.5 0.899922 3.1 -8.4877e-05 2.3 14.2999C2.3 15.1999 2.2 20.6999 9.6 20.6999C10.2 20.6999 13.4 20.6999 14.2 20.6999L15.3 16.4999C15.3 16.4999 14.2 16.5999 11.6 16.4999C8.9 16.4999 6.7 17.0999 7 13.1999C7.1 12.2999 8.2 5.09993 14 5.09993H18Z" fill="#282781"/>
<path d="M30.3999 20.5999H34.9999C34.9999 20.5999 37.4999 10.3999 37.4999 10.0999C37.5999 9.79987 38.0999 8.69988 40.0999 8.69988C40.6999 8.69988 41.9999 8.89987 41.8999 10.4999C41.8999 10.9999 39.4999 20.5999 39.4999 20.5999H43.8999C43.8999 20.5999 46.3999 10.7999 46.4999 10.0999C46.4999 9.89987 47.5999 5.49987 43.2999 5.09987C42.7999 5.09987 41.3999 4.79986 38.5999 5.89986L38.7999 5.09987H34.3999L30.3999 20.5999Z" fill="#282781"/>
<path d="M86.3 2.79993H90.7L90.2 5.09995H91.8H94.4L94.1 6.19995L93.5 8.79993H89.8H89.1C89.1 8.79993 87.6 14.8999 87.6 15.0999C87.5 15.4999 87 16.9999 89 16.9999C89.8 16.9999 91.4 16.9999 91.4 16.9999L90.5 20.5999C90.5 20.5999 89 20.5999 87.2 20.5999C86.7 20.5999 82.4 20.7999 82.6 17.3999C82.9 16.6999 86.3 2.79993 86.3 2.79993Z" fill="#282781"/>
<path d="M50.0999 2.79993H54.4999L53.9999 5.09995H55.5999H58.1999L57.8999 6.19995L57.2999 8.79993H53.5999H52.9999C52.9999 8.79993 51.4999 14.8999 51.4999 15.0999C51.3999 15.4999 50.8999 16.9999 52.8999 16.9999C53.6999 16.9999 55.2999 16.9999 55.2999 16.9999L54.3999 20.5999C54.3999 20.5999 52.8999 20.5999 51.0999 20.5999C50.5999 20.5999 46.2999 20.7999 46.4999 17.3999C46.5999 16.7999 50.0999 2.79993 50.0999 2.79993Z" fill="#282781"/>
<path d="M83.0999 8.79998C83.0999 8.79998 83.2999 8.79998 80.2999 8.79998C75.6999 8.79998 75.2999 13.8 75.2999 14.6C75.2999 17.1 77.2999 17 78.1999 17C81.0999 17 81.1999 17 81.1999 17L80.2999 20.6C79.5999 20.6 77.8999 20.6 76.9999 20.6C70.4999 20.6 70.5999 15.8 70.5999 15.2C71.5999 4.5 80.6999 4.99999 80.9999 4.99999C84.0999 4.99999 84.0999 4.99999 84.0999 4.99999L83.0999 8.79998Z" fill="#282781"/>
<path d="M16.5 25.7L15.7 29.5999H57.2999L58.4 25.7H16.5Z" fill="#F58220"/>
<path d="M16.5 25.7L15.7 29.5999H6L6.7 25.7H16.5Z" fill="#FDB933"/>
<path d="M6.7 25.7L6 29.5999H0L0.9 25.7H6.7Z" fill="#FFDE22"/>
</svg>
