<svg width="95" height="32" viewBox="0 0 95 32" fill="none" xmlns="http://www.w3.org/2000/svg">
<path d="M55.8001 27.1H55.6001L53.9001 24.8V28.9H52.6001V23.1H54.0001L55.7001 25.3L57.4001 23.1H58.9001V28.9H57.6001V24.8L55.8001 27.1Z" fill="#2C988E"/>
<path d="M59.6001 26.8999C59.6001 25.6999 60.5001 24.7 61.8001 24.7C63.2001 24.7 64.1001 25.5999 64.1001 26.8999C64.1001 28.1999 63.2001 29.1 61.8001 29.1C60.5001 29.1 59.6001 28.1999 59.6001 26.8999ZM62.9001 26.8999C62.9001 26.3999 62.6001 25.8 61.9001 25.8C61.2001 25.8 60.9001 26.3999 60.9001 26.8999C60.9001 27.4999 61.2001 28 61.9001 28C62.6001 28 62.9001 27.4999 62.9001 26.8999Z" fill="#2C988E"/>
<path d="M65.9001 25.3C66.2001 24.9 66.5001 24.7 67.0001 24.7C67.4001 24.7 67.7001 24.8 68.0001 25.1L67.5001 26C67.3001 25.9 67.1001 25.8 66.8001 25.8C66.3001 25.8 65.8001 26.1 65.8001 26.7V28.8H64.6001V24.7H65.7001L65.9001 25.3Z" fill="#2C988E"/>
<path d="M70 24.8H71V25.8H70V27.4C70 27.8 70.2 28 70.5 28C70.6 28 70.9 28 71 27.9L71.3 28.9C71 29 70.8 29.1 70.4 29.1C69.5 29.1 68.8 28.8 68.8 27.5V25.9H68V24.9H68.7V23.9L69.9 23.8V24.8H70Z" fill="#2C988E"/>
<path d="M73.6001 30.4C74.1001 30.4 74.6001 30.2 74.6001 29.6C74.6001 29.2 74.3001 28.9 73.6001 28.9C72.3001 28.9 71.4001 28.1 71.4001 26.8C71.4001 25.4 72.5001 24.7 73.6001 24.7C73.9001 24.7 74.3001 24.7 74.6001 24.9L75.0001 24.3L75.9001 25L75.4001 25.6C75.7001 25.9 75.8001 26.3 75.8001 26.7C75.8001 27.3 75.5001 27.9 74.9001 28.2C75.8001 28.6 75.8001 29.3 75.8001 29.5C75.8001 30.7 74.7001 31.3 73.6001 31.3C72.2001 31.3 71.4001 30.6 71.5001 29.4H72.6001C72.7001 30.2 73.1001 30.4 73.6001 30.4ZM72.6001 26.8C72.6001 27.4 73.1001 27.8 73.7001 27.8C74.2001 27.8 74.7001 27.5 74.7001 26.8C74.7001 26.2 74.3001 25.8 73.7001 25.8C73.1001 25.8 72.6001 26.2 72.6001 26.8Z" fill="#2C988E"/>
<path d="M80.9 24.8V28.8999H79.8L79.7 28.3999C79.4 28.8999 78.8 29 78.4 29C77.2 29 76.3 28.2 76.3 26.8C76.3 25.5 77.2 24.7 78.4 24.7C78.9 24.7 79.4 24.9 79.7 25.3V24.8H80.9ZM77.5 26.8999C77.5 27.5999 78 28 78.6 28C79.3 28 79.7 27.5 79.7 27C79.7 26.4 79.3 25.8999 78.6 25.8999C78 25.7999 77.5 26.1999 77.5 26.8999Z" fill="#2C988E"/>
<path d="M83.7 30.4C84.2 30.4 84.7 30.2 84.7 29.6C84.7 29.2 84.4 28.9 83.7 28.9C82.4 28.9 81.5 28.1 81.5 26.8C81.5 25.4 82.6 24.7 83.7 24.7C84 24.7 84.4 24.7 84.7 24.9L85.1 24.3L86 25L85.5 25.6C85.8 25.9 85.9 26.3 85.9 26.7C85.9 27.3 85.6 27.9 85 28.2C85.9 28.6 85.9 29.3 85.9 29.5C85.9 30.7 84.8 31.3 83.7 31.3C82.3 31.3 81.5 30.6 81.6 29.4H82.7C82.7 30.2 83.1 30.4 83.7 30.4ZM82.6 26.8C82.6 27.4 83.1 27.8 83.7 27.8C84.2 27.8 84.7 27.5 84.7 26.8C84.7 26.2 84.3 25.8 83.7 25.8C83.1 25.8 82.6 26.2 82.6 26.8Z" fill="#2C988E"/>
<path d="M88.7001 28C89.0001 28 89.5001 27.9 89.8001 27.7L90.5001 28.3999C90.1001 28.7999 89.4001 29 88.7001 29C87.2001 29 86.4001 28.1 86.4001 26.8C86.4001 25.6 87.2001 24.7 88.6001 24.7C89.8001 24.7 90.7001 25.4 90.7001 26.7C90.7001 26.9 90.7001 27.1 90.7001 27.3H87.7001C87.6001 27.7 88.0001 28 88.7001 28ZM88.5001 25.8C88.0001 25.8 87.7001 26.1 87.5001 26.5H89.4001C89.5001 26 89.0001 25.8 88.5001 25.8Z" fill="#2C988E"/>
<path fill-rule="evenodd" clip-rule="evenodd" d="M25.6 4.39997C17.2 4.39997 16 13.5 16.1 14.7C16.2 20.2 21.5 19.9 22.1 19.9C30.8 19.9 31.4 9.99997 31.3 9.69997C31.2 4.29997 26.1 4.39997 25.6 4.39997ZM22.5 16.4C22.3 16.4 20.4 16.1 20.6 13.9C20.7 13 21.6 8.19997 25.1 8.19997C25.9 8.19997 27.1 8.59997 27.2 10.4C27.2 10.6 26.5 16.2 22.5 16.4Z" fill="#282781"/>
<path d="M65.5999 12.7L64.8999 15.7C64.8999 15.7 63.7999 16.8 62.2999 16.8C61.8999 16.8 60.5999 16.8 60.5999 15.6C60.4999 12.3 65.5999 12.7 65.5999 12.7ZM66.2999 9.99996C66.2999 9.99996 62.6999 9.69996 59.7999 11C57.5999 11.9 55.8999 13.8 55.8999 16.7C55.8999 17.5 56.8999 19.8 59.9999 20C60.0999 20 62.6999 20.2 64.0999 19.2L63.8999 20H68.2999C68.2999 20 69.8999 14.2 71.0999 8.29996C71.0999 8.09996 71.7999 4.19995 65.0999 4.39995C64.2999 4.39995 61.4999 4.39995 60.0999 4.39995L59.1999 8.09996H63.7999C67.2999 8.09996 66.5999 9.99996 66.2999 9.99996Z" fill="#282781"/>
<path d="M18 4.39997L19 0.19997C19 0.19997 18.5 0.19997 14.7 0.19997C13.5 0.19997 3.1 -0.700021 2.3 13.6C2.3 14.5 2.2 20 9.6 20C10.2 20 13.4 20 14.2 20L15.3 15.8C15.3 15.8 14.2 15.9 11.6 15.8C8.9 15.8 6.7 16.4 7 12.5C7.1 11.6 8.2 4.39997 14 4.39997H18Z" fill="#282781"/>
<path d="M30.3999 19.9H34.9999C34.9999 19.9 37.4999 9.69998 37.4999 9.39998C37.5999 9.09998 38.0999 7.99999 40.0999 7.99999C40.6999 7.99999 41.9999 8.19999 41.8999 9.79999C41.8999 10.3 39.4999 19.9 39.4999 19.9H43.8999C43.8999 19.9 46.3999 10.1 46.4999 9.39998C46.4999 9.19998 47.5999 4.79998 43.2999 4.39998C42.7999 4.39998 41.3999 4.09998 38.5999 5.19998L38.7999 4.39998H34.3999L30.3999 19.9Z" fill="#282781"/>
<path d="M86.3 2.09998H90.7L90.2 4.39996H91.8H94.4L94.1 5.49997L93.5 8.09998H89.8H89.1C89.1 8.09998 87.6 14.2 87.6 14.4C87.5 14.8 87 16.3 89 16.3C89.8 16.3 91.4 16.3 91.4 16.3L90.5 19.9C90.5 19.9 89 19.9 87.2 19.9C86.7 19.9 82.4 20.1 82.6 16.7C82.9 16 86.3 2.09998 86.3 2.09998Z" fill="#282781"/>
<path d="M50.0999 2.09998H54.4999L53.9999 4.39996H55.5999H58.1999L57.8999 5.49997L57.2999 8.09998H53.5999H52.9999C52.9999 8.09998 51.4999 14.2 51.4999 14.4C51.3999 14.8 50.8999 16.3 52.8999 16.3C53.6999 16.3 55.2999 16.3 55.2999 16.3L54.3999 19.9C54.3999 19.9 52.8999 19.9 51.0999 19.9C50.5999 19.9 46.2999 20.1 46.4999 16.7C46.5999 16 50.0999 2.09998 50.0999 2.09998Z" fill="#282781"/>
<path d="M83.0999 8.09998C83.0999 8.09998 83.2999 8.09998 80.2999 8.09998C75.6999 8.09998 75.2999 13.1 75.2999 13.9C75.2999 16.4 77.2999 16.3 78.1999 16.3C81.0999 16.3 81.1999 16.3 81.1999 16.3L80.2999 19.9C79.5999 19.9 77.8999 19.9 76.9999 19.9C70.4999 19.9 70.5999 15.1 70.5999 14.5C71.5999 3.79998 80.6999 4.29998 80.9999 4.29998C84.0999 4.29998 84.0999 4.29998 84.0999 4.29998L83.0999 8.09998Z" fill="#282781"/>
<path d="M16.5 25L15.7 28.9H48.7999L49.9 25H16.5Z" fill="#F58220"/>
<path d="M16.5 25L15.7 28.9H6L6.7 25H16.5Z" fill="#FDB933"/>
<path d="M6.7 25L6 28.9H0L0.9 25H6.7Z" fill="#FFDE22"/>
</svg>
