<svg width="24" height="24" viewBox="0 0 24 24" fill="none" xmlns="http://www.w3.org/2000/svg">
<path fill-rule="evenodd" clip-rule="evenodd" d="M13.3711 0.341424C12.5082 -0.10895 11.3389 -0.1159 10.4691 0.333315C7.13508 2.05518 4.11106 4.02942 1.46108 6.21914C1.05128 6.55775 0.760463 7.04981 0.765425 7.62899C0.770367 8.20579 1.06711 8.69127 1.47441 9.02431C4.10238 11.1731 7.12889 13.1491 10.4019 14.8573C11.2648 15.3077 12.4341 15.3147 13.3039 14.8655C16.6379 13.1436 19.6619 11.1693 22.3119 8.97963C22.7217 8.64102 23.0125 8.14896 23.0076 7.56978C23.0026 6.99298 22.7059 6.5075 22.2986 6.17446C19.6706 4.02568 16.6441 2.04965 13.3711 0.341424ZM11.3541 2.04696C11.6623 1.88781 12.1685 1.88932 12.4787 2.05125C15.6024 3.68152 18.4805 5.55711 20.9739 7.58297C18.4656 9.64142 15.596 11.511 12.4189 13.1518C12.1107 13.311 11.6045 13.3095 11.2943 13.1475C8.17063 11.5172 5.2925 9.64166 2.79906 7.6158C5.30739 5.55735 8.17696 3.68782 11.3541 2.04696Z" fill="#FF3365"/>
<path d="M23.712 12.3479C23.994 12.7996 23.8564 13.3945 23.4047 13.6766L15.552 18.5792C14.4864 19.2444 13.1644 19.552 11.8864 19.5521C10.6084 19.5522 9.28626 19.2447 8.22052 18.5796L0.453905 13.7325C0.00208321 13.4505 -0.1356 12.8557 0.14638 12.4038C0.42836 11.952 1.02322 11.8143 1.47504 12.0963L9.24166 16.9434C9.94132 17.3801 10.8918 17.6235 11.8863 17.6234C12.8808 17.6233 13.8311 17.3798 14.5306 16.9431L22.3833 12.0406C22.835 11.7585 23.4299 11.8961 23.712 12.3479Z" fill="#FF3365"/>
<path d="M23.7119 17.1756C23.994 17.6273 23.8565 18.2222 23.4048 18.5043L16.6043 22.7511C15.2444 23.6003 13.5433 23.9999 11.8863 24C10.2293 24.0001 8.52813 23.6007 7.16804 22.7517L0.453806 18.5602C0.00201868 18.2782 -0.135593 17.6833 0.146441 17.2315C0.428475 16.7797 1.02336 16.6421 1.47514 16.9242L8.18938 21.1156C9.18332 21.7361 10.5127 22.0714 11.8862 22.0713C13.2597 22.0712 14.589 21.7358 15.5827 21.1152L22.3832 16.8684C22.8349 16.5863 23.4298 16.7238 23.7119 17.1756Z" fill="#FF3365"/>
</svg>
