<svg width="21" height="21" viewBox="0 0 21 21" fill="none" xmlns="http://www.w3.org/2000/svg">
<g clip-path="url(#clip0)">
<path d="M14.4024 16.1905C13.947 15.7351 13.2784 15.5666 12.6617 15.7518L9.87662 16.588C9.41378 16.727 8.92592 16.4645 8.78696 16.0016C8.64799 15.5388 8.91054 15.0509 9.37337 14.912L12.1584 14.0757C13.3919 13.7054 14.7291 14.0424 15.6398 14.953L16.9891 16.3024C17.6703 16.9835 17.6703 18.0878 16.9891 18.769L15.0237 20.7345C14.8676 20.8905 14.6583 20.9818 14.4378 20.9901C10.5942 21.1346 6.84881 19.6993 4.07476 16.9252C1.30072 14.1512 -0.134619 10.4058 0.00987371 6.56219C0.0181643 6.34166 0.109485 6.1324 0.265538 5.97635L2.23104 4.01085C2.91217 3.32972 4.0165 3.32972 4.69763 4.01085L6.04697 5.36019C6.95764 6.27086 7.29461 7.60808 6.92426 8.84156L6.08804 11.6266C5.94907 12.0895 5.46121 12.352 4.99837 12.213C4.53554 12.0741 4.27299 11.5862 4.41196 11.1234L5.24818 8.33831C5.43335 7.72157 5.26487 7.05296 4.80953 6.59763L3.46433 5.25243L1.75057 6.96619C1.71776 10.2086 2.96756 13.3432 5.3122 15.6878C7.65684 18.0324 10.7914 19.2822 14.0338 19.2494L15.7476 17.5357L14.4024 16.1905Z" fill="#828282"/>
<path d="M21 10.5C21 10.9832 20.6082 11.375 20.125 11.375C19.6418 11.375 19.25 10.9832 19.25 10.5C19.25 5.66751 15.3325 1.75 10.5 1.75C10.0168 1.75 9.625 1.35825 9.625 0.875C9.625 0.391751 10.0168 0 10.5 0C16.299 0 21 4.70101 21 10.5ZM17.5 10.5C17.5 10.9832 17.1082 11.375 16.625 11.375C16.1418 11.375 15.75 10.9832 15.75 10.5C15.75 7.6005 13.3995 5.25 10.5 5.25C10.0168 5.25 9.625 4.85825 9.625 4.375C9.625 3.89175 10.0168 3.5 10.5 3.5C14.366 3.5 17.5 6.63401 17.5 10.5ZM14 10.5C14 10.9832 13.6082 11.375 13.125 11.375C12.6418 11.375 12.25 10.9832 12.25 10.5C12.25 9.5335 11.4665 8.75 10.5 8.75C10.0168 8.75 9.625 8.35825 9.625 7.875C9.625 7.39175 10.0168 7 10.5 7C12.433 7 14 8.567 14 10.5Z" fill="#828282"/>
</g>
<defs>
<clipPath id="clip0">
<rect width="21" height="21" fill="white"/>
</clipPath>
</defs>
</svg>
