<svg width="16" height="16" viewBox="0 0 16 16" fill="none" xmlns="http://www.w3.org/2000/svg">
<path fill-rule="evenodd" clip-rule="evenodd" d="M6.93333 0C3.10416 0 0 3.10416 0 6.93333C0 10.7625 3.10416 13.8667 6.93333 13.8667C8.65594 13.8667 10.2318 13.2385 11.4444 12.1986L15.0895 15.8438L15.1634 15.9055C15.3713 16.0495 15.6587 16.0289 15.8438 15.8438C16.0521 15.6355 16.0521 15.2978 15.8438 15.0895L12.1986 11.4444C13.2385 10.2318 13.8667 8.65594 13.8667 6.93333C13.8667 3.10416 10.7625 0 6.93333 0ZM11.1035 11.0597C12.1524 9.99985 12.8 8.54222 12.8 6.93333C12.8 3.69326 10.1734 1.06667 6.93333 1.06667C3.69326 1.06667 1.06667 3.69326 1.06667 6.93333C1.06667 10.1734 3.69326 12.8 6.93333 12.8C8.54222 12.8 9.99985 12.1524 11.0597 11.1035C11.0666 11.0959 11.0737 11.0884 11.081 11.081C11.0884 11.0737 11.0959 11.0666 11.1035 11.0597Z" fill="#6D6D80"/>
</svg>
