<svg width="95" height="32" viewBox="0 0 95 32" fill="none" xmlns="http://www.w3.org/2000/svg">
<path d="M56.2999 24.6C55.6999 24.6 55.2999 24.8 55.2999 25.2C55.2999 25.7 55.8 25.8 56.5 25.9C57.7 26 58.7 26.4 58.7 27.8C58.7 29.1 57.5 29.6 56.2 29.6C55.2 29.6 54.1 29.2 53.7 28.4L54.5 27.6C54.9 28.2 55.6999 28.4 56.2999 28.4C56.9999 28.4 57.5 28.1 57.5 27.7C57.5 27.2 57.0999 27 56.2999 26.9C55.0999 26.8 54 26.5 54 25.1C54 23.9 55.0999 23.4 56.2999 23.4C57.1999 23.4 57.9 23.6 58.5 24.3L57.5999 25C57.2999 24.7 56.6999 24.6 56.2999 24.6Z" fill="#73347C"/>
<path d="M60.5 25.8C60.8 25.4 61.3 25.2 61.7 25.2C62.7 25.2 63.2999 25.7 63.2999 27.2V29.4H62.0999V27.2C62.0999 26.6 61.7999 26.3 61.2999 26.3C60.7999 26.3 60.4 26.6 60.4 27.3V29.4H59.2V23.6H60.4V25.8H60.5Z" fill="#73347C"/>
<path d="M64 27.4C64 26.2 64.9 25.2 66.2 25.2C67.6 25.2 68.5 26.1 68.5 27.4C68.5 28.7 67.6 29.6 66.2 29.6C64.8 29.6 64 28.7 64 27.4ZM67.3 27.4C67.3 26.9 67 26.3 66.3 26.3C65.6 26.3 65.3 26.9 65.3 27.4C65.3 28 65.6 28.5 66.3 28.5C67 28.5 67.3 28 67.3 27.4Z" fill="#73347C"/>
<path d="M69.0999 25.3H70.1999L70.2999 25.8C70.6999 25.3 71.0999 25.2 71.6999 25.2C72.8999 25.2 73.6999 26.1 73.6999 27.3C73.6999 28.6 72.8999 29.5 71.6999 29.5C71.2999 29.5 70.7999 29.4 70.3999 29V31.2H69.1999V25.3H69.0999ZM72.3999 27.4C72.3999 26.8 71.9999 26.3 71.3999 26.3C70.8999 26.3 70.2999 26.6 70.2999 27.4C70.2999 28.1 70.7999 28.5 71.3999 28.5C72.0999 28.5 72.3999 28 72.3999 27.4Z" fill="#73347C"/>
<path d="M74.3 25.3H75.4L75.5 25.8C75.9 25.3 76.3 25.2 76.9 25.2C78.1 25.2 78.9 26.1 78.9 27.3C78.9 28.6 78.1 29.5 76.9 29.5C76.5 29.5 76 29.4 75.6 29V31.2H74.4V25.3H74.3ZM77.6 27.4C77.6 26.8 77.2 26.3 76.6 26.3C76.1 26.3 75.5 26.6 75.5 27.4C75.5 28.1 76 28.5 76.6 28.5C77.2 28.5 77.6 28 77.6 27.4Z" fill="#73347C"/>
<path d="M80 23.6C80.3 23.6 80.7 23.8 80.7 24.3C80.7 24.8 80.4 25 80 25C79.6 25 79.3 24.8 79.3 24.3C79.3 23.8 79.7 23.6 80 23.6ZM80.6 29.5H79.4V25.4H80.6V29.5Z" fill="#73347C"/>
<path d="M84.4 27.3C84.4 26.7 84.1 26.3 83.6 26.3C83 26.3 82.7 26.8 82.7 27.3V29.4H81.5V25.3H82.6V25.8C83 25.3 83.4 25.2 83.9 25.2C84.8 25.2 85.7 25.6 85.7 27.2V29.4H84.5V27.3H84.4Z" fill="#73347C"/>
<path d="M88.4 30.9C88.9 30.9 89.4 30.6 89.4 30.1C89.4 29.7 89.1 29.4 88.4 29.4C87.1 29.4 86.2 28.6 86.2 27.3C86.2 25.9 87.3 25.2 88.4 25.2C88.7 25.2 89.1 25.2 89.4 25.4L89.8 24.8L90.7 25.5L90.2 26.1C90.5 26.4 90.6 26.8 90.6 27.2C90.6 27.8 90.3 28.4 89.7 28.7C90.6 29.1 90.6 29.8 90.6 30C90.6 31.2 89.5 31.8 88.4 31.8C87 31.8 86.2 31.1 86.3 29.9H87.4C87.4 30.7 87.9 30.9 88.4 30.9ZM87.4 27.3C87.4 27.9 87.9 28.3 88.5 28.3C89 28.3 89.5 28 89.5 27.3C89.5 26.7 89.1 26.3 88.5 26.3C87.8 26.3 87.4 26.7 87.4 27.3Z" fill="#73347C"/>
<path fill-rule="evenodd" clip-rule="evenodd" d="M25.6 4.89997C17.2 4.89997 16 14 16.1 15.2C16.2 20.7 21.5 20.4 22.1 20.4C30.8 20.4 31.4 10.5 31.3 10.2C31.2 4.79997 26.1 4.89997 25.6 4.89997ZM22.5 16.9C22.3 16.9 20.4 16.6 20.6 14.4C20.7 13.5 21.6 8.69997 25.1 8.69997C25.9 8.69997 27.1 9.09997 27.2 10.9C27.2 11.1 26.5 16.7 22.5 16.9Z" fill="#282781"/>
<path d="M65.5999 13.1999L64.8999 16.1999C64.8999 16.1999 63.7999 17.3 62.2999 17.3C61.8999 17.3 60.5999 17.2999 60.5999 16.0999C60.4999 12.7999 65.5999 13.1999 65.5999 13.1999ZM66.2999 10.4999C66.2999 10.4999 62.6999 10.2 59.7999 11.4999C57.5999 12.4 55.8999 14.2999 55.8999 17.1999C55.8999 17.9999 56.8999 20.3 59.9999 20.5C60.0999 20.5 62.6999 20.6999 64.0999 19.6999L63.8999 20.5H68.2999C68.2999 20.5 69.8999 14.6999 71.0999 8.79995C71.0999 8.59995 71.7999 4.69995 65.0999 4.89995C64.2999 4.89995 61.4999 4.89995 60.0999 4.89995L59.1999 8.59995H63.7999C67.2999 8.59995 66.5999 10.4999 66.2999 10.4999Z" fill="#282781"/>
<path d="M18 4.89997L19 0.69997C19 0.69997 18.5 0.69997 14.7 0.69997C13.5 0.69997 3.1 -0.200032 2.3 14.1C2.3 15 2.2 20.5 9.6 20.5C10.2 20.5 13.4 20.5 14.2 20.5L15.3 16.3C15.3 16.3 14.2 16.4 11.6 16.3C8.9 16.3 6.7 16.9 7 13C7.1 12.1 8.2 4.89997 14 4.89997H18Z" fill="#282781"/>
<path d="M30.3999 20.5H34.9999C34.9999 20.5 37.4999 10.3 37.4999 9.99996C37.5999 9.69996 38.0999 8.59995 40.0999 8.59995C40.6999 8.59995 41.9999 8.79996 41.8999 10.4C41.8999 10.9 39.4999 20.5 39.4999 20.5H43.8999C43.8999 20.5 46.3999 10.7 46.4999 9.99996C46.4999 9.79996 47.5999 5.39996 43.2999 4.99996C42.7999 4.99996 41.3999 4.69996 38.5999 5.79996L38.7999 4.99996H34.3999L30.3999 20.5Z" fill="#282781"/>
<path d="M86.3001 2.59998H90.7001L90.2001 4.89998H91.8001H94.4001L94.2001 5.99998L93.6001 8.59998H89.9001H89.2001C89.2001 8.59998 87.7001 14.7 87.7001 14.9C87.6001 15.3 87.1001 16.8 89.1001 16.8C89.9001 16.8 91.5001 16.8 91.5001 16.8L90.6001 20.4C90.6001 20.4 89.1001 20.4 87.3001 20.4C86.8001 20.4 82.5001 20.6 82.7001 17.2C82.9001 16.5 86.3001 2.59998 86.3001 2.59998Z" fill="#282781"/>
<path d="M50.0999 2.59998H54.4999L53.9999 4.89998H55.5999H58.1999L57.9999 5.99998L57.3999 8.59998H53.6999H52.9999C52.9999 8.59998 51.4999 14.7 51.4999 14.9C51.3999 15.3 50.8999 16.8 52.8999 16.8C53.6999 16.8 55.2999 16.8 55.2999 16.8L54.3999 20.4C54.3999 20.4 52.8999 20.4 51.0999 20.4C50.5999 20.4 46.2999 20.6 46.4999 17.2C46.5999 16.6 50.0999 2.59998 50.0999 2.59998Z" fill="#282781"/>
<path d="M83.0999 8.59998C83.0999 8.59998 83.2999 8.59998 80.2999 8.59998C75.6999 8.59998 75.2999 13.6 75.2999 14.4C75.2999 16.9 77.2999 16.8 78.1999 16.8C81.0999 16.8 81.1999 16.8 81.1999 16.8L80.2999 20.4C79.5999 20.4 77.8999 20.4 76.9999 20.4C70.4999 20.4 70.5999 15.6 70.5999 15C71.5999 4.29998 80.6999 4.79998 80.9999 4.79998C84.0999 4.79998 84.0999 4.79998 84.0999 4.79998L83.0999 8.59998Z" fill="#282781"/>
<path d="M16.5 25.5L15.7 29.5H50.5L51.5999 25.5H16.5Z" fill="#F58220"/>
<path d="M16.5 25.5L15.7 29.4H6L6.7 25.5H16.5Z" fill="#FDB933"/>
<path d="M6.7 25.5L6 29.4H0L0.9 25.5H6.7Z" fill="#FFDE22"/>
</svg>
