<svg width="95" height="30" viewBox="0 0 95 30" fill="none" xmlns="http://www.w3.org/2000/svg">
<path d="M64.8999 24.5V23.3H69.6999V24.5H67.8999V29.2H66.5999V24.5H64.8999Z" fill="#1F4256"/>
<path d="M71.3999 25.5C71.6999 25.1 71.9999 24.9 72.4999 24.9C72.8999 24.9 73.1999 25 73.4999 25.3L72.9999 26.2C72.7999 26.1 72.5999 26 72.2999 26C71.7999 26 71.2999 26.3 71.2999 26.9V29H70.0999V24.9H71.1999L71.3999 25.5Z" fill="#1F4256"/>
<path d="M75 27.3C75 27.9 75.3 28.3 75.8 28.3C76.4 28.3 76.7 27.8 76.7 27.3V25H77.9V29.1H76.8V28.6C76.4 29.1 76 29.2 75.5 29.2C74.6 29.2 73.7 28.8 73.7 27.2V25H75V27.3Z" fill="#1F4256"/>
<path d="M80.7999 29.3C79.5999 29.3 78.5999 28.6 78.5999 27.1C78.5999 25.7 79.5999 24.9 80.7999 24.9C81.3999 24.9 81.8999 25 82.2999 25.5L81.5999 26.3C81.2999 26.1 81.0999 26.1 80.7999 26.1C80.1999 26.1 79.6999 26.5 79.6999 27.2C79.6999 27.9 80.1999 28.2 80.7999 28.2C81.0999 28.2 81.3999 28.1 81.5999 27.9L82.3999 28.7C81.8999 29.2 81.2999 29.3 80.7999 29.3Z" fill="#1F4256"/>
<path d="M83.9998 26.7L85.1998 25.1H86.5998V25.2L85.0998 27L86.7998 29.1V29.2H85.3998L83.9998 27.4V29.2H82.7998V23.4H83.9998V26.7Z" fill="#1F4256"/>
<path d="M88.9 25.9C88.5 25.9 88.3 26 88.3 26.2C88.3 26.4 88.5 26.6 88.9 26.6C89.7 26.6 90.7 26.8 90.7 27.9C90.7 28.5 90.2 29.3 88.9 29.3C88.3 29.3 87.7 29.2 87 28.6L87.5 27.8C88 28.2 88.5 28.3 89 28.3C89.3 28.3 89.6 28.2 89.6 28C89.6 27.8 89.5 27.7 88.9 27.6C88.1 27.6 87.2 27.2 87.2 26.3C87.2 25.4 88.1 25 89 25C89.6 25 90.1 25.2 90.6 25.5L90 26.2C89.5 26 89.2 25.9 88.9 25.9Z" fill="#1F4256"/>
<path fill-rule="evenodd" clip-rule="evenodd" d="M25.6 4.59998C17.2 4.59998 16 13.7 16.1 14.9C16.2 20.4 21.5 20.1 22.1 20.1C30.8 20.1 31.4 10.2 31.3 9.89997C31.2 4.49997 26.1 4.59998 25.6 4.59998ZM22.5 16.6C22.3 16.6 20.4 16.3 20.6 14.1C20.7 13.2 21.6 8.39997 25.1 8.39997C25.9 8.39997 27.1 8.79998 27.2 10.6C27.2 10.8 26.5 16.4 22.5 16.6Z" fill="#282781"/>
<path d="M65.5999 12.9L64.8999 15.9C64.8999 15.9 63.7999 17 62.2999 17C61.8999 17 60.5999 17 60.5999 15.8C60.4999 12.6 65.5999 12.9 65.5999 12.9ZM66.2999 10.2C66.2999 10.2 62.6999 9.89995 59.7999 11.2C57.5999 12.1 55.8999 14 55.8999 16.9C55.8999 17.7 56.8999 20 59.9999 20.2C60.0999 20.2 62.6999 20.4 64.0999 19.4L63.8999 20.2H68.2999C68.2999 20.2 69.8999 14.4 71.0999 8.49996C71.0999 8.29996 71.7999 4.39996 65.0999 4.59996C64.2999 4.59996 61.4999 4.59996 60.0999 4.59996L59.1999 8.29996H63.7999C67.2999 8.29996 66.5999 10.2 66.2999 10.2Z" fill="#282781"/>
<path d="M18 4.59999L19 0.399982C19 0.399982 18.5 0.399982 14.7 0.399982C13.5 0.399982 3.1 -0.500009 2.3 13.8C2.3 14.7 2.2 20.2 9.6 20.2C10.2 20.2 13.4 20.2 14.2 20.2L15.3 16C15.3 16 14.2 16.1 11.6 16C8.9 16 6.7 16.6 7 12.7C7.1 11.8 8.2 4.59999 14 4.59999H18Z" fill="#282781"/>
<path d="M30.3999 20.2H34.9999C34.9999 20.2 37.4999 9.99997 37.4999 9.69997C37.5999 9.39997 38.0999 8.29997 40.0999 8.29997C40.6999 8.29997 41.9999 8.49998 41.8999 10.1C41.8999 10.6 39.4999 20.2 39.4999 20.2H43.8999C43.8999 20.2 46.3999 10.4 46.4999 9.69997C46.4999 9.49997 47.5999 5.09997 43.2999 4.69997C42.7999 4.69997 41.3999 4.39997 38.5999 5.49997L38.7999 4.69997H34.3999L30.3999 20.2Z" fill="#282781"/>
<path d="M86.3 2.29999H90.7L90.2 4.59999H91.8H94.4L94.1 5.69998L93.5 8.29999H89.8H89.1C89.1 8.29999 87.6 14.4 87.6 14.6C87.5 15 87 16.5 89 16.5C89.8 16.5 91.4 16.5 91.4 16.5L90.5 20.1C90.5 20.1 89 20.1 87.2 20.1C86.7 20.1 82.4 20.3 82.6 16.9C82.9 16.3 86.3 2.29999 86.3 2.29999Z" fill="#282781"/>
<path d="M50.0999 2.29999H54.4999L53.9999 4.59999H55.5999H58.1999L57.8999 5.69998L57.2999 8.29999H53.5999H52.9999C52.9999 8.29999 51.4999 14.4 51.4999 14.6C51.3999 15 50.8999 16.5 52.8999 16.5C53.6999 16.5 55.2999 16.5 55.2999 16.5L54.3999 20.1C54.3999 20.1 52.8999 20.1 51.0999 20.1C50.5999 20.1 46.2999 20.3 46.4999 16.9C46.5999 16.3 50.0999 2.29999 50.0999 2.29999Z" fill="#282781"/>
<path d="M83.0999 8.29999C83.0999 8.29999 83.2999 8.29999 80.2999 8.29999C75.6999 8.29999 75.2999 13.3 75.2999 14.1C75.2999 16.6 77.2999 16.5 78.1999 16.5C81.0999 16.5 81.1999 16.5 81.1999 16.5L80.2999 20.1C79.5999 20.1 77.8999 20.1 76.9999 20.1C70.4999 20.1 70.5999 15.3 70.5999 14.7C71.5999 3.99999 80.6999 4.49999 80.9999 4.49999C84.0999 4.49999 84.0999 4.49999 84.0999 4.49999L83.0999 8.29999Z" fill="#282781"/>
<path d="M16.5 25.2L15.7 29.2H61.7L62.7999 25.2H16.5Z" fill="#F58220"/>
<path d="M16.5 25.2L15.7 29.2H6L6.7 25.2H16.5Z" fill="#FDB933"/>
<path d="M6.7 25.2L6 29.2H0L0.9 25.2H6.7Z" fill="#FFDE22"/>
</svg>
