<svg width="21" height="21" viewBox="0 0 21 21" fill="none" xmlns="http://www.w3.org/2000/svg">
<path d="M15.75 0.875C16.2332 0.875 16.625 1.26675 16.625 1.75C16.625 2.23325 16.2332 2.625 15.75 2.625H3.5C3.01675 2.625 2.625 3.01675 2.625 3.5C2.625 3.98325 3.01675 4.375 3.5 4.375H16.625C18.558 4.375 20.125 5.942 20.125 7.875V16.625C20.125 18.558 18.558 20.125 16.625 20.125H4.375C2.442 20.125 0.875 18.558 0.875 16.625V7.875C0.875 7.39175 1.26675 7 1.75 7C2.23325 7 2.625 7.39175 2.625 7.875V16.625C2.625 17.5915 3.4085 18.375 4.375 18.375H16.625C17.5915 18.375 18.375 17.5915 18.375 16.625V7.875C18.375 6.9085 17.5915 6.125 16.625 6.125H3.5C2.05025 6.125 0.875 4.94975 0.875 3.5C0.875 2.05025 2.05025 0.875 3.5 0.875H15.75Z" fill="#828282"/>
<path d="M15.75 13.125C16.2332 13.125 16.625 13.5168 16.625 14C16.625 14.4832 16.2332 14.875 15.75 14.875H13.125C11.6753 14.875 10.5 13.6997 10.5 12.25C10.5 10.8003 11.6753 9.625 13.125 9.625H15.75C16.2332 9.625 16.625 10.0168 16.625 10.5C16.625 10.9832 16.2332 11.375 15.75 11.375H13.125C12.6418 11.375 12.25 11.7668 12.25 12.25C12.25 12.7332 12.6418 13.125 13.125 13.125H15.75Z" fill="#828282"/>
</svg>
