<svg width="113" height="113" viewBox="0 0 113 113" fill="none" xmlns="http://www.w3.org/2000/svg">
<g filter="url(#filter0_d)">
<path d="M56.4999 93C79.4197 93 97.9999 74.4198 97.9999 51.5C97.9999 28.5802 79.4197 10 56.4999 10C33.5801 10 14.9999 28.5802 14.9999 51.5C14.9999 74.4198 33.5801 93 56.4999 93Z" fill="white"/>
</g>
<mask id="path-2-inside-1" fill="white">
<path d="M15.3365 62.0129C13.2269 53.8068 13.6216 45.157 16.4698 37.177L56.4449 51.445L15.3365 62.0129Z"/>
</mask>
<path d="M15.3365 62.0129C13.2269 53.8068 13.6216 45.157 16.4698 37.177L56.4449 51.445L15.3365 62.0129Z" stroke="#EEE433" stroke-width="4" mask="url(#path-2-inside-1)"/>
<mask id="path-3-inside-2" fill="white">
<path d="M29.5532 84.2843C22.5133 78.5193 17.5123 70.6447 15.2878 61.8217L56.4449 51.445L29.5532 84.2843Z"/>
</mask>
<path d="M29.5532 84.2843C22.5133 78.5193 17.5123 70.6447 15.2878 61.8217L56.4449 51.445L29.5532 84.2843Z" stroke="#F4B938" stroke-width="4" mask="url(#path-3-inside-2)"/>
<mask id="path-4-inside-3" fill="white">
<path d="M16.4844 37.1363C19.5259 28.6423 25.1947 21.3385 32.6684 16.2845C40.1421 11.2306 49.0317 8.68964 58.0474 9.03026C67.063 9.37089 75.7356 12.5754 82.8066 18.1788C89.8776 23.7823 94.9792 31.4931 97.3711 40.1923C99.763 48.8915 99.3206 58.1266 96.1084 66.5575C92.8961 74.9883 87.0809 82.1763 79.5067 87.0783C71.9326 91.9803 62.9934 94.3413 53.9865 93.8187C44.9796 93.2962 36.3734 89.9172 29.417 84.1722L56.4449 51.445L16.4844 37.1363Z"/>
</mask>
<path d="M16.4844 37.1363C19.5259 28.6423 25.1947 21.3385 32.6684 16.2845C40.1421 11.2306 49.0317 8.68964 58.0474 9.03026C67.063 9.37089 75.7356 12.5754 82.8066 18.1788C89.8776 23.7823 94.9792 31.4931 97.3711 40.1923C99.763 48.8915 99.3206 58.1266 96.1084 66.5575C92.8961 74.9883 87.0809 82.1763 79.5067 87.0783C71.9326 91.9803 62.9934 94.3413 53.9865 93.8187C44.9796 93.2962 36.3734 89.9172 29.417 84.1722L56.4449 51.445L16.4844 37.1363Z" stroke="#EE8F21" stroke-width="4" mask="url(#path-4-inside-3)"/>
<circle cx="56.4999" cy="51.5" r="40.5" fill="white"/>
<path d="M47.8546 55H50.6106L46.5416 45.9H43.9416L39.8596 55H42.5896L43.1876 53.505H47.2566L47.8546 55ZM46.3856 51.347H44.0586L45.2286 48.448L46.3856 51.347ZM50.8856 48.578V52.14C50.8856 54.428 52.0426 55.143 53.3946 55.156C54.0706 55.169 54.8766 54.935 55.4226 54.298L55.5266 55H57.6456V48.578H55.2796V51.997C55.2796 52.842 54.7466 53.193 54.1746 53.193C53.7326 53.193 53.2776 52.92 53.2776 52.127V48.578H50.8856ZM59.6225 47.018V48.617H58.5955V50.45H59.6225V52.556C59.5835 54.571 60.7275 55.156 62.0015 55.156C62.6645 55.156 63.3015 55.039 63.8475 54.727L63.3275 52.959C63.1325 53.089 62.8595 53.18 62.6255 53.18C62.2615 53.18 62.0015 53.011 61.9885 52.556V50.45H63.4445V48.617H62.0015V46.758L59.6225 47.018ZM67.9261 48.435C66.0671 48.435 64.2601 49.423 64.2601 51.802C64.2601 54.142 66.0801 55.156 67.9261 55.156C69.7331 55.156 71.5921 54.142 71.5921 51.802C71.5921 49.462 69.8241 48.435 67.9261 48.435ZM67.9261 53.193C67.0811 53.193 66.6001 52.543 66.6001 51.802C66.6001 51.061 67.0811 50.398 67.9261 50.398C68.7711 50.398 69.2521 51.061 69.2521 51.802C69.2521 52.582 68.7321 53.193 67.9261 53.193Z" fill="#0068A5"/>
<defs>
<filter id="filter0_d" x="-0.00012207" y="0" width="113" height="113" filterUnits="userSpaceOnUse" color-interpolation-filters="sRGB">
<feFlood flood-opacity="0" result="BackgroundImageFix"/>
<feColorMatrix in="SourceAlpha" type="matrix" values="0 0 0 0 0 0 0 0 0 0 0 0 0 0 0 0 0 0 127 0"/>
<feOffset dy="5"/>
<feGaussianBlur stdDeviation="7.5"/>
<feColorMatrix type="matrix" values="0 0 0 0 0 0 0 0 0 0 0 0 0 0 0 0 0 0 0.15 0"/>
<feBlend mode="normal" in2="BackgroundImageFix" result="effect1_dropShadow"/>
<feBlend mode="normal" in="SourceGraphic" in2="effect1_dropShadow" result="shape"/>
</filter>
</defs>
</svg>
