<svg width="113" height="113" viewBox="0 0 113 113" fill="none" xmlns="http://www.w3.org/2000/svg">
<g filter="url(#filter0_d)">
<path d="M56.4999 93C79.4197 93 97.9999 74.4198 97.9999 51.5C97.9999 28.5802 79.4197 10 56.4999 10C33.5801 10 14.9999 28.5802 14.9999 51.5C14.9999 74.4198 33.5801 93 56.4999 93Z" fill="white"/>
</g>
<mask id="path-2-inside-1" fill="white">
<path d="M15.3365 62.0129C13.2269 53.8068 13.6216 45.157 16.4698 37.177L56.4449 51.445L15.3365 62.0129Z"/>
</mask>
<path d="M15.3365 62.0129C13.2269 53.8068 13.6216 45.157 16.4698 37.177L56.4449 51.445L15.3365 62.0129Z" stroke="#EEE433" stroke-width="4" mask="url(#path-2-inside-1)"/>
<mask id="path-3-inside-2" fill="white">
<path d="M29.5532 84.2843C22.5133 78.5193 17.5123 70.6447 15.2878 61.8217L56.4449 51.445L29.5532 84.2843Z"/>
</mask>
<path d="M29.5532 84.2843C22.5133 78.5193 17.5123 70.6447 15.2878 61.8217L56.4449 51.445L29.5532 84.2843Z" stroke="#F4B938" stroke-width="4" mask="url(#path-3-inside-2)"/>
<mask id="path-4-inside-3" fill="white">
<path d="M16.4844 37.1363C19.5259 28.6423 25.1947 21.3385 32.6684 16.2845C40.1421 11.2306 49.0317 8.68964 58.0474 9.03026C67.063 9.37089 75.7356 12.5754 82.8066 18.1788C89.8776 23.7823 94.9792 31.4931 97.3711 40.1923C99.763 48.8915 99.3206 58.1266 96.1084 66.5575C92.8961 74.9883 87.0809 82.1763 79.5067 87.0783C71.9326 91.9803 62.9934 94.3413 53.9865 93.8187C44.9796 93.2962 36.3734 89.9172 29.417 84.1722L56.4449 51.445L16.4844 37.1363Z"/>
</mask>
<path d="M16.4844 37.1363C19.5259 28.6423 25.1947 21.3385 32.6684 16.2845C40.1421 11.2306 49.0317 8.68964 58.0474 9.03026C67.063 9.37089 75.7356 12.5754 82.8066 18.1788C89.8776 23.7823 94.9792 31.4931 97.3711 40.1923C99.763 48.8915 99.3206 58.1266 96.1084 66.5575C92.8961 74.9883 87.0809 82.1763 79.5067 87.0783C71.9326 91.9803 62.9934 94.3413 53.9865 93.8187C44.9796 93.2962 36.3734 89.9172 29.417 84.1722L56.4449 51.445L16.4844 37.1363Z" stroke="#EE8F21" stroke-width="4" mask="url(#path-4-inside-3)"/>
<circle cx="56.4999" cy="51.5" r="40.5" fill="white"/>
<path d="M49.3974 47H46.8884C46.1734 48.352 44.8604 49.158 43.3394 49.158C41.0514 49.158 39.2314 47.234 39.2314 44.738V43.451H41.0514V44.569C41.0514 46.272 41.8964 47.468 43.3524 47.468C44.7824 47.468 45.6274 46.389 45.6274 44.569V38.628H47.4474V45.258H49.3974V47ZM52.9829 44.491C52.9829 45.18 52.7879 45.752 52.4109 46.207C51.9819 46.74 51.3839 47 50.6299 47H49.0829V45.258H50.2399C50.8509 45.258 51.1629 44.829 51.1629 43.984V41.111H52.9829V44.491ZM52.8659 49.158H51.2409V47.65H52.8659V49.158ZM50.4089 49.158H48.7969V47.65H50.4089V49.158ZM61.7353 47H60.0193C59.8113 48.43 58.8233 49.145 57.0553 49.145H56.8603V47.689H57.0163C57.7183 47.689 58.1343 47.429 58.2773 46.922C58.1343 46.974 57.7703 47 57.1593 47C55.4563 47 54.2083 45.765 54.2083 44.036C54.2083 42.281 55.4303 41.098 57.1593 41.098C58.8233 41.098 60.0453 42.346 60.0453 44.075V45.258H61.7353V47ZM58.2253 45.258V43.997C58.2253 43.23 57.7703 42.736 57.1073 42.736C56.4183 42.736 56.0543 43.269 56.0543 43.958C56.0543 44.699 56.4963 45.258 57.1723 45.258H58.2253ZM70.251 47H68.171C67.638 47.741 66.819 48.118 65.74 48.118C64.635 48.118 63.816 47.741 63.27 47H61.281V45.258H62.737C62.737 43.386 63.803 42.216 65.688 42.216C67.586 42.216 68.73 43.347 68.73 45.258H70.251V47ZM66.923 45.219C66.923 44.192 66.533 43.672 65.766 43.672H65.636C64.973 43.672 64.531 44.296 64.531 45.141C64.531 46.012 64.973 46.636 65.74 46.636C66.481 46.636 66.923 46.09 66.923 45.219ZM73.6481 40.123H72.0231V38.628H73.6481V40.123ZM71.1911 40.123H69.5791V38.628H71.1911V40.123ZM73.7651 44.491C73.7651 45.18 73.5701 45.752 73.1931 46.207C72.7641 46.74 72.1661 47 71.4121 47H69.8651V45.258H71.0221C71.6331 45.258 71.9451 44.829 71.9451 43.984V41.111H73.7651V44.491ZM39.2223 57.111H37.5973V55.603H39.2223V57.111ZM36.7653 57.111H35.1403V55.603H36.7653V57.111ZM42.6933 60.855C42.6933 62.207 41.9003 63 40.4963 63H35.7903C32.9173 63 31.4873 61.791 31.4873 59.36V57.098H33.2813V59.36C33.2813 60.127 33.5283 60.66 34.0093 60.933C34.3863 61.154 34.9843 61.258 35.8293 61.258H39.1833C39.7033 61.258 40.0543 61.219 40.2493 61.128C40.6783 60.946 40.8993 60.543 40.8993 59.932V57.111H42.6933V60.855ZM45.8364 63H44.0164V54.615H45.8364V63ZM50.7226 61.804C50.7226 63 50.4236 63.858 49.8126 64.391C49.2536 64.898 48.3436 65.145 47.0956 65.145V63.676C48.2916 63.676 48.8896 63.104 48.8896 61.96V57.111H50.7226V61.804ZM55.9656 63H54.2496C52.8586 63 52.0526 62.194 52.0526 60.855V54.615H53.8726V59.906C53.8726 60.79 54.0936 61.258 55.4326 61.258H55.9656V63ZM61.5861 63H55.7361V61.258H56.9321C57.5431 61.258 57.8421 60.842 57.8421 60.01V57.111H59.6751V59.945C59.6751 60.426 59.6101 60.855 59.4671 61.258H61.5861V63ZM59.4931 65.158H57.8811V63.65H59.4931V65.158ZM57.0491 65.158H55.4371V63.65H57.0491V65.158ZM74.6852 63H61.2952V61.258H62.6732C63.2712 61.258 63.5962 60.933 63.5962 60.023V57.111H65.4292V59.945C65.4292 60.426 65.3512 60.868 65.2082 61.258H66.3652C66.9762 61.258 67.2882 60.868 67.2882 60.088V57.111H69.1082V59.945C69.1082 60.426 69.0302 60.868 68.8872 61.258H70.0442C70.6552 61.258 70.9672 60.868 70.9672 60.088V57.111H72.8002V59.932C72.8002 60.413 72.7222 60.855 72.5662 61.258H74.6852V63ZM78.1806 60.491C78.1806 61.18 77.9856 61.752 77.6086 62.207C77.1796 62.74 76.5816 63 75.8146 63H74.0986V61.258H75.4376C76.0486 61.258 76.3606 60.829 76.3606 59.984V54.628H78.1806V60.491ZM81.3325 63H79.5125V54.615H81.3325V63Z" fill="#0068A5"/>
<defs>
<filter id="filter0_d" x="-0.00012207" y="0" width="113" height="113" filterUnits="userSpaceOnUse" color-interpolation-filters="sRGB">
<feFlood flood-opacity="0" result="BackgroundImageFix"/>
<feColorMatrix in="SourceAlpha" type="matrix" values="0 0 0 0 0 0 0 0 0 0 0 0 0 0 0 0 0 0 127 0"/>
<feOffset dy="5"/>
<feGaussianBlur stdDeviation="7.5"/>
<feColorMatrix type="matrix" values="0 0 0 0 0 0 0 0 0 0 0 0 0 0 0 0 0 0 0.15 0"/>
<feBlend mode="normal" in2="BackgroundImageFix" result="effect1_dropShadow"/>
<feBlend mode="normal" in="SourceGraphic" in2="effect1_dropShadow" result="shape"/>
</filter>
</defs>
</svg>
