<svg width="85" height="86" viewBox="0 0 85 86" fill="none" xmlns="http://www.w3.org/2000/svg">
<path d="M42.4456 85.8194C65.8878 85.8194 84.8914 66.8158 84.8914 43.3736C84.8914 19.9314 65.8878 0.927734 42.4456 0.927734C19.0034 0.927734 -0.000244141 19.9314 -0.000244141 43.3736C-0.000244141 66.8158 19.0034 85.8194 42.4456 85.8194Z" fill="white"/>
<g clip-path="url(#clip0)">
<path d="M44.7385 31.0737H37.5283L36.7006 34.311H43.9108L44.7385 31.0737Z" fill="#061F70"/>
<path d="M22.6847 31.0737H15.7872L14.9595 34.311H21.857L22.6847 31.0737Z" fill="#061F70"/>
<path d="M57.669 46.2849H9.31269L9 48.7312H57.0804L57.669 46.2849Z" fill="#E68721"/>
<path d="M62.6903 46.2849L62.0649 48.7312H68.8521L69.3671 46.2849H62.6903Z" fill="#ECB138"/>
<path d="M68.8338 46.2849L68.2268 48.7312H71.9239L72.4389 46.2849H68.8338Z" fill="#E6DB30"/>
<path d="M53.9902 31.0737H50.1828L49.3551 34.311H53.1625L53.9902 31.0737Z" fill="#061F70"/>
<path d="M52.9418 35.7823H49.8518L48.8953 39.5345C48.6378 40.5278 48.3987 41.7601 45.5109 41.7601C44.0946 41.7601 43.2669 41.4107 42.9174 40.7301C42.6231 40.1415 42.899 39.4242 42.9726 39.1483L43.8187 35.8007H40.2872L39.4411 39.1483C39.4227 39.2402 39.3859 39.3506 39.3675 39.4426L39.3491 39.5529C39.0732 40.6198 39.202 41.6866 37.1787 41.6866H33.1689C32.9482 39.5897 30.9985 37.6216 29.8765 36.3709C29.5822 36.0398 29.2327 35.6351 28.9752 35.3041C32.1941 33.6119 34.0334 34.366 34.0886 34.3476L34.9347 31C34.7508 31.0736 30.8514 30.9816 27.375 32.8577C26.1794 33.5015 25.7196 34.3108 25.5173 34.881C25.0206 36.4077 26.0139 37.5297 27.1727 38.7988C27.9268 39.6265 28.8097 40.6198 29.1959 41.6498H22.4456C23.0525 40.6933 23.2549 39.8104 23.3652 39.369L24.2849 35.7823H21.1948L20.2751 39.369C20.0176 40.3622 19.6865 41.5946 16.7988 41.5946C15.3825 41.5946 14.4628 41.2451 14.1133 40.5646C13.819 39.976 13.9846 39.2586 14.0582 38.9827L14.8675 35.7823H11.6302L10.8209 38.9827C10.1588 41.5946 10.9865 44.6295 15.5112 44.8134H35.1186C37.1971 44.8134 38.8709 44.4456 40.1952 43.3972C41.0045 44.3352 42.4024 44.979 44.6096 44.979C47.0927 44.979 49.0057 44.2249 50.4036 42.7166C51.5623 41.4658 51.8566 40.1047 52.0038 39.5161L52.9418 35.7823Z" fill="#061F70"/>
<path d="M68.006 32.8577C66.8104 33.5015 66.3506 34.3108 66.1483 34.881C65.6517 36.4077 66.6449 37.5297 67.8037 38.7988C68.5578 39.6265 69.4223 40.6198 69.827 41.6498H62.911L63.2789 40.0312C63.4261 39.5529 63.518 39.1115 63.5732 38.762L63.5916 38.6884C63.6836 38.1734 63.6836 37.8423 63.6836 37.8423C63.61 34.1821 60.3544 33.9981 59.6922 33.9981H59.6554C57.8712 33.9981 56.3998 34.5867 55.241 35.7639C53.3649 37.6768 53.0154 40.5646 53.0154 41.1716C53.0706 44.5375 55.8848 44.887 57.0803 44.887H57.2275C57.6505 44.887 58.0552 44.8502 58.4414 44.7951V44.8134C58.515 44.7951 58.5702 44.7767 58.6254 44.7583C58.7541 44.7399 58.8645 44.7031 58.9749 44.6847L57.908 48.8784H61.1269L62.1385 44.9054H72.6228L73.0458 43.2316C73.8367 40.1599 71.887 37.9527 70.434 36.3525C70.1397 36.0214 69.827 35.6167 69.5695 35.2857C72.8067 33.5935 74.6277 34.3476 74.6828 34.3292L75.5657 31C75.3818 31.092 71.4824 30.9816 68.006 32.8577ZM56.7676 41.705C56.5285 41.4475 56.4182 41.0796 56.455 40.6198C56.455 40.583 56.878 36.9043 59.3243 36.9043C59.6002 36.9043 60.5199 36.9963 60.5383 38.1918C60.5383 38.5781 59.9497 41.9809 57.5402 42.1096C57.485 42.1096 57.0619 42.036 56.7676 41.705Z" fill="#061F70"/>
</g>
<defs>
<clipPath id="clip0">
<rect width="66.5658" height="17.86" fill="white" transform="translate(9 31)"/>
</clipPath>
</defs>
</svg>
