<svg width="85" height="86" viewBox="0 0 85 86" fill="none" xmlns="http://www.w3.org/2000/svg">
<path d="M42.4456 85.8194C65.8878 85.8194 84.8914 66.8158 84.8914 43.3736C84.8914 19.9314 65.8878 0.927734 42.4456 0.927734C19.0034 0.927734 -0.000244141 19.9314 -0.000244141 43.3736C-0.000244141 66.8158 19.0034 85.8194 42.4456 85.8194Z" fill="white"/>
<path fill-rule="evenodd" clip-rule="evenodd" d="M26.438 34.9947C20.416 34.9947 19.5676 41.4359 19.5883 42.3357C19.6503 46.2208 23.4994 46.0573 23.8719 46.0573C30.1422 46.0368 30.5147 39.0435 30.5147 38.839C30.4526 34.9333 26.7277 34.9947 26.438 34.9947ZM24.1823 43.5012C24.0582 43.5012 22.6924 43.2967 22.8165 41.7222C22.8786 41.0679 23.5408 37.6325 26.0862 37.6325C26.707 37.6325 27.5554 37.9597 27.5761 39.1662C27.5761 39.4115 27.0588 43.3785 24.1823 43.5012Z" fill="#0F206C"/>
<path d="M55.1826 40.9043L54.6653 43.0104C54.6653 43.0104 53.8996 43.767 52.8028 43.767C52.5131 43.767 51.5819 43.767 51.5612 42.9082C51.5405 40.6384 55.1826 40.9043 55.1826 40.9043ZM55.6586 38.9617C55.6586 38.9617 53.0925 38.7572 50.9817 39.6365C49.4297 40.2908 48.1674 41.5995 48.1674 43.7057C48.1674 44.2987 48.9123 45.9346 51.1473 46.0368C51.2301 46.0368 53.0718 46.139 54.0858 45.4643L53.941 46.0573H57.1072C57.1072 46.0573 58.2453 41.9676 59.1352 37.7757C59.1559 37.653 59.6111 34.8515 54.7894 35.0356C54.1893 35.056 52.182 35.0151 51.168 35.0151L50.5058 37.6734H53.7961C56.4036 37.653 55.8655 38.9617 55.6586 38.9617Z" fill="#0F206C"/>
<path d="M20.9339 34.9946L21.6788 32.0092C21.6788 32.0092 21.2856 32.0092 18.5747 32.0092C17.7056 32.0092 10.2351 31.3344 9.67631 41.5586C9.63493 42.1925 9.59354 46.0777 14.9533 46.0777C15.3672 46.0777 17.6642 46.0572 18.2229 46.0572L19.0093 43.0717C19.0093 43.0717 18.2022 43.1126 16.3812 43.0922C14.4773 43.0718 12.8632 43.5012 13.1115 40.7406C13.1736 40.1067 13.9393 35.0151 18.1195 35.0151H20.9339V34.9946Z" fill="#0F206C"/>
<path d="M29.8528 46.0572H33.1224C33.1224 46.0572 34.9021 38.8185 34.9435 38.6345C34.9849 38.4504 35.3574 37.6734 36.7853 37.6734C37.1992 37.6734 38.1304 37.7961 38.0476 38.9412C38.0269 39.3297 36.33 46.0777 36.33 46.0777H39.5169C39.5169 46.0777 41.3173 39.1048 41.4 38.6345C41.4207 38.4913 42.2278 35.3423 39.103 35.056C38.7098 35.0151 37.7786 34.8515 35.7092 35.6081L35.8334 35.0356H32.6672L29.8528 46.0572Z" fill="#0F206C"/>
<path d="M43.8216 33.3384H47.0085L46.636 34.9947L49.6987 34.9742L49.0365 37.6325H45.9117C45.9117 37.6325 44.8563 41.9471 44.7942 42.1312C44.7115 42.4175 44.339 43.4603 45.8289 43.4603C46.4084 43.4603 47.5465 43.4399 47.5465 43.4399L46.9257 46.0164C46.9257 46.0164 45.8496 46.0164 44.5252 46.0164C44.132 46.0164 41.0486 46.1595 41.2556 43.7262C41.3383 43.2763 43.8216 33.3384 43.8216 33.3384Z" fill="#0F206C"/>
<path d="M70.0821 33.3384H73.269L72.8965 34.9947H74.0554H75.9592L75.773 35.7922L75.3177 37.653H72.6895H72.2136C72.2136 37.653 71.1582 41.9676 71.0961 42.1516C71.0133 42.4379 70.6408 43.4808 72.1308 43.4808C72.7102 43.4808 73.8484 43.4603 73.8484 43.4603L73.2276 46.0368C73.2276 46.0368 72.1515 46.0368 70.8271 46.0368C70.4339 46.0368 67.3505 46.18 67.5574 43.7466C67.5988 43.2763 70.0821 33.3384 70.0821 33.3384Z" fill="#0F206C"/>
<path d="M67.7645 37.6529C67.7645 37.6529 67.8887 37.6529 65.7365 37.6529C62.4462 37.6529 62.1565 41.1905 62.1565 41.763C62.1978 43.5625 63.605 43.4807 64.2259 43.4807C66.2953 43.4807 66.3573 43.4807 66.3573 43.4807L65.7365 46.0776C65.2399 46.0776 64.0189 46.0776 63.3567 46.0776C58.6799 46.0776 58.7212 42.6832 58.7626 42.2538C59.4869 34.647 66.0262 35.0151 66.2332 35.0151C68.4681 35.0151 68.4474 35.0151 68.4474 35.0151L67.7645 37.6529Z" fill="#0F206C"/>
<path d="M16.9397 47.7544L16.5051 49.8606H72.2547L72.8549 47.7544H16.9397Z" fill="#EE8F21"/>
<path d="M16.9397 47.7544L16.5051 49.8606H11.2281L11.6213 47.7544H16.9397Z" fill="#F4B938"/>
<path d="M11.6215 47.7544L11.2283 49.8606H8L8.47596 47.7544H11.6215Z" fill="#EEE433"/>
</svg>
