<svg width="113" height="113" viewBox="0 0 113 113" fill="none" xmlns="http://www.w3.org/2000/svg">
<g filter="url(#filter0_d)">
<path d="M56.5 93C79.4198 93 98 74.4198 98 51.5C98 28.5802 79.4198 10 56.5 10C33.5802 10 15 28.5802 15 51.5C15 74.4198 33.5802 93 56.5 93Z" fill="white"/>
</g>
<mask id="path-2-inside-1" fill="white">
<path d="M15.3366 62.0129C13.227 53.8068 13.6218 45.157 16.47 37.177L56.445 51.445L15.3366 62.0129Z"/>
</mask>
<path d="M15.3366 62.0129C13.227 53.8068 13.6218 45.157 16.47 37.177L56.445 51.445L15.3366 62.0129Z" stroke="#EEE433" stroke-width="4" mask="url(#path-2-inside-1)"/>
<mask id="path-3-inside-2" fill="white">
<path d="M29.5533 84.2843C22.5134 78.5193 17.5124 70.6447 15.2879 61.8217L56.445 51.445L29.5533 84.2843Z"/>
</mask>
<path d="M29.5533 84.2843C22.5134 78.5193 17.5124 70.6447 15.2879 61.8217L56.445 51.445L29.5533 84.2843Z" stroke="#F4B938" stroke-width="4" mask="url(#path-3-inside-2)"/>
<mask id="path-4-inside-3" fill="white">
<path d="M16.4845 37.1363C19.526 28.6423 25.1949 21.3385 32.6685 16.2845C40.1422 11.2306 49.0319 8.68964 58.0475 9.03026C67.0631 9.37089 75.7357 12.5754 82.8067 18.1788C89.8778 23.7823 94.9793 31.4931 97.3712 40.1923C99.7631 48.8915 99.3208 58.1266 96.1085 66.5575C92.8962 74.9883 87.081 82.1763 79.5069 87.0783C71.9327 91.9803 62.9935 94.3413 53.9866 93.8187C44.9797 93.2962 36.3736 89.9172 29.4171 84.1722L56.445 51.445L16.4845 37.1363Z"/>
</mask>
<path d="M16.4845 37.1363C19.526 28.6423 25.1949 21.3385 32.6685 16.2845C40.1422 11.2306 49.0319 8.68964 58.0475 9.03026C67.0631 9.37089 75.7357 12.5754 82.8067 18.1788C89.8778 23.7823 94.9793 31.4931 97.3712 40.1923C99.7631 48.8915 99.3208 58.1266 96.1085 66.5575C92.8962 74.9883 87.081 82.1763 79.5069 87.0783C71.9327 91.9803 62.9935 94.3413 53.9866 93.8187C44.9797 93.2962 36.3736 89.9172 29.4171 84.1722L56.445 51.445L16.4845 37.1363Z" stroke="#EE8F21" stroke-width="4" mask="url(#path-4-inside-3)"/>
<circle cx="56.5" cy="51.5" r="40.5" fill="white"/>
<path d="M30.702 55V51.867H34.862V49.761H30.702V48.058H35.135V45.9H28.154V55H30.702ZM36.1181 46.927C36.1181 47.72 36.7941 48.123 37.4701 48.123C38.1331 48.123 38.8091 47.72 38.8091 46.927C38.8091 46.121 38.1331 45.718 37.4701 45.718C36.7941 45.718 36.1181 46.121 36.1181 46.927ZM36.2611 55V48.682H38.6661V55H36.2611ZM46.8297 55V51.438C46.8297 49.15 45.6727 48.435 44.3207 48.422C43.6447 48.409 42.8387 48.643 42.2927 49.28L42.1887 48.578H40.0697V55H42.4357V51.62C42.4357 50.775 42.9687 50.385 43.5407 50.385C43.9827 50.385 44.4377 50.658 44.4377 51.451V55H46.8297ZM48.0136 46.927C48.0136 47.72 48.6896 48.123 49.3656 48.123C50.0286 48.123 50.7046 47.72 50.7046 46.927C50.7046 46.121 50.0286 45.718 49.3656 45.718C48.6896 45.718 48.0136 46.121 48.0136 46.927ZM48.1566 55V48.682H50.5616V55H48.1566ZM51.5102 54.324C52.2382 54.857 53.4992 55.169 54.6172 55.169C56.1642 55.169 57.6072 54.571 57.6072 52.985C57.6072 51.282 55.9952 50.905 54.6562 50.866C54.2662 50.853 54.1752 50.671 54.1752 50.554C54.1752 50.32 54.4092 50.242 54.7472 50.242C55.2672 50.229 56.0082 50.411 56.3592 50.632L57.3732 49.202C56.7492 48.734 55.7872 48.422 54.7472 48.422C53.2392 48.422 51.7832 48.981 51.7832 50.528C51.7832 52.088 53.2912 52.595 54.5392 52.634C55.0072 52.673 55.2152 52.777 55.2152 52.985C55.2152 53.193 54.9942 53.297 54.5652 53.297C54.0452 53.271 53.2652 53.219 52.2902 52.582L51.5102 54.324ZM58.6048 45.9V55H61.0098V51.607C61.0228 50.853 61.5428 50.502 62.0108 50.502C62.4918 50.502 62.8558 50.723 62.8818 51.451V55H65.2608V51.438C65.2608 49.28 64.0388 48.435 62.7388 48.435C61.9718 48.435 61.4778 48.682 61.0228 49.267V45.9H58.6048ZM66.4345 46.927C66.4345 47.72 67.1105 48.123 67.7865 48.123C68.4495 48.123 69.1255 47.72 69.1255 46.927C69.1255 46.121 68.4495 45.718 67.7865 45.718C67.1105 45.718 66.4345 46.121 66.4345 46.927ZM66.5775 55V48.682H68.9825V55H66.5775ZM77.1461 55V51.438C77.1461 49.15 75.9891 48.435 74.6371 48.422C73.9611 48.409 73.1551 48.643 72.6091 49.28L72.5051 48.578H70.3861V55H72.7521V51.62C72.7521 50.775 73.2851 50.385 73.8571 50.385C74.2991 50.385 74.7541 50.658 74.7541 51.451V55H77.1461ZM78.213 55.455C78.083 57.418 79.37 58.614 81.671 58.614C83.504 58.614 85.311 57.834 85.311 55.754C85.311 55.403 85.233 54.493 84.05 53.817C84.791 53.284 85.207 52.491 85.22 51.685C85.246 51.113 85.077 50.476 84.609 49.956L85.441 48.968L83.712 47.733C83.504 48.006 83.244 48.331 83.023 48.617C82.594 48.461 82.139 48.37 81.697 48.37C79.708 48.37 78.122 49.644 78.122 51.659C78.122 53.648 79.539 54.896 81.697 54.896C82.568 54.896 82.854 55.286 82.854 55.754C82.854 56.378 82.295 56.677 81.671 56.677C81.034 56.677 80.436 56.456 80.462 55.455H78.213ZM81.697 50.333C82.399 50.333 82.906 50.931 82.906 51.659C82.906 52.517 82.334 52.92 81.697 52.92C80.995 52.92 80.449 52.426 80.449 51.659C80.449 50.801 80.995 50.333 81.697 50.333Z" fill="#967858"/>
<defs>
<filter id="filter0_d" x="0" y="0" width="113" height="113" filterUnits="userSpaceOnUse" color-interpolation-filters="sRGB">
<feFlood flood-opacity="0" result="BackgroundImageFix"/>
<feColorMatrix in="SourceAlpha" type="matrix" values="0 0 0 0 0 0 0 0 0 0 0 0 0 0 0 0 0 0 127 0"/>
<feOffset dy="5"/>
<feGaussianBlur stdDeviation="7.5"/>
<feColorMatrix type="matrix" values="0 0 0 0 0 0 0 0 0 0 0 0 0 0 0 0 0 0 0.15 0"/>
<feBlend mode="normal" in2="BackgroundImageFix" result="effect1_dropShadow"/>
<feBlend mode="normal" in="SourceGraphic" in2="effect1_dropShadow" result="shape"/>
</filter>
</defs>
</svg>
