<svg width="113" height="113" viewBox="0 0 113 113" fill="none" xmlns="http://www.w3.org/2000/svg">
<g filter="url(#filter0_d)">
<path d="M56.5 93C79.4198 93 98 74.4198 98 51.5C98 28.5802 79.4198 10 56.5 10C33.5802 10 15 28.5802 15 51.5C15 74.4198 33.5802 93 56.5 93Z" fill="white"/>
</g>
<mask id="path-2-inside-1" fill="white">
<path d="M15.3366 62.0129C13.227 53.8068 13.6218 45.157 16.47 37.177L56.445 51.445L15.3366 62.0129Z"/>
</mask>
<path d="M15.3366 62.0129C13.227 53.8068 13.6218 45.157 16.47 37.177L56.445 51.445L15.3366 62.0129Z" stroke="#EEE433" stroke-width="4" mask="url(#path-2-inside-1)"/>
<mask id="path-3-inside-2" fill="white">
<path d="M29.5533 84.2843C22.5134 78.5193 17.5124 70.6447 15.2879 61.8217L56.445 51.445L29.5533 84.2843Z"/>
</mask>
<path d="M29.5533 84.2843C22.5134 78.5193 17.5124 70.6447 15.2879 61.8217L56.445 51.445L29.5533 84.2843Z" stroke="#F4B938" stroke-width="4" mask="url(#path-3-inside-2)"/>
<mask id="path-4-inside-3" fill="white">
<path d="M16.4845 37.1363C19.526 28.6423 25.1949 21.3385 32.6685 16.2845C40.1422 11.2306 49.0319 8.68964 58.0475 9.03026C67.0631 9.37089 75.7357 12.5754 82.8067 18.1788C89.8778 23.7823 94.9793 31.4931 97.3712 40.1923C99.7631 48.8915 99.3208 58.1266 96.1085 66.5575C92.8962 74.9883 87.081 82.1763 79.5069 87.0783C71.9327 91.9803 62.9935 94.3413 53.9866 93.8187C44.9797 93.2962 36.3736 89.9172 29.4171 84.1722L56.445 51.445L16.4845 37.1363Z"/>
</mask>
<path d="M16.4845 37.1363C19.526 28.6423 25.1949 21.3385 32.6685 16.2845C40.1422 11.2306 49.0319 8.68964 58.0475 9.03026C67.0631 9.37089 75.7357 12.5754 82.8067 18.1788C89.8778 23.7823 94.9793 31.4931 97.3712 40.1923C99.7631 48.8915 99.3208 58.1266 96.1085 66.5575C92.8962 74.9883 87.081 82.1763 79.5069 87.0783C71.9327 91.9803 62.9935 94.3413 53.9866 93.8187C44.9797 93.2962 36.3736 89.9172 29.4171 84.1722L56.445 51.445L16.4845 37.1363Z" stroke="#EE8F21" stroke-width="4" mask="url(#path-4-inside-3)"/>
<circle cx="56.5" cy="51.5" r="40.5" fill="white"/>
<path d="M48.8974 47H46.3884C45.6734 48.352 44.3604 49.158 42.8394 49.158C40.5514 49.158 38.7314 47.234 38.7314 44.738V43.451H40.5514V44.569C40.5514 46.272 41.3964 47.468 42.8524 47.468C44.2824 47.468 45.1274 46.389 45.1274 44.569V38.628H46.9474V45.258H48.8974V47ZM52.4829 44.491C52.4829 45.18 52.2879 45.752 51.9109 46.207C51.4819 46.74 50.8839 47 50.1299 47H48.5829V45.258H49.7399C50.3509 45.258 50.6629 44.829 50.6629 43.984V41.111H52.4829V44.491ZM52.3659 49.158H50.7409V47.65H52.3659V49.158ZM49.9089 49.158H48.2969V47.65H49.9089V49.158ZM61.2353 47H59.5193C59.3113 48.43 58.3233 49.145 56.5553 49.145H56.3603V47.689H56.5163C57.2183 47.689 57.6343 47.429 57.7773 46.922C57.6343 46.974 57.2703 47 56.6593 47C54.9563 47 53.7083 45.765 53.7083 44.036C53.7083 42.281 54.9303 41.098 56.6593 41.098C58.3233 41.098 59.5453 42.346 59.5453 44.075V45.258H61.2353V47ZM57.7253 45.258V43.997C57.7253 43.23 57.2703 42.736 56.6073 42.736C55.9183 42.736 55.5543 43.269 55.5543 43.958C55.5543 44.699 55.9963 45.258 56.6723 45.258H57.7253ZM69.751 47H67.671C67.138 47.741 66.319 48.118 65.24 48.118C64.135 48.118 63.316 47.741 62.77 47H60.781V45.258H62.237C62.237 43.386 63.303 42.216 65.188 42.216C67.086 42.216 68.23 43.347 68.23 45.258H69.751V47ZM66.423 45.219C66.423 44.192 66.033 43.672 65.266 43.672H65.136C64.473 43.672 64.031 44.296 64.031 45.141C64.031 46.012 64.473 46.636 65.24 46.636C65.981 46.636 66.423 46.09 66.423 45.219ZM73.1481 40.123H71.5231V38.628H73.1481V40.123ZM70.6911 40.123H69.0791V38.628H70.6911V40.123ZM73.2651 44.491C73.2651 45.18 73.0701 45.752 72.6931 46.207C72.2641 46.74 71.6661 47 70.9121 47H69.3651V45.258H70.5221C71.1331 45.258 71.4451 44.829 71.4451 43.984V41.111H73.2651V44.491ZM40.9311 63H32.0911C29.2181 63 27.7881 61.791 27.7881 59.36V57.111H29.5821V59.36C29.5821 60.127 29.8291 60.66 30.3101 60.933C30.6871 61.154 31.2851 61.258 32.1301 61.258H36.2771C36.8881 61.258 37.2001 60.842 37.2001 60.01V57.111H39.0201V59.945C39.0201 60.426 38.9551 60.855 38.8121 61.258H40.9311V63ZM34.4571 65.158H32.8321V63.65H34.4571V65.158ZM46.5754 63H40.7254V61.258H41.9214C42.5324 61.258 42.8314 60.842 42.8314 60.01V57.111H44.6644V59.945C44.6644 60.426 44.5994 60.855 44.4564 61.258H46.5754V63ZM44.4824 65.158H42.8704V63.65H44.4824V65.158ZM42.0384 65.158H40.4264V63.65H42.0384V65.158ZM58.6994 63H46.3624V61.258H48.4424V54.628H50.2494L50.0804 58.879C51.2504 57.657 52.4204 57.085 53.7204 57.085C55.8654 57.085 57.0874 58.593 57.2824 61.258H58.6994V63ZM55.3714 61.258C55.3844 61.167 55.3844 61.089 55.3844 60.998C55.3844 59.646 54.7084 58.671 53.5774 58.671C52.2384 58.671 51.0424 59.542 50.0414 61.258H55.3714ZM71.7985 63H58.1485V61.258H59.7865C60.3845 61.258 60.7095 60.933 60.7095 60.023V57.111H62.5425V59.945C62.5425 60.426 62.4645 60.868 62.3215 61.258H63.4785C64.0895 61.258 64.4015 60.868 64.4015 60.088V57.111H66.2215V59.945C66.2215 60.426 66.1435 60.868 66.0005 61.258H67.1575C67.7685 61.258 68.0805 60.868 68.0805 60.088V57.111H69.9135V59.932C69.9135 60.413 69.8355 60.855 69.6795 61.258H71.7985V63ZM64.8435 56.123H63.2185V54.628H64.8435V56.123ZM66.0395 53.978H64.4275V52.483H66.0395V53.978ZM67.2875 56.123H65.6755V54.628H67.2875V56.123ZM75.2939 56.123H73.6819V54.628H75.2939V56.123ZM72.8499 56.123H71.2379V54.628H72.8499V56.123ZM77.3479 63H71.4849V61.258H72.6809C73.2919 61.258 73.6039 60.842 73.6039 60.01V57.111H75.4369V59.945C75.4369 60.426 75.3589 60.855 75.2159 61.258H77.3479V63ZM80.8799 60.491C80.8799 61.18 80.6849 61.752 80.3079 62.207C79.8789 62.74 79.2809 63 78.5139 63H76.7979V61.258H78.1369C78.7479 61.258 79.0599 60.829 79.0599 59.984V54.628H80.8799V60.491ZM84.0318 63H82.2118V54.615H84.0318V63Z" fill="#967858"/>
<defs>
<filter id="filter0_d" x="0" y="0" width="113" height="113" filterUnits="userSpaceOnUse" color-interpolation-filters="sRGB">
<feFlood flood-opacity="0" result="BackgroundImageFix"/>
<feColorMatrix in="SourceAlpha" type="matrix" values="0 0 0 0 0 0 0 0 0 0 0 0 0 0 0 0 0 0 127 0"/>
<feOffset dy="5"/>
<feGaussianBlur stdDeviation="7.5"/>
<feColorMatrix type="matrix" values="0 0 0 0 0 0 0 0 0 0 0 0 0 0 0 0 0 0 0.15 0"/>
<feBlend mode="normal" in2="BackgroundImageFix" result="effect1_dropShadow"/>
<feBlend mode="normal" in="SourceGraphic" in2="effect1_dropShadow" result="shape"/>
</filter>
</defs>
</svg>
