<svg width="113" height="113" viewBox="0 0 113 113" fill="none" xmlns="http://www.w3.org/2000/svg">
<g filter="url(#filter0_d)">
<path d="M56.5 93C79.4198 93 98 74.4198 98 51.5C98 28.5802 79.4198 10 56.5 10C33.5802 10 15 28.5802 15 51.5C15 74.4198 33.5802 93 56.5 93Z" fill="white"/>
</g>
<mask id="path-2-inside-1" fill="white">
<path d="M15.3366 62.0129C13.227 53.8068 13.6218 45.157 16.47 37.177L56.445 51.445L15.3366 62.0129Z"/>
</mask>
<path d="M15.3366 62.0129C13.227 53.8068 13.6218 45.157 16.47 37.177L56.445 51.445L15.3366 62.0129Z" stroke="#EEE433" stroke-width="4" mask="url(#path-2-inside-1)"/>
<mask id="path-3-inside-2" fill="white">
<path d="M29.5533 84.2843C22.5134 78.5193 17.5124 70.6447 15.2879 61.8217L56.445 51.445L29.5533 84.2843Z"/>
</mask>
<path d="M29.5533 84.2843C22.5134 78.5193 17.5124 70.6447 15.2879 61.8217L56.445 51.445L29.5533 84.2843Z" stroke="#F4B938" stroke-width="4" mask="url(#path-3-inside-2)"/>
<mask id="path-4-inside-3" fill="white">
<path d="M16.4845 37.1363C19.526 28.6423 25.1949 21.3385 32.6685 16.2845C40.1422 11.2306 49.0319 8.68964 58.0475 9.03026C67.0631 9.37089 75.7357 12.5754 82.8067 18.1788C89.8778 23.7823 94.9793 31.4931 97.3712 40.1923C99.7631 48.8915 99.3208 58.1266 96.1085 66.5575C92.8962 74.9883 87.081 82.1763 79.5069 87.0783C71.9327 91.9803 62.9935 94.3413 53.9866 93.8187C44.9797 93.2962 36.3736 89.9172 29.4171 84.1722L56.445 51.445L16.4845 37.1363Z"/>
</mask>
<path d="M16.4845 37.1363C19.526 28.6423 25.1949 21.3385 32.6685 16.2845C40.1422 11.2306 49.0319 8.68964 58.0475 9.03026C67.0631 9.37089 75.7357 12.5754 82.8067 18.1788C89.8778 23.7823 94.9793 31.4931 97.3712 40.1923C99.7631 48.8915 99.3208 58.1266 96.1085 66.5575C92.8962 74.9883 87.081 82.1763 79.5069 87.0783C71.9327 91.9803 62.9935 94.3413 53.9866 93.8187C44.9797 93.2962 36.3736 89.9172 29.4171 84.1722L56.445 51.445L16.4845 37.1363Z" stroke="#EE8F21" stroke-width="4" mask="url(#path-4-inside-3)"/>
<circle cx="56.5" cy="51.5" r="40.5" fill="white"/>
<path d="M28.0362 48V38.9H25.4752V48H28.0362ZM36.356 48V44.438C36.356 42.15 35.199 41.435 33.847 41.422C33.171 41.409 32.365 41.643 31.819 42.28L31.715 41.578H29.596V48H31.962V44.62C31.962 43.775 32.495 43.385 33.067 43.385C33.509 43.385 33.964 43.658 33.964 44.451V48H36.356ZM37.228 47.324C37.956 47.857 39.217 48.169 40.335 48.169C41.882 48.169 43.325 47.571 43.325 45.985C43.325 44.282 41.713 43.905 40.374 43.866C39.984 43.853 39.893 43.671 39.893 43.554C39.893 43.32 40.127 43.242 40.465 43.242C40.985 43.229 41.726 43.411 42.077 43.632L43.091 42.202C42.467 41.734 41.505 41.422 40.465 41.422C38.957 41.422 37.501 41.981 37.501 43.528C37.501 45.088 39.009 45.595 40.257 45.634C40.725 45.673 40.933 45.777 40.933 45.985C40.933 46.193 40.712 46.297 40.283 46.297C39.763 46.271 38.983 46.219 38.008 45.582L37.228 47.324ZM44.2446 41.578V45.14C44.2446 47.428 45.4016 48.143 46.7536 48.156C47.4296 48.169 48.2356 47.935 48.7816 47.298L48.8856 48H51.0046V41.578H48.6386V44.997C48.6386 45.842 48.1056 46.193 47.5336 46.193C47.0916 46.193 46.6366 45.92 46.6366 45.127V41.578H44.2446ZM52.4095 41.578V48H54.8015V44.659C54.8015 43.814 55.3085 43.45 55.9065 43.45C56.3095 43.45 56.5955 43.528 56.9855 43.84L57.9475 42.111C57.5315 41.669 56.9075 41.422 56.2575 41.422C55.6335 41.422 55.0355 41.682 54.6975 42.28L54.5545 41.578H52.4095ZM63.0303 42.267C62.6923 41.747 62.0553 41.435 61.1453 41.435C59.2733 41.435 58.0253 42.891 58.0253 44.789C58.0253 46.661 59.0783 48 60.9633 48.117C61.6783 48.156 62.5363 47.935 63.0823 47.311L63.1863 48H65.3963V41.578H63.1473L63.0303 42.267ZM61.6913 43.372C62.5363 43.372 63.0173 43.931 63.0173 44.789C63.0173 45.543 62.4973 46.193 61.6913 46.193C60.9763 46.193 60.4043 45.686 60.4043 44.789C60.4043 43.892 60.9763 43.372 61.6913 43.372ZM73.566 48V44.438C73.566 42.15 72.409 41.435 71.057 41.422C70.381 41.409 69.575 41.643 69.029 42.28L68.925 41.578H66.806V48H69.172V44.62C69.172 43.775 69.705 43.385 70.277 43.385C70.719 43.385 71.174 43.658 71.174 44.451V48H73.566ZM79.4689 45.608C79.1439 45.959 78.7149 46.141 78.2729 46.141C77.3629 46.141 76.8819 45.517 76.8819 44.815C76.8819 44.009 77.3759 43.346 78.2859 43.346C78.7149 43.346 79.0789 43.489 79.3909 43.814L80.6649 42.436C79.9889 41.76 79.0659 41.435 78.1429 41.435C76.3359 41.435 74.5419 42.462 74.5419 44.802C74.5419 47.207 76.3099 48.13 78.1819 48.13C79.1439 48.13 80.0669 47.727 80.8339 47.038L79.4689 45.608ZM83.5618 43.931C83.7178 42.878 85.8238 42.917 85.8888 43.931H83.5618ZM84.7058 41.422C82.9638 41.422 81.1308 42.462 81.1308 44.802C81.1308 47.142 82.8468 48.143 84.8748 48.143C85.9798 48.143 87.0328 47.792 87.7998 47.077L86.6298 45.764C86.2138 46.076 85.6808 46.284 84.9788 46.284C84.4588 46.284 83.7178 46.037 83.5488 45.465H88.0338C88.5798 42.93 86.9808 41.422 84.7058 41.422ZM25.8013 57.269H27.9723C28.6093 57.269 28.9343 57.646 28.9343 58.14C28.9343 58.647 28.6223 58.998 27.9723 58.998H25.8013V57.269ZM25.8013 53.98H27.8813C28.3883 53.98 28.6743 54.292 28.6743 54.695C28.6743 55.098 28.3883 55.371 27.8553 55.371H25.8013V53.98ZM23.2663 51.9V61H27.9593C29.6233 60.987 31.4823 60.376 31.4823 58.335C31.4823 57.516 31.0663 56.671 30.2213 56.216C31.0143 55.852 31.2223 55.137 31.2223 54.448C31.2223 52.706 29.7403 51.9 27.9203 51.9H23.2663ZM32.5667 54.578V61H34.9587V57.659C34.9587 56.814 35.4657 56.45 36.0637 56.45C36.4667 56.45 36.7527 56.528 37.1427 56.84L38.1047 55.111C37.6887 54.669 37.0647 54.422 36.4147 54.422C35.7907 54.422 35.1927 54.682 34.8547 55.28L34.7117 54.578H32.5667ZM41.8485 54.435C39.9895 54.435 38.1825 55.423 38.1825 57.802C38.1825 60.142 40.0025 61.156 41.8485 61.156C43.6555 61.156 45.5145 60.142 45.5145 57.802C45.5145 55.462 43.7465 54.435 41.8485 54.435ZM41.8485 59.193C41.0035 59.193 40.5225 58.543 40.5225 57.802C40.5225 57.061 41.0035 56.398 41.8485 56.398C42.6935 56.398 43.1745 57.061 43.1745 57.802C43.1745 58.582 42.6545 59.193 41.8485 59.193ZM46.5697 51.9V61H48.9747V58.764L50.6387 61H53.3427V60.857L50.7297 57.594L52.9787 54.682V54.578H50.3137L48.9747 56.463V51.9H46.5697ZM55.7083 56.931C55.8643 55.878 57.9703 55.917 58.0353 56.931H55.7083ZM56.8523 54.422C55.1103 54.422 53.2773 55.462 53.2773 57.802C53.2773 60.142 54.9933 61.143 57.0213 61.143C58.1263 61.143 59.1793 60.792 59.9463 60.077L58.7763 58.764C58.3603 59.076 57.8273 59.284 57.1253 59.284C56.6053 59.284 55.8643 59.037 55.6953 58.465H60.1803C60.7263 55.93 59.1273 54.422 56.8523 54.422ZM61.2962 54.578V61H63.6882V57.659C63.6882 56.814 64.1952 56.45 64.7932 56.45C65.1962 56.45 65.4822 56.528 65.8722 56.84L66.8342 55.111C66.4182 54.669 65.7942 54.422 65.1442 54.422C64.5202 54.422 63.9222 54.682 63.5842 55.28L63.4412 54.578H61.2962ZM71.917 55.267C71.579 54.747 70.942 54.435 70.032 54.435C68.16 54.435 66.912 55.891 66.912 57.789C66.912 59.661 67.965 61 69.85 61.117C70.565 61.156 71.423 60.935 71.969 60.311L72.073 61H74.283V54.578H72.034L71.917 55.267ZM70.578 56.372C71.423 56.372 71.904 56.931 71.904 57.789C71.904 58.543 71.384 59.193 70.578 59.193C69.863 59.193 69.291 58.686 69.291 57.789C69.291 56.892 69.863 56.372 70.578 56.372ZM75.4327 61.455C75.3027 63.418 76.5897 64.614 78.8907 64.614C80.7237 64.614 82.5307 63.834 82.5307 61.754C82.5307 61.403 82.4527 60.493 81.2697 59.817C82.0107 59.284 82.4267 58.491 82.4397 57.685C82.4657 57.113 82.2967 56.476 81.8287 55.956L82.6607 54.968L80.9317 53.733C80.7237 54.006 80.4637 54.331 80.2427 54.617C79.8137 54.461 79.3587 54.37 78.9167 54.37C76.9277 54.37 75.3417 55.644 75.3417 57.659C75.3417 59.648 76.7587 60.896 78.9167 60.896C79.7877 60.896 80.0737 61.286 80.0737 61.754C80.0737 62.378 79.5147 62.677 78.8907 62.677C78.2537 62.677 77.6557 62.456 77.6817 61.455H75.4327ZM78.9167 56.333C79.6187 56.333 80.1257 56.931 80.1257 57.659C80.1257 58.517 79.5537 58.92 78.9167 58.92C78.2147 58.92 77.6687 58.426 77.6687 57.659C77.6687 56.801 78.2147 56.333 78.9167 56.333ZM85.7708 56.931C85.9268 55.878 88.0328 55.917 88.0978 56.931H85.7708ZM86.9148 54.422C85.1728 54.422 83.3398 55.462 83.3398 57.802C83.3398 60.142 85.0558 61.143 87.0838 61.143C88.1888 61.143 89.2418 60.792 90.0088 60.077L88.8388 58.764C88.4228 59.076 87.8898 59.284 87.1878 59.284C86.6678 59.284 85.9268 59.037 85.7578 58.465H90.2428C90.7888 55.93 89.1898 54.422 86.9148 54.422Z" fill="#6E6F72"/>
<defs>
<filter id="filter0_d" x="0" y="0" width="113" height="113" filterUnits="userSpaceOnUse" color-interpolation-filters="sRGB">
<feFlood flood-opacity="0" result="BackgroundImageFix"/>
<feColorMatrix in="SourceAlpha" type="matrix" values="0 0 0 0 0 0 0 0 0 0 0 0 0 0 0 0 0 0 127 0"/>
<feOffset dy="5"/>
<feGaussianBlur stdDeviation="7.5"/>
<feColorMatrix type="matrix" values="0 0 0 0 0 0 0 0 0 0 0 0 0 0 0 0 0 0 0.15 0"/>
<feBlend mode="normal" in2="BackgroundImageFix" result="effect1_dropShadow"/>
<feBlend mode="normal" in="SourceGraphic" in2="effect1_dropShadow" result="shape"/>
</filter>
</defs>
</svg>
