<svg width="113" height="113" viewBox="0 0 113 113" fill="none" xmlns="http://www.w3.org/2000/svg">
<g filter="url(#filter0_d)">
<path d="M56.5 93C79.4198 93 98 74.4198 98 51.5C98 28.5802 79.4198 10 56.5 10C33.5802 10 15 28.5802 15 51.5C15 74.4198 33.5802 93 56.5 93Z" fill="white"/>
</g>
<mask id="path-2-inside-1" fill="white">
<path d="M15.3366 62.0129C13.227 53.8068 13.6218 45.157 16.47 37.177L56.445 51.445L15.3366 62.0129Z"/>
</mask>
<path d="M15.3366 62.0129C13.227 53.8068 13.6218 45.157 16.47 37.177L56.445 51.445L15.3366 62.0129Z" stroke="#EEE433" stroke-width="4" mask="url(#path-2-inside-1)"/>
<mask id="path-3-inside-2" fill="white">
<path d="M29.5533 84.2843C22.5134 78.5193 17.5124 70.6447 15.2879 61.8217L56.445 51.445L29.5533 84.2843Z"/>
</mask>
<path d="M29.5533 84.2843C22.5134 78.5193 17.5124 70.6447 15.2879 61.8217L56.445 51.445L29.5533 84.2843Z" stroke="#F4B938" stroke-width="4" mask="url(#path-3-inside-2)"/>
<mask id="path-4-inside-3" fill="white">
<path d="M16.4845 37.1363C19.526 28.6423 25.1949 21.3385 32.6685 16.2845C40.1422 11.2306 49.0319 8.68964 58.0475 9.03026C67.0631 9.37089 75.7357 12.5754 82.8067 18.1788C89.8778 23.7823 94.9793 31.4931 97.3712 40.1923C99.7631 48.8915 99.3208 58.1266 96.1085 66.5575C92.8962 74.9883 87.081 82.1763 79.5069 87.0783C71.9327 91.9803 62.9935 94.3413 53.9866 93.8187C44.9797 93.2962 36.3736 89.9172 29.4171 84.1722L56.445 51.445L16.4845 37.1363Z"/>
</mask>
<path d="M16.4845 37.1363C19.526 28.6423 25.1949 21.3385 32.6685 16.2845C40.1422 11.2306 49.0319 8.68964 58.0475 9.03026C67.0631 9.37089 75.7357 12.5754 82.8067 18.1788C89.8778 23.7823 94.9793 31.4931 97.3712 40.1923C99.7631 48.8915 99.3208 58.1266 96.1085 66.5575C92.8962 74.9883 87.081 82.1763 79.5069 87.0783C71.9327 91.9803 62.9935 94.3413 53.9866 93.8187C44.9797 93.2962 36.3736 89.9172 29.4171 84.1722L56.445 51.445L16.4845 37.1363Z" stroke="#EE8F21" stroke-width="4" mask="url(#path-4-inside-3)"/>
<circle cx="56.5" cy="51.5" r="40.5" fill="white"/>
<path d="M40.1746 38.628H38.5626V37.12H40.1746V38.628ZM37.7306 38.628H36.1186V37.12H37.7306V38.628ZM43.0866 47H41.2536C40.2136 47 39.4856 46.467 39.0696 45.401C38.7446 45.908 38.1206 46.181 37.2236 46.181C35.6636 46.181 34.6626 44.829 34.6626 43.035C34.6626 41.098 35.6376 39.85 37.3536 39.85C37.3536 39.837 38.5106 39.837 40.8246 39.837V43.932C40.8246 44.79 41.2666 45.258 42.1506 45.258H43.0866V47ZM38.9526 42.892V41.176H37.7566C37.0156 41.176 36.4696 41.995 36.4696 43.009C36.4696 43.919 36.9896 44.673 37.7176 44.673C38.4846 44.673 38.9526 43.958 38.9526 42.892ZM53.631 47H42.191V45.258H44.856V38.628H46.663L46.494 42.879C47.664 41.657 48.834 41.085 50.121 41.085C52.461 41.085 53.696 42.892 53.696 45.804C53.696 46.194 53.67 46.597 53.631 47ZM51.785 45.258C51.798 45.167 51.798 45.089 51.798 44.998C51.798 43.646 51.122 42.671 49.991 42.671C48.652 42.671 47.456 43.542 46.455 45.258H51.785ZM58.9504 47H57.2344C55.8434 47 55.0374 46.194 55.0374 44.855V38.615H56.8574V43.906C56.8574 44.79 57.0784 45.258 58.4174 45.258H58.9504V47ZM58.396 47V45.258H60.034C60.45 45.258 60.736 45.063 60.879 44.686C60.931 44.582 60.957 44.361 60.957 44.01V41.111H62.79V43.945C62.79 44.426 62.712 44.868 62.569 45.258H63.726C64.337 45.258 64.649 44.868 64.649 44.088V41.111H66.469V43.945C66.469 44.426 66.391 44.868 66.248 45.258H67.405C68.016 45.258 68.328 44.868 68.328 44.088V41.111H70.161V43.932C70.161 44.946 69.849 45.739 69.212 46.311C68.705 46.766 68.12 47 67.47 47H58.396ZM77.3245 46.74C77.3245 48.339 76.3365 49.145 74.3475 49.145H74.1655V47.689H74.2825C75.0105 47.689 75.7255 47.182 75.7255 46.48C75.4785 46.883 75.0495 47.078 74.4385 47.078C72.7615 47.078 71.5135 45.804 71.5135 44.062C71.5135 42.281 72.7355 41.085 74.4385 41.085C76.1155 41.085 77.3245 42.372 77.3245 44.088V46.74ZM75.5045 44.088C75.5045 43.295 75.0495 42.736 74.3995 42.736C73.7625 42.736 73.3335 43.282 73.3335 44.049C73.3335 44.777 73.7495 45.388 74.4645 45.388C75.1145 45.388 75.5045 44.881 75.5045 44.088ZM40.7967 54.628H39.1847V53.12H40.7967V54.628ZM38.3527 54.628H36.7407V53.12H38.3527V54.628ZM43.7087 63H41.8757C40.8357 63 40.1077 62.467 39.6917 61.401C39.3667 61.908 38.7427 62.181 37.8457 62.181C36.2857 62.181 35.2847 60.829 35.2847 59.035C35.2847 57.098 36.2597 55.85 37.9757 55.85C37.9757 55.837 39.1327 55.837 41.4467 55.837V59.932C41.4467 60.79 41.8887 61.258 42.7727 61.258H43.7087V63ZM39.5747 58.892V57.176H38.3787C37.6377 57.176 37.0917 57.995 37.0917 59.009C37.0917 59.919 37.6117 60.673 38.3397 60.673C39.1067 60.673 39.5747 59.958 39.5747 58.892ZM49.2351 63H43.3851V61.258H44.5811C45.1921 61.258 45.4911 60.842 45.4911 60.01V57.111H47.3241V59.945C47.3241 60.426 47.2591 60.855 47.1161 61.258H49.2351V63ZM47.1421 65.158H45.5301V63.65H47.1421V65.158ZM44.6981 65.158H43.0861V63.65H44.6981V65.158ZM52.7661 56.123H51.1411V54.628H52.7661V56.123ZM54.8201 63H48.9571V61.258H50.1531C50.7641 61.258 51.0761 60.842 51.0761 60.01V57.111H52.9091V59.945C52.9091 60.426 52.8311 60.855 52.6881 61.258H54.8201V63ZM60.445 63H54.595V61.258H55.791C56.402 61.258 56.701 60.842 56.701 60.01V57.111H58.534V59.945C58.534 60.426 58.469 60.855 58.326 61.258H60.445V63ZM58.352 65.158H56.74V63.65H58.352V65.158ZM55.908 65.158H54.296V63.65H55.908V65.158ZM67.8371 61.154C67.8371 62.896 66.6671 64.118 64.8471 64.118C63.7421 64.118 62.9101 63.741 62.3771 63H60.0371V61.258H61.8441C61.8441 59.399 62.9101 58.216 64.7821 58.216C66.6541 58.216 67.8371 59.373 67.8371 61.154ZM66.0301 61.219C66.0301 60.192 65.6401 59.672 64.8731 59.672H64.7431C64.0801 59.672 63.6251 60.283 63.6251 61.141C63.6251 62.025 64.0671 62.636 64.8471 62.636C65.5621 62.636 66.0301 62.064 66.0301 61.219ZM71.7023 53.51C71.4033 53.874 71.1043 54.056 70.8053 54.056C70.5193 54.056 69.6873 53.588 69.3883 53.588C69.1933 53.588 68.9983 53.731 68.7903 54.017L68.5303 53.302C68.8033 52.938 69.0893 52.756 69.3883 52.756C69.6743 52.756 70.6233 53.237 70.7923 53.237C70.9873 53.237 71.2083 53.094 71.4553 52.808L71.7023 53.51ZM73.0803 63H71.3643C69.9733 63 69.1673 62.194 69.1673 60.855V54.615H70.9873V59.906C70.9873 60.79 71.2083 61.258 72.5473 61.258H73.0803V63ZM76.5949 56.123H74.9699V54.628H76.5949V56.123ZM74.1379 56.123H72.5259V54.628H74.1379V56.123ZM76.7119 60.491C76.7119 61.18 76.5169 61.752 76.1399 62.207C75.7109 62.74 75.1129 63 74.3589 63H72.8119V61.258H73.9689C74.5799 61.258 74.8919 60.829 74.8919 59.984V57.111H76.7119V60.491Z" fill="#6E6F72"/>
<defs>
<filter id="filter0_d" x="0" y="0" width="113" height="113" filterUnits="userSpaceOnUse" color-interpolation-filters="sRGB">
<feFlood flood-opacity="0" result="BackgroundImageFix"/>
<feColorMatrix in="SourceAlpha" type="matrix" values="0 0 0 0 0 0 0 0 0 0 0 0 0 0 0 0 0 0 127 0"/>
<feOffset dy="5"/>
<feGaussianBlur stdDeviation="7.5"/>
<feColorMatrix type="matrix" values="0 0 0 0 0 0 0 0 0 0 0 0 0 0 0 0 0 0 0.15 0"/>
<feBlend mode="normal" in2="BackgroundImageFix" result="effect1_dropShadow"/>
<feBlend mode="normal" in="SourceGraphic" in2="effect1_dropShadow" result="shape"/>
</filter>
</defs>
</svg>
