<svg width="113" height="113" viewBox="0 0 113 113" fill="none" xmlns="http://www.w3.org/2000/svg">
<g filter="url(#filter0_d)">
<path d="M56.5 93C79.4198 93 98 74.4198 98 51.5C98 28.5802 79.4198 10 56.5 10C33.5802 10 15 28.5802 15 51.5C15 74.4198 33.5802 93 56.5 93Z" fill="white"/>
</g>
<mask id="path-2-inside-1" fill="white">
<path d="M15.3366 62.0129C13.227 53.8068 13.6218 45.157 16.47 37.177L56.445 51.445L15.3366 62.0129Z"/>
</mask>
<path d="M15.3366 62.0129C13.227 53.8068 13.6218 45.157 16.47 37.177L56.445 51.445L15.3366 62.0129Z" stroke="#EEE433" stroke-width="4" mask="url(#path-2-inside-1)"/>
<mask id="path-3-inside-2" fill="white">
<path d="M29.5533 84.2843C22.5134 78.5193 17.5124 70.6447 15.2879 61.8217L56.445 51.445L29.5533 84.2843Z"/>
</mask>
<path d="M29.5533 84.2843C22.5134 78.5193 17.5124 70.6447 15.2879 61.8217L56.445 51.445L29.5533 84.2843Z" stroke="#F4B938" stroke-width="4" mask="url(#path-3-inside-2)"/>
<mask id="path-4-inside-3" fill="white">
<path d="M16.4845 37.1363C19.526 28.6423 25.1949 21.3385 32.6685 16.2845C40.1422 11.2306 49.0319 8.68964 58.0475 9.03026C67.0631 9.37089 75.7357 12.5754 82.8067 18.1788C89.8778 23.7823 94.9793 31.4931 97.3712 40.1923C99.7631 48.8915 99.3208 58.1266 96.1085 66.5575C92.8962 74.9883 87.081 82.1763 79.5069 87.0783C71.9327 91.9803 62.9935 94.3413 53.9866 93.8187C44.9797 93.2962 36.3736 89.9172 29.4171 84.1722L56.445 51.445L16.4845 37.1363Z"/>
</mask>
<path d="M16.4845 37.1363C19.526 28.6423 25.1949 21.3385 32.6685 16.2845C40.1422 11.2306 49.0319 8.68964 58.0475 9.03026C67.0631 9.37089 75.7357 12.5754 82.8067 18.1788C89.8778 23.7823 94.9793 31.4931 97.3712 40.1923C99.7631 48.8915 99.3208 58.1266 96.1085 66.5575C92.8962 74.9883 87.081 82.1763 79.5069 87.0783C71.9327 91.9803 62.9935 94.3413 53.9866 93.8187C44.9797 93.2962 36.3736 89.9172 29.4171 84.1722L56.445 51.445L16.4845 37.1363Z" stroke="#EE8F21" stroke-width="4" mask="url(#path-4-inside-3)"/>
<circle cx="56.5" cy="51.5" r="40.5" fill="white"/>
<path d="M32.0768 45.9V55H39.0058V52.816H34.6508V45.9H32.0768ZM41.9973 50.931C42.1533 49.878 44.2593 49.917 44.3243 50.931H41.9973ZM43.1413 48.422C41.3993 48.422 39.5663 49.462 39.5663 51.802C39.5663 54.142 41.2823 55.143 43.3103 55.143C44.4153 55.143 45.4683 54.792 46.2353 54.077L45.0653 52.764C44.6493 53.076 44.1163 53.284 43.4143 53.284C42.8943 53.284 42.1533 53.037 41.9843 52.465H46.4693C47.0153 49.93 45.4163 48.422 43.1413 48.422ZM52.2393 49.267C51.9013 48.747 51.2643 48.435 50.3543 48.435C48.4823 48.435 47.2343 49.891 47.2343 51.789C47.2343 53.661 48.2873 55 50.1723 55.117C50.8873 55.156 51.7453 54.935 52.2913 54.311L52.3953 55H54.6053V48.578H52.3563L52.2393 49.267ZM50.9003 50.372C51.7453 50.372 52.2263 50.931 52.2263 51.789C52.2263 52.543 51.7063 53.193 50.9003 53.193C50.1853 53.193 49.6133 52.686 49.6133 51.789C49.6133 50.892 50.1853 50.372 50.9003 50.372ZM55.56 54.324C56.288 54.857 57.549 55.169 58.667 55.169C60.214 55.169 61.657 54.571 61.657 52.985C61.657 51.282 60.045 50.905 58.706 50.866C58.316 50.853 58.225 50.671 58.225 50.554C58.225 50.32 58.459 50.242 58.797 50.242C59.317 50.229 60.058 50.411 60.409 50.632L61.423 49.202C60.799 48.734 59.837 48.422 58.797 48.422C57.289 48.422 55.833 48.981 55.833 50.528C55.833 52.088 57.341 52.595 58.589 52.634C59.057 52.673 59.265 52.777 59.265 52.985C59.265 53.193 59.044 53.297 58.615 53.297C58.095 53.271 57.315 53.219 56.34 52.582L55.56 54.324ZM62.5116 46.927C62.5116 47.72 63.1876 48.123 63.8636 48.123C64.5266 48.123 65.2026 47.72 65.2026 46.927C65.2026 46.121 64.5266 45.718 63.8636 45.718C63.1876 45.718 62.5116 46.121 62.5116 46.927ZM62.6546 55V48.682H65.0596V55H62.6546ZM73.2232 55V51.438C73.2232 49.15 72.0662 48.435 70.7142 48.422C70.0382 48.409 69.2322 48.643 68.6862 49.28L68.5822 48.578H66.4632V55H68.8292V51.62C68.8292 50.775 69.3622 50.385 69.9342 50.385C70.3762 50.385 70.8312 50.658 70.8312 51.451V55H73.2232ZM74.2901 55.455C74.1601 57.418 75.4471 58.614 77.7481 58.614C79.5811 58.614 81.3881 57.834 81.3881 55.754C81.3881 55.403 81.3101 54.493 80.1271 53.817C80.8681 53.284 81.2841 52.491 81.2971 51.685C81.3231 51.113 81.1541 50.476 80.6861 49.956L81.5181 48.968L79.7891 47.733C79.5811 48.006 79.3211 48.331 79.1001 48.617C78.6711 48.461 78.2161 48.37 77.7741 48.37C75.7851 48.37 74.1991 49.644 74.1991 51.659C74.1991 53.648 75.6161 54.896 77.7741 54.896C78.6451 54.896 78.9311 55.286 78.9311 55.754C78.9311 56.378 78.3721 56.677 77.7481 56.677C77.1111 56.677 76.5131 56.456 76.5391 55.455H74.2901ZM77.7741 50.333C78.4761 50.333 78.9831 50.931 78.9831 51.659C78.9831 52.517 78.4111 52.92 77.7741 52.92C77.0721 52.92 76.5261 52.426 76.5261 51.659C76.5261 50.801 77.0721 50.333 77.7741 50.333Z" fill="#7A1315"/>
<defs>
<filter id="filter0_d" x="0" y="0" width="113" height="113" filterUnits="userSpaceOnUse" color-interpolation-filters="sRGB">
<feFlood flood-opacity="0" result="BackgroundImageFix"/>
<feColorMatrix in="SourceAlpha" type="matrix" values="0 0 0 0 0 0 0 0 0 0 0 0 0 0 0 0 0 0 127 0"/>
<feOffset dy="5"/>
<feGaussianBlur stdDeviation="7.5"/>
<feColorMatrix type="matrix" values="0 0 0 0 0 0 0 0 0 0 0 0 0 0 0 0 0 0 0.15 0"/>
<feBlend mode="normal" in2="BackgroundImageFix" result="effect1_dropShadow"/>
<feBlend mode="normal" in="SourceGraphic" in2="effect1_dropShadow" result="shape"/>
</filter>
</defs>
</svg>
