<svg width="113" height="113" viewBox="0 0 113 113" fill="none" xmlns="http://www.w3.org/2000/svg">
<g filter="url(#filter0_d)">
<path d="M56.5 93C79.4198 93 98 74.4198 98 51.5C98 28.5802 79.4198 10 56.5 10C33.5802 10 15 28.5802 15 51.5C15 74.4198 33.5802 93 56.5 93Z" fill="white"/>
</g>
<mask id="path-2-inside-1" fill="white">
<path d="M15.3366 62.0129C13.227 53.8068 13.6218 45.157 16.47 37.177L56.445 51.445L15.3366 62.0129Z"/>
</mask>
<path d="M15.3366 62.0129C13.227 53.8068 13.6218 45.157 16.47 37.177L56.445 51.445L15.3366 62.0129Z" stroke="#EEE433" stroke-width="4" mask="url(#path-2-inside-1)"/>
<mask id="path-3-inside-2" fill="white">
<path d="M29.5533 84.2843C22.5134 78.5193 17.5124 70.6447 15.2879 61.8217L56.445 51.445L29.5533 84.2843Z"/>
</mask>
<path d="M29.5533 84.2843C22.5134 78.5193 17.5124 70.6447 15.2879 61.8217L56.445 51.445L29.5533 84.2843Z" stroke="#F4B938" stroke-width="4" mask="url(#path-3-inside-2)"/>
<mask id="path-4-inside-3" fill="white">
<path d="M16.4845 37.1363C19.526 28.6423 25.1949 21.3385 32.6685 16.2845C40.1422 11.2306 49.0319 8.68964 58.0475 9.03026C67.0631 9.37089 75.7357 12.5754 82.8067 18.1788C89.8778 23.7823 94.9793 31.4931 97.3712 40.1923C99.7631 48.8915 99.3208 58.1266 96.1085 66.5575C92.8962 74.9883 87.081 82.1763 79.5069 87.0783C71.9327 91.9803 62.9935 94.3413 53.9866 93.8187C44.9797 93.2962 36.3736 89.9172 29.4171 84.1722L56.445 51.445L16.4845 37.1363Z"/>
</mask>
<path d="M16.4845 37.1363C19.526 28.6423 25.1949 21.3385 32.6685 16.2845C40.1422 11.2306 49.0319 8.68964 58.0475 9.03026C67.0631 9.37089 75.7357 12.5754 82.8067 18.1788C89.8778 23.7823 94.9793 31.4931 97.3712 40.1923C99.7631 48.8915 99.3208 58.1266 96.1085 66.5575C92.8962 74.9883 87.081 82.1763 79.5069 87.0783C71.9327 91.9803 62.9935 94.3413 53.9866 93.8187C44.9797 93.2962 36.3736 89.9172 29.4171 84.1722L56.445 51.445L16.4845 37.1363Z" stroke="#EE8F21" stroke-width="4" mask="url(#path-4-inside-3)"/>
<circle cx="56.5" cy="51.5" r="40.5" fill="white"/>
<path d="M47.7589 47H45.7439C45.4449 48.43 44.2749 49.145 42.2079 49.145V47.676C43.4039 47.676 44.0019 47.104 44.0019 45.96V41.111H45.8349V45.258H47.7589V47ZM53.2453 47H47.3953V45.258H48.5913C49.2023 45.258 49.5013 44.842 49.5013 44.01V41.111H51.3343V43.945C51.3343 44.426 51.2693 44.855 51.1263 45.258H53.2453V47ZM51.1523 49.158H49.5403V47.65H51.1523V49.158ZM48.7083 49.158H47.0963V47.65H48.7083V49.158ZM62.1584 47H52.8634V45.258H60.2214C60.1434 43.789 59.0254 42.645 57.5044 42.645C56.7244 42.645 55.8404 43.048 55.3204 43.581C55.1384 43.334 54.8394 42.931 54.4104 42.346C55.2944 41.423 56.3734 40.968 57.6344 40.968C60.6114 40.981 62.1584 43.009 62.1584 46.402V47ZM58.6354 49.158H57.0104V47.65H58.6354V49.158ZM66.0261 37.51C65.7271 37.874 65.4281 38.056 65.1291 38.056C64.8431 38.056 64.0111 37.588 63.7121 37.588C63.5171 37.588 63.3221 37.731 63.1141 38.017L62.8541 37.302C63.1271 36.938 63.4131 36.756 63.7121 36.756C63.9981 36.756 64.9471 37.237 65.1161 37.237C65.3111 37.237 65.5321 37.094 65.7791 36.808L66.0261 37.51ZM67.4041 47H65.6881C64.2971 47 63.4911 46.194 63.4911 44.855V38.615H65.3111V43.906C65.3111 44.79 65.5321 45.258 66.8711 45.258H67.4041V47ZM70.9186 40.123H69.2936V38.628H70.9186V40.123ZM68.4616 40.123H66.8496V38.628H68.4616V40.123ZM71.0356 44.491C71.0356 45.18 70.8406 45.752 70.4636 46.207C70.0346 46.74 69.4366 47 68.6826 47H67.1356V45.258H68.2926C68.9036 45.258 69.2156 44.829 69.2156 43.984V41.111H71.0356V44.491ZM47.1805 63H47.0895C46.0365 63 45.2565 62.74 44.7495 62.233C44.3465 63.988 42.5005 65.158 40.3815 65.158C37.7815 65.158 35.7275 63.247 35.7275 60.725V59.165H37.5475V60.556C37.5475 62.298 38.5745 63.468 40.4205 63.468C41.8245 63.468 43.1635 62.584 43.1635 61.375C43.1635 60.686 42.5785 60.231 41.9545 60.231C41.8505 60.231 41.7465 60.244 41.6425 60.27V58.684C41.6425 58.671 41.9025 58.671 42.4355 58.671C43.7485 58.671 44.7235 59.269 45.3475 60.465C45.6595 61.063 46.1145 61.258 46.8945 61.258H47.1805V63ZM52.8509 63H46.9489V61.258H48.1839C48.7949 61.258 49.1069 60.842 49.1069 60.01V54.628H50.9399V59.945C50.9399 60.426 50.8619 60.855 50.7189 61.258H52.8509V63ZM56.4868 60.491C56.4868 61.18 56.2918 61.752 55.9148 62.207C55.4858 62.74 54.8878 63 54.1338 63H52.5868V61.258H53.7438C54.3548 61.258 54.6668 60.829 54.6668 59.984V57.111H56.4868V60.491ZM56.3698 65.158H54.7448V63.65H56.3698V65.158ZM53.9128 65.158H52.3008V63.65H53.9128V65.158ZM65.2393 63H63.5233C63.3153 64.43 62.3273 65.145 60.5593 65.145H60.3643V63.689H60.5203C61.2223 63.689 61.6383 63.429 61.7813 62.922C61.6383 62.974 61.2743 63 60.6633 63C58.9603 63 57.7123 61.765 57.7123 60.036C57.7123 58.281 58.9343 57.098 60.6633 57.098C62.3273 57.098 63.5493 58.346 63.5493 60.075V61.258H65.2393V63ZM61.7293 61.258V59.997C61.7293 59.23 61.2743 58.736 60.6113 58.736C59.9223 58.736 59.5583 59.269 59.5583 59.958C59.5583 60.699 60.0003 61.258 60.6763 61.258H61.7293ZM73.7549 63H71.6749C71.1419 63.741 70.3229 64.118 69.2439 64.118C68.1389 64.118 67.3199 63.741 66.7739 63H64.7849V61.258H66.2409C66.2409 59.386 67.3069 58.216 69.1919 58.216C71.0899 58.216 72.2339 59.347 72.2339 61.258H73.7549V63ZM70.4269 61.219C70.4269 60.192 70.0369 59.672 69.2699 59.672H69.1399C68.4769 59.672 68.0349 60.296 68.0349 61.141C68.0349 62.012 68.4769 62.636 69.2439 62.636C69.9849 62.636 70.4269 62.09 70.4269 61.219ZM77.152 56.123H75.527V54.628H77.152V56.123ZM74.695 56.123H73.083V54.628H74.695V56.123ZM77.269 60.491C77.269 61.18 77.074 61.752 76.697 62.207C76.268 62.74 75.67 63 74.916 63H73.369V61.258H74.526C75.137 61.258 75.449 60.829 75.449 59.984V57.111H77.269V60.491Z" fill="#7A1315"/>
<defs>
<filter id="filter0_d" x="0" y="0" width="113" height="113" filterUnits="userSpaceOnUse" color-interpolation-filters="sRGB">
<feFlood flood-opacity="0" result="BackgroundImageFix"/>
<feColorMatrix in="SourceAlpha" type="matrix" values="0 0 0 0 0 0 0 0 0 0 0 0 0 0 0 0 0 0 127 0"/>
<feOffset dy="5"/>
<feGaussianBlur stdDeviation="7.5"/>
<feColorMatrix type="matrix" values="0 0 0 0 0 0 0 0 0 0 0 0 0 0 0 0 0 0 0.15 0"/>
<feBlend mode="normal" in2="BackgroundImageFix" result="effect1_dropShadow"/>
<feBlend mode="normal" in="SourceGraphic" in2="effect1_dropShadow" result="shape"/>
</filter>
</defs>
</svg>
