<svg width="113" height="113" viewBox="0 0 113 113" fill="none" xmlns="http://www.w3.org/2000/svg">
<g filter="url(#filter0_d)">
<path d="M56.5 93C79.4198 93 98 74.4198 98 51.5C98 28.5802 79.4198 10 56.5 10C33.5802 10 15 28.5802 15 51.5C15 74.4198 33.5802 93 56.5 93Z" fill="white"/>
</g>
<mask id="path-2-inside-1" fill="white">
<path d="M15.3366 62.0129C13.227 53.8068 13.6218 45.157 16.47 37.177L56.445 51.445L15.3366 62.0129Z"/>
</mask>
<path d="M15.3366 62.0129C13.227 53.8068 13.6218 45.157 16.47 37.177L56.445 51.445L15.3366 62.0129Z" stroke="#EEE433" stroke-width="4" mask="url(#path-2-inside-1)"/>
<mask id="path-3-inside-2" fill="white">
<path d="M29.5533 84.2843C22.5134 78.5193 17.5124 70.6447 15.2879 61.8217L56.445 51.445L29.5533 84.2843Z"/>
</mask>
<path d="M29.5533 84.2843C22.5134 78.5193 17.5124 70.6447 15.2879 61.8217L56.445 51.445L29.5533 84.2843Z" stroke="#F4B938" stroke-width="4" mask="url(#path-3-inside-2)"/>
<mask id="path-4-inside-3" fill="white">
<path d="M16.4845 37.1363C19.526 28.6423 25.1949 21.3385 32.6685 16.2845C40.1422 11.2306 49.0319 8.68964 58.0475 9.03026C67.0631 9.37089 75.7357 12.5754 82.8067 18.1788C89.8778 23.7823 94.9793 31.4931 97.3712 40.1923C99.7631 48.8915 99.3208 58.1266 96.1085 66.5575C92.8962 74.9883 87.081 82.1763 79.5069 87.0783C71.9327 91.9803 62.9935 94.3413 53.9866 93.8187C44.9797 93.2962 36.3736 89.9172 29.4171 84.1722L56.445 51.445L16.4845 37.1363Z"/>
</mask>
<path d="M16.4845 37.1363C19.526 28.6423 25.1949 21.3385 32.6685 16.2845C40.1422 11.2306 49.0319 8.68964 58.0475 9.03026C67.0631 9.37089 75.7357 12.5754 82.8067 18.1788C89.8778 23.7823 94.9793 31.4931 97.3712 40.1923C99.7631 48.8915 99.3208 58.1266 96.1085 66.5575C92.8962 74.9883 87.081 82.1763 79.5069 87.0783C71.9327 91.9803 62.9935 94.3413 53.9866 93.8187C44.9797 93.2962 36.3736 89.9172 29.4171 84.1722L56.445 51.445L16.4845 37.1363Z" stroke="#EE8F21" stroke-width="4" mask="url(#path-4-inside-3)"/>
<circle cx="56.5" cy="51.5" r="40.5" fill="white"/>
<path d="M32.8864 55H35.4344V45.9H32.7564L30.3644 48.981L27.9724 45.9H25.2814V55H27.8294V49.592L30.1044 52.335H30.5594L32.8864 49.579V55ZM40.2074 48.435C38.3484 48.435 36.5414 49.423 36.5414 51.802C36.5414 54.142 38.3614 55.156 40.2074 55.156C42.0144 55.156 43.8734 54.142 43.8734 51.802C43.8734 49.462 42.1054 48.435 40.2074 48.435ZM40.2074 53.193C39.3624 53.193 38.8814 52.543 38.8814 51.802C38.8814 51.061 39.3624 50.398 40.2074 50.398C41.0524 50.398 41.5334 51.061 41.5334 51.802C41.5334 52.582 41.0134 53.193 40.2074 53.193ZM44.9286 48.578V55H47.3206V51.659C47.3206 50.814 47.8276 50.45 48.4256 50.45C48.8286 50.45 49.1146 50.528 49.5046 50.84L50.4666 49.111C50.0506 48.669 49.4266 48.422 48.7766 48.422C48.1526 48.422 47.5546 48.682 47.2166 49.28L47.0736 48.578H44.9286ZM51.6324 47.018V48.617H50.6054V50.45H51.6324V52.556C51.5934 54.571 52.7374 55.156 54.0114 55.156C54.6744 55.156 55.3114 55.039 55.8574 54.727L55.3374 52.959C55.1424 53.089 54.8694 53.18 54.6354 53.18C54.2714 53.18 54.0114 53.011 53.9984 52.556V50.45H55.4544V48.617H54.0114V46.758L51.6324 47.018ZM56.3483 55.455C56.2183 57.418 57.5053 58.614 59.8063 58.614C61.6393 58.614 63.4463 57.834 63.4463 55.754C63.4463 55.403 63.3683 54.493 62.1853 53.817C62.9263 53.284 63.3423 52.491 63.3553 51.685C63.3813 51.113 63.2123 50.476 62.7443 49.956L63.5763 48.968L61.8473 47.733C61.6393 48.006 61.3793 48.331 61.1583 48.617C60.7293 48.461 60.2743 48.37 59.8323 48.37C57.8433 48.37 56.2573 49.644 56.2573 51.659C56.2573 53.648 57.6743 54.896 59.8323 54.896C60.7033 54.896 60.9893 55.286 60.9893 55.754C60.9893 56.378 60.4303 56.677 59.8063 56.677C59.1693 56.677 58.5713 56.456 58.5973 55.455H56.3483ZM59.8323 50.333C60.5343 50.333 61.0413 50.931 61.0413 51.659C61.0413 52.517 60.4693 52.92 59.8323 52.92C59.1303 52.92 58.5843 52.426 58.5843 51.659C58.5843 50.801 59.1303 50.333 59.8323 50.333ZM69.2603 49.267C68.9223 48.747 68.2853 48.435 67.3753 48.435C65.5033 48.435 64.2553 49.891 64.2553 51.789C64.2553 53.661 65.3083 55 67.1933 55.117C67.9083 55.156 68.7663 54.935 69.3123 54.311L69.4163 55H71.6263V48.578H69.3773L69.2603 49.267ZM67.9213 50.372C68.7663 50.372 69.2473 50.931 69.2473 51.789C69.2473 52.543 68.7273 53.193 67.9213 53.193C67.2063 53.193 66.6343 52.686 66.6343 51.789C66.6343 50.892 67.2063 50.372 67.9213 50.372ZM72.776 55.455C72.646 57.418 73.933 58.614 76.234 58.614C78.067 58.614 79.874 57.834 79.874 55.754C79.874 55.403 79.796 54.493 78.613 53.817C79.354 53.284 79.77 52.491 79.783 51.685C79.809 51.113 79.64 50.476 79.172 49.956L80.004 48.968L78.275 47.733C78.067 48.006 77.807 48.331 77.586 48.617C77.157 48.461 76.702 48.37 76.26 48.37C74.271 48.37 72.685 49.644 72.685 51.659C72.685 53.648 74.102 54.896 76.26 54.896C77.131 54.896 77.417 55.286 77.417 55.754C77.417 56.378 76.858 56.677 76.234 56.677C75.597 56.677 74.999 56.456 75.025 55.455H72.776ZM76.26 50.333C76.962 50.333 77.469 50.931 77.469 51.659C77.469 52.517 76.897 52.92 76.26 52.92C75.558 52.92 75.012 52.426 75.012 51.659C75.012 50.801 75.558 50.333 76.26 50.333ZM83.114 50.931C83.27 49.878 85.376 49.917 85.441 50.931H83.114ZM84.258 48.422C82.516 48.422 80.683 49.462 80.683 51.802C80.683 54.142 82.399 55.143 84.427 55.143C85.532 55.143 86.585 54.792 87.352 54.077L86.182 52.764C85.766 53.076 85.233 53.284 84.531 53.284C84.011 53.284 83.27 53.037 83.101 52.465H87.586C88.132 49.93 86.533 48.422 84.258 48.422Z" fill="#2C988D"/>
<defs>
<filter id="filter0_d" x="0" y="0" width="113" height="113" filterUnits="userSpaceOnUse" color-interpolation-filters="sRGB">
<feFlood flood-opacity="0" result="BackgroundImageFix"/>
<feColorMatrix in="SourceAlpha" type="matrix" values="0 0 0 0 0 0 0 0 0 0 0 0 0 0 0 0 0 0 127 0"/>
<feOffset dy="5"/>
<feGaussianBlur stdDeviation="7.5"/>
<feColorMatrix type="matrix" values="0 0 0 0 0 0 0 0 0 0 0 0 0 0 0 0 0 0 0.15 0"/>
<feBlend mode="normal" in2="BackgroundImageFix" result="effect1_dropShadow"/>
<feBlend mode="normal" in="SourceGraphic" in2="effect1_dropShadow" result="shape"/>
</filter>
</defs>
</svg>
