<svg width="113" height="113" viewBox="0 0 113 113" fill="none" xmlns="http://www.w3.org/2000/svg">
<g filter="url(#filter0_d)">
<path d="M56.5 93C79.4198 93 98 74.4198 98 51.5C98 28.5802 79.4198 10 56.5 10C33.5802 10 15 28.5802 15 51.5C15 74.4198 33.5802 93 56.5 93Z" fill="white"/>
</g>
<mask id="path-2-inside-1" fill="white">
<path d="M15.3366 62.0129C13.227 53.8068 13.6218 45.157 16.47 37.177L56.445 51.445L15.3366 62.0129Z"/>
</mask>
<path d="M15.3366 62.0129C13.227 53.8068 13.6218 45.157 16.47 37.177L56.445 51.445L15.3366 62.0129Z" stroke="#EEE433" stroke-width="4" mask="url(#path-2-inside-1)"/>
<mask id="path-3-inside-2" fill="white">
<path d="M29.5533 84.2843C22.5134 78.5193 17.5124 70.6447 15.2879 61.8217L56.445 51.445L29.5533 84.2843Z"/>
</mask>
<path d="M29.5533 84.2843C22.5134 78.5193 17.5124 70.6447 15.2879 61.8217L56.445 51.445L29.5533 84.2843Z" stroke="#F4B938" stroke-width="4" mask="url(#path-3-inside-2)"/>
<mask id="path-4-inside-3" fill="white">
<path d="M16.4845 37.1363C19.526 28.6423 25.1949 21.3385 32.6685 16.2845C40.1422 11.2306 49.0319 8.68964 58.0475 9.03026C67.0631 9.37089 75.7357 12.5754 82.8067 18.1788C89.8778 23.7823 94.9793 31.4931 97.3712 40.1923C99.7631 48.8915 99.3208 58.1266 96.1085 66.5575C92.8962 74.9883 87.081 82.1763 79.5069 87.0783C71.9327 91.9803 62.9935 94.3413 53.9866 93.8187C44.9797 93.2962 36.3736 89.9172 29.4171 84.1722L56.445 51.445L16.4845 37.1363Z"/>
</mask>
<path d="M16.4845 37.1363C19.526 28.6423 25.1949 21.3385 32.6685 16.2845C40.1422 11.2306 49.0319 8.68964 58.0475 9.03026C67.0631 9.37089 75.7357 12.5754 82.8067 18.1788C89.8778 23.7823 94.9793 31.4931 97.3712 40.1923C99.7631 48.8915 99.3208 58.1266 96.1085 66.5575C92.8962 74.9883 87.081 82.1763 79.5069 87.0783C71.9327 91.9803 62.9935 94.3413 53.9866 93.8187C44.9797 93.2962 36.3736 89.9172 29.4171 84.1722L56.445 51.445L16.4845 37.1363Z" stroke="#EE8F21" stroke-width="4" mask="url(#path-4-inside-3)"/>
<circle cx="56.5" cy="51.5" r="40.5" fill="white"/>
<path d="M49.2129 47H46.7039C45.9889 48.352 44.6759 49.158 43.1549 49.158C40.8669 49.158 39.0469 47.234 39.0469 44.738V43.451H40.8669V44.569C40.8669 46.272 41.7119 47.468 43.1679 47.468C44.5979 47.468 45.4429 46.389 45.4429 44.569V38.628H47.2629V45.258H49.2129V47ZM52.7983 44.491C52.7983 45.18 52.6033 45.752 52.2263 46.207C51.7973 46.74 51.1993 47 50.4453 47H48.8983V45.258H50.0553C50.6663 45.258 50.9783 44.829 50.9783 43.984V41.111H52.7983V44.491ZM52.6813 49.158H51.0563V47.65H52.6813V49.158ZM50.2243 49.158H48.6123V47.65H50.2243V49.158ZM61.5508 47H59.8348C59.6268 48.43 58.6388 49.145 56.8708 49.145H56.6758V47.689H56.8318C57.5338 47.689 57.9498 47.429 58.0928 46.922C57.9498 46.974 57.5858 47 56.9748 47C55.2718 47 54.0238 45.765 54.0238 44.036C54.0238 42.281 55.2458 41.098 56.9748 41.098C58.6388 41.098 59.8608 42.346 59.8608 44.075V45.258H61.5508V47ZM58.0408 45.258V43.997C58.0408 43.23 57.5858 42.736 56.9228 42.736C56.2338 42.736 55.8698 43.269 55.8698 43.958C55.8698 44.699 56.3118 45.258 56.9878 45.258H58.0408ZM70.0664 47H67.9864C67.4534 47.741 66.6344 48.118 65.5554 48.118C64.4504 48.118 63.6314 47.741 63.0854 47H61.0964V45.258H62.5524C62.5524 43.386 63.6184 42.216 65.5034 42.216C67.4014 42.216 68.5454 43.347 68.5454 45.258H70.0664V47ZM66.7384 45.219C66.7384 44.192 66.3484 43.672 65.5814 43.672H65.4514C64.7884 43.672 64.3464 44.296 64.3464 45.141C64.3464 46.012 64.7884 46.636 65.5554 46.636C66.2964 46.636 66.7384 46.09 66.7384 45.219ZM73.4635 40.123H71.8385V38.628H73.4635V40.123ZM71.0065 40.123H69.3945V38.628H71.0065V40.123ZM73.5805 44.491C73.5805 45.18 73.3855 45.752 73.0085 46.207C72.5795 46.74 71.9815 47 71.2275 47H69.6805V45.258H70.8375C71.4485 45.258 71.7605 44.829 71.7605 43.984V41.111H73.5805V44.491ZM48.4833 59.204V60.725C48.4833 61.986 48.0413 63.039 47.1443 63.884C46.2473 64.729 45.1553 65.158 43.8423 65.158H43.7643C42.4513 65.158 41.3463 64.729 40.4493 63.884C39.5523 63.039 39.1103 61.986 39.1103 60.725V59.165H40.9303V60.556C40.9303 61.076 41.0083 61.531 41.1643 61.921C41.5673 62.857 42.5553 63.468 43.8033 63.468C45.0383 63.468 46.0263 62.857 46.4293 61.921C46.5463 61.635 46.6243 61.297 46.6503 60.92H43.2573C43.2573 59.607 43.6213 58.554 44.3363 57.735C45.0643 56.916 46.0263 56.5 47.2093 56.5H47.9893V58.268H47.2093C46.4683 58.268 45.8963 58.58 45.4673 59.204H48.4833ZM53.2041 61.804C53.2041 63 52.9051 63.858 52.2941 64.391C51.7351 64.898 50.8251 65.145 49.5771 65.145V63.676C50.7731 63.676 51.3711 63.104 51.3711 61.96V57.111H53.2041V61.804ZM58.447 63H56.731C55.34 63 54.534 62.194 54.534 60.855V54.615H56.354V59.906C56.354 60.79 56.575 61.258 57.914 61.258H58.447V63ZM64.4576 54.849H62.8456V53.354H64.4576V54.849ZM62.0006 54.849H60.3886V53.354H62.0006V54.849ZM66.7196 63H65.6666C64.4056 63 63.3266 62.844 62.4166 62.519C61.5066 62.844 60.4276 63 59.1666 63H57.9836V61.258H59.1666C59.7386 61.258 60.0896 61.219 60.2326 61.154C59.6736 60.517 59.3876 59.802 59.3876 59.022C59.3876 58.697 59.4396 58.359 59.5436 58.034C59.9596 56.773 61.0516 55.98 62.4166 55.98C63.8076 55.98 64.8866 56.773 65.2896 58.034C65.3936 58.359 65.4456 58.697 65.4456 59.022C65.4456 59.802 65.1596 60.517 64.6006 61.154C64.7566 61.219 65.1076 61.258 65.6666 61.258H66.7196V63ZM63.0536 60.387C63.5606 60.023 63.8076 59.529 63.8076 58.892C63.8076 58.073 63.2876 57.397 62.4166 57.397C61.9876 57.397 61.6496 57.553 61.3766 57.852C61.1556 58.138 61.0386 58.489 61.0386 58.892C61.0386 59.529 61.2856 60.023 61.7926 60.387C62.0006 60.543 62.2086 60.673 62.4166 60.777C62.6246 60.673 62.8326 60.543 63.0536 60.387ZM73.5703 63H66.2513V61.258H68.3053C68.1363 60.803 68.0453 60.387 68.0453 60.01C68.0453 59.165 68.3183 58.437 68.8643 57.839C69.4233 57.241 70.1253 56.942 70.9833 56.942C72.0883 56.942 73.0243 57.566 73.4793 58.593L71.9843 59.282C71.8153 58.775 71.4773 58.515 70.9443 58.515C70.5803 58.515 70.2943 58.658 70.0993 58.957C69.9173 59.204 69.8263 59.529 69.8263 59.919C69.8263 60.608 70.0733 61.063 70.5543 61.258H73.5703V63Z" fill="#2C988D"/>
<defs>
<filter id="filter0_d" x="0" y="0" width="113" height="113" filterUnits="userSpaceOnUse" color-interpolation-filters="sRGB">
<feFlood flood-opacity="0" result="BackgroundImageFix"/>
<feColorMatrix in="SourceAlpha" type="matrix" values="0 0 0 0 0 0 0 0 0 0 0 0 0 0 0 0 0 0 127 0"/>
<feOffset dy="5"/>
<feGaussianBlur stdDeviation="7.5"/>
<feColorMatrix type="matrix" values="0 0 0 0 0 0 0 0 0 0 0 0 0 0 0 0 0 0 0.15 0"/>
<feBlend mode="normal" in2="BackgroundImageFix" result="effect1_dropShadow"/>
<feBlend mode="normal" in="SourceGraphic" in2="effect1_dropShadow" result="shape"/>
</filter>
</defs>
</svg>
