<svg width="113" height="113" viewBox="0 0 113 113" fill="none" xmlns="http://www.w3.org/2000/svg">
<g filter="url(#filter0_d)">
<path d="M56.5 93C79.4198 93 98 74.4198 98 51.5C98 28.5802 79.4198 10 56.5 10C33.5802 10 15 28.5802 15 51.5C15 74.4198 33.5802 93 56.5 93Z" fill="white"/>
</g>
<mask id="path-2-inside-1" fill="white">
<path d="M15.3366 62.0129C13.227 53.8068 13.6218 45.157 16.47 37.177L56.445 51.445L15.3366 62.0129Z"/>
</mask>
<path d="M15.3366 62.0129C13.227 53.8068 13.6218 45.157 16.47 37.177L56.445 51.445L15.3366 62.0129Z" stroke="#EEE433" stroke-width="4" mask="url(#path-2-inside-1)"/>
<mask id="path-3-inside-2" fill="white">
<path d="M29.5533 84.2843C22.5134 78.5193 17.5124 70.6447 15.2879 61.8217L56.445 51.445L29.5533 84.2843Z"/>
</mask>
<path d="M29.5533 84.2843C22.5134 78.5193 17.5124 70.6447 15.2879 61.8217L56.445 51.445L29.5533 84.2843Z" stroke="#F4B938" stroke-width="4" mask="url(#path-3-inside-2)"/>
<mask id="path-4-inside-3" fill="white">
<path d="M16.4845 37.1363C19.526 28.6423 25.1949 21.3385 32.6685 16.2845C40.1422 11.2306 49.0319 8.68964 58.0475 9.03026C67.0631 9.37089 75.7357 12.5754 82.8067 18.1788C89.8778 23.7823 94.9793 31.4931 97.3712 40.1923C99.7631 48.8915 99.3208 58.1266 96.1085 66.5575C92.8962 74.9883 87.081 82.1763 79.5069 87.0783C71.9327 91.9803 62.9935 94.3413 53.9866 93.8187C44.9797 93.2962 36.3736 89.9172 29.4171 84.1722L56.445 51.445L16.4845 37.1363Z"/>
</mask>
<path d="M16.4845 37.1363C19.526 28.6423 25.1949 21.3385 32.6685 16.2845C40.1422 11.2306 49.0319 8.68964 58.0475 9.03026C67.0631 9.37089 75.7357 12.5754 82.8067 18.1788C89.8778 23.7823 94.9793 31.4931 97.3712 40.1923C99.7631 48.8915 99.3208 58.1266 96.1085 66.5575C92.8962 74.9883 87.081 82.1763 79.5069 87.0783C71.9327 91.9803 62.9935 94.3413 53.9866 93.8187C44.9797 93.2962 36.3736 89.9172 29.4171 84.1722L56.445 51.445L16.4845 37.1363Z" stroke="#EE8F21" stroke-width="4" mask="url(#path-4-inside-3)"/>
<circle cx="56.5" cy="51.5" r="40.5" fill="white"/>
<path d="M46.8219 48.058H45.2749V46.628H46.8219V48.058ZM44.4559 48.058H42.9219V46.628H44.4559V48.058ZM47.8229 52.894C47.8229 55.299 45.8599 57.158 43.3639 57.158C40.8679 57.158 38.8139 55.377 38.8139 52.894V50.411H40.5689V52.738C40.5689 54.454 41.5699 55.52 43.3249 55.52C44.4559 55.52 45.2619 55.117 45.7299 54.298C45.4829 54.35 45.2229 54.376 44.9499 54.376C43.1949 54.376 42.0639 53.284 42.0639 51.529C42.0639 49.8 43.1689 48.695 44.8979 48.695C46.6789 48.695 47.8229 49.761 47.8229 51.49V52.894ZM46.0939 51.581C46.0939 50.606 45.7299 50.112 44.9889 50.112H44.8589C44.2089 50.112 43.7929 50.71 43.7929 51.516C43.7929 52.361 44.2219 52.959 44.9499 52.959C45.6519 52.959 46.0939 52.387 46.0939 51.581ZM56.5825 55H54.8665C54.6585 56.43 53.6705 57.145 51.9025 57.145H51.7075V55.689H51.8635C52.5655 55.689 52.9815 55.429 53.1245 54.922C52.9815 54.974 52.6175 55 52.0065 55C50.3035 55 49.0555 53.765 49.0555 52.036C49.0555 50.281 50.2775 49.098 52.0065 49.098C53.6705 49.098 54.8925 50.346 54.8925 52.075V53.258H56.5825V55ZM53.0725 53.258V51.997C53.0725 51.23 52.6175 50.736 51.9545 50.736C51.2655 50.736 50.9015 51.269 50.9015 51.958C50.9015 52.699 51.3435 53.258 52.0195 53.258H53.0725ZM69.5831 55H56.1931V53.258H57.5711C58.1691 53.258 58.4941 52.933 58.4941 52.023V49.111H60.3271V51.945C60.3271 52.426 60.2491 52.868 60.1061 53.258H61.2631C61.8741 53.258 62.1861 52.868 62.1861 52.088V49.111H64.0061V51.945C64.0061 52.426 63.9281 52.868 63.7851 53.258H64.9421C65.5531 53.258 65.8651 52.868 65.8651 52.088V49.111H67.6981V51.932C67.6981 52.413 67.6201 52.855 67.4641 53.258H69.5831V55ZM73.0656 48.123H71.4406V46.628H73.0656V48.123ZM70.6086 48.123H68.9966V46.628H70.6086V48.123ZM73.1826 52.491C73.1826 53.18 72.9876 53.752 72.6106 54.207C72.1816 54.74 71.5836 55 70.8296 55H69.2826V53.258H70.4396C71.0506 53.258 71.3626 52.829 71.3626 51.984V49.111H73.1826V52.491Z" fill="#73347C"/>
<defs>
<filter id="filter0_d" x="0" y="0" width="113" height="113" filterUnits="userSpaceOnUse" color-interpolation-filters="sRGB">
<feFlood flood-opacity="0" result="BackgroundImageFix"/>
<feColorMatrix in="SourceAlpha" type="matrix" values="0 0 0 0 0 0 0 0 0 0 0 0 0 0 0 0 0 0 127 0"/>
<feOffset dy="5"/>
<feGaussianBlur stdDeviation="7.5"/>
<feColorMatrix type="matrix" values="0 0 0 0 0 0 0 0 0 0 0 0 0 0 0 0 0 0 0.15 0"/>
<feBlend mode="normal" in2="BackgroundImageFix" result="effect1_dropShadow"/>
<feBlend mode="normal" in="SourceGraphic" in2="effect1_dropShadow" result="shape"/>
</filter>
</defs>
</svg>
