<svg width="113" height="113" viewBox="0 0 113 113" fill="none" xmlns="http://www.w3.org/2000/svg">
<g filter="url(#filter0_d)">
<path d="M56.5 93C79.4198 93 98 74.4198 98 51.5C98 28.5802 79.4198 10 56.5 10C33.5802 10 15 28.5802 15 51.5C15 74.4198 33.5802 93 56.5 93Z" fill="white"/>
</g>
<mask id="path-2-inside-1" fill="white">
<path d="M15.3366 62.0129C13.227 53.8068 13.6218 45.157 16.47 37.177L56.445 51.445L15.3366 62.0129Z"/>
</mask>
<path d="M15.3366 62.0129C13.227 53.8068 13.6218 45.157 16.47 37.177L56.445 51.445L15.3366 62.0129Z" stroke="#EEE433" stroke-width="4" mask="url(#path-2-inside-1)"/>
<mask id="path-3-inside-2" fill="white">
<path d="M29.5533 84.2843C22.5134 78.5193 17.5124 70.6447 15.2879 61.8217L56.445 51.445L29.5533 84.2843Z"/>
</mask>
<path d="M29.5533 84.2843C22.5134 78.5193 17.5124 70.6447 15.2879 61.8217L56.445 51.445L29.5533 84.2843Z" stroke="#F4B938" stroke-width="4" mask="url(#path-3-inside-2)"/>
<mask id="path-4-inside-3" fill="white">
<path d="M16.4845 37.1363C19.526 28.6423 25.1949 21.3385 32.6685 16.2845C40.1422 11.2306 49.0319 8.68964 58.0475 9.03026C67.0631 9.37089 75.7357 12.5754 82.8067 18.1788C89.8778 23.7823 94.9793 31.4931 97.3712 40.1923C99.7631 48.8915 99.3208 58.1266 96.1085 66.5575C92.8962 74.9883 87.081 82.1763 79.5069 87.0783C71.9327 91.9803 62.9935 94.3413 53.9866 93.8187C44.9797 93.2962 36.3736 89.9172 29.4171 84.1722L56.445 51.445L16.4845 37.1363Z"/>
</mask>
<path d="M16.4845 37.1363C19.526 28.6423 25.1949 21.3385 32.6685 16.2845C40.1422 11.2306 49.0319 8.68964 58.0475 9.03026C67.0631 9.37089 75.7357 12.5754 82.8067 18.1788C89.8778 23.7823 94.9793 31.4931 97.3712 40.1923C99.7631 48.8915 99.3208 58.1266 96.1085 66.5575C92.8962 74.9883 87.081 82.1763 79.5069 87.0783C71.9327 91.9803 62.9935 94.3413 53.9866 93.8187C44.9797 93.2962 36.3736 89.9172 29.4171 84.1722L56.445 51.445L16.4845 37.1363Z" stroke="#EE8F21" stroke-width="4" mask="url(#path-4-inside-3)"/>
<circle cx="56.5" cy="51.5" r="40.5" fill="white"/>
<path d="M33.1979 45.797C32.2229 45.03 31.1569 44.718 29.7919 44.718C27.8679 44.718 25.9829 45.55 25.9829 47.474C25.9829 49.736 27.6989 50.243 29.6879 50.425C30.6889 50.516 31.2089 50.802 31.2089 51.257C31.2089 51.764 30.6239 52.063 29.7789 52.063C29.0119 52.063 28.0109 51.907 27.1139 51.036L25.6969 52.661C26.9579 53.987 28.1279 54.273 29.7659 54.26C31.8069 54.247 33.7569 53.363 33.7569 51.296C33.7569 49.203 31.8719 48.475 30.0649 48.28C29.1679 48.189 28.5569 48.098 28.5569 47.474C28.5569 46.993 29.1679 46.798 29.7919 46.798C30.5849 46.798 31.2999 46.954 31.9239 47.422L33.1979 45.797ZM34.6947 44.9V54H37.0997V50.607C37.1127 49.853 37.6327 49.502 38.1007 49.502C38.5817 49.502 38.9457 49.723 38.9717 50.451V54H41.3507V50.438C41.3507 48.28 40.1287 47.435 38.8287 47.435C38.0617 47.435 37.5677 47.682 37.1127 48.267V44.9H34.6947ZM45.9823 47.435C44.1233 47.435 42.3163 48.423 42.3163 50.802C42.3163 53.142 44.1363 54.156 45.9823 54.156C47.7893 54.156 49.6483 53.142 49.6483 50.802C49.6483 48.462 47.8803 47.435 45.9823 47.435ZM45.9823 52.193C45.1373 52.193 44.6563 51.543 44.6563 50.802C44.6563 50.061 45.1373 49.398 45.9823 49.398C46.8273 49.398 47.3083 50.061 47.3083 50.802C47.3083 51.582 46.7883 52.193 45.9823 52.193ZM53.0955 53.454C53.4465 53.883 54.0575 54.143 54.8765 54.143C56.7485 54.143 57.9965 52.752 57.9965 50.789C57.9965 48.761 56.9435 47.578 55.0585 47.461C54.3435 47.422 53.4855 47.643 52.9395 48.267L52.8355 47.578H50.7035V56.678H53.0955V53.454ZM54.3305 52.206C53.4855 52.206 53.0435 51.504 53.0435 50.724C53.0435 50.048 53.5245 49.385 54.3305 49.385C55.0455 49.385 55.6175 49.892 55.6175 50.789C55.6175 51.686 55.0455 52.206 54.3305 52.206ZM61.449 53.454C61.8 53.883 62.411 54.143 63.23 54.143C65.102 54.143 66.35 52.752 66.35 50.789C66.35 48.761 65.297 47.578 63.412 47.461C62.697 47.422 61.839 47.643 61.293 48.267L61.189 47.578H59.057V56.678H61.449V53.454ZM62.684 52.206C61.839 52.206 61.397 51.504 61.397 50.724C61.397 50.048 61.878 49.385 62.684 49.385C63.399 49.385 63.971 49.892 63.971 50.789C63.971 51.686 63.399 52.206 62.684 52.206ZM67.2675 45.927C67.2675 46.72 67.9435 47.123 68.6195 47.123C69.2825 47.123 69.9585 46.72 69.9585 45.927C69.9585 45.121 69.2825 44.718 68.6195 44.718C67.9435 44.718 67.2675 45.121 67.2675 45.927ZM67.4105 54V47.682H69.8155V54H67.4105ZM77.9791 54V50.438C77.9791 48.15 76.8221 47.435 75.4701 47.422C74.7941 47.409 73.9881 47.643 73.4421 48.28L73.3381 47.578H71.2191V54H73.5851V50.62C73.5851 49.775 74.1181 49.385 74.6901 49.385C75.1321 49.385 75.5871 49.658 75.5871 50.451V54H77.9791ZM79.046 54.455C78.916 56.418 80.203 57.614 82.504 57.614C84.337 57.614 86.144 56.834 86.144 54.754C86.144 54.403 86.066 53.493 84.883 52.817C85.624 52.284 86.04 51.491 86.053 50.685C86.079 50.113 85.91 49.476 85.442 48.956L86.274 47.968L84.545 46.733C84.337 47.006 84.077 47.331 83.856 47.617C83.427 47.461 82.972 47.37 82.53 47.37C80.541 47.37 78.955 48.644 78.955 50.659C78.955 52.648 80.372 53.896 82.53 53.896C83.401 53.896 83.687 54.286 83.687 54.754C83.687 55.378 83.128 55.677 82.504 55.677C81.867 55.677 81.269 55.456 81.295 54.455H79.046ZM82.53 49.333C83.232 49.333 83.739 49.931 83.739 50.659C83.739 51.517 83.167 51.92 82.53 51.92C81.828 51.92 81.282 51.426 81.282 50.659C81.282 49.801 81.828 49.333 82.53 49.333Z" fill="#73347C"/>
<defs>
<filter id="filter0_d" x="0" y="0" width="113" height="113" filterUnits="userSpaceOnUse" color-interpolation-filters="sRGB">
<feFlood flood-opacity="0" result="BackgroundImageFix"/>
<feColorMatrix in="SourceAlpha" type="matrix" values="0 0 0 0 0 0 0 0 0 0 0 0 0 0 0 0 0 0 127 0"/>
<feOffset dy="5"/>
<feGaussianBlur stdDeviation="7.5"/>
<feColorMatrix type="matrix" values="0 0 0 0 0 0 0 0 0 0 0 0 0 0 0 0 0 0 0.15 0"/>
<feBlend mode="normal" in2="BackgroundImageFix" result="effect1_dropShadow"/>
<feBlend mode="normal" in="SourceGraphic" in2="effect1_dropShadow" result="shape"/>
</filter>
</defs>
</svg>
