<svg width="113" height="113" viewBox="0 0 113 113" fill="none" xmlns="http://www.w3.org/2000/svg">
<g filter="url(#filter0_d)">
<path d="M56.5 93C79.4198 93 98 74.4198 98 51.5C98 28.5802 79.4198 10 56.5 10C33.5802 10 15 28.5802 15 51.5C15 74.4198 33.5802 93 56.5 93Z" fill="white"/>
</g>
<mask id="path-2-inside-1" fill="white">
<path d="M15.3366 62.0129C13.227 53.8068 13.6218 45.157 16.47 37.177L56.445 51.445L15.3366 62.0129Z"/>
</mask>
<path d="M15.3366 62.0129C13.227 53.8068 13.6218 45.157 16.47 37.177L56.445 51.445L15.3366 62.0129Z" stroke="#EEE433" stroke-width="4" mask="url(#path-2-inside-1)"/>
<mask id="path-3-inside-2" fill="white">
<path d="M29.5533 84.2843C22.5134 78.5193 17.5124 70.6447 15.2879 61.8217L56.445 51.445L29.5533 84.2843Z"/>
</mask>
<path d="M29.5533 84.2843C22.5134 78.5193 17.5124 70.6447 15.2879 61.8217L56.445 51.445L29.5533 84.2843Z" stroke="#F4B938" stroke-width="4" mask="url(#path-3-inside-2)"/>
<mask id="path-4-inside-3" fill="white">
<path d="M16.4845 37.1363C19.526 28.6423 25.1949 21.3385 32.6685 16.2845C40.1422 11.2306 49.0319 8.68964 58.0475 9.03026C67.0631 9.37089 75.7357 12.5754 82.8067 18.1788C89.8778 23.7823 94.9793 31.4931 97.3712 40.1923C99.7631 48.8915 99.3208 58.1266 96.1085 66.5575C92.8962 74.9883 87.081 82.1763 79.5069 87.0783C71.9327 91.9803 62.9935 94.3413 53.9866 93.8187C44.9797 93.2962 36.3736 89.9172 29.4171 84.1722L56.445 51.445L16.4845 37.1363Z"/>
</mask>
<path d="M16.4845 37.1363C19.526 28.6423 25.1949 21.3385 32.6685 16.2845C40.1422 11.2306 49.0319 8.68964 58.0475 9.03026C67.0631 9.37089 75.7357 12.5754 82.8067 18.1788C89.8778 23.7823 94.9793 31.4931 97.3712 40.1923C99.7631 48.8915 99.3208 58.1266 96.1085 66.5575C92.8962 74.9883 87.081 82.1763 79.5069 87.0783C71.9327 91.9803 62.9935 94.3413 53.9866 93.8187C44.9797 93.2962 36.3736 89.9172 29.4171 84.1722L56.445 51.445L16.4845 37.1363Z" stroke="#EE8F21" stroke-width="4" mask="url(#path-4-inside-3)"/>
<circle cx="56.5" cy="51.5" r="40.5" fill="white"/>
<path d="M38.1649 55H40.7259V48.019H43.3909V45.9H35.5129V48.019H38.1649V55ZM43.4847 48.578V55H45.8767V51.659C45.8767 50.814 46.3837 50.45 46.9817 50.45C47.3847 50.45 47.6707 50.528 48.0607 50.84L49.0227 49.111C48.6067 48.669 47.9827 48.422 47.3327 48.422C46.7087 48.422 46.1107 48.682 45.7727 49.28L45.6297 48.578H43.4847ZM49.5386 48.578V52.14C49.5386 54.428 50.6956 55.143 52.0476 55.156C52.7236 55.169 53.5296 54.935 54.0756 54.298L54.1796 55H56.2986V48.578H53.9326V51.997C53.9326 52.842 53.3996 53.193 52.8276 53.193C52.3856 53.193 51.9306 52.92 51.9306 52.127V48.578H49.5386ZM62.2795 52.608C61.9545 52.959 61.5255 53.141 61.0835 53.141C60.1735 53.141 59.6925 52.517 59.6925 51.815C59.6925 51.009 60.1865 50.346 61.0965 50.346C61.5255 50.346 61.8895 50.489 62.2015 50.814L63.4755 49.436C62.7995 48.76 61.8765 48.435 60.9535 48.435C59.1465 48.435 57.3525 49.462 57.3525 51.802C57.3525 54.207 59.1205 55.13 60.9925 55.13C61.9545 55.13 62.8775 54.727 63.6445 54.038L62.2795 52.608ZM64.4447 45.9V55H66.8497V52.764L68.5137 55H71.2177V54.857L68.6047 51.594L70.8537 48.682V48.578H68.1887L66.8497 50.463V45.9H64.4447ZM71.2895 54.324C72.0175 54.857 73.2785 55.169 74.3965 55.169C75.9435 55.169 77.3865 54.571 77.3865 52.985C77.3865 51.282 75.7745 50.905 74.4355 50.866C74.0455 50.853 73.9545 50.671 73.9545 50.554C73.9545 50.32 74.1885 50.242 74.5265 50.242C75.0465 50.229 75.7875 50.411 76.1385 50.632L77.1525 49.202C76.5285 48.734 75.5665 48.422 74.5265 48.422C73.0185 48.422 71.5625 48.981 71.5625 50.528C71.5625 52.088 73.0705 52.595 74.3185 52.634C74.7865 52.673 74.9945 52.777 74.9945 52.985C74.9945 53.193 74.7735 53.297 74.3445 53.297C73.8245 53.271 73.0445 53.219 72.0695 52.582L71.2895 54.324Z" fill="#1F4255"/>
<defs>
<filter id="filter0_d" x="0" y="0" width="113" height="113" filterUnits="userSpaceOnUse" color-interpolation-filters="sRGB">
<feFlood flood-opacity="0" result="BackgroundImageFix"/>
<feColorMatrix in="SourceAlpha" type="matrix" values="0 0 0 0 0 0 0 0 0 0 0 0 0 0 0 0 0 0 127 0"/>
<feOffset dy="5"/>
<feGaussianBlur stdDeviation="7.5"/>
<feColorMatrix type="matrix" values="0 0 0 0 0 0 0 0 0 0 0 0 0 0 0 0 0 0 0.15 0"/>
<feBlend mode="normal" in2="BackgroundImageFix" result="effect1_dropShadow"/>
<feBlend mode="normal" in="SourceGraphic" in2="effect1_dropShadow" result="shape"/>
</filter>
</defs>
</svg>
