<svg width="113" height="113" viewBox="0 0 113 113" fill="none" xmlns="http://www.w3.org/2000/svg">
<g filter="url(#filter0_d)">
<path d="M56.5 93C79.4198 93 98 74.4198 98 51.5C98 28.5802 79.4198 10 56.5 10C33.5802 10 15 28.5802 15 51.5C15 74.4198 33.5802 93 56.5 93Z" fill="white"/>
</g>
<mask id="path-2-inside-1" fill="white">
<path d="M15.3366 62.0129C13.227 53.8068 13.6218 45.157 16.47 37.177L56.445 51.445L15.3366 62.0129Z"/>
</mask>
<path d="M15.3366 62.0129C13.227 53.8068 13.6218 45.157 16.47 37.177L56.445 51.445L15.3366 62.0129Z" stroke="#EEE433" stroke-width="4" mask="url(#path-2-inside-1)"/>
<mask id="path-3-inside-2" fill="white">
<path d="M29.5533 84.2843C22.5134 78.5193 17.5124 70.6447 15.2879 61.8217L56.445 51.445L29.5533 84.2843Z"/>
</mask>
<path d="M29.5533 84.2843C22.5134 78.5193 17.5124 70.6447 15.2879 61.8217L56.445 51.445L29.5533 84.2843Z" stroke="#F4B938" stroke-width="4" mask="url(#path-3-inside-2)"/>
<mask id="path-4-inside-3" fill="white">
<path d="M16.4845 37.1363C19.526 28.6423 25.1949 21.3385 32.6685 16.2845C40.1422 11.2306 49.0319 8.68964 58.0475 9.03026C67.0631 9.37089 75.7357 12.5754 82.8067 18.1788C89.8778 23.7823 94.9793 31.4931 97.3712 40.1923C99.7631 48.8915 99.3208 58.1266 96.1085 66.5575C92.8962 74.9883 87.081 82.1763 79.5069 87.0783C71.9327 91.9803 62.9935 94.3413 53.9866 93.8187C44.9797 93.2962 36.3736 89.9172 29.4171 84.1722L56.445 51.445L16.4845 37.1363Z"/>
</mask>
<path d="M16.4845 37.1363C19.526 28.6423 25.1949 21.3385 32.6685 16.2845C40.1422 11.2306 49.0319 8.68964 58.0475 9.03026C67.0631 9.37089 75.7357 12.5754 82.8067 18.1788C89.8778 23.7823 94.9793 31.4931 97.3712 40.1923C99.7631 48.8915 99.3208 58.1266 96.1085 66.5575C92.8962 74.9883 87.081 82.1763 79.5069 87.0783C71.9327 91.9803 62.9935 94.3413 53.9866 93.8187C44.9797 93.2962 36.3736 89.9172 29.4171 84.1722L56.445 51.445L16.4845 37.1363Z" stroke="#EE8F21" stroke-width="4" mask="url(#path-4-inside-3)"/>
<circle cx="56.5" cy="51.5" r="40.5" fill="white"/>
<path d="M48.8974 47H46.3884C45.6734 48.352 44.3604 49.158 42.8394 49.158C40.5514 49.158 38.7314 47.234 38.7314 44.738V43.451H40.5514V44.569C40.5514 46.272 41.3964 47.468 42.8524 47.468C44.2824 47.468 45.1274 46.389 45.1274 44.569V38.628H46.9474V45.258H48.8974V47ZM52.4829 44.491C52.4829 45.18 52.2879 45.752 51.9109 46.207C51.4819 46.74 50.8839 47 50.1299 47H48.5829V45.258H49.7399C50.3509 45.258 50.6629 44.829 50.6629 43.984V41.111H52.4829V44.491ZM52.3659 49.158H50.7409V47.65H52.3659V49.158ZM49.9089 49.158H48.2969V47.65H49.9089V49.158ZM61.2353 47H59.5193C59.3113 48.43 58.3233 49.145 56.5553 49.145H56.3603V47.689H56.5163C57.2183 47.689 57.6343 47.429 57.7773 46.922C57.6343 46.974 57.2703 47 56.6593 47C54.9563 47 53.7083 45.765 53.7083 44.036C53.7083 42.281 54.9303 41.098 56.6593 41.098C58.3233 41.098 59.5453 42.346 59.5453 44.075V45.258H61.2353V47ZM57.7253 45.258V43.997C57.7253 43.23 57.2703 42.736 56.6073 42.736C55.9183 42.736 55.5543 43.269 55.5543 43.958C55.5543 44.699 55.9963 45.258 56.6723 45.258H57.7253ZM69.751 47H67.671C67.138 47.741 66.319 48.118 65.24 48.118C64.135 48.118 63.316 47.741 62.77 47H60.781V45.258H62.237C62.237 43.386 63.303 42.216 65.188 42.216C67.086 42.216 68.23 43.347 68.23 45.258H69.751V47ZM66.423 45.219C66.423 44.192 66.033 43.672 65.266 43.672H65.136C64.473 43.672 64.031 44.296 64.031 45.141C64.031 46.012 64.473 46.636 65.24 46.636C65.981 46.636 66.423 46.09 66.423 45.219ZM73.1481 40.123H71.5231V38.628H73.1481V40.123ZM70.6911 40.123H69.0791V38.628H70.6911V40.123ZM73.2651 44.491C73.2651 45.18 73.0701 45.752 72.6931 46.207C72.2641 46.74 71.6661 47 70.9121 47H69.3651V45.258H70.5221C71.1331 45.258 71.4451 44.829 71.4451 43.984V41.111H73.2651V44.491ZM50.8144 63H48.3054C47.5904 64.352 46.2774 65.158 44.7564 65.158C42.4684 65.158 40.6484 63.234 40.6484 60.738V59.451H42.4684V60.569C42.4684 62.272 43.3134 63.468 44.7694 63.468C46.1994 63.468 47.0444 62.389 47.0444 60.569V54.628H48.8644V61.258H50.8144V63ZM56.7789 54.849H55.1669V53.354H56.7789V54.849ZM54.3219 54.849H52.7099V53.354H54.3219V54.849ZM59.0409 63H57.9879C56.7269 63 55.6479 62.844 54.7379 62.519C53.8279 62.844 52.7489 63 51.4879 63H50.3049V61.258H51.4879C52.0599 61.258 52.4109 61.219 52.5539 61.154C51.9949 60.517 51.7089 59.802 51.7089 59.022C51.7089 58.697 51.7609 58.359 51.8649 58.034C52.2809 56.773 53.3729 55.98 54.7379 55.98C56.1289 55.98 57.2079 56.773 57.6109 58.034C57.7149 58.359 57.7669 58.697 57.7669 59.022C57.7669 59.802 57.4809 60.517 56.9219 61.154C57.0779 61.219 57.4289 61.258 57.9879 61.258H59.0409V63ZM55.3749 60.387C55.8819 60.023 56.1289 59.529 56.1289 58.892C56.1289 58.073 55.6089 57.397 54.7379 57.397C54.3089 57.397 53.9709 57.553 53.6979 57.852C53.4769 58.138 53.3599 58.489 53.3599 58.892C53.3599 59.529 53.6069 60.023 54.1139 60.387C54.3219 60.543 54.5299 60.673 54.7379 60.777C54.9459 60.673 55.1539 60.543 55.3749 60.387ZM62.4336 56.123H60.8086V54.628H62.4336V56.123ZM64.4876 63H58.6246V61.258H59.8206C60.4316 61.258 60.7436 60.842 60.7436 60.01V57.111H62.5766V59.945C62.5766 60.426 62.4986 60.855 62.3556 61.258H64.4876V63ZM68.0195 60.491C68.0195 61.18 67.8245 61.752 67.4475 62.207C67.0185 62.74 66.4205 63 65.6535 63H63.9375V61.258H65.2765C65.8875 61.258 66.1995 60.829 66.1995 59.984V54.628H68.0195V60.491ZM71.1714 63H69.3514V54.615H71.1714V63Z" fill="#1F4255"/>
<defs>
<filter id="filter0_d" x="0" y="0" width="113" height="113" filterUnits="userSpaceOnUse" color-interpolation-filters="sRGB">
<feFlood flood-opacity="0" result="BackgroundImageFix"/>
<feColorMatrix in="SourceAlpha" type="matrix" values="0 0 0 0 0 0 0 0 0 0 0 0 0 0 0 0 0 0 127 0"/>
<feOffset dy="5"/>
<feGaussianBlur stdDeviation="7.5"/>
<feColorMatrix type="matrix" values="0 0 0 0 0 0 0 0 0 0 0 0 0 0 0 0 0 0 0.15 0"/>
<feBlend mode="normal" in2="BackgroundImageFix" result="effect1_dropShadow"/>
<feBlend mode="normal" in="SourceGraphic" in2="effect1_dropShadow" result="shape"/>
</filter>
</defs>
</svg>
