<svg width="76" height="65" viewBox="0 0 76 65" fill="none" xmlns="http://www.w3.org/2000/svg">
<path d="M26.4961 0C23.0228 0 20.2441 2.77861 20.2441 6.2519V57.2595C20.2441 60.7328 23.0228 63.5115 26.4961 63.5115H44.0609V0.0992427H26.4961V0Z" fill="white"/>
<path d="M61.7251 0H44.1602V63.4122H61.7251C65.1983 63.4122 67.9769 60.6336 67.9769 57.1603V6.15265C67.9769 2.77861 65.1983 0 61.7251 0Z" fill="white"/>
<path d="M20.3433 57.9541C20.7402 61.0304 23.3204 63.4121 26.4959 63.4121H61.725C64.9005 63.4121 67.4807 61.0304 67.8776 57.9541H20.3433Z" fill="white"/>
<path d="M48.7251 0H46.9388H18.8548C15.6793 0 13.0991 2.38168 12.7021 5.45802H46.9388H48.7251H55.4731C55.8701 2.38168 58.4503 0 61.6258 0H48.7251Z" fill="#E0E0E0"/>
<path d="M39.1981 63.4121H40.9844H69.0684C72.2439 63.4121 74.8241 61.0304 75.221 57.9541H40.9844H39.1981H32.45C32.0531 61.0304 29.4729 63.4121 26.2974 63.4121H39.1981Z" fill="#E0E0E0"/>
<path d="M63.7101 16.2749H24.2139V21.4352H63.7101V16.2749Z" fill="#2D4375"/>
<path d="M63.7101 25.2061H24.2139V30.3664H63.7101V25.2061Z" fill="#2D4375"/>
<path d="M63.7101 34.2368H24.2139V39.3971H63.7101V34.2368Z" fill="#2D4375"/>
<path d="M56.5652 44.4578C54.2827 44.6562 52.5957 46.641 52.7942 48.9234C52.9927 51.2058 54.9774 52.8929 57.2598 52.6944C59.5423 52.4959 61.2293 50.5112 61.0308 48.2288C60.9316 45.9463 58.8476 44.2593 56.5652 44.4578Z" fill="#3A9E32"/>
<path d="M63.115 48.6255C63.115 51.801 60.7333 54.4804 57.5577 54.7781C55.7715 54.9766 53.9852 54.2819 52.7944 53.0911L52.0005 53.3888C53.3898 54.8774 55.4738 55.6713 57.5577 55.4728C61.2295 55.1751 64.0081 51.9003 63.8096 48.2285L63.115 48.6255Z" fill="#3A9E32"/>
<path d="M50.9087 48.7251C50.9087 45.5495 53.2904 42.8701 56.466 42.5724C58.2523 42.3739 60.0385 43.0686 61.2294 44.2594L62.0233 43.9617C60.6339 42.4732 58.55 41.6793 56.466 41.8777C52.7942 42.1754 50.0156 45.4503 50.2141 49.122L50.9087 48.7251Z" fill="#3A9E32"/>
<path d="M64.2101 43.647L48.3657 50.5107L49.7069 53.6068L65.5513 46.7431L64.2101 43.647Z" fill="#3A9E32"/>
<path d="M50.4121 50.3127L50.9083 50.1143L52.3968 51.8013L51.9007 51.9997L51.603 51.7021L51.0075 51.9997V52.4959L50.5114 52.6944L50.4121 50.3127ZM51.4045 51.3051L50.9083 50.7097L51.0075 51.4043L51.4045 51.3051Z" fill="white"/>
<path d="M51.7021 49.7176L52.5953 49.3206C52.893 49.2214 53.1907 49.1222 53.4884 49.7176C53.7861 50.313 53.3892 50.5115 53.1907 50.6107C53.0915 50.6107 52.7938 50.71 52.6945 50.71L52.9922 51.5038L52.496 51.7023L51.7021 49.7176ZM52.893 50.313C52.9922 50.313 52.9922 50.2138 52.9922 50.0153C52.893 49.8168 52.7938 49.8168 52.6945 49.8168L52.2976 50.0153L52.496 50.5115L52.893 50.313Z" fill="white"/>
<path d="M53.3892 49.0232L54.2823 48.6263C54.58 48.5271 54.8777 48.4278 55.1754 49.0232C55.4731 49.6186 55.0762 49.8171 54.8777 49.9164C54.7785 49.9164 54.4808 50.0156 54.3815 50.0156L54.6793 50.8095L54.1831 51.008L53.3892 49.0232ZM54.58 49.5194C54.6792 49.5194 54.6793 49.4202 54.6793 49.2217C54.58 49.0232 54.4808 49.0232 54.3815 49.0232L53.9846 49.2217L54.1831 49.7179L54.58 49.5194Z" fill="white"/>
<path d="M55.0762 48.3282L55.9693 47.9313C56.267 47.832 56.5647 47.832 56.8624 48.3282C57.0609 48.8244 56.9617 48.9236 56.7632 49.0229L57.4578 49.6183L56.9617 49.8167L56.3662 49.2213L56.0685 49.3206L56.3662 50.1145L55.8701 50.3129L55.0762 48.3282ZM56.267 48.8244C56.3663 48.7251 56.4655 48.7252 56.3662 48.5267C56.267 48.3282 56.1678 48.3282 56.0685 48.3282L55.6716 48.5267L55.8701 49.0229L56.267 48.8244Z" fill="white"/>
<path d="M57.4578 47.2364C57.954 47.0379 58.351 46.9387 58.7479 47.931C59.1449 48.8242 58.8471 49.0226 58.351 49.3204C57.8548 49.5188 57.4578 49.6181 57.0609 48.6257C56.664 47.6334 56.9617 47.4349 57.4578 47.2364ZM58.1525 48.8242C58.4502 48.7249 58.4502 48.5265 58.2517 48.0303C58.0533 47.4349 57.8548 47.4349 57.6563 47.5341C57.3586 47.6333 57.3586 47.7326 57.5571 48.328C57.7556 48.9234 57.8548 49.0226 58.1525 48.8242Z" fill="white"/>
<path d="M58.8473 46.6407L59.8396 47.9308L59.6412 46.343L60.1374 46.1445L60.3358 48.427L59.8396 48.6254L58.3511 46.8392L58.8473 46.6407Z" fill="white"/>
<path d="M60.4351 46.4429C60.2366 46.046 60.5343 45.8475 60.7328 45.8475C60.7328 45.8475 61.4275 45.5498 61.6259 45.5498L61.8244 45.9467L61.0305 46.2445C60.9313 46.3437 60.9313 46.3437 60.9313 46.4429L61.0305 46.6414L61.8244 46.3437L62.0229 46.7407L61.229 47.1376L61.3282 47.3361C61.4274 47.4353 61.5267 47.4353 61.5267 47.4353L62.2214 47.1376L62.4198 47.5345C62.2213 47.6338 61.6259 47.9315 61.6259 47.9315C61.4275 48.0307 61.1297 48.13 60.9313 47.733L60.4351 46.4429Z" fill="white"/>
<path d="M61.7251 45.351L62.6182 44.954C63.2136 44.7556 63.5114 45.1525 63.7098 45.6487C64.0075 46.2441 63.9083 46.7403 63.4121 46.9388L62.519 47.3357L61.7251 45.351ZM63.3129 46.6411C63.5113 46.5418 63.5113 46.3434 63.3129 45.9464C63.1144 45.4502 62.9159 45.351 62.7175 45.4502L62.3205 45.6487L62.8167 46.8395L63.3129 46.6411Z" fill="white"/>
<path d="M10.817 55.0767V62.1225C10.817 63.7103 9.52692 64.9011 8.03837 64.9011H5.6567C4.06891 64.9011 2.77881 63.6111 2.77881 62.0233V54.9775C2.77881 53.3897 4.06891 52.0996 5.6567 52.0996H7.93913C9.52691 52.2981 10.817 53.5882 10.817 55.0767Z" fill="#393C41"/>
<path d="M7.54245 59.1455H7.14551V65.0005H7.54245V59.1455Z" fill="#2A2D30"/>
<path d="M6.35153 59.1455H5.95459V65.0005H6.35153V59.1455Z" fill="#2A2D30"/>
<path d="M10.8169 59.6416V60.237L7.64136 63.4126L7.44287 63.6111V62.9164L7.64136 62.8172L10.8169 59.6416Z" fill="#2A2D30"/>
<path d="M10.8169 61.5273V62.1228L7.93905 65.0006H7.44287V64.9014L7.64136 64.7029L10.8169 61.5273Z" fill="#2A2D30"/>
<path d="M10.8169 57.6572V58.3519L7.64136 61.5274L7.44287 61.6267V61.0313L7.64136 60.8328L10.8169 57.6572Z" fill="#2A2D30"/>
<path d="M2.77881 59.6416V60.237L5.95439 63.4126L6.15288 63.6111V62.9164L5.95439 62.8172L2.77881 59.6416Z" fill="#2A2D30"/>
<path d="M2.77881 61.5273V62.1228L5.55745 65.0006H6.15288V64.9014L5.95439 64.7029L2.77881 61.5273Z" fill="#2A2D30"/>
<path d="M2.77881 57.6572V58.3519L5.95439 61.5274L6.15288 61.6267V61.0313L5.95439 60.8328L2.77881 57.6572Z" fill="#2A2D30"/>
<path d="M45.0538 55.0767V62.1225C45.0538 63.7103 43.7637 64.9011 42.2752 64.9011H39.8935C38.3057 64.9011 37.0156 63.6111 37.0156 62.0233V54.9775C37.0156 53.3897 38.3057 52.0996 39.8935 52.0996H42.1759C43.7637 52.2981 45.0538 53.5882 45.0538 55.0767Z" fill="#393C41"/>
<path d="M41.8784 59.1455H41.4814V65.0005H41.8784V59.1455Z" fill="#2A2D30"/>
<path d="M40.6875 59.1455H40.2905V65.0005H40.6875V59.1455Z" fill="#2A2D30"/>
<path d="M45.0536 59.6416V60.237L41.8781 63.4126L41.7788 63.6111V62.9164L41.8781 62.8172L45.0536 59.6416Z" fill="#2A2D30"/>
<path d="M45.0536 61.5273V62.1228L42.275 65.0006H41.7788V64.9014L41.8781 64.7029L45.0536 61.5273Z" fill="#2A2D30"/>
<path d="M45.0536 57.6572V58.3519L41.8781 61.5274L41.7788 61.6267V61.0313L41.8781 60.8328L45.0536 57.6572Z" fill="#2A2D30"/>
<path d="M37.1147 59.6416V60.237L40.2903 63.4126L40.3896 63.6111V62.9164L40.2903 62.8172L37.1147 59.6416Z" fill="#2A2D30"/>
<path d="M37.1147 61.5273V62.1228L39.8934 65.0006H40.3896V64.9014L40.2903 64.7029L37.1147 61.5273Z" fill="#2A2D30"/>
<path d="M37.1147 57.6572V58.3519L40.2903 61.5274L40.3896 61.6267V61.0313L40.2903 60.8328L37.1147 57.6572Z" fill="#2A2D30"/>
<path d="M45.1529 37.4126H42.1758C41.2826 37.4126 40.588 38.1073 40.588 39.0004V39.0996L38.4048 40.7867L38.8017 41.2829L40.7865 39.7943C41.0842 40.2905 41.5803 40.6874 42.1758 40.6874H45.1529C46.046 40.6874 46.7407 39.9928 46.7407 39.0996C46.7407 38.1073 46.046 37.4126 45.1529 37.4126Z" fill="#2A2D30"/>
<path d="M2.57998 37.4126H5.55708C6.45021 37.4126 7.14487 38.1073 7.14487 39.0004V39.0996L9.32806 40.7867L8.93112 41.2829L6.94639 39.7943C6.64868 40.2905 6.1525 40.6874 5.55708 40.6874H2.57998C1.68685 40.6874 0.992188 39.9928 0.992188 39.0996C0.992187 38.1073 1.78609 37.4126 2.57998 37.4126Z" fill="#2A2D30"/>
<path d="M47.6336 48.8253C47.6336 48.2299 47.2367 47.436 46.8397 46.9398C45.5496 45.4513 44.2596 43.8635 42.8702 42.3749C42.4733 41.978 41.6794 41.5811 41.084 41.5811C35.229 41.5811 29.374 41.5811 23.6183 41.5811C17.9618 41.5811 12.3054 41.5811 6.64887 41.5811C6.05345 41.5811 5.25954 41.978 4.86259 42.3749C3.57251 43.8635 2.1832 45.352 0.893124 46.9398C0.496177 47.436 0.198479 48.2299 0.0992427 48.7261C0.0992427 49.3215 0.0992366 49.6192 0 50.2147C0 53.0925 0.198473 55.9704 0.496183 58.8482C0.694656 60.2375 2.28244 61.3291 3.87022 61.3291C10.4198 61.3291 16.9695 61.3291 23.5191 61.3291C30.2672 61.3291 36.916 61.3291 43.6641 61.3291C45.2519 61.3291 46.8397 60.2375 47.0382 58.8482C47.1374 58.4513 47.1374 58.2528 47.1374 57.8559C47.7328 54.978 47.8321 51.9017 47.6336 48.8253Z" fill="#EE8F21"/>
<path d="M38.4043 30.367C38.4043 29.2754 31.8547 28.4814 23.8165 28.4814H23.7173V42.2754H42.5722L38.4043 30.367Z" fill="#EE8F21"/>
<path d="M9.22883 30.367L5.16016 42.2754H23.6181V28.4814C15.6792 28.4814 9.22883 29.2754 9.22883 30.367Z" fill="#EE8F21"/>
<path d="M37.5114 30.7637C36.4198 30.1683 31.3588 29.4736 23.916 29.4736C23.8168 29.4736 23.8168 29.4736 23.7175 29.4736C16.374 29.4736 11.4122 30.1683 10.3206 30.7637L7.14502 40.6874H23.8168H40.7862L37.5114 30.7637Z" fill="#1E2D4F"/>
<path d="M32.3511 55.0772C32.3511 55.5734 31.9541 55.9703 31.4579 55.9703H16.4732C15.977 55.9703 15.5801 55.5734 15.5801 55.0772V50.9092C15.5801 50.4131 15.977 50.0161 16.4732 50.0161H31.4579C31.9541 50.0161 32.3511 50.4131 32.3511 50.9092V55.0772Z" fill="#2A2D30"/>
<path d="M7.24423 44.7563V50.0159H6.74805V52.2983H12.3053V50.0159C12.3053 47.138 10.0229 44.7563 7.24423 44.7563Z" fill="#F4B938"/>
<path d="M5.16045 54.7795C3.37419 54.7795 1.98486 53.3902 1.98486 51.6039V51.5047C1.98486 49.7184 3.37419 48.3291 5.16045 48.3291C6.94671 48.8253 12.9009 50.7108 12.504 52.2986C12.107 53.8864 11.3131 54.6803 9.82455 54.6803H5.16045V54.7795Z" fill="#F4B938"/>
<path d="M12.3056 52.2982C12.0079 53.6875 11.3133 54.4814 9.92395 54.4814H5.1606C3.57282 54.4814 2.28271 53.1913 2.28271 51.6036V51.5043C2.28271 49.9165 3.57282 48.6265 5.1606 48.6265C5.1606 48.7257 12.6033 50.9089 12.3056 52.2982Z" fill="#FFFBFF"/>
<path d="M40.6872 44.7563V50.0159H41.1834V52.2983H35.6262V50.0159C35.5269 47.138 37.8094 44.7563 40.6872 44.7563Z" fill="#F4B938"/>
<path d="M42.7711 54.7795C44.5574 54.7795 45.9467 53.3902 45.9467 51.6039V51.5047C45.9467 49.7184 44.5574 48.3291 42.7711 48.3291C40.9849 48.8253 35.0307 50.7108 35.4276 52.2986C35.8246 53.8864 36.6185 54.6803 38.107 54.6803H42.7711V54.7795Z" fill="#F4B938"/>
<path d="M35.5267 52.2982C35.8244 53.6875 36.519 54.4814 37.9084 54.4814H42.6717C44.2595 54.4814 45.5496 53.1913 45.5496 51.6036V51.5043C45.5496 49.9165 44.2595 48.6265 42.6717 48.6265C42.7709 48.7257 35.2289 50.9089 35.5267 52.2982Z" fill="#FFFBFF"/>
<path d="M7.93902 37.909L7.0459 40.5884H23.7176H40.6871L38.2062 33.0464L7.93902 37.909Z" fill="#1E2D4F"/>
<path d="M37.5114 30.7637C36.4197 30.1683 31.3587 29.4736 23.9159 29.4736C23.8167 29.4736 23.8167 29.4736 23.7175 29.4736C16.374 29.4736 11.4121 30.1683 10.3205 30.7637L8.03809 37.9087L38.3053 33.0462L37.5114 30.7637Z" fill="#2D4375"/>
<path d="M39.5954 56.5654L38.8016 57.657H9.12982L8.3359 56.5654H0.396973C0.496209 57.3593 0.496221 58.1532 0.595458 59.0463C0.793931 60.4357 2.38171 61.5273 3.9695 61.5273C10.5191 61.5273 17.0687 61.5273 23.6183 61.5273H43.7634C45.3512 61.5273 46.939 60.4357 47.1374 59.0463C47.2367 58.6494 47.2367 58.4509 47.2367 58.054C47.3359 57.5578 47.3359 57.0616 47.4351 56.5654H39.5954Z" fill="#2A2D30"/>
<path d="M31.458 60.1381C31.458 60.535 31.1603 60.9319 30.6641 60.9319H17.1679C16.771 60.9319 16.374 60.6342 16.374 60.1381V58.9472C16.374 58.5503 16.6717 58.1533 17.1679 58.1533H30.6641C31.061 58.1533 31.458 58.451 31.458 58.9472V60.1381Z" fill="#FFFBFF"/>
<path d="M27.6869 8.23633C28.8777 8.23633 29.0762 8.33558 29.7709 8.53406V9.72488C29.7709 9.72488 28.977 9.62564 28.1831 9.62564C27.4884 9.62564 27.1907 9.62564 27.1907 11.2134C27.1907 12.5035 27.3892 12.8012 28.1831 12.8012C28.977 12.8012 29.7709 12.702 29.7709 12.702V13.8928C29.2747 14.0913 28.8777 14.1905 27.6869 14.1905C26.1983 14.1905 25.7021 13.1982 25.7021 11.2134C25.7021 9.32793 26.0991 8.23633 27.6869 8.23633Z" fill="#EE8F21"/>
<path d="M31.9542 8.23633H33.7405L35.5267 14.0913H33.939L33.6413 13.0989H32.0535L31.7558 14.0913H30.168L31.9542 8.23633ZM33.3436 11.8089L32.9466 10.2211L32.4504 11.8089H33.3436Z" fill="#EE8F21"/>
<path d="M36.0227 8.23633H38.6028C39.5952 8.23633 40.3891 8.63327 40.3891 10.1218C40.3891 11.5111 39.8929 11.7096 39.496 11.9081L40.4883 14.0913H38.7021L37.9082 12.0073L37.412 11.9081V14.0913H35.8242V8.23633H36.0227ZM38.4044 10.7172C38.8013 10.7172 38.8013 10.5188 38.8013 10.1218C38.8013 9.72487 38.7021 9.52642 38.4044 9.52642H37.5112V10.7172H38.4044Z" fill="#EE8F21"/>
<path d="M42.8701 8.23633H44.4579V12.305C44.4579 12.702 44.7556 12.702 44.9541 12.702H46.6411V14.0913H44.2594C43.5648 14.0913 42.9693 13.7936 42.9693 12.8012V8.23633H42.8701Z" fill="#EE8F21"/>
<path d="M49.221 8.23633C50.6103 8.23633 51.6027 8.53404 51.6027 11.2134C51.6027 13.7936 50.6103 14.0913 49.221 14.0913C47.8317 14.0913 46.8394 13.7936 46.8394 11.2134C46.8394 8.53404 47.8317 8.23633 49.221 8.23633ZM49.221 12.702C49.9157 12.702 50.1142 12.4043 50.1142 11.2134C50.1142 9.82411 50.0149 9.62564 49.221 9.62564C48.5264 9.62564 48.3279 9.82411 48.3279 11.2134C48.3279 12.4043 48.4271 12.702 49.221 12.702Z" fill="#EE8F21"/>
<path d="M53.4884 8.23633H55.2747L57.0609 14.0913H55.4731L55.1754 13.0989H53.5876L53.2899 14.0913H51.7021L53.4884 8.23633ZM54.8777 11.8089L54.4808 10.2211L53.9846 11.8089H54.8777Z" fill="#EE8F21"/>
<path d="M57.458 8.23633H59.0458L60.7328 11.2134V8.23633H62.3206V14.0913H60.7328L59.0458 11.2134V14.0913H57.458V8.23633Z" fill="#EE8F21"/>
</svg>
