<svg width="81" height="86" viewBox="0 0 81 86" fill="none" xmlns="http://www.w3.org/2000/svg">
<path fill-rule="evenodd" clip-rule="evenodd" d="M1.32151 3.70948C1.14828 3.70885 0.976621 3.74242 0.81638 3.80825C0.656139 3.87408 0.510462 3.97088 0.387699 4.09311C0.264935 4.21534 0.167497 4.36059 0.100968 4.52054C0.0344398 4.6805 0.000128412 4.852 0 5.02524V84.6843C0.000261058 85.0335 0.139233 85.3683 0.386343 85.6151C0.633454 85.8618 0.968464 86.0003 1.31768 86H64.3936C64.7428 86.0003 65.0778 85.8618 65.3249 85.6151C65.572 85.3683 65.711 85.0335 65.7112 84.6843V63.7012C65.7123 63.5276 65.6791 63.3555 65.6134 63.1948C65.5477 63.0341 65.4509 62.8879 65.3285 62.7648C65.2061 62.6416 65.0606 62.5439 64.9003 62.4772C64.74 62.4105 64.5681 62.3762 64.3945 62.3762C64.2209 62.3762 64.049 62.4105 63.8887 62.4772C63.7284 62.5439 63.5829 62.6416 63.4605 62.7648C63.3382 62.8879 63.2413 63.0341 63.1756 63.1948C63.11 63.3555 63.0767 63.5276 63.0778 63.7012V83.3666H2.63344V6.34484L47.8756 6.46759C48.0526 6.47494 48.2293 6.44648 48.3951 6.38391C48.5609 6.32135 48.7123 6.22597 48.8404 6.10349C48.9684 5.98101 49.0704 5.83394 49.1403 5.6711C49.2101 5.50826 49.2464 5.333 49.2469 5.15581C49.2474 4.97862 49.2122 4.80315 49.1433 4.6399C49.0744 4.47666 48.9732 4.329 48.8459 4.20578C48.7186 4.08255 48.5677 3.9863 48.4023 3.92277C48.2369 3.85924 48.0603 3.82975 47.8833 3.83607L1.32151 3.70948Z" fill="#EE8F21"/>
<path fill-rule="evenodd" clip-rule="evenodd" d="M33.6344 8.74036C30.7797 8.74036 28.4385 11.0797 28.4385 13.9343C28.4385 16.789 30.7797 19.1302 33.6344 19.1302C36.489 19.1302 38.8284 16.789 38.8284 13.9343C38.8284 11.0797 36.489 8.74036 33.6344 8.74036ZM33.6344 11.1954C35.1622 11.1954 36.3733 12.4065 36.3733 13.9343C36.3733 15.4622 35.1622 16.6752 33.6344 16.6752C32.1065 16.6752 30.8935 15.4622 30.8935 13.9343C30.8935 12.4065 32.1065 11.1954 33.6344 11.1954Z" fill="white"/>
<path d="M25.1757 32.192C25.0074 32.1883 24.84 32.2182 24.6834 32.28C24.5268 32.3417 24.3841 32.4341 24.2636 32.5517C24.1431 32.6693 24.0473 32.8098 23.9817 32.9649C23.9162 33.1199 23.8822 33.2865 23.8818 33.4549C23.8815 33.6233 23.9147 33.79 23.9795 33.9454C24.0443 34.1008 24.1395 34.2416 24.2594 34.3598C24.3794 34.4779 24.5217 34.571 24.678 34.6335C24.8344 34.696 25.0016 34.7267 25.1699 34.7237L41.6629 34.764C41.8313 34.7677 41.9986 34.7378 42.1553 34.676C42.3119 34.6142 42.4546 34.5219 42.5751 34.4043C42.6956 34.2866 42.7914 34.1462 42.8569 33.9911C42.9225 33.836 42.9564 33.6694 42.9568 33.5011C42.9572 33.3327 42.924 33.166 42.8592 33.0106C42.7944 32.8552 42.6992 32.7143 42.5792 32.5962C42.4593 32.478 42.317 32.385 42.1606 32.3225C42.0043 32.26 41.8371 32.2293 41.6687 32.2322L25.1757 32.192Z" fill="white"/>
<path fill-rule="evenodd" clip-rule="evenodd" d="M30.667 20.2657C29.0368 20.2657 27.5555 20.5629 26.3744 21.1269C25.1933 21.691 24.1227 22.6396 24.1227 24.0327V33.4636C24.1204 33.6263 24.1504 33.7878 24.2111 33.9387C24.2717 34.0897 24.3618 34.2271 24.476 34.3429C24.5902 34.4587 24.7263 34.5507 24.8764 34.6135C25.0265 34.6763 25.1875 34.7086 25.3502 34.7086C25.5129 34.7086 25.6739 34.6763 25.824 34.6135C25.9741 34.5507 26.1102 34.4587 26.2244 34.3429C26.3386 34.2271 26.4287 34.0897 26.4893 33.9387C26.55 33.7878 26.58 33.6263 26.5777 33.4636V24.0327C26.5777 24.0192 26.6921 23.6961 27.4332 23.3422C28.1742 22.9884 29.3514 22.7208 30.667 22.7208H36.5994C37.9149 22.7208 39.0921 22.9884 39.8331 23.3422C40.5742 23.6961 40.6886 24.0192 40.6886 24.0327V33.5096C40.6863 33.6723 40.7163 33.8338 40.777 33.9848C40.8377 34.1357 40.9277 34.2731 41.0419 34.3889C41.1561 34.5048 41.2922 34.5968 41.4423 34.6595C41.5924 34.7223 41.7534 34.7547 41.9161 34.7547C42.0788 34.7547 42.2399 34.7223 42.3899 34.6595C42.54 34.5968 42.6761 34.5048 42.7903 34.3889C42.9045 34.2731 42.9946 34.1357 43.0552 33.9848C43.1159 33.8338 43.1459 33.6723 43.1436 33.5096V24.0327C43.1436 22.6396 42.073 21.691 40.8919 21.1269C39.7108 20.5629 38.2295 20.2657 36.5994 20.2657H30.667Z" fill="white"/>
<path d="M6.23357 43.1169C5.91055 43.1169 5.60076 43.2453 5.37235 43.4737C5.14394 43.7021 5.01562 44.0119 5.01562 44.3349C5.01562 44.6579 5.14394 44.9677 5.37235 45.1961C5.60076 45.4245 5.91055 45.5528 6.23357 45.5528L51.328 45.5739C51.6511 45.5739 51.9608 45.4456 52.1893 45.2172C52.4177 44.9888 52.546 44.679 52.546 44.356C52.546 44.033 52.4177 43.7232 52.1893 43.4948C51.9608 43.2664 51.6511 43.138 51.328 43.138L6.23357 43.1169Z" fill="#EE8F21"/>
<path d="M6.23363 38.6653C6.07133 38.6613 5.90989 38.6899 5.7588 38.7493C5.60771 38.8087 5.47003 38.8977 5.35385 39.0111C5.23768 39.1245 5.14536 39.26 5.08232 39.4096C5.01929 39.5592 4.98682 39.7199 4.98682 39.8823C4.98682 40.0446 5.01929 40.2053 5.08232 40.3549C5.14536 40.5045 5.23768 40.64 5.35385 40.7534C5.47003 40.8668 5.60771 40.9558 5.7588 41.0152C5.90989 41.0746 6.07133 41.1032 6.23363 41.0992L51.3281 41.1203C51.4904 41.1243 51.6518 41.0957 51.8029 41.0363C51.954 40.9769 52.0917 40.8879 52.2079 40.7745C52.3241 40.6611 52.4164 40.5256 52.4794 40.376C52.5424 40.2264 52.5749 40.0657 52.5749 39.9033C52.5749 39.741 52.5424 39.5803 52.4794 39.4307C52.4164 39.2811 52.3241 39.1456 52.2079 39.0322C52.0917 38.9188 51.954 38.8298 51.8029 38.7704C51.6518 38.711 51.4904 38.6824 51.3281 38.6864L6.23363 38.6653Z" fill="#EE8F21"/>
<path d="M6.2334 47.5707C6.07111 47.5667 5.90966 47.5953 5.75857 47.6547C5.60748 47.7141 5.46979 47.8031 5.35361 47.9165C5.23744 48.0299 5.14511 48.1654 5.08208 48.315C5.01904 48.4646 4.98657 48.6253 4.98657 48.7877C4.98657 48.95 5.01904 49.1107 5.08208 49.2603C5.14511 49.4099 5.23744 49.5454 5.35361 49.6588C5.46979 49.7722 5.60748 49.8612 5.75857 49.9206C5.90966 49.98 6.07111 50.0086 6.2334 50.0046L51.3279 50.0257C51.4902 50.0297 51.6516 50.0011 51.8027 49.9417C51.9538 49.8823 52.0915 49.7933 52.2077 49.6799C52.3238 49.5665 52.4161 49.431 52.4792 49.2814C52.5422 49.1318 52.5747 48.9711 52.5747 48.8087C52.5747 48.6464 52.5422 48.4857 52.4792 48.3361C52.4161 48.1865 52.3238 48.051 52.2077 47.9376C52.0915 47.8242 51.9538 47.7352 51.8027 47.6758C51.6516 47.6164 51.4902 47.5878 51.3279 47.5918L6.2334 47.5707Z" fill="#EE8F21"/>
<path fill-rule="evenodd" clip-rule="evenodd" d="M64.2343 0C55.3122 9.82024e-08 48.052 7.25831 48.052 16.1804C48.052 25.1025 55.3122 32.3627 64.2343 32.3627C73.1564 32.3627 80.4147 25.1025 80.4147 16.1804C80.4147 7.25831 73.1564 9.82024e-08 64.2343 0ZM64.2343 2.45506C71.8296 2.45506 77.9596 8.58512 77.9596 16.1804C77.9596 23.7756 71.8296 29.9076 64.2343 29.9076C56.639 29.9076 50.5071 23.7756 50.5071 16.1804C50.5071 8.58512 56.639 2.45506 64.2343 2.45506Z" fill="#EE8F21"/>
<path d="M64.2304 31.0642C63.9048 31.0683 63.5942 31.2015 63.3669 31.4346C63.1396 31.6677 63.0142 31.9815 63.0182 32.3071L62.9914 49.0418C62.9888 49.2044 63.0186 49.3659 63.0791 49.517C63.1395 49.668 63.2293 49.8055 63.3434 49.9215C63.4574 50.0375 63.5933 50.1297 63.7433 50.1927C63.8933 50.2557 64.0543 50.2883 64.217 50.2886C64.3796 50.2888 64.5407 50.2568 64.6909 50.1942C64.8411 50.1317 64.9773 50.0399 65.0917 49.9242C65.2061 49.8086 65.2963 49.6714 65.3572 49.5205C65.4181 49.3697 65.4485 49.2082 65.4464 49.0456L65.4733 32.3109C65.4758 32.1468 65.4455 31.9838 65.384 31.8317C65.3225 31.6795 65.2311 31.5412 65.1152 31.425C64.9993 31.3088 64.8613 31.2169 64.7093 31.155C64.5574 31.093 64.3945 31.0621 64.2304 31.0642V31.0642Z" fill="#EE8F21"/>
<path d="M73.0782 27.6788C72.7526 27.6834 72.4422 27.8171 72.2152 28.0505C71.9883 28.284 71.8633 28.598 71.8679 28.9236L71.8468 61.7236C71.8444 61.8862 71.8743 62.0477 71.9349 62.1987C71.9954 62.3497 72.0853 62.4872 72.1995 62.6031C72.3136 62.7191 72.4496 62.8111 72.5996 62.874C72.7496 62.937 72.9107 62.9694 73.0734 62.9695C73.236 62.9697 73.3971 62.9375 73.5472 62.8748C73.6974 62.8121 73.8335 62.7203 73.9478 62.6045C74.0621 62.4888 74.1523 62.3515 74.2131 62.2006C74.2739 62.0497 74.304 61.8882 74.3019 61.7255L74.323 28.9255C74.3255 28.7613 74.2951 28.5982 74.2335 28.4459C74.1719 28.2936 74.0803 28.1552 73.9642 28.039C73.8481 27.9227 73.7099 27.8309 73.5577 27.7691C73.4055 27.7072 73.2424 27.6765 73.0782 27.6788V27.6788Z" fill="#EE8F21"/>
<path d="M55.4017 27.6788C55.0761 27.6834 54.7657 27.8171 54.5387 28.0505C54.3118 28.284 54.1868 28.598 54.1914 28.9236L54.1703 61.7236C54.1679 61.8862 54.1978 62.0477 54.2583 62.1987C54.3189 62.3497 54.4088 62.4872 54.5229 62.6031C54.6371 62.7191 54.7731 62.8111 54.9231 62.874C55.0731 62.937 55.2342 62.9694 55.3968 62.9695C55.5595 62.9697 55.7206 62.9375 55.8707 62.8748C56.0208 62.8121 56.157 62.7203 56.2713 62.6045C56.3856 62.4888 56.4758 62.3515 56.5366 62.2006C56.5973 62.0497 56.6275 61.8882 56.6254 61.7255L56.6465 28.9255C56.649 28.7613 56.6186 28.5982 56.557 28.4459C56.4953 28.2936 56.4038 28.1552 56.2877 28.039C56.1716 27.9227 56.0334 27.8309 55.8812 27.7691C55.729 27.7072 55.5659 27.6765 55.4017 27.6788V27.6788Z" fill="#EE8F21"/>
<path d="M64.0176 55.9676C63.7415 55.9719 63.4748 56.0693 63.2608 56.2439C63.0468 56.4185 62.898 56.6602 62.8383 56.9299C62.7786 57.1996 62.8117 57.4815 62.9321 57.7301C63.0524 57.9787 63.2531 58.1795 63.5017 58.2999L72.4818 62.8379C72.6262 62.9167 72.785 62.9657 72.9487 62.9819C73.1123 62.9981 73.2776 62.9813 73.4347 62.9324C73.5917 62.8835 73.7373 62.8036 73.8629 62.6973C73.9885 62.5911 74.0914 62.4607 74.1655 62.3138C74.2397 62.167 74.2836 62.0068 74.2947 61.8427C74.3057 61.6786 74.2837 61.5139 74.2299 61.3585C74.1761 61.2031 74.0916 61.0601 73.9814 60.9379C73.8712 60.8158 73.7376 60.717 73.5885 60.6475L64.6084 56.1076C64.4263 56.0122 64.2232 55.9641 64.0176 55.9676Z" fill="#EE8F21"/>
<path d="M64.0366 55.9677C63.844 55.9731 63.6555 56.0237 63.4861 56.1154L54.8148 60.6554C54.6719 60.7302 54.5453 60.8324 54.4419 60.9561C54.3386 61.0799 54.2607 61.2228 54.2126 61.3767C54.1645 61.5306 54.1472 61.6924 54.1617 61.853C54.1761 62.0136 54.2221 62.1697 54.2969 62.3125C54.3717 62.4553 54.4739 62.582 54.5977 62.6853C54.7214 62.7887 54.8643 62.8666 55.0182 62.9147C55.1721 62.9628 55.334 62.9801 55.4945 62.9656C55.6551 62.9511 55.8113 62.9052 55.9541 62.8304L64.6235 58.2904C64.8724 58.1646 65.0709 57.9577 65.1866 57.7039C65.3022 57.4502 65.328 57.1646 65.2597 56.8942C65.1913 56.6238 65.033 56.3847 64.8107 56.2163C64.5884 56.048 64.3154 55.9603 64.0366 55.9677Z" fill="#EE8F21"/>
<path d="M6.23357 58.3998C5.91055 58.3998 5.60076 58.5281 5.37235 58.7565C5.14394 58.9849 5.01562 59.2947 5.01562 59.6177C5.01562 59.9407 5.14394 60.2505 5.37235 60.4789C5.60076 60.7073 5.91055 60.8357 6.23357 60.8357L51.328 60.8568C51.6511 60.8568 51.9608 60.7284 52.1893 60.5C52.4177 60.2716 52.546 59.9618 52.546 59.6388C52.546 59.3158 52.4177 59.006 52.1893 58.7776C51.9608 58.5492 51.6511 58.4209 51.328 58.4209L6.23357 58.3998Z" fill="#EE8F21"/>
<path d="M6.23363 53.948C6.07133 53.9441 5.90989 53.9726 5.7588 54.032C5.60771 54.0914 5.47003 54.1804 5.35385 54.2938C5.23768 54.4072 5.14536 54.5427 5.08232 54.6923C5.01929 54.8419 4.98682 55.0026 4.98682 55.165C4.98682 55.3273 5.01929 55.488 5.08232 55.6376C5.14536 55.7872 5.23768 55.9227 5.35385 56.0361C5.47003 56.1495 5.60771 56.2385 5.7588 56.2979C5.90989 56.3573 6.07133 56.3859 6.23363 56.382L51.3281 56.403C51.4904 56.407 51.6518 56.3784 51.8029 56.319C51.954 56.2596 52.0917 56.1706 52.2079 56.0572C52.3241 55.9438 52.4164 55.8083 52.4794 55.6587C52.5424 55.5091 52.5749 55.3484 52.5749 55.1861C52.5749 55.0237 52.5424 54.863 52.4794 54.7134C52.4164 54.5638 52.3241 54.4283 52.2079 54.3149C52.0917 54.2015 51.954 54.1125 51.8029 54.0531C51.6518 53.9937 51.4904 53.9652 51.3281 53.9691L6.23363 53.948Z" fill="#EE8F21"/>
<path d="M6.2334 62.8534C6.07111 62.8495 5.90966 62.878 5.75857 62.9374C5.60748 62.9968 5.46979 63.0858 5.35361 63.1992C5.23744 63.3126 5.14511 63.4481 5.08208 63.5977C5.01904 63.7473 4.98657 63.908 4.98657 64.0704C4.98657 64.2327 5.01904 64.3934 5.08208 64.543C5.14511 64.6926 5.23744 64.8281 5.35361 64.9415C5.46979 65.0549 5.60748 65.1439 5.75857 65.2033C5.90966 65.2627 6.07111 65.2913 6.2334 65.2873L51.3279 65.3084C51.4902 65.3124 51.6516 65.2838 51.8027 65.2244C51.9538 65.165 52.0915 65.076 52.2077 64.9626C52.3238 64.8492 52.4161 64.7137 52.4792 64.5641C52.5422 64.4145 52.5747 64.2538 52.5747 64.0915C52.5747 63.9291 52.5422 63.7684 52.4792 63.6188C52.4161 63.4692 52.3238 63.3337 52.2077 63.2203C52.0915 63.1069 51.9538 63.0179 51.8027 62.9585C51.6516 62.8991 51.4902 62.8705 51.3279 62.8745L6.2334 62.8534Z" fill="#EE8F21"/>
<path d="M30.0841 69.4724C29.4214 69.5098 28.7729 69.6945 28.1872 69.9711C27.0156 70.5241 25.9778 71.4082 25.032 72.3858C23.1406 74.3411 21.6318 76.715 20.9543 77.8464C20.8658 77.9848 20.8059 78.1396 20.7782 78.3016C20.7506 78.4636 20.7558 78.6294 20.7934 78.7894C20.8311 78.9493 20.9004 79.1001 20.9974 79.2327C21.0944 79.3654 21.217 79.4772 21.358 79.5616C21.499 79.6459 21.6556 79.7011 21.8183 79.7239C21.981 79.7467 22.1467 79.7366 22.3054 79.6941C22.4642 79.6517 22.6128 79.5778 22.7424 79.4769C22.8721 79.376 22.9802 79.25 23.0603 79.1066C23.6826 78.0673 25.1492 75.7958 26.7966 74.0929C27.6203 73.2414 28.4935 72.5419 29.2344 72.1921C29.9186 71.8691 30.3707 71.8804 30.8321 72.0713C30.8811 72.1401 30.955 72.2358 31.0162 72.4127C31.1602 72.8283 31.2999 73.4428 31.4056 74.0814C31.617 75.3584 31.7086 76.8111 31.7086 77.1674C31.7086 76.8568 31.5927 77.4022 31.396 77.8675C31.2976 78.1002 31.1613 78.309 31.1524 78.8208C31.148 79.0767 31.2155 79.5049 31.5456 79.845C31.8757 80.1851 32.3156 80.2727 32.5948 80.2727C32.5949 80.2727 33.0184 80.198 33.0186 80.1979C33.0189 80.1978 33.2159 80.1041 33.2162 80.1039C33.2168 80.1036 33.3516 80.0129 33.385 79.985C33.4517 79.9293 33.4753 79.9035 33.4962 79.8814C33.538 79.8373 33.5537 79.8161 33.571 79.7951C33.6057 79.7531 33.6326 79.7182 33.665 79.6762C33.7299 79.5923 33.8109 79.4871 33.9105 79.3578C34.1098 79.0994 34.3785 78.7544 34.6777 78.4027C34.9087 78.1311 35.0277 78.0757 35.28 77.8388C35.2831 77.8935 35.2817 77.9393 35.3126 78.0632C35.333 78.1453 35.352 78.255 35.4814 78.4544C35.546 78.5542 35.6459 78.6823 35.8228 78.8035C35.9112 78.8641 36.1384 78.9605 36.1392 78.9608C36.1401 78.9611 36.52 79.0203 36.5209 79.0203C36.8163 79.0203 36.8972 78.9096 37.0465 78.8246C37.154 78.9057 37.1359 78.9846 37.3629 79.0414C37.9278 79.1824 37.9992 79.0821 38.2356 79.0529C38.4721 79.0236 38.7196 78.9829 38.9549 78.9397C39.1858 78.8973 39.4002 78.8527 39.5591 78.8208C40.0068 79.055 40.4301 79.3598 40.9228 79.4576C41.716 79.6149 42.5628 79.6621 43.3932 79.659C45.0539 79.6527 46.5882 79.4502 47.375 79.2754C47.5363 79.2444 47.6898 79.1814 47.8264 79.0901C47.9629 78.9988 48.0798 78.881 48.17 78.7437C48.2602 78.6064 48.3219 78.4524 48.3515 78.2908C48.3811 78.1292 48.378 77.9633 48.3423 77.8029C48.3066 77.6426 48.2391 77.491 48.1437 77.3572C48.0484 77.2234 47.9272 77.1101 47.7872 77.024C47.6473 76.9379 47.4915 76.8808 47.3291 76.856C47.1667 76.8313 47.001 76.8393 46.8418 76.8798C46.3799 76.9824 44.83 77.1984 43.3836 77.2039C42.6604 77.2066 41.9472 77.159 41.4004 77.0505C40.8535 76.942 40.5062 76.7413 40.4624 76.6975C40.4624 76.6975 39.9869 76.4022 39.9868 76.4022C39.9867 76.4021 39.7625 76.3504 39.7624 76.3504C39.7621 76.3503 39.6132 76.3384 39.5763 76.3389C39.5025 76.3399 39.4766 76.344 39.4536 76.3465C39.4075 76.3516 39.3904 76.3532 39.373 76.3562C39.3383 76.362 39.3164 76.3681 39.2886 76.3734C39.233 76.3842 39.1663 76.3959 39.0872 76.4118C38.9292 76.4435 38.722 76.4864 38.5118 76.5249C38.3889 76.5475 38.2871 76.5609 38.1743 76.5787C38.048 76.4208 37.9043 76.2595 37.5777 76.1471C37.541 75.8848 37.5442 75.6396 37.3303 75.2974C37.1737 75.0468 36.8858 74.7477 36.4768 74.6108C36.0679 74.4738 35.6363 74.5365 35.326 74.6606C34.8 74.871 34.3847 75.1896 34.0064 75.5333C33.9529 74.8991 33.9547 74.4458 33.828 73.6805C33.7088 72.9604 33.558 72.247 33.337 71.6091C33.1161 70.9712 32.9494 70.3095 32.0615 69.8656C31.4227 69.5462 30.7467 69.435 30.0841 69.4724L30.0841 69.4724ZM38.7267 78.4333C38.9427 78.6493 39.2341 78.6482 39.4785 78.7843C39.4606 78.783 39.4266 78.7805 39.4267 78.7805C39.4269 78.7805 39.2022 78.7287 39.2023 78.7287C39.2024 78.7288 38.7266 78.4333 38.7267 78.4333L38.7267 78.4333Z" fill="white"/>
</svg>
