<svg width="76" height="65" viewBox="0 0 76 65" fill="none" xmlns="http://www.w3.org/2000/svg">
<path d="M26.4963 0C23.023 0 20.2443 2.77861 20.2443 6.2519V57.2595C20.2443 60.7328 23.023 63.5115 26.4963 63.5115H44.0611V0.0992427H26.4963V0Z" fill="white"/>
<path d="M61.7252 0H44.1603V63.4122H61.7252C65.1985 63.4122 67.9771 60.6336 67.9771 57.1603V6.15265C67.9771 2.77861 65.1985 0 61.7252 0Z" fill="white"/>
<path d="M20.3435 57.9541C20.7405 61.0304 23.3206 63.4121 26.4962 63.4121H61.7252C64.9008 63.4121 67.4809 61.0304 67.8778 57.9541H20.3435Z" fill="white"/>
<path d="M48.7252 0H46.9389H18.855C15.6794 0 13.0992 2.38168 12.7023 5.45802H46.9389H48.7252H55.4733C55.8702 2.38168 58.4504 0 61.626 0H48.7252Z" fill="#E0E0E0"/>
<path d="M39.1985 63.4121H40.9847H69.0687C72.2443 63.4121 74.8244 61.0304 75.2214 57.9541H40.9847H39.1985H32.4504C32.0535 61.0304 29.4733 63.4121 26.2977 63.4121H39.1985Z" fill="#E0E0E0"/>
<path d="M63.7099 16.2749H24.2137V21.4352H63.7099V16.2749Z" fill="#2D4375"/>
<path d="M63.7099 25.2061H24.2137V30.3664H63.7099V25.2061Z" fill="#2D4375"/>
<path d="M63.7099 34.2368H24.2137V39.3971H63.7099V34.2368Z" fill="#2D4375"/>
<path d="M56.565 44.4578C54.2825 44.6562 52.5955 46.641 52.794 48.9234C52.9925 51.2058 54.9772 52.8929 57.2596 52.6944C59.5421 52.4959 61.2291 50.5112 61.0306 48.2288C60.9314 45.9463 58.8474 44.2593 56.565 44.4578Z" fill="#3A9E32"/>
<path d="M63.1145 48.6255C63.1145 51.801 60.7328 54.4804 57.5573 54.7781C55.771 54.9766 53.9848 54.2819 52.7939 53.0911L52 53.3888C53.3893 54.8774 55.4733 55.6713 57.5573 55.4728C61.229 55.1751 64.0076 51.9003 63.8092 48.2285L63.1145 48.6255Z" fill="#3A9E32"/>
<path d="M50.9084 48.7251C50.9084 45.5495 53.2901 42.8701 56.4657 42.5724C58.252 42.3739 60.0382 43.0686 61.2291 44.2594L62.023 43.9617C60.6336 42.4732 58.5497 41.6793 56.4657 41.8777C52.7939 42.1754 50.0153 45.4503 50.2138 49.122L50.9084 48.7251Z" fill="#3A9E32"/>
<path d="M64.21 43.647L48.3657 50.5107L49.7068 53.6068L65.5512 46.7431L64.21 43.647Z" fill="#3A9E32"/>
<path d="M50.4123 50.3127L50.9085 50.1143L52.397 51.8013L51.9008 51.9997L51.6031 51.7021L51.0077 51.9997V52.4959L50.5115 52.6944L50.4123 50.3127ZM51.4047 51.3051L50.9085 50.7097L51.0077 51.4043L51.4047 51.3051Z" fill="white"/>
<path d="M51.7024 49.7176L52.5955 49.3206C52.8932 49.2214 53.1909 49.1222 53.4886 49.7176C53.7864 50.313 53.3894 50.5115 53.1909 50.6107C53.0917 50.6107 52.794 50.71 52.6948 50.71L52.9925 51.5038L52.4963 51.7023L51.7024 49.7176ZM52.8932 50.313C52.9925 50.313 52.9925 50.2138 52.9925 50.0153C52.8932 49.8168 52.794 49.8168 52.6948 49.8168L52.2978 50.0153L52.4963 50.5115L52.8932 50.313Z" fill="white"/>
<path d="M53.3894 49.0232L54.2826 48.6263C54.5803 48.5271 54.878 48.4278 55.1757 49.0232C55.4734 49.6186 55.0764 49.8171 54.878 49.9164C54.7787 49.9164 54.481 50.0156 54.3818 50.0156L54.6795 50.8095L54.1833 51.008L53.3894 49.0232ZM54.5803 49.5194C54.6795 49.5194 54.6795 49.4202 54.6795 49.2217C54.5803 49.0232 54.481 49.0232 54.3818 49.0232L53.9848 49.2217L54.1833 49.7179L54.5803 49.5194Z" fill="white"/>
<path d="M55.0764 48.3282L55.9695 47.9313C56.2672 47.832 56.565 47.832 56.8627 48.3282C57.0611 48.8244 56.9619 48.9236 56.7635 49.0229L57.4581 49.6183L56.9619 49.8167L56.3665 49.2213L56.0688 49.3206L56.3665 50.1145L55.8703 50.3129L55.0764 48.3282ZM56.2673 48.8244C56.3665 48.7251 56.4657 48.7252 56.3665 48.5267C56.2672 48.3282 56.168 48.3282 56.0688 48.3282L55.6718 48.5267L55.8703 49.0229L56.2673 48.8244Z" fill="white"/>
<path d="M57.4581 47.2364C57.9543 47.0379 58.3512 46.9387 58.7482 47.931C59.1451 48.8242 58.8474 49.0226 58.3512 49.3204C57.855 49.5188 57.4581 49.6181 57.0611 48.6257C56.6642 47.6334 56.9619 47.4349 57.4581 47.2364ZM58.1528 48.8242C58.4505 48.7249 58.4505 48.5265 58.252 48.0303C58.0535 47.4349 57.855 47.4349 57.6566 47.5341C57.3589 47.6333 57.3589 47.7326 57.5573 48.328C57.7558 48.9234 57.855 49.0226 58.1528 48.8242Z" fill="white"/>
<path d="M58.8474 46.6407L59.8397 47.9308L59.6413 46.343L60.1375 46.1445L60.3359 48.427L59.8397 48.6254L58.3512 46.8392L58.8474 46.6407Z" fill="white"/>
<path d="M60.4352 46.4429C60.2367 46.046 60.5345 45.8475 60.7329 45.8475C60.7329 45.8475 61.4276 45.5498 61.6261 45.5498L61.8245 45.9467L61.0306 46.2445C60.9314 46.3437 60.9314 46.3437 60.9314 46.4429L61.0306 46.6414L61.8245 46.3437L62.023 46.7407L61.2291 47.1376L61.3283 47.3361C61.4276 47.4353 61.5268 47.4353 61.5268 47.4353L62.2215 47.1376L62.4199 47.5345C62.2215 47.6338 61.6261 47.9315 61.6261 47.9315C61.4276 48.0307 61.1299 48.13 60.9314 47.733L60.4352 46.4429Z" fill="white"/>
<path d="M61.7253 45.351L62.6184 44.954C63.2138 44.7556 63.5115 45.1525 63.71 45.6487C64.0077 46.2441 63.9085 46.7403 63.4123 46.9388L62.5192 47.3357L61.7253 45.351ZM63.313 46.6411C63.5115 46.5418 63.5115 46.3434 63.313 45.9464C63.1146 45.4502 62.9161 45.351 62.7176 45.4502L62.3207 45.6487L62.8169 46.8395L63.313 46.6411Z" fill="white"/>
<path d="M10.8168 55.0767V62.1225C10.8168 63.7103 9.52673 64.9011 8.03819 64.9011H5.65651C4.06873 64.9011 2.77863 63.6111 2.77863 62.0233V54.9775C2.77863 53.3897 4.06873 52.0996 5.65651 52.0996H7.93894C9.52673 52.2981 10.8168 53.5882 10.8168 55.0767Z" fill="#393C41"/>
<path d="M7.54202 59.1455H7.14508V65.0005H7.54202V59.1455Z" fill="#2A2D30"/>
<path d="M6.35116 59.1455H5.95422V65.0005H6.35116V59.1455Z" fill="#2A2D30"/>
<path d="M10.8168 59.6416V60.237L7.64123 63.4126L7.44275 63.6111V62.9164L7.64123 62.8172L10.8168 59.6416Z" fill="#2A2D30"/>
<path d="M10.8168 61.5273V62.1228L7.93893 65.0006H7.44275V64.9014L7.64123 64.7029L10.8168 61.5273Z" fill="#2A2D30"/>
<path d="M10.8168 57.6572V58.3519L7.64123 61.5274L7.44275 61.6267V61.0313L7.64123 60.8328L10.8168 57.6572Z" fill="#2A2D30"/>
<path d="M2.77863 59.6416V60.237L5.95421 63.4126L6.1527 63.6111V62.9164L5.95421 62.8172L2.77863 59.6416Z" fill="#2A2D30"/>
<path d="M2.77863 61.5273V62.1228L5.55727 65.0006H6.1527V64.9014L5.95421 64.7029L2.77863 61.5273Z" fill="#2A2D30"/>
<path d="M2.77863 57.6572V58.3519L5.95421 61.5274L6.1527 61.6267V61.0313L5.95421 60.8328L2.77863 57.6572Z" fill="#2A2D30"/>
<path d="M45.0534 55.0767V62.1225C45.0534 63.7103 43.7634 64.9011 42.2748 64.9011H39.8931C38.3054 64.9011 37.0153 63.6111 37.0153 62.0233V54.9775C37.0153 53.3897 38.3054 52.0996 39.8931 52.0996H42.1756C43.7634 52.2981 45.0534 53.5882 45.0534 55.0767Z" fill="#393C41"/>
<path d="M41.8778 59.1455H41.4808V65.0005H41.8778V59.1455Z" fill="#2A2D30"/>
<path d="M40.687 59.1455H40.29V65.0005H40.687V59.1455Z" fill="#2A2D30"/>
<path d="M45.0534 59.6416V60.237L41.8779 63.4126L41.7786 63.6111V62.9164L41.8779 62.8172L45.0534 59.6416Z" fill="#2A2D30"/>
<path d="M45.0534 61.5273V62.1228L42.2748 65.0006H41.7786V64.9014L41.8779 64.7029L45.0534 61.5273Z" fill="#2A2D30"/>
<path d="M45.0534 57.6572V58.3519L41.8779 61.5274L41.7786 61.6267V61.0313L41.8779 60.8328L45.0534 57.6572Z" fill="#2A2D30"/>
<path d="M37.1145 59.6416V60.237L40.2901 63.4126L40.3893 63.6111V62.9164L40.2901 62.8172L37.1145 59.6416Z" fill="#2A2D30"/>
<path d="M37.1145 61.5273V62.1228L39.8931 65.0006H40.3893V64.9014L40.2901 64.7029L37.1145 61.5273Z" fill="#2A2D30"/>
<path d="M37.1145 57.6572V58.3519L40.2901 61.5274L40.3893 61.6267V61.0313L40.2901 60.8328L37.1145 57.6572Z" fill="#2A2D30"/>
<path d="M45.1527 37.4126H42.1756C41.2825 37.4126 40.5878 38.1073 40.5878 39.0004V39.0996L38.4046 40.7867L38.8015 41.2829L40.7863 39.7943C41.084 40.2905 41.5802 40.6874 42.1756 40.6874H45.1527C46.0458 40.6874 46.7405 39.9928 46.7405 39.0996C46.7405 38.1073 46.0458 37.4126 45.1527 37.4126Z" fill="#2A2D30"/>
<path d="M2.58016 37.4126H5.55726C6.45039 37.4126 7.14505 38.1073 7.14505 39.0004V39.0996L9.32824 40.7867L8.9313 41.2829L6.94657 39.7943C6.64886 40.2905 6.15268 40.6874 5.55726 40.6874H2.58016C1.68703 40.6874 0.992371 39.9928 0.992371 39.0996C0.992371 38.1073 1.78627 37.4126 2.58016 37.4126Z" fill="#2A2D30"/>
<path d="M47.6336 48.8253C47.6336 48.2299 47.2367 47.436 46.8397 46.9398C45.5496 45.4513 44.2596 43.8635 42.8702 42.3749C42.4733 41.978 41.6794 41.5811 41.084 41.5811C35.229 41.5811 29.374 41.5811 23.6183 41.5811C17.9618 41.5811 12.3054 41.5811 6.64887 41.5811C6.05345 41.5811 5.25954 41.978 4.86259 42.3749C3.57251 43.8635 2.1832 45.352 0.893124 46.9398C0.496177 47.436 0.198479 48.2299 0.0992427 48.7261C0.0992427 49.3215 0.0992366 49.6192 0 50.2147C0 53.0925 0.198473 55.9704 0.496183 58.8482C0.694656 60.2375 2.28244 61.3291 3.87022 61.3291C10.4198 61.3291 16.9695 61.3291 23.5191 61.3291C30.2672 61.3291 36.916 61.3291 43.6641 61.3291C45.2519 61.3291 46.8397 60.2375 47.0382 58.8482C47.1374 58.4513 47.1374 58.2528 47.1374 57.8559C47.7328 54.978 47.8321 51.9017 47.6336 48.8253Z" fill="#EE8F21"/>
<path d="M38.4046 30.367C38.4046 29.2754 31.855 28.4814 23.8168 28.4814H23.7176V42.2754H42.5726L38.4046 30.367Z" fill="#EE8F21"/>
<path d="M9.22902 30.367L5.16034 42.2754H23.6183V28.4814C15.6794 28.4814 9.22902 29.2754 9.22902 30.367Z" fill="#EE8F21"/>
<path d="M37.5114 30.7637C36.4198 30.1683 31.3588 29.4736 23.916 29.4736C23.8168 29.4736 23.8168 29.4736 23.7175 29.4736C16.374 29.4736 11.4122 30.1683 10.3206 30.7637L7.14502 40.6874H23.8168H40.7862L37.5114 30.7637Z" fill="#1E2D4F"/>
<path d="M32.3511 55.0772C32.3511 55.5734 31.9542 55.9703 31.458 55.9703H16.4733C15.9771 55.9703 15.5801 55.5734 15.5801 55.0772V50.9092C15.5801 50.4131 15.9771 50.0161 16.4733 50.0161H31.458C31.9542 50.0161 32.3511 50.4131 32.3511 50.9092V55.0772Z" fill="#2A2D30"/>
<path d="M7.24429 44.7563V50.0159H6.74811V52.2983H12.3054V50.0159C12.3054 47.138 10.0229 44.7563 7.24429 44.7563Z" fill="#F4B938"/>
<path d="M5.16033 54.7795C3.37407 54.7795 1.98474 53.3902 1.98474 51.6039V51.5047C1.98474 49.7184 3.37407 48.3291 5.16033 48.3291C6.94659 48.8253 12.9008 50.7108 12.5038 52.2986C12.1069 53.8864 11.313 54.6803 9.82443 54.6803H5.16033V54.7795Z" fill="#F4B938"/>
<path d="M12.3053 52.2982C12.0076 53.6875 11.313 54.4814 9.92364 54.4814H5.1603C3.57251 54.4814 2.28241 53.1913 2.28241 51.6036V51.5043C2.28241 49.9165 3.57251 48.6265 5.1603 48.6265C5.1603 48.7257 12.603 50.9089 12.3053 52.2982Z" fill="#FFFBFF"/>
<path d="M40.687 44.7563V50.0159H41.1832V52.2983H35.6259V50.0159C35.5267 47.138 37.8091 44.7563 40.687 44.7563Z" fill="#F4B938"/>
<path d="M42.771 54.7795C44.5572 54.7795 45.9465 53.3902 45.9465 51.6039V51.5047C45.9465 49.7184 44.5572 48.3291 42.771 48.3291C40.9847 48.8253 35.0305 50.7108 35.4274 52.2986C35.8244 53.8864 36.6183 54.6803 38.1068 54.6803H42.771V54.7795Z" fill="#F4B938"/>
<path d="M35.5267 52.2982C35.8244 53.6875 36.519 54.4814 37.9084 54.4814H42.6717C44.2595 54.4814 45.5496 53.1913 45.5496 51.6036V51.5043C45.5496 49.9165 44.2595 48.6265 42.6717 48.6265C42.7709 48.7257 35.2289 50.9089 35.5267 52.2982Z" fill="#FFFBFF"/>
<path d="M7.9389 37.909L7.04578 40.5884H23.7175H40.687L38.2061 33.0464L7.9389 37.909Z" fill="#1E2D4F"/>
<path d="M37.5114 30.7637C36.4198 30.1683 31.3588 29.4736 23.916 29.4736C23.8168 29.4736 23.8168 29.4736 23.7175 29.4736C16.374 29.4736 11.4122 30.1683 10.3206 30.7637L8.03815 37.9087L38.3053 33.0462L37.5114 30.7637Z" fill="#2D4375"/>
<path d="M39.5954 56.5654L38.8016 57.657H9.12982L8.3359 56.5654H0.396973C0.496209 57.3593 0.496221 58.1532 0.595458 59.0463C0.793931 60.4357 2.38171 61.5273 3.9695 61.5273C10.5191 61.5273 17.0687 61.5273 23.6183 61.5273H43.7634C45.3512 61.5273 46.939 60.4357 47.1374 59.0463C47.2367 58.6494 47.2367 58.4509 47.2367 58.054C47.3359 57.5578 47.3359 57.0616 47.4351 56.5654H39.5954Z" fill="#2A2D30"/>
<path d="M31.458 60.1381C31.458 60.535 31.1603 60.9319 30.6641 60.9319H17.1679C16.771 60.9319 16.374 60.6342 16.374 60.1381V58.9472C16.374 58.5503 16.6717 58.1533 17.1679 58.1533H30.6641C31.061 58.1533 31.458 58.451 31.458 58.9472V60.1381Z" fill="#FFFBFF"/>
<path d="M27.6871 8.23633C28.8779 8.23633 29.0764 8.33558 29.771 8.53406V9.72488C29.771 9.72488 28.9771 9.62564 28.1832 9.62564C27.4886 9.62564 27.1909 9.62564 27.1909 11.2134C27.1909 12.5035 27.3894 12.8012 28.1832 12.8012C28.9771 12.8012 29.771 12.702 29.771 12.702V13.8928C29.2749 14.0913 28.8779 14.1905 27.6871 14.1905C26.1985 14.1905 25.7023 13.1982 25.7023 11.2134C25.7023 9.32793 26.0993 8.23633 27.6871 8.23633Z" fill="#EE8F21"/>
<path d="M31.9542 8.23633H33.7405L35.5267 14.0913H33.939L33.6413 13.0989H32.0535L31.7558 14.0913H30.168L31.9542 8.23633ZM33.3436 11.8089L32.9466 10.2211L32.4504 11.8089H33.3436Z" fill="#EE8F21"/>
<path d="M36.0229 8.23633H38.6031C39.5954 8.23633 40.3894 8.63327 40.3894 10.1218C40.3894 11.5111 39.8931 11.7096 39.4962 11.9081L40.4886 14.0913H38.7023L37.9084 12.0073L37.4123 11.9081V14.0913H35.8245V8.23633H36.0229ZM38.4046 10.7172C38.8016 10.7172 38.8016 10.5188 38.8016 10.1218C38.8016 9.72487 38.7023 9.52642 38.4046 9.52642H37.5115V10.7172H38.4046Z" fill="#EE8F21"/>
<path d="M42.8703 8.23633H44.4581V12.305C44.4581 12.702 44.7558 12.702 44.9542 12.702H46.6413V14.0913H44.2596C43.565 14.0913 42.9695 13.7936 42.9695 12.8012V8.23633H42.8703Z" fill="#EE8F21"/>
<path d="M49.2215 8.23633C50.6108 8.23633 51.6031 8.53404 51.6031 11.2134C51.6031 13.7936 50.6108 14.0913 49.2215 14.0913C47.8321 14.0913 46.8398 13.7936 46.8398 11.2134C46.8398 8.53404 47.8321 8.23633 49.2215 8.23633ZM49.2215 12.702C49.9161 12.702 50.1146 12.4043 50.1146 11.2134C50.1146 9.82411 50.0153 9.62564 49.2215 9.62564C48.5268 9.62564 48.3283 9.82411 48.3283 11.2134C48.3283 12.4043 48.4276 12.702 49.2215 12.702Z" fill="#EE8F21"/>
<path d="M53.4886 8.23633H55.2749L57.0611 14.0913H55.4733L55.1756 13.0989H53.5878L53.2901 14.0913H51.7023L53.4886 8.23633ZM54.8779 11.8089L54.4809 10.2211L53.9848 11.8089H54.8779Z" fill="#EE8F21"/>
<path d="M57.4581 8.23633H59.0459L60.7329 11.2134V8.23633H62.3207V14.0913H60.7329L59.0459 11.2134V14.0913H57.4581V8.23633Z" fill="#EE8F21"/>
</svg>
