<svg width="32" height="32" viewBox="0 0 32 32" fill="none" xmlns="http://www.w3.org/2000/svg">
<path d="M13.3334 20.0003L20.2534 16.0003L13.3334 12.0003V20.0003ZM28.7467 9.56033C28.92 10.187 29.04 11.027 29.12 12.0937C29.2134 13.1603 29.2534 14.0803 29.2534 14.8803L29.3334 16.0003C29.3334 18.9203 29.12 21.067 28.7467 22.4403C28.4134 23.6403 27.64 24.4137 26.44 24.747C25.8134 24.9203 24.6667 25.0403 22.9067 25.1203C21.1734 25.2137 19.5867 25.2537 18.12 25.2537L16 25.3337C10.4134 25.3337 6.93335 25.1203 5.56002 24.747C4.36002 24.4137 3.58669 23.6403 3.25335 22.4403C3.08002 21.8137 2.96002 20.9737 2.88002 19.907C2.78669 18.8403 2.74669 17.9203 2.74669 17.1203L2.66669 16.0003C2.66669 13.0803 2.88002 10.9337 3.25335 9.56033C3.58669 8.36033 4.36002 7.58699 5.56002 7.25366C6.18669 7.08033 7.33335 6.96033 9.09335 6.88033C10.8267 6.78699 12.4134 6.74699 13.88 6.74699L16 6.66699C21.5867 6.66699 25.0667 6.88033 26.44 7.25366C27.64 7.58699 28.4134 8.36033 28.7467 9.56033Z" fill="#0F206C"/>
</svg>
