<svg width="85" height="82" viewBox="0 0 85 82" fill="none" xmlns="http://www.w3.org/2000/svg">
<path d="M73.2144 4.39286C73.2144 3.2278 72.7516 2.11046 71.9278 1.28664C71.104 0.462818 69.9866 0 68.8216 0C67.6565 0 66.5392 0.462818 65.7154 1.28664C64.8915 2.11046 64.4287 3.2278 64.4287 4.39286V5.85714H73.2144V4.39286Z" fill="#0F206C"/>
<path d="M31.4294 14.0286C31.6581 14.0803 31.8709 14.1861 32.0502 14.3371C32.2294 14.4882 32.3698 14.6801 32.4595 14.8966C32.5491 15.1132 32.5855 15.3481 32.5655 15.5817C32.5455 15.8152 32.4698 16.0405 32.3446 16.2387C32.239 16.406 32.1934 16.6041 32.2153 16.8007C32.2372 16.9973 32.3254 17.1806 32.4653 17.3204C32.6052 17.4602 32.7884 17.5483 32.985 17.5702C33.1816 17.5921 33.3798 17.5464 33.547 17.4407C33.7451 17.3156 33.9705 17.2399 34.204 17.2199C34.4375 17.1999 34.6724 17.2363 34.889 17.326C35.1055 17.4157 35.2974 17.556 35.4484 17.7352C35.5994 17.9144 35.7052 18.1273 35.7569 18.3559C35.8005 18.5488 35.9084 18.7211 36.0629 18.8446C36.2173 18.9681 36.4092 19.0353 36.607 19.0353C36.8047 19.0353 36.9966 18.9681 37.1511 18.8446C37.3055 18.7211 37.4134 18.5488 37.457 18.3559C37.5087 18.1273 37.6145 17.9144 37.7655 17.7352C37.9166 17.556 38.1084 17.4157 38.325 17.326C38.5415 17.2363 38.7764 17.1999 39.0099 17.2199C39.2435 17.2399 39.4688 17.3156 39.667 17.4407C39.8341 17.5464 40.0323 17.5921 40.2289 17.5702C40.4255 17.5483 40.6088 17.4602 40.7486 17.3204C40.8885 17.1806 40.9767 16.9973 40.9986 16.8007C41.0205 16.6041 40.9749 16.406 40.8693 16.2387C40.7441 16.0405 40.6684 15.8152 40.6484 15.5817C40.6284 15.3481 40.6648 15.1132 40.7545 14.8966C40.8441 14.6801 40.9845 14.4882 41.1637 14.3371C41.343 14.1861 41.5559 14.0803 41.7845 14.0286C41.9774 13.985 42.1497 13.8771 42.2732 13.7226C42.3967 13.5682 42.4639 13.3763 42.4639 13.1786C42.4639 12.9808 42.3967 12.7889 42.2732 12.6345C42.1497 12.48 41.9774 12.3721 41.7845 12.3285C41.5559 12.2769 41.343 12.171 41.1637 12.02C40.9845 11.8689 40.8441 11.6771 40.7545 11.4605C40.6648 11.2439 40.6284 11.009 40.6484 10.7754C40.6684 10.5419 40.7441 10.3166 40.8693 10.1184C40.9749 9.95117 41.0204 9.75303 40.9985 9.55651C40.9765 9.35999 40.8884 9.17677 40.7486 9.03696C40.6087 8.89715 40.4255 8.80905 40.229 8.78714C40.0325 8.76523 39.8343 8.8108 39.6671 8.91639C39.469 9.04155 39.2436 9.11731 39.0101 9.1373C38.7765 9.15728 38.5416 9.12091 38.325 9.03123C38.1085 8.94156 37.9166 8.8012 37.7655 8.62196C37.6145 8.44272 37.5087 8.22984 37.457 8.00121C37.4134 7.80831 37.3055 7.63598 37.1511 7.51251C36.9966 7.38904 36.8047 7.32178 36.607 7.32178C36.4092 7.32178 36.2173 7.38904 36.0629 7.51251C35.9084 7.63598 35.8005 7.80831 35.7569 8.00121C35.7053 8.22984 35.5994 8.44272 35.4484 8.62196C35.2973 8.8012 35.1055 8.94156 34.8889 9.03123C34.6723 9.12091 34.4374 9.15728 34.2039 9.1373C33.9703 9.11731 33.745 9.04155 33.5468 8.91639C33.3796 8.8108 33.1815 8.76523 32.9849 8.78714C32.7884 8.80905 32.6052 8.89715 32.4653 9.03696C32.3255 9.17677 32.2374 9.35999 32.2154 9.55651C32.1935 9.75303 32.2391 9.95117 32.3446 10.1184C32.4698 10.3166 32.5455 10.5419 32.5655 10.7754C32.5855 11.009 32.5491 11.2439 32.4595 11.4605C32.3698 11.6771 32.2294 11.8689 32.0502 12.02C31.8709 12.171 31.6581 12.2769 31.4294 12.3285C31.2365 12.3721 31.0642 12.48 30.9407 12.6345C30.8173 12.7889 30.75 12.9808 30.75 13.1786C30.75 13.3763 30.8173 13.5682 30.9407 13.7226C31.0642 13.8771 31.2365 13.985 31.4294 14.0286Z" fill="#0F206C"/>
<path d="M11.7139 4.39286V73.2143H51.2496C51.6379 73.2143 52.0104 73.3686 52.285 73.6432C52.5596 73.9178 52.7139 74.2902 52.7139 74.6786V77.6071C52.7139 78.7722 53.1767 79.8895 54.0005 80.7134C54.8243 81.5372 55.9417 82 57.1067 82C58.2718 82 59.3891 81.5372 60.2129 80.7134C61.0368 79.8895 61.4996 78.7722 61.4996 77.6071V4.39286C61.4978 2.80787 62.0131 1.26557 62.9673 0H16.1067C14.9421 0.00135638 13.8255 0.464609 13.002 1.28814C12.1785 2.11166 11.7152 3.22822 11.7139 4.39286ZM19.0353 64.4286H16.1067V61.5H19.0353V64.4286ZM19.0353 52.7143H16.1067V49.7857H19.0353V52.7143ZM57.1067 64.4286H48.321V61.5H57.1067V64.4286ZM57.1067 58.5714H33.6782V55.6429H57.1067V58.5714ZM57.1067 46.8571H48.321V43.9286H57.1067V46.8571ZM33.6782 27.8214V24.8929H48.321V27.8214H33.6782ZM43.9282 30.75V33.6786H29.2853V30.75H43.9282ZM29.2996 10.1519C29.2277 9.57259 29.289 8.98454 29.4787 8.43249C29.6684 7.88043 29.9816 7.37894 30.3943 6.96617C30.8071 6.55341 31.3086 6.24025 31.8606 6.05054C32.4127 5.86084 33.0007 5.79957 33.58 5.87142C33.9389 5.41099 34.398 5.03848 34.9225 4.78226C35.447 4.52604 36.023 4.39286 36.6067 4.39286C37.1905 4.39286 37.7665 4.52604 38.291 4.78226C38.8155 5.03848 39.2746 5.41099 39.6334 5.87142C40.2127 5.79957 40.8008 5.86084 41.3528 6.05054C41.9049 6.24025 42.4064 6.55341 42.8191 6.96617C43.2319 7.37894 43.545 7.88043 43.7347 8.43249C43.9245 8.98454 43.9857 9.57259 43.9139 10.1519C44.3743 10.5107 44.7468 10.9698 45.003 11.4943C45.2593 12.0188 45.3924 12.5948 45.3924 13.1786C45.3924 13.7623 45.2593 14.3383 45.003 14.8628C44.7468 15.3873 44.3743 15.8464 43.9139 16.2053C43.9857 16.7845 43.9245 17.3726 43.7347 17.9247C43.545 18.4767 43.2319 18.9782 42.8191 19.391C42.4064 19.8037 41.9049 20.1169 41.3528 20.3066C40.8008 20.4963 40.2127 20.5576 39.6334 20.4857C39.2746 20.9462 38.8155 21.3187 38.291 21.5749C37.7665 21.8311 37.1905 21.9643 36.6067 21.9643C36.023 21.9643 35.447 21.8311 34.9225 21.5749C34.398 21.3187 33.9389 20.9462 33.58 20.4857C33.0008 20.5575 32.4127 20.4962 31.8607 20.3065C31.3086 20.1168 30.8072 19.8036 30.3944 19.3909C29.9817 18.9781 29.6685 18.4767 29.4788 17.9246C29.289 17.3726 29.2278 16.7845 29.2996 16.2053C28.8391 15.8464 28.4666 15.3873 28.2104 14.8628C27.9542 14.3383 27.821 13.7623 27.821 13.1786C27.821 12.5948 27.9542 12.0188 28.2104 11.4943C28.4666 10.9698 28.8391 10.5107 29.2996 10.1519ZM24.8924 24.8929H30.7496V27.8214H24.8924V24.8929ZM21.9639 38.0714H57.1067V41H21.9639V38.0714ZM21.9639 43.9286H45.3924V46.8571H21.9639V43.9286ZM21.9639 49.7857H57.1067V52.7143H21.9639V49.7857ZM21.9639 55.6429H30.7496V58.5714H21.9639V55.6429ZM21.9639 61.5H45.3924V64.4286H21.9639V61.5ZM21.9639 67.3571H57.1067V70.2857H21.9639V67.3571ZM19.0353 41H16.1067V38.0714H19.0353V41Z" fill="#0F206C"/>
<path d="M49.7857 76.1431H0V77.6074C0.00130803 78.772 0.464546 79.8886 1.28808 80.7121C2.11162 81.5357 3.2282 81.9989 4.39286 82.0002H51.2535C50.2993 80.7346 49.784 79.1923 49.7857 77.6074V76.1431Z" fill="#0F206C"/>
<path d="M73.2147 17.5713C72.4383 17.5722 71.6939 17.8811 71.1449 18.4301C70.5959 18.9791 70.2871 19.7234 70.2861 20.4999H76.1433C76.1424 19.7234 75.8335 18.9791 75.2845 18.4301C74.7355 17.8811 73.9911 17.5722 73.2147 17.5713Z" fill="#0F206C"/>
<path d="M76.1433 23.4287H70.2861V35.143H76.1433V23.4287Z" fill="#0F206C"/>
<path d="M73.2146 72.8684L75.2382 68.8213H71.1909L73.2146 72.8684Z" fill="#0F206C"/>
<path d="M76.1433 38.0713H70.2861V40.9999H76.1433V38.0713Z" fill="#0F206C"/>
<path d="M76.1433 43.9287H70.2861V65.893H76.1433V43.9287Z" fill="#0F206C"/>
<path d="M80.5356 20.5H79.0713V23.4286H80.5356C80.9238 23.429 81.296 23.5834 81.5705 23.8579C81.845 24.1324 81.9994 24.5046 81.9999 24.8929V41H84.9284V24.8929C84.9271 23.7282 84.4638 22.6117 83.6403 21.7881C82.8168 20.9646 81.7002 20.5014 80.5356 20.5Z" fill="#0F206C"/>
</svg>
