<svg width="30" height="26" viewBox="0 0 30 26" fill="none" xmlns="http://www.w3.org/2000/svg">
<path d="M15.0001 23.1732C15.0242 23.3749 15.0019 23.5795 14.9349 23.7713C14.8679 23.9631 14.7579 24.137 14.6134 24.2798C14.3636 24.5282 14.0256 24.6676 13.6734 24.6676C13.3211 24.6676 12.9832 24.5282 12.7334 24.2798L7.40005 18.9465C7.25125 18.8035 7.13767 18.6279 7.06826 18.4336C6.99885 18.2392 6.9755 18.0314 7.00005 17.8265V10.9998L0.613386 2.8265C0.396864 2.54854 0.299164 2.19618 0.341637 1.84641C0.384109 1.49664 0.563299 1.1779 0.840053 0.959837C1.07464 0.771623 1.36597 0.668248 1.66672 0.666504H20.3334C20.6341 0.668248 20.9255 0.771623 21.1601 0.959837C21.4368 1.1779 21.616 1.49664 21.6585 1.84641C21.7009 2.19618 21.6032 2.54854 21.3867 2.8265L15.0001 10.9998V23.1732ZM4.33339 3.33317L9.66672 10.0798V17.4398L12.3334 20.1065V10.0665L17.6667 3.33317H4.33339ZM16.3334 19.3332L23.0001 25.9998L29.6667 19.3332H16.3334Z" fill="#0F206C"/>
</svg>
