<svg width="12" height="20" viewBox="0 0 12 20" fill="none" xmlns="http://www.w3.org/2000/svg">
<path d="M6 0.410645C2.6856 0.410645 0 3.08544 0 6.39864C0 12.1274 6 19.5986 6 19.5986C6 19.5986 12 12.1262 12 6.39864C12 3.08664 9.3144 0.410645 6 0.410645ZM6 9.71184C5.1407 9.71184 4.31659 9.37049 3.70897 8.76287C3.10136 8.15525 2.76 7.33115 2.76 6.47184C2.76 5.61254 3.10136 4.78844 3.70897 4.18082C4.31659 3.5732 5.1407 3.23184 6 3.23184C6.8593 3.23184 7.68341 3.5732 8.29103 4.18082C8.89864 4.78844 9.24 5.61254 9.24 6.47184C9.24 7.33115 8.89864 8.15525 8.29103 8.76287C7.68341 9.37049 6.8593 9.71184 6 9.71184Z" fill="#0F206C"/>
</svg>
