<svg width="81" height="65" viewBox="0 0 81 65" fill="none" xmlns="http://www.w3.org/2000/svg">
<path d="M71.8691 64.9999H8.54021C7.99228 64.9999 7.5481 64.5917 7.5481 64.0882V30.5386H9.53233V63.1766H70.877V30.5386H72.8612V64.0882C72.8612 64.5917 72.417 64.9999 71.8691 64.9999Z" fill="#0F206C"/>
<path d="M22.2876 31.8974H19.066C15.7877 31.8931 13.1312 29.2366 13.1268 25.9582V23.4495C13.1268 22.9057 13.5677 22.4648 14.1114 22.4648H27.2422C27.786 22.4648 28.2268 22.9057 28.2268 23.4495V25.974C28.2138 29.2462 25.5598 31.8931 22.2876 31.8974ZM15.0961 24.4144V25.9543C15.1004 28.145 16.8753 29.9199 19.066 29.9242H22.2876C24.4784 29.9199 26.2533 28.145 26.2576 25.9543V24.4144H15.0961Z" fill="#0F206C"/>
<path d="M27.2422 24.4183H14.1114C13.8111 24.4178 13.5274 24.2803 13.341 24.0448C13.1546 23.8093 13.0859 23.5016 13.1544 23.2092L18.4043 0.760119C18.5101 0.314845 18.9076 0.00037725 19.3653 0H29.8652C30.1462 0.00048525 30.4138 0.120605 30.601 0.330316C30.7881 0.540026 30.8772 0.819496 30.8458 1.09882L28.2189 23.5479C28.1593 24.0428 27.7406 24.4159 27.2422 24.4183ZM15.3559 22.4491H26.3836L28.7781 1.96922H20.1451L15.3559 22.4491Z" fill="#0F206C"/>
<path d="M9.15687 31.8974H5.93917C2.66085 31.8931 0.00433927 29.2366 0 25.9582V23.4495C0 22.9057 0.440825 22.4648 0.98461 22.4648H14.1114C14.6552 22.4648 15.096 22.9057 15.096 23.4495V25.974C15.083 29.2462 12.4291 31.8931 9.15687 31.8974ZM1.96922 24.4144V25.9543C1.97355 28.145 3.74842 29.9199 5.93917 29.9242H9.15687C11.3476 29.9199 13.1225 28.145 13.1268 25.9543V24.4144H1.96922Z" fill="#0F206C"/>
<path d="M14.1114 24.4187H0.984578C0.665742 24.4171 0.367232 24.2619 0.182873 24.0018C-0.00148716 23.7416 -0.0490601 23.4085 0.0551064 23.1072L7.93198 0.6581C8.07604 0.269991 8.44748 0.0134443 8.86146 0.0161342H19.3653C19.6656 0.016633 19.9493 0.154172 20.1357 0.389657C20.3221 0.625141 20.3908 0.93282 20.3223 1.22524L15.0724 23.6743C14.9605 24.1134 14.5645 24.4201 14.1114 24.4187ZM2.37485 22.4495H13.3316L18.1207 1.9696H9.55856L2.37485 22.4495Z" fill="#0F206C"/>
<path d="M35.4144 31.8974H32.1967C28.9184 31.8931 26.2619 29.2366 26.2576 25.9582V23.4495C26.2576 22.9057 26.6984 22.4648 27.2422 22.4648H40.369C40.9128 22.4648 41.3536 22.9057 41.3536 23.4495V25.974C41.3406 29.2462 38.6866 31.8931 35.4144 31.8974ZM28.2268 24.4144V25.9543C28.2311 28.145 30.006 29.9199 32.1967 29.9242H35.4144C37.6052 29.9199 39.3801 28.145 39.3844 25.9543V24.4144H28.2268Z" fill="#0F206C"/>
<path d="M40.369 24.4183H27.2422C26.9611 24.4178 26.6935 24.2977 26.5064 24.088C26.3192 23.8783 26.2302 23.5988 26.2615 23.3195L28.8885 0.870395C28.9481 0.375505 29.3668 0.00238521 29.8652 0H40.369C40.9128 0 41.3536 0.440825 41.3536 0.98461V23.4337C41.3536 23.9775 40.9128 24.4183 40.369 24.4183ZM28.3489 22.4491H39.3765V1.96922H30.7435L28.3489 22.4491Z" fill="#0F206C"/>
<path d="M48.5413 31.8974H45.3236C42.0453 31.8931 39.3887 29.2366 39.3844 25.9582V23.4495C39.3844 22.9057 39.8252 22.4648 40.369 22.4648H53.4958C54.0396 22.4648 54.4804 22.9057 54.4804 23.4495V25.974C54.4674 29.2462 51.8135 31.8931 48.5413 31.8974ZM41.3536 24.4144V25.9543C41.358 28.145 43.1328 29.9199 45.3236 29.9242H48.5413C50.732 29.9199 52.5069 28.145 52.5112 25.9543V24.4144H41.3536Z" fill="#0F206C"/>
<path d="M53.4958 24.4182H40.369C39.8252 24.4182 39.3844 23.9774 39.3844 23.4336V1.00023C39.3844 0.45645 39.8252 0.015625 40.369 0.015625H50.8728C51.3713 0.0180102 51.79 0.39113 51.8496 0.88602L54.4765 23.3351C54.5079 23.6145 54.4188 23.8939 54.2317 24.1036C54.0445 24.3133 53.7769 24.4335 53.4958 24.4339V24.4182ZM41.3536 22.449H52.3812L49.9867 1.96909H41.3536V22.449Z" fill="#0F206C"/>
<path d="M61.672 31.8974H58.4504C55.1721 31.8931 52.5156 29.2366 52.5112 25.9582V23.4495C52.5112 22.9057 52.9521 22.4648 53.4958 22.4648H66.6266C67.1704 22.4648 67.6112 22.9057 67.6112 23.4495V25.974C67.5982 29.2462 64.9442 31.8931 61.672 31.8974ZM54.4805 24.4144V25.9543C54.4848 28.145 56.2597 29.9199 58.4504 29.9242H61.672C63.8628 29.9199 65.6377 28.145 65.642 25.9543V24.4144H54.4805Z" fill="#0F206C"/>
<path d="M66.6266 24.4183H53.4958C52.9974 24.4159 52.5787 24.0428 52.5191 23.5479L49.8922 1.09882C49.8608 0.819496 49.9498 0.540026 50.137 0.330316C50.3242 0.120605 50.5917 0.00048525 50.8728 0H61.3727C61.8304 0.00037725 62.2279 0.314845 62.3337 0.760119L67.5836 23.2092C67.6521 23.5016 67.5834 23.8093 67.397 24.0448C67.2106 24.2803 66.9269 24.4178 66.6266 24.4183ZM54.3741 22.4491H65.382L60.5929 1.96922H51.9795L54.3741 22.4491Z" fill="#0F206C"/>
<path d="M74.799 31.8974H71.5813C68.3029 31.8931 65.6464 29.2366 65.6421 25.9582V23.4495C65.6421 22.9057 66.0829 22.4648 66.6267 22.4648H79.7535C80.2973 22.4648 80.7381 22.9057 80.7381 23.4495V25.974C80.7251 29.2462 78.0711 31.8931 74.799 31.8974ZM67.6113 24.4144V25.9543C67.6156 28.145 69.3905 29.9199 71.5813 29.9242H74.799C76.9897 29.9199 78.7646 28.145 78.7689 25.9543V24.4144H67.6113Z" fill="#0F206C"/>
<path d="M79.7535 24.4183H66.6266C66.169 24.4179 65.7714 24.1035 65.6657 23.6582L60.4157 1.2091C60.3472 0.916686 60.416 0.609007 60.6024 0.373523C60.7888 0.138038 61.0724 0.000499041 61.3728 2.57759e-07H71.8766C72.2946 -0.000300944 72.6673 0.263398 72.806 0.65772L80.6829 23.1068C80.7871 23.4082 80.7395 23.7413 80.5552 24.0014C80.3708 24.2615 80.0723 24.4168 79.7535 24.4183ZM67.4064 22.4491H78.3632L71.1795 1.96922H62.6173L67.4064 22.4491Z" fill="#0F206C"/>
<path d="M36.0368 65.0002H25.1982C24.9381 64.9991 24.6891 64.8948 24.5059 64.7102C24.3227 64.5255 24.2204 64.2757 24.2214 64.0156V37.8249C24.2204 37.5635 24.3238 37.3124 24.5087 37.1276C24.6935 36.9427 24.9446 36.8393 25.2061 36.8403H36.0368C36.5805 36.8403 37.0214 37.2812 37.0214 37.8249V64.0156C37.0214 64.2767 36.9176 64.5271 36.733 64.7118C36.5483 64.8964 36.2979 65.0002 36.0368 65.0002ZM26.1907 63.031H35.0522V38.8096H26.1907V63.031Z" fill="#0F206C"/>
<path d="M25.1982 65.0002H14.3754C13.8316 65.0002 13.3907 64.5593 13.3907 64.0156V37.8249C13.3907 37.2812 13.8316 36.8403 14.3754 36.8403H25.1982C25.742 36.8403 26.1828 37.2812 26.1828 37.8249V64.0156C26.1828 64.5593 25.742 65.0002 25.1982 65.0002ZM15.3521 63.031H24.2215V38.8096H15.3403L15.3521 63.031Z" fill="#0F206C"/>
<path d="M67.3553 54.8941H40.4518C39.908 54.8941 39.4672 54.4533 39.4672 53.9095V37.8249C39.4672 37.2812 39.908 36.8403 40.4518 36.8403H67.3553C67.899 36.8403 68.3399 37.2812 68.3399 37.8249V53.9095C68.3399 54.4533 67.899 54.8941 67.3553 54.8941ZM41.4364 52.9249H66.3628V38.8096H41.4364V52.9249Z" fill="#EE8F21"/>
<path d="M67.3553 58.6986H40.4518C39.908 58.6986 39.4672 58.2577 39.4672 57.7139V53.9094C39.4672 53.3656 39.908 52.9248 40.4518 52.9248H67.3553C67.899 52.9248 68.3399 53.3656 68.3399 53.9094V57.7139C68.3399 58.2577 67.899 58.6986 67.3553 58.6986ZM41.4364 56.7293H66.3628V54.894H41.4364V56.7293Z" fill="#EE8F21"/>
<path d="M78.1781 63.0308H2.56006V65H78.1781V63.0308Z" fill="#0F206C"/>
</svg>
