<svg width="24" height="24" viewBox="0 0 24 24" fill="none" xmlns="http://www.w3.org/2000/svg">
<path d="M16 18H7V4H16V18ZM11.5 22C11.1022 22 10.7206 21.842 10.4393 21.5607C10.158 21.2794 10 20.8978 10 20.5C10 20.1022 10.158 19.7206 10.4393 19.4393C10.7206 19.158 11.1022 19 11.5 19C11.8978 19 12.2794 19.158 12.5607 19.4393C12.842 19.7206 13 20.1022 13 20.5C13 20.8978 12.842 21.2794 12.5607 21.5607C12.2794 21.842 11.8978 22 11.5 22ZM15.5 1H7.5C6.83696 1 6.20107 1.26339 5.73223 1.73223C5.26339 2.20107 5 2.83696 5 3.5V20.5C5 21.163 5.26339 21.7989 5.73223 22.2678C6.20107 22.7366 6.83696 23 7.5 23H15.5C16.163 23 16.7989 22.7366 17.2678 22.2678C17.7366 21.7989 18 21.163 18 20.5V3.5C18 2.83696 17.7366 2.20107 17.2678 1.73223C16.7989 1.26339 16.163 1 15.5 1Z" fill="#0F206C"/>
</svg>
