<svg width="19" height="19" viewBox="0 0 19 19" fill="none" xmlns="http://www.w3.org/2000/svg">
<path d="M9.5 0.75C8.35093 0.75 7.21312 0.976324 6.15152 1.41605C5.08992 1.85578 4.12533 2.5003 3.31282 3.31282C1.67187 4.95376 0.75 7.17936 0.75 9.5C0.75 11.8206 1.67187 14.0462 3.31282 15.6872C4.95376 17.3281 7.17936 18.25 9.5 18.25C10.6491 18.25 11.7869 18.0237 12.8485 17.5839C13.9101 17.1442 14.8747 16.4997 15.6872 15.6872C16.4997 14.8747 17.1442 13.9101 17.5839 12.8485C18.0237 11.7869 18.25 10.6491 18.25 9.5C18.25 7.17936 17.3281 4.95376 15.6872 3.31282C14.0462 1.67187 11.8206 0.75 9.5 0.75ZM13.875 7.75L9.5 12.125L5.125 7.75H13.875Z" fill="white"/>
</svg>
