<svg width="27" height="24" viewBox="0 0 27 24" fill="none" xmlns="http://www.w3.org/2000/svg">
<path fill-rule="evenodd" clip-rule="evenodd" d="M0.319967 11.2282L11.2254 0.318765C11.6502 -0.106255 12.3413 -0.106255 12.7679 0.318765C13.1928 0.74555 13.1928 1.43687 12.7679 1.86189L3.71358 10.9178H25.9088C26.5117 10.9178 27 11.4063 27 12.0095C27 12.6126 26.5117 13.1011 25.9088 13.1011H3.73473L12.7679 22.1377C13.1928 22.5627 13.1928 23.254 12.7679 23.6808C12.5528 23.8924 12.2743 24 11.9958 24C11.7172 24 11.4369 23.8924 11.2254 23.6808L0.319967 12.7713C-0.106659 12.3446 -0.106659 11.655 0.319967 11.2282Z" fill="#FFF"/>
</svg>
