<svg width="109" height="654" viewBox="0 0 109 654" fill="none" xmlns="http://www.w3.org/2000/svg">
  <path d="M10.1657 975.249L10.1657 622.485L57.6197 622.485C58.6665 622.485 59.7133 621.438 59.7133 620.391L59.7133 575.729C59.7133 574.682 58.6665 573.635 57.6197 573.635L10.1657 573.635L10.1657 562.469L24.8206 562.469C25.8674 562.469 26.9142 561.422 26.9142 560.376L26.9142 538.742L44.3605 538.742C45.4073 538.742 46.4541 537.696 46.4541 536.649L46.4541 478.727C46.4541 477.68 45.4073 476.633 44.3605 476.633L28.3099 476.633L28.3099 448.021C28.3099 446.975 27.2631 445.928 26.2164 445.928L9.81682 445.928L9.81682 430.924L57.6197 430.924C58.6665 430.924 59.7133 429.877 59.7133 428.831L59.7133 393.24L106.818 393.24C107.865 393.24 108.912 392.193 108.912 391.146L108.912 335.318C108.912 334.271 107.865 333.225 106.818 333.225L10.5147 333.225L10.5147 323.106L16.4464 323.106C17.4932 323.106 18.54 322.059 18.54 321.012L18.54 317.872L24.4717 317.872C25.5185 317.872 26.5653 316.825 26.5653 315.778L26.5653 303.217C26.5653 302.17 25.5185 301.123 24.4717 301.123L18.54 301.123L18.54 295.89C18.54 294.843 17.4932 293.796 16.4464 293.796L10.5147 293.796L10.5147 290.307L96.6995 290.307C97.7463 290.307 98.793 289.26 98.793 288.213L98.7931 243.9C99.142 242.504 98.0952 241.457 96.6995 241.457L10.1658 241.457L10.1658 235.874L43.3138 235.874C44.3605 235.874 45.4073 234.827 45.4073 233.781L45.4073 225.406L64.5983 225.406C65.645 225.406 66.6918 224.36 66.6918 223.313L66.6918 172.719C66.6918 171.672 65.6451 170.625 64.5983 170.625L46.4541 170.625L46.4541 162.949C46.4541 161.902 45.4073 160.855 44.3605 160.855L10.5147 160.855L10.5147 148.643L60.7601 148.643C61.8069 148.643 62.8536 147.596 62.8536 146.549L62.8536 110.959C62.8536 109.912 61.8069 108.865 60.7601 108.865L10.1658 108.865L10.1658 2.09355C10.1658 1.04677 9.11899 -4.36209e-06 8.07221 -4.40784e-06C7.02543 -4.4536e-06 5.97865 1.04677 5.97865 2.09355L5.97864 110.959C5.97864 112.005 7.02542 113.052 8.07221 113.052L58.3176 113.052L58.3176 144.107L7.72327 144.107C6.67649 144.107 5.62972 145.153 5.62972 146.2L5.62972 162.6C5.62972 163.646 6.67649 164.693 7.72327 164.693L41.5691 164.693L41.5691 172.37C41.5691 173.067 41.9181 173.416 42.267 173.765L18.1911 173.765C17.1443 173.765 16.0975 174.812 16.0975 175.859L16.0975 219.475C16.0975 220.521 17.1443 221.568 18.1911 221.568L41.2202 221.568C40.8713 221.917 40.8713 222.266 40.8713 222.615L40.8713 230.989L7.72326 230.989C6.67649 230.989 5.62971 232.036 5.62971 233.083L5.62971 242.853C5.62971 243.9 6.67649 244.946 7.72326 244.946L63.5515 244.946L63.5515 284.026L8.0722 284.026C7.02542 284.026 5.97863 285.073 5.97863 286.12L5.97863 333.574C5.97863 334.62 7.02541 335.667 8.0722 335.667L104.376 335.667L104.376 386.959L59.3644 386.959L59.3644 374.747C59.3644 373.7 58.3176 372.653 57.2708 372.653L10.1657 372.653L10.1657 363.232C10.1657 362.186 9.11897 361.139 8.0722 361.139C7.02541 361.139 5.97863 362.186 5.97863 363.232L5.97863 375.096C5.97863 376.143 7.02541 377.189 8.0722 377.189L55.1773 377.189L55.1773 389.402C55.1773 389.751 55.1772 389.751 55.5262 389.751L55.5262 424.643L8.07219 424.643C7.02541 424.643 5.97863 425.69 5.97863 426.737L5.97863 445.928C5.97863 446.975 7.02541 448.021 8.07219 448.021L24.4717 448.021L24.4717 476.633C24.4717 477.68 25.5185 478.727 26.5653 478.727L42.267 478.727L42.267 532.113L24.8206 532.113C23.7739 532.113 22.7271 533.159 22.7271 534.206L22.7271 555.84L8.07219 555.84C7.0254 555.84 5.97862 556.886 5.97862 557.933L5.97862 573.286C5.97862 574.333 7.0254 575.38 8.07219 575.38L43.3137 575.38L43.3137 618.298L7.72325 618.298C6.67647 618.298 5.6297 619.344 5.6297 620.391L5.62968 975.249C5.62968 976.296 6.67646 977.343 7.72323 977.343C9.11894 977.343 10.1657 976.296 10.1657 975.249ZM62.5047 221.219L46.803 221.219C47.1519 220.87 47.1519 220.521 47.1519 220.173C47.1519 219.126 46.1052 218.079 45.0584 218.079L31.7992 218.079L31.7992 178.301L44.0116 178.301C45.0584 178.301 46.1052 177.255 46.1052 176.208C46.1052 175.51 45.7562 175.161 45.4073 174.812L62.5047 174.812L62.5047 221.219ZM20.6335 178.301L27.2632 178.301L27.2632 217.73L20.6335 217.73L20.6335 178.301ZM68.0875 245.993L94.6059 245.993L94.6059 285.073L68.0875 285.073L68.0875 245.993ZM10.1657 318.221L10.1658 310.196L14.0039 310.196L14.0039 318.221L10.1657 318.221ZM22.3782 304.613L22.3782 312.638L18.54 312.638L18.54 307.753L18.54 304.613L22.3782 304.613ZM14.0039 297.634L14.0039 305.66L10.1658 305.66L10.1658 297.634L14.0039 297.634ZM47.8498 577.822L55.1772 577.822L55.1772 618.298L47.8498 618.298L47.8498 577.822Z" fill="white" fill-opacity="0.2" style="mix-blend-mode:soft-light"/>
  <path d="M84.4871 275.303C84.4871 274.256 83.4403 273.209 82.3935 273.209L70.8789 273.209C69.8321 273.209 68.7854 274.256 68.7854 275.303C68.7854 276.35 69.8321 277.396 70.8789 277.396L82.3935 277.396C83.4403 277.396 84.4871 276.35 84.4871 275.303Z" fill="white" fill-opacity="0.2" style="mix-blend-mode:soft-light"/>
  <path d="M59.3644 275.303C59.3644 274.256 58.3176 273.209 57.2708 273.209L43.6627 273.209C42.6159 273.209 41.5691 274.256 41.5691 275.303C41.5691 276.35 42.6159 277.396 43.6627 277.396L57.2708 277.396C58.6665 277.396 59.3644 276.35 59.3644 275.303Z" fill="white" fill-opacity="0.2" style="mix-blend-mode:soft-light"/>
  <path d="M17.8421 530.368C17.8421 525.832 14.7018 521.994 10.1657 521.296L10.1657 496.173C14.3528 495.126 17.8421 491.637 17.8421 487.101C17.8421 481.867 13.655 477.68 8.42109 477.68C3.18719 477.68 -0.99993 481.867 -0.99993 487.101C-0.99993 491.637 2.14041 495.126 5.9786 496.173L5.9786 521.645C1.79148 522.692 -0.999932 526.181 -0.999932 530.717C-0.999932 535.951 3.18719 540.138 8.42108 540.138C13.655 540.138 17.8421 535.602 17.8421 530.368ZM3.18719 486.752C3.18719 483.961 5.62967 481.518 8.42109 481.518C11.2125 481.518 13.655 483.961 13.655 486.752C13.655 489.544 11.2125 491.986 8.42109 491.986C5.62967 491.986 3.18719 489.544 3.18719 486.752ZM3.18719 530.368C3.18719 527.577 5.62967 525.134 8.42108 525.134C11.2125 525.134 13.655 527.577 13.655 530.368C13.655 533.159 11.2125 535.602 8.42108 535.602C5.62967 535.602 3.18719 533.159 3.18719 530.368Z" fill="white" fill-opacity="0.2" style="mix-blend-mode:soft-light"/>
  <path d="M38.7777 599.107C38.7777 592.826 33.5438 587.592 27.2631 587.592C20.9825 587.592 15.7486 592.826 15.7486 599.107C15.7486 605.387 20.9825 610.621 27.2631 610.621C33.5438 610.272 38.7777 605.387 38.7777 599.107ZM20.2846 599.107C20.2846 595.268 23.425 592.128 27.2631 592.128C31.1013 592.128 34.2417 595.268 34.2417 599.107C34.2417 602.945 31.1013 606.085 27.2631 606.085C23.425 606.085 20.2846 602.945 20.2846 599.107Z" fill="white" fill-opacity="0.2" style="mix-blend-mode:soft-light"/>
  <path d="M17.4932 128.056C17.4932 125.613 15.7485 123.869 13.3061 123.869C10.8636 123.869 9.11893 125.613 9.11893 128.056C9.11893 130.498 10.8636 132.243 13.3061 132.243C15.7485 132.243 17.4932 130.149 17.4932 128.056Z" fill="white" fill-opacity="0.2" style="mix-blend-mode:soft-light"/>
  <path d="M55.875 136.43L55.875 121.775C55.875 120.728 54.8282 119.682 53.7814 119.682L23.0759 119.682C22.0291 119.682 20.9824 120.728 20.9824 121.775L20.9824 136.43C20.9824 137.477 22.0291 138.524 23.0759 138.524L53.7814 138.524C54.8282 138.524 55.875 137.826 55.875 136.43ZM24.8206 134.337L24.8206 123.869L51.339 123.869L51.339 134.337L24.8206 134.337Z" fill="white" fill-opacity="0.2" style="mix-blend-mode:soft-light"/>
  <path d="M97.7462 380.679L97.7462 374.398L92.8612 374.398L92.8612 380.679L97.7462 380.679Z" fill="white" fill-opacity="0.2" style="mix-blend-mode:soft-light"/>
  <path d="M97.7462 366.024L97.7462 359.743L92.8612 359.743L92.8612 366.024L97.7462 366.024Z" fill="white" fill-opacity="0.2" style="mix-blend-mode:soft-light"/>
  <path d="M97.7462 350.671L97.7462 344.39L92.8612 344.39L92.8612 350.671L97.7462 350.671Z" fill="white" fill-opacity="0.2" style="mix-blend-mode:soft-light"/>
  <path d="M84.836 380.679L84.836 374.398L79.951 374.398L79.951 380.679L84.836 380.679Z" fill="white" fill-opacity="0.2" style="mix-blend-mode:soft-light"/>
  <path d="M84.836 366.024L84.836 359.743L79.951 359.743L79.951 366.024L84.836 366.024Z" fill="white" fill-opacity="0.2" style="mix-blend-mode:soft-light"/>
  <path d="M84.836 350.671L84.836 344.39L79.951 344.39L79.951 350.671L84.836 350.671Z" fill="white" fill-opacity="0.2" style="mix-blend-mode:soft-light"/>
  <path d="M70.879 366.024L70.879 359.743L65.994 359.743L65.994 366.024L70.879 366.024Z" fill="white" fill-opacity="0.2" style="mix-blend-mode:soft-light"/>
  <path d="M70.879 380.679L70.879 374.398L65.994 374.398L65.994 380.679L70.879 380.679Z" fill="white" fill-opacity="0.2" style="mix-blend-mode:soft-light"/>
  <path d="M70.879 350.671L70.879 344.39L65.994 344.39L65.994 350.671L70.879 350.671Z" fill="white" fill-opacity="0.2" style="mix-blend-mode:soft-light"/>
  <path d="M57.9686 366.024L57.9686 359.743L53.0837 359.743L53.0837 366.024L57.9686 366.024Z" fill="white" fill-opacity="0.2" style="mix-blend-mode:soft-light"/>
  <path d="M57.9686 350.671L57.9686 344.39L53.0837 344.39L53.0837 350.671L57.9686 350.671Z" fill="white" fill-opacity="0.2" style="mix-blend-mode:soft-light"/>
  <path d="M44.3605 366.024L44.3605 359.743L39.4755 359.743L39.4755 366.024L44.3605 366.024Z" fill="white" fill-opacity="0.2" style="mix-blend-mode:soft-light"/>
  <path d="M44.3605 350.671L44.3605 344.39L39.4755 344.39L39.4755 350.671L44.3605 350.671Z" fill="white" fill-opacity="0.2" style="mix-blend-mode:soft-light"/>
  <path d="M31.1014 366.024L31.1014 359.743L26.2164 359.743L26.2164 366.024L31.1014 366.024Z" fill="white" fill-opacity="0.2" style="mix-blend-mode:soft-light"/>
  <path d="M31.1014 350.671L31.1014 344.39L26.2164 344.39L26.2164 350.671L31.1014 350.671Z" fill="white" fill-opacity="0.2" style="mix-blend-mode:soft-light"/>
  <path d="M35.9863 392.542L35.9863 384.168L28.6589 384.168L28.6589 392.542L35.9863 392.542Z" fill="white" fill-opacity="0.2" style="mix-blend-mode:soft-light"/>
  <path d="M49.2455 392.542L49.2455 384.168L41.918 384.168L41.918 392.542L49.2455 392.542Z" fill="white" fill-opacity="0.2" style="mix-blend-mode:soft-light"/>
  <path d="M35.9863 406.499L35.9863 398.125L28.6589 398.125L28.6589 406.499L35.9863 406.499Z" fill="white" fill-opacity="0.2" style="mix-blend-mode:soft-light"/>
  <path d="M49.2455 406.499L49.2455 398.125L41.918 398.125L41.918 406.499L49.2455 406.499Z" fill="white" fill-opacity="0.2" style="mix-blend-mode:soft-light"/>
  <path d="M35.9863 421.503L35.9863 413.129L28.6589 413.129L28.6589 421.503L35.9863 421.503Z" fill="white" fill-opacity="0.2" style="mix-blend-mode:soft-light"/>
  <path d="M49.2455 421.503L49.2455 413.129L41.918 413.129L41.918 421.503L49.2455 421.503Z" fill="white" fill-opacity="0.2" style="mix-blend-mode:soft-light"/>
</svg>
