<svg width="65" height="65" viewBox="0 0 65 65" fill="none" xmlns="http://www.w3.org/2000/svg">
<path fill-rule="evenodd" clip-rule="evenodd" d="M29.8584 0C29.6266 1.8544e-05 29.4043 0.09212 29.2404 0.256047C29.0764 0.419975 28.9843 0.642303 28.9843 0.874131V30.0659L24.4525 38.1177C24.3654 38.2725 24.3275 38.4502 24.3439 38.627C24.3603 38.8039 24.4302 38.9715 24.5443 39.1077C24.6583 39.2438 24.8111 39.342 24.9824 39.3892C25.1536 39.4363 25.3352 39.4302 25.5028 39.3716L35.1169 36.0061H64.1163C64.3482 36.0061 64.5705 35.914 64.7344 35.7501C64.8983 35.5862 64.9904 35.3638 64.9905 35.132V0.874481C64.9904 0.642652 64.8983 0.420324 64.7344 0.256397C64.5705 0.0924698 64.3482 0.000368338 64.1163 0.000349794H29.8588L29.8584 0ZM30.7326 1.74826H63.2418V34.2575H34.9676C34.8694 34.2576 34.772 34.2743 34.6794 34.3067L27.1129 36.955L30.6203 30.7241C30.6939 30.5931 30.7325 30.4454 30.7323 30.2952V1.74821L30.7326 1.74826ZM46.8355 6.93976C43.8085 6.93976 41.1913 9.04816 40.8968 12.1736C40.8629 12.5323 40.8367 13.3223 40.8367 13.635C40.8367 14.9623 41.2264 16.2013 41.8966 17.2231C42.2039 17.6915 42.5803 18.1931 43.0112 18.6736C43.0045 18.7148 43.0057 18.7349 42.9879 18.8075C42.9227 19.0742 42.751 19.4949 42.2053 20.0217C41.8928 20.3233 40.3296 20.9366 38.7511 21.4175C37.1727 21.8985 35.588 22.2673 34.5635 23.1426C33.7635 23.826 33.3221 24.5247 33.0925 25.0725C32.962 25.3838 32.9057 25.6422 32.8753 25.8346C32.8093 26.0289 32.8136 26.2402 32.8876 26.4315C32.8919 26.4439 32.8964 26.4562 32.9013 26.4684C32.9806 26.6707 33.1324 26.8362 33.3271 26.9326C33.5217 27.0291 33.7454 27.0496 33.9544 26.9901H59.8615H59.9093C59.9289 26.9903 59.9485 26.9899 59.968 26.9888C59.9895 26.9873 60.0109 26.985 60.0322 26.9819C60.0336 26.9819 60.035 26.9819 60.0363 26.9819C60.0372 26.9819 60.0381 26.9819 60.0391 26.9819C60.1669 26.9646 60.2892 26.9192 60.3974 26.849C60.5056 26.7787 60.5969 26.6855 60.6648 26.5758C60.7327 26.4661 60.7754 26.3428 60.79 26.2147C60.8046 26.0866 60.7907 25.9568 60.7493 25.8346C60.7185 25.6422 60.6612 25.3838 60.5307 25.0725C60.3011 24.5247 59.8597 23.826 59.0597 23.1426C58.0353 22.2674 56.4505 21.8985 54.8721 21.4176C53.2937 20.9366 51.7304 20.3234 51.4179 20.0217C50.8722 19.4949 50.7005 19.0742 50.6353 18.8075C50.6179 18.7363 50.6188 18.7173 50.6121 18.6764C51.0196 18.2245 51.3784 17.7548 51.6747 17.3133C52.3282 16.3391 52.6873 15.1412 52.7345 13.8851C52.7589 13.804 52.7713 13.7198 52.7714 13.6351C52.7714 13.5817 52.7771 13.2576 52.781 12.9536C52.7849 12.6496 52.8025 12.459 52.7755 12.1737C52.481 9.04824 49.8625 6.93983 46.8355 6.93983L46.8355 6.93976ZM46.8355 8.68802C49.0927 8.68802 50.8202 10.0696 51.034 12.3389C51.0235 12.2281 51.0365 12.6356 51.0327 12.9317C51.0292 13.2018 51.0254 13.4331 51.0245 13.5736C51.0244 13.587 51.0231 13.6238 51.0231 13.6351C51.0231 14.6383 50.7181 15.5996 50.2227 16.338C49.9335 16.7691 49.5775 17.2248 49.1915 17.6356C49.1332 17.6837 49.0813 17.7393 49.0372 17.8008C48.8977 17.941 48.7554 18.0752 48.6097 18.1969C47.9971 18.7088 47.373 19.0041 46.8041 19.0041C46.2315 19.0041 45.5981 18.7 44.9793 18.1723C44.8445 18.0573 44.7141 17.9291 44.5846 17.7981C44.5387 17.7347 44.4845 17.6777 44.4234 17.6287C44.0224 17.1976 43.6543 16.7158 43.3581 16.2642C42.8727 15.5243 42.585 14.6207 42.585 13.635C42.585 13.5831 42.6392 12.3291 42.6383 12.3388C42.8522 10.0695 44.5782 8.68796 46.8355 8.68796L46.8355 8.68802ZM9.64924 14.8534C9.52887 14.8582 9.41081 14.8879 9.30246 14.9406C9.19411 14.9932 9.0978 15.0677 9.0196 15.1593L6.17322 17.5563C6.13173 17.5857 6.09289 17.6186 6.05712 17.6547L3.24081 20.0257C0.872124 22.0203 -0.166413 25.0871 0.0215599 28.3286C0.209547 31.5701 1.59604 35.0266 4.10676 38.0083L21.7873 59.005C24.298 61.9866 27.4675 63.9402 30.63 64.6772C33.7922 65.4142 36.9917 64.914 39.3601 62.9194L45.1185 58.0707C45.2312 58.0084 45.3287 57.9219 45.4041 57.8176C45.4796 57.7132 45.531 57.5934 45.5547 57.4668C45.5785 57.3402 45.574 57.21 45.5415 57.0853C45.5091 56.9607 45.4495 56.8448 45.367 56.7459L37.6474 47.1101C37.6377 47.098 37.6277 47.0862 37.6174 47.0746C37.6142 47.0714 37.611 47.0682 37.6078 47.0651C37.527 46.9744 37.4281 46.9016 37.3176 46.8513C37.2071 46.801 37.0873 46.7742 36.9659 46.7728C36.8383 46.7717 36.7121 46.7985 36.596 46.8513C36.4799 46.9042 36.3768 46.9818 36.2939 47.0787L31.9301 50.7542C29.0408 53.1871 24.9035 52.9006 22.6014 50.1669L12.9544 38.7102C10.6525 35.9765 11.0745 31.8514 13.9638 29.4185L18.2621 25.7977C18.4603 25.7053 18.6166 25.542 18.7003 25.34C18.784 25.138 18.789 24.912 18.7142 24.7065C18.6616 24.5436 18.5623 24.3996 18.4287 24.2926L10.4413 15.2646C10.3658 15.144 10.262 15.0436 10.139 14.9722C10.0159 14.9008 9.87727 14.8605 9.73511 14.8549C9.70647 14.853 9.67775 14.8525 9.64906 14.8535L9.64924 14.8534ZM9.6028 16.954L16.6245 24.8925L14.6495 26.5561L7.89965 18.3896L9.6028 16.9542V16.954ZM6.56111 19.5149L13.311 27.6828L12.8371 28.0816C9.25824 31.0953 8.68641 36.3565 11.6174 39.8376L21.2643 51.293C24.1953 54.7737 29.477 55.1056 33.0553 52.092L33.6617 51.5812L40.4731 59.698L38.2345 61.5828C36.3458 63.1732 33.7721 63.6158 31.0267 62.976C28.2817 62.3362 25.4089 60.592 23.1239 57.8787L5.44338 36.8821C3.15861 34.1687 1.92973 31.0421 1.76658 28.2282C1.60343 25.4142 2.47847 22.9539 4.36715 21.3635L6.56066 19.5155L6.56111 19.5149ZM49.2075 19.9288C49.4153 20.3554 49.7235 20.8165 50.2032 21.2796C51.1972 22.2392 52.7761 22.6073 54.3621 23.0906C55.9482 23.5739 57.55 24.1517 57.9243 24.4715C58.2511 24.7507 58.4726 25.0103 58.6331 25.2418H34.989C35.1495 25.0103 35.371 24.7507 35.6978 24.4715C36.0721 24.1518 37.6753 23.5739 39.2613 23.0906C40.8473 22.6073 42.4248 22.2391 43.4189 21.2796C43.8969 20.8181 44.204 20.3582 44.4118 19.9328C45.1042 20.4086 45.9032 20.7524 46.8034 20.7524C47.7087 20.7524 48.5116 20.4052 49.2072 19.9288H49.2075ZM36.8424 48.9024L43.4694 57.1737L41.81 58.571L34.9986 50.4555L36.8425 48.9026L36.8424 48.9024Z" fill="#0F206C"/>
<path fill-rule="evenodd" clip-rule="evenodd" d="M29.8585 0C29.6266 1.8544e-05 29.4043 0.09212 29.2404 0.256047C29.0765 0.419975 28.9844 0.642303 28.9843 0.874131V30.0659L24.4525 38.1177C24.3654 38.2725 24.3275 38.4502 24.3439 38.627C24.3603 38.8039 24.4302 38.9715 24.5443 39.1077C24.6583 39.2438 24.8112 39.342 24.9824 39.3892C25.1536 39.4363 25.3352 39.4302 25.5028 39.3716L35.1169 36.0061H64.1163C64.3482 36.0061 64.5705 35.914 64.7344 35.7501C64.8984 35.5862 64.9905 35.3638 64.9905 35.132V0.874481C64.9905 0.642652 64.8984 0.420324 64.7344 0.256397C64.5705 0.0924698 64.3482 0.000368338 64.1163 0.000349794L29.8585 0ZM30.7326 1.74826H63.2419V34.2575H34.9676C34.8694 34.2576 34.772 34.2743 34.6794 34.3067L27.1129 36.955L30.6203 30.7241C30.6939 30.5931 30.7325 30.4454 30.7323 30.2952L30.7326 1.74826ZM46.8355 6.93976C43.8085 6.93976 41.1913 9.04816 40.8968 12.1736C40.8629 12.5323 40.8368 13.3223 40.8368 13.635C40.8368 14.9623 41.2264 16.2013 41.8966 17.2231C42.2039 17.6915 42.5804 18.1931 43.0112 18.6736C43.0045 18.7148 43.0057 18.7349 42.988 18.8075C42.9227 19.0742 42.751 19.4949 42.2054 20.0217C41.8929 20.3233 40.3296 20.9366 38.7511 21.4175C37.1727 21.8985 35.588 22.2673 34.5635 23.1426C33.7636 23.826 33.3221 24.5247 33.0925 25.0725C32.962 25.3838 32.9057 25.6422 32.8753 25.8346C32.8093 26.0289 32.8136 26.2402 32.8876 26.4315C32.8919 26.4439 32.8965 26.4562 32.9013 26.4684C32.9806 26.6707 33.1324 26.8362 33.3271 26.9326C33.5218 27.0291 33.7454 27.0496 33.9544 26.9901H59.8615H59.9093C59.9289 26.9903 59.9485 26.9899 59.968 26.9888C59.9895 26.9873 60.0109 26.985 60.0322 26.9819H60.0363H60.0391C60.1669 26.9646 60.2892 26.9192 60.3974 26.849C60.5056 26.7787 60.5969 26.6855 60.6648 26.5758C60.7327 26.4661 60.7754 26.3428 60.7901 26.2147C60.8047 26.0866 60.7907 25.9568 60.7493 25.8346C60.7185 25.6422 60.6612 25.3838 60.5307 25.0725C60.3012 24.5247 59.8597 23.826 59.0598 23.1426C58.0353 22.2674 56.4505 21.8985 54.8721 21.4176C53.2937 20.9366 51.7304 20.3234 51.4179 20.0217C50.8722 19.4949 50.7005 19.0742 50.6353 18.8075C50.6179 18.7363 50.6188 18.7173 50.6121 18.6764C51.0196 18.2245 51.3785 17.7548 51.6747 17.3133C52.3282 16.3391 52.6873 15.1412 52.7346 13.8851C52.7589 13.804 52.7713 13.7198 52.7714 13.6351C52.7714 13.5817 52.7771 13.2576 52.781 12.9536C52.7849 12.6496 52.8025 12.459 52.7755 12.1737C52.481 9.04824 49.8624 6.93976 46.8355 6.93976ZM46.8355 8.68802C49.0927 8.68802 50.8202 10.0696 51.034 12.3389C51.0236 12.2281 51.0365 12.6356 51.0327 12.9317C51.0292 13.2018 51.0254 13.4331 51.0245 13.5736C51.0244 13.587 51.0231 13.6238 51.0231 13.6351C51.0231 14.6383 50.7181 15.5996 50.2228 16.338C49.9335 16.7691 49.5775 17.2248 49.1916 17.6356C49.1332 17.6837 49.0813 17.7393 49.0372 17.8008C48.8977 17.941 48.7554 18.0752 48.6097 18.1969C47.9971 18.7088 47.373 19.0041 46.8041 19.0041C46.2316 19.0041 45.5982 18.7 44.9793 18.1723C44.8445 18.0573 44.7141 17.9291 44.5846 17.7981C44.5387 17.7347 44.4845 17.6777 44.4235 17.6287C44.0224 17.1976 43.6543 16.7158 43.3581 16.2642C42.8727 15.5243 42.5851 14.6207 42.5851 13.635C42.5851 13.5831 42.6392 12.3291 42.6383 12.3388C42.8522 10.0695 44.5782 8.68802 46.8355 8.68802ZM49.2075 19.9288C49.4153 20.3554 49.7236 20.8165 50.2032 21.2796C51.1972 22.2392 52.7761 22.6073 54.3622 23.0906C55.9482 23.5739 57.55 24.1517 57.9243 24.4715C58.2511 24.7507 58.4726 25.0103 58.6332 25.2418H34.989C35.1495 25.0103 35.371 24.7507 35.6979 24.4715C36.0721 24.1518 37.6753 23.5739 39.2613 23.0906C40.8473 22.6073 42.4248 22.2391 43.4189 21.2796C43.8969 20.8181 44.204 20.3582 44.4118 19.9328C45.1042 20.4086 45.9032 20.7524 46.8034 20.7524C47.7087 20.7524 48.5119 20.4052 49.2075 19.9288Z" fill="#EE8F21"/>
</svg>
