<svg xmlns="http://www.w3.org/2000/svg" viewBox="0 0 564 165" width="564" height="165">
	<style>
		tspan { white-space:pre }
		.shp0 { fill: #ee8f21 } 
		.shp1 { fill: #f3f3f3 } 
	</style>
	<path id="Layer" fill-rule="evenodd" class="shp0" d="M352.95 157.69L349.22 157.69L347.48 164.11L340.64 164.11L347.17 139.93L358.23 139.93C358.69 139.91 359.16 139.92 359.62 139.96C360.08 140 360.54 140.06 361 140.15C361.45 140.24 361.9 140.36 362.34 140.5C362.79 140.65 363.22 140.82 363.64 141.01C363.97 141.17 364.28 141.35 364.57 141.57C364.86 141.78 365.13 142.03 365.38 142.29C365.63 142.56 365.85 142.84 366.04 143.15C366.23 143.46 366.4 143.78 366.53 144.12C366.66 144.5 366.75 144.9 366.81 145.3C366.88 145.69 366.91 146.1 366.91 146.5C366.91 146.9 366.88 147.31 366.81 147.7C366.75 148.1 366.66 148.5 366.53 148.88C366.42 149.3 366.28 149.72 366.12 150.12C365.96 150.53 365.78 150.93 365.57 151.31C365.37 151.7 365.14 152.07 364.89 152.43C364.63 152.78 364.36 153.13 364.07 153.45C363.77 153.78 363.45 154.09 363.12 154.39C362.78 154.68 362.43 154.96 362.07 155.22C361.7 155.47 361.32 155.71 360.93 155.93C360.54 156.14 360.14 156.34 359.73 156.51L362.9 164.11L355.57 164.11L352.95 157.69ZM359.29 146.25C359.09 146.07 358.88 145.92 358.65 145.79C358.42 145.66 358.18 145.55 357.92 145.47C357.67 145.39 357.41 145.34 357.15 145.31C356.89 145.29 356.62 145.29 356.36 145.32L352.56 145.32L350.65 152.4L354.45 152.4C354.75 152.41 355.05 152.4 355.35 152.37C355.64 152.34 355.94 152.28 356.23 152.21C356.52 152.13 356.8 152.03 357.08 151.91C357.35 151.79 357.62 151.65 357.87 151.49C358.09 151.33 358.3 151.16 358.48 150.97C358.67 150.78 358.84 150.57 359 150.35C359.15 150.12 359.28 149.89 359.39 149.64C359.5 149.4 359.59 149.14 359.65 148.88C359.73 148.66 359.79 148.44 359.81 148.21C359.84 147.98 359.84 147.75 359.8 147.52C359.77 147.29 359.71 147.06 359.62 146.85C359.53 146.64 359.42 146.43 359.28 146.25L359.29 146.25Z" />
	<path id="Layer" class="shp0" d="M387.05 158.83L385.62 164.11L366.2 164.11L372.73 139.93L391.73 139.93L390.31 145.21L378.11 145.21L377.01 149.29L387.75 149.29L386.37 154.4L375.6 154.4L374.4 158.83L387.05 158.83Z" />
	<path id="Layer" class="shp0" d="M433.55 139.93L419.17 164.11L411.85 164.11L411.19 149.39L402.38 164.11L395.05 164.11L393.74 139.93L400.74 139.93L401.44 155.37L410.73 139.93L417.01 139.93L417.68 155.51L426.97 139.93L433.55 139.93Z" />
	<path id="Layer" fill-rule="evenodd" class="shp0" d="M446.11 159.42L435.89 159.42L432.72 164.11L425.72 164.11L442.95 139.93L449.69 139.93L453.87 164.11L446.75 164.11L446.11 159.42ZM445.47 154.42L444.47 146.68L439.27 154.42L445.47 154.42Z" />
	<path id="Layer" fill-rule="evenodd" class="shp0" d="M468.11 157.69L464.38 157.69L462.64 164.11L455.8 164.11L462.33 139.93L473.39 139.93C473.85 139.91 474.32 139.92 474.78 139.96C475.24 140 475.7 140.06 476.15 140.15C476.61 140.24 477.06 140.36 477.5 140.5C477.94 140.65 478.37 140.82 478.79 141.01C479.12 141.17 479.43 141.35 479.72 141.57C480.02 141.78 480.29 142.02 480.53 142.29C480.78 142.56 481 142.84 481.2 143.15C481.39 143.46 481.56 143.78 481.69 144.12C481.82 144.5 481.91 144.9 481.97 145.3C482.04 145.69 482.07 146.1 482.07 146.5C482.07 146.9 482.04 147.31 481.97 147.7C481.91 148.1 481.82 148.5 481.69 148.88C481.58 149.3 481.44 149.72 481.28 150.12C481.12 150.53 480.93 150.93 480.73 151.31C480.52 151.7 480.29 152.07 480.04 152.43C479.78 152.78 479.51 153.12 479.22 153.45C478.92 153.78 478.6 154.09 478.27 154.39C477.94 154.68 477.59 154.96 477.22 155.22C476.86 155.47 476.48 155.71 476.09 155.93C475.7 156.14 475.3 156.34 474.89 156.51L478.06 164.11L470.73 164.11L468.11 157.69ZM473.8 145.79C473.57 145.66 473.33 145.55 473.08 145.47C472.83 145.39 472.57 145.34 472.31 145.31C472.05 145.29 471.78 145.29 471.52 145.32L467.72 145.32L465.8 152.4L469.6 152.4C469.9 152.41 470.2 152.4 470.5 152.37C470.8 152.34 471.09 152.28 471.38 152.2C471.67 152.13 471.96 152.03 472.23 151.91C472.51 151.79 472.78 151.65 473.03 151.49C473.25 151.33 473.45 151.16 473.64 150.97C473.83 150.77 474 150.57 474.15 150.34C474.3 150.12 474.44 149.89 474.55 149.64C474.66 149.4 474.74 149.14 474.81 148.88C474.89 148.66 474.95 148.44 474.98 148.21C475 147.98 475 147.75 474.97 147.52C474.94 147.29 474.87 147.06 474.79 146.85C474.7 146.64 474.58 146.43 474.44 146.25C474.24 146.07 474.03 145.92 473.8 145.79Z" />
	<path id="Layer" fill-rule="evenodd" class="shp0" d="M487.95 139.93L499.39 139.93C499.96 139.91 500.54 139.93 501.11 139.98C501.68 140.03 502.25 140.12 502.8 140.24C503.36 140.37 503.92 140.53 504.45 140.72C504.99 140.92 505.52 141.15 506.03 141.41C506.45 141.63 506.85 141.89 507.22 142.19C507.6 142.48 507.94 142.81 508.25 143.17C508.56 143.53 508.83 143.92 509.07 144.33C509.31 144.75 509.51 145.18 509.66 145.63C509.82 146.15 509.94 146.67 510.03 147.21C510.11 147.74 510.15 148.28 510.15 148.82C510.15 149.37 510.11 149.91 510.03 150.44C509.94 150.98 509.82 151.5 509.66 152.02C509.51 152.61 509.32 153.19 509.09 153.76C508.87 154.32 508.61 154.88 508.33 155.42C508.04 155.95 507.72 156.47 507.37 156.97C507.02 157.47 506.64 157.95 506.24 158.41C505.83 158.87 505.4 159.3 504.95 159.7C504.5 160.11 504.02 160.49 503.52 160.85C503.03 161.2 502.51 161.53 501.98 161.83C501.45 162.13 500.9 162.39 500.34 162.63C499.75 162.88 499.15 163.1 498.54 163.28C497.93 163.47 497.32 163.63 496.69 163.75C496.07 163.87 495.43 163.97 494.8 164.03C494.16 164.09 493.53 164.11 492.89 164.11L481.37 164.11L487.95 139.93ZM494.05 158.65C494.54 158.66 495.03 158.63 495.51 158.56C495.99 158.49 496.47 158.38 496.93 158.23C497.4 158.08 497.85 157.89 498.28 157.67C498.71 157.44 499.13 157.18 499.52 156.89C499.92 156.59 500.28 156.26 500.62 155.9C500.96 155.54 501.27 155.14 501.54 154.73C501.81 154.32 502.05 153.88 502.25 153.43C502.44 152.97 502.6 152.5 502.72 152.02C503.28 149.95 503.09 148.32 502.15 147.15C501.87 146.84 501.55 146.56 501.21 146.32C500.86 146.09 500.49 145.89 500.1 145.74C499.71 145.59 499.31 145.48 498.89 145.42C498.48 145.36 498.06 145.35 497.64 145.39L493.32 145.39L489.73 158.65L494.05 158.65Z" />
	<path id="Layer" class="shp0" d="M512.77 163.87C512.41 163.78 512.05 163.68 511.7 163.55C511.35 163.43 511 163.28 510.67 163.12C510.33 162.96 510 162.78 509.69 162.58C509.37 162.38 509.06 162.17 508.77 161.94L512.38 156.89C512.63 157.08 512.88 157.26 513.14 157.43C513.41 157.6 513.68 157.76 513.95 157.9C514.23 158.05 514.51 158.18 514.8 158.3C515.09 158.42 515.38 158.53 515.68 158.62C516 158.73 516.33 158.82 516.66 158.91C516.99 158.99 517.32 159.06 517.65 159.11C517.99 159.17 518.33 159.21 518.66 159.24C519 159.26 519.34 159.28 519.68 159.28C522.31 159.28 523.8 158.61 524.15 157.28C524.2 157.13 524.23 156.98 524.22 156.82C524.21 156.66 524.18 156.51 524.11 156.36C524.04 156.22 523.95 156.09 523.84 155.99C523.72 155.88 523.59 155.8 523.44 155.74C523.17 155.62 522.9 155.51 522.63 155.41C522.36 155.31 522.08 155.21 521.81 155.13C521.53 155.04 521.25 154.96 520.97 154.88C520.69 154.81 520.4 154.74 520.12 154.68C519.76 154.6 519.4 154.52 519.05 154.43C518.69 154.34 518.34 154.24 517.98 154.14C517.63 154.03 517.28 153.92 516.94 153.8C516.59 153.68 516.24 153.55 515.9 153.42C515.64 153.32 515.38 153.19 515.14 153.05C514.89 152.9 514.66 152.73 514.44 152.55C514.22 152.37 514.02 152.17 513.84 151.95C513.65 151.73 513.49 151.5 513.34 151.26C513.18 150.95 513.06 150.63 512.97 150.3C512.88 149.97 512.82 149.63 512.8 149.29C512.78 148.94 512.8 148.6 512.85 148.26C512.9 147.92 512.98 147.58 513.1 147.26C513.2 146.89 513.33 146.52 513.48 146.16C513.63 145.8 513.8 145.45 513.99 145.12C514.18 144.78 514.4 144.45 514.63 144.14C514.87 143.83 515.12 143.54 515.39 143.26C515.7 142.95 516.02 142.66 516.36 142.38C516.7 142.1 517.05 141.85 517.42 141.61C517.79 141.38 518.17 141.16 518.56 140.97C518.95 140.77 519.35 140.6 519.76 140.45C520.25 140.27 520.75 140.12 521.26 139.99C521.77 139.86 522.28 139.75 522.8 139.67C523.32 139.58 523.84 139.52 524.36 139.49C524.88 139.45 525.41 139.44 525.93 139.45C526.31 139.45 526.7 139.46 527.08 139.48C527.46 139.5 527.85 139.54 528.23 139.58C528.61 139.63 528.99 139.68 529.36 139.75C529.74 139.82 530.12 139.9 530.49 139.99C530.81 140.06 531.14 140.15 531.45 140.26C531.77 140.36 532.08 140.48 532.39 140.61C532.69 140.74 532.99 140.89 533.28 141.04C533.58 141.2 533.86 141.38 534.14 141.56L530.66 146.64C530.2 146.34 529.72 146.07 529.23 145.84C528.73 145.61 528.22 145.42 527.69 145.26C527.17 145.1 526.64 144.98 526.09 144.9C525.55 144.82 525.01 144.77 524.46 144.77C524.19 144.75 523.92 144.76 523.66 144.77C523.39 144.79 523.12 144.83 522.86 144.88C522.59 144.93 522.33 145 522.08 145.08C521.82 145.17 521.57 145.27 521.33 145.38C521.17 145.46 521.02 145.55 520.87 145.66C520.73 145.77 520.6 145.89 520.49 146.02C520.37 146.16 520.27 146.3 520.18 146.46C520.09 146.62 520.02 146.78 519.97 146.95C519.92 147.09 519.9 147.24 519.91 147.39C519.92 147.54 519.96 147.69 520.03 147.82C520.09 147.95 520.18 148.08 520.3 148.17C520.41 148.27 520.54 148.35 520.68 148.4C520.94 148.51 521.21 148.62 521.48 148.72C521.75 148.81 522.02 148.91 522.3 148.99C522.57 149.07 522.85 149.15 523.13 149.22C523.41 149.29 523.69 149.35 523.97 149.4C524.33 149.48 524.69 149.56 525.05 149.65C525.4 149.75 525.76 149.84 526.11 149.95C526.47 150.05 526.82 150.17 527.17 150.28C527.52 150.4 527.87 150.53 528.21 150.66C528.47 150.77 528.73 150.89 528.97 151.04C529.21 151.18 529.44 151.35 529.66 151.53C529.88 151.71 530.08 151.91 530.27 152.13C530.45 152.34 530.62 152.57 530.77 152.81C530.93 153.11 531.06 153.44 531.15 153.77C531.25 154.1 531.31 154.44 531.33 154.78C531.35 155.13 531.34 155.47 531.29 155.81C531.24 156.15 531.15 156.49 531.03 156.81C530.93 157.18 530.8 157.54 530.65 157.9C530.51 158.25 530.34 158.59 530.14 158.93C529.95 159.26 529.74 159.58 529.5 159.88C529.27 160.19 529.02 160.48 528.75 160.75C528.44 161.06 528.12 161.35 527.78 161.63C527.44 161.9 527.08 162.16 526.71 162.4C526.35 162.63 525.97 162.85 525.57 163.04C525.18 163.24 524.78 163.41 524.37 163.56C523.88 163.74 523.38 163.9 522.87 164.04C522.37 164.18 521.86 164.29 521.34 164.38C520.82 164.47 520.3 164.53 519.78 164.57C519.26 164.61 518.73 164.63 518.21 164.62C517.75 164.62 517.29 164.61 516.83 164.57C516.38 164.54 515.92 164.5 515.46 164.43C515.01 164.37 514.56 164.29 514.11 164.2C513.66 164.1 513.21 163.99 512.77 163.87L512.77 163.87Z" />
	<path id="Layer" class="shp1" d="M29.62 78.89L32.95 59.82C34.16 54.98 36.16 50.38 38.88 46.19C41.59 42.01 44.99 38.31 48.92 35.24C52.85 32.17 57.27 29.78 61.98 28.15C66.7 26.53 71.65 25.71 76.64 25.71L96.95 25.71L100.38 11.94L103.38 0L70.15 0C63.1 0 56.09 1.17 49.42 3.47C42.75 5.77 36.51 9.15 30.95 13.5C25.39 17.84 20.59 23.08 16.75 28.99C12.91 34.91 10.08 41.43 8.37 48.27L1.07 77.55C-0.22 82.74 -0.32 88.15 0.79 93.38C1.9 98.61 4.19 103.52 7.48 107.74C10.77 111.95 14.98 115.36 19.79 117.7C24.6 120.04 29.87 121.26 35.22 121.26L73.13 121.26L80.74 96.33L43.25 96.33C41.11 96.34 39 95.86 37.08 94.93C35.16 93.99 33.48 92.63 32.16 90.95C30.84 89.27 29.93 87.31 29.49 85.22C29.05 83.12 29.1 80.96 29.62 78.89L29.62 78.89Z" />
	<path id="Layer" fill-rule="evenodd" class="shp1" d="M174.06 80.26C172.61 86.07 170.2 91.61 166.93 96.63C163.66 101.66 159.58 106.11 154.86 109.79C150.14 113.48 144.83 116.36 139.16 118.31C133.5 120.26 127.54 121.26 121.55 121.26L117.49 121.26C112.61 121.26 107.8 120.15 103.42 118.01C99.04 115.88 95.2 112.77 92.2 108.93C89.19 105.08 87.1 100.61 86.09 95.84C85.08 91.07 85.16 86.13 86.34 81.4L90 66.71C91.45 60.9 93.86 55.36 97.13 50.34C100.4 45.31 104.48 40.86 109.2 37.18C113.92 33.49 119.23 30.61 124.9 28.66C130.56 26.71 136.52 25.71 142.51 25.71L146.57 25.71C151.45 25.71 156.26 26.82 160.64 28.96C165.02 31.1 168.86 34.21 171.86 38.05C174.86 41.89 176.95 46.36 177.96 51.13C178.97 55.9 178.89 60.84 177.71 65.57L174.06 80.26ZM150.78 63.29C151.21 61.57 151.24 59.78 150.88 58.04C150.51 56.31 149.75 54.68 148.66 53.28C147.57 51.88 146.18 50.75 144.58 49.98C142.99 49.2 141.24 48.79 139.47 48.79C136.99 48.79 134.52 49.2 132.18 50.01C129.83 50.82 127.64 52.02 125.68 53.55C123.73 55.08 122.04 56.92 120.7 59C119.35 61.09 118.36 63.38 117.76 65.79L113.29 83.72C112.86 85.44 112.83 87.24 113.2 88.97C113.56 90.71 114.32 92.33 115.41 93.73C116.5 95.13 117.9 96.26 119.49 97.04C121.09 97.82 122.84 98.22 124.61 98.22C127.09 98.22 129.55 97.81 131.9 97C134.24 96.19 136.44 94.99 138.39 93.46C140.34 91.93 142.03 90.09 143.38 88C144.72 85.92 145.72 83.63 146.31 81.22L150.78 63.29Z" />
	<path id="Layer" class="shp1" d="M248.69 25.71L247.51 25.71C234.42 25.71 222.19 31.71 222.19 31.71L223.69 25.71L196.19 25.71L193.86 35L190.43 48.77L178.12 98.16L172.36 121.24L199.86 121.24L205.62 98.16L215.36 59.1C215.72 57.64 216.33 56.24 217.15 54.97C217.97 53.71 219 52.59 220.19 51.66C221.38 50.73 222.72 50 224.14 49.51C225.57 49.02 227.07 48.77 228.58 48.77L232.19 48.77C233.72 48.77 235.23 49.12 236.61 49.8C237.98 50.47 239.18 51.45 240.12 52.66C241.07 53.86 241.72 55.27 242.03 56.77C242.35 58.26 242.32 59.82 241.95 61.3L232.76 98.18L227 121.26L254.5 121.26L260.26 98.18L271.15 54.48C272 51.07 272.07 47.5 271.34 44.06C270.61 40.62 269.1 37.39 266.94 34.62C264.77 31.85 262 29.6 258.84 28.06C255.68 26.51 252.21 25.71 248.69 25.71L248.69 25.71Z" />
	<path id="Layer" class="shp1" d="M445.74 81.83L448.74 69.83C449.49 66.85 450.72 64.02 452.39 61.44C454.07 58.87 456.16 56.59 458.58 54.7C461 52.81 463.71 51.34 466.62 50.34C469.52 49.34 472.57 48.83 475.64 48.83L494.26 48.83L497.69 35L500.01 25.69L478.25 25.69C471.72 25.69 465.24 26.77 459.07 28.9C452.9 31.02 447.13 34.16 441.99 38.18C436.85 42.19 432.41 47.04 428.85 52.51C425.3 57.98 422.68 64.01 421.1 70.34L418.46 80.92C417.26 85.71 417.17 90.7 418.2 95.53C419.22 100.35 421.33 104.88 424.37 108.77C427.4 112.66 431.28 115.8 435.72 117.97C440.15 120.13 445.02 121.26 449.95 121.26L476.18 121.26L481.95 98.18L458.51 98.18C456.51 98.18 454.54 97.72 452.74 96.85C450.94 95.97 449.37 94.7 448.14 93.12C446.91 91.54 446.05 89.71 445.63 87.75C445.22 85.8 445.26 83.77 445.74 81.83Z" />
	<path id="Layer" class="shp1" d="M537.26 25.71L540.69 11.94L513.19 11.94L509.76 25.71L507.44 35L504.01 48.77L492.01 96.95C491.29 99.83 491.24 102.85 491.85 105.75C492.47 108.66 493.75 111.39 495.58 113.74C497.41 116.08 499.75 117.97 502.43 119.27C505.1 120.57 508.04 121.25 511.01 121.24L539.35 121.24L545.1 98.16L526.28 98.16C525.44 98.15 524.62 97.96 523.87 97.59C523.12 97.22 522.47 96.69 521.96 96.03C521.44 95.37 521.09 94.6 520.91 93.78C520.74 92.97 520.75 92.12 520.95 91.31L531.55 48.79L557.46 48.79L560.85 35L563.17 25.69L537.26 25.71Z" />
	<path id="Layer" class="shp1" d="M298.37 91.51L308.95 49L334.86 49L338.29 35.23L340.61 25.92L314.73 25.92L318.16 12.16L290.66 12.16L287.23 25.92L284.95 35.22L281.48 49L269.48 97.18C268.76 100.06 268.71 103.08 269.33 105.98C269.95 108.89 271.22 111.62 273.05 113.96C274.88 116.3 277.23 118.2 279.9 119.5C282.57 120.8 285.51 121.47 288.48 121.47L316.86 121.47L322.61 98.4L303.75 98.4C302.91 98.4 302.08 98.21 301.32 97.84C300.56 97.47 299.9 96.93 299.38 96.27C298.86 95.6 298.5 94.83 298.33 94C298.15 93.18 298.17 92.33 298.37 91.51L298.37 91.51Z" />
	<path id="Layer" fill-rule="evenodd" class="shp1" d="M398.16 25.71C401.57 25.72 404.94 26.5 408.01 28C411.07 29.5 413.76 31.67 415.85 34.36C417.95 37.05 419.41 40.19 420.12 43.52C420.83 46.86 420.77 50.32 419.95 53.63L408.83 98.18L403.07 121.26L375.57 121.26L376.57 117.35C370.88 119.26 363.44 121.26 359.34 121.26C352.76 121.26 316.62 116.4 330.09 87.05C342.24 60.58 370.83 60.36 390.72 60.58L390.95 59.67C391.27 58.38 391.29 57.04 391.02 55.74C390.74 54.44 390.17 53.22 389.36 52.17C388.54 51.12 387.5 50.28 386.31 49.69C385.12 49.1 383.81 48.8 382.48 48.79L347.95 48.79L351.36 35L353.69 25.71L398.16 25.71ZM386.67 76.91C378.82 76.78 368.04 76.66 360.47 83.42C351.87 91.1 356.73 101.83 364.22 101.42C370.1 101.11 374.1 102.03 381.86 96.19L386.67 76.91Z" />
	<path id="Layer" class="shp0" d="M0 149.88L329.55 149.88L331.3 143.51L1.75 143.51L0 149.88L0 149.88Z" />
	<path id="Layer" class="shp0" d="M30.3 149.88L101.62 149.88L103.37 143.51L32.06 143.51L30.3 149.88L30.3 149.88Z" />
	<path id="Layer" class="shp0" d="M0 149.88L32.86 149.88L34.61 143.51L1.75 143.51L0 149.88L0 149.88Z" />
</svg>