<svg width="20" height="17" viewBox="0 0 20 17" fill="none" xmlns="http://www.w3.org/2000/svg">
<path fill-rule="evenodd" clip-rule="evenodd" d="M18.8984 7.95332L11.1737 0.225792C10.8728 -0.0752641 10.3833 -0.0752641 10.0811 0.225792C9.78012 0.528098 9.78012 1.01778 10.0811 1.31884L16.4945 7.73346H0.772965C0.345899 7.73346 0 8.07949 0 8.50671C0 8.93394 0.345899 9.27997 0.772965 9.27997H16.4796L10.0811 15.6808C9.78012 15.9819 9.78012 16.4716 10.0811 16.7739C10.2334 16.9238 10.4307 17 10.628 17C10.8253 17 11.0239 16.9238 11.1737 16.7739L18.8984 9.04637C19.2006 8.74406 19.2006 8.25563 18.8984 7.95332Z" fill="#0F206C"/>
</svg>
