<svg width="24" height="24" viewBox="0 0 24 24" fill="none" xmlns="http://www.w3.org/2000/svg">
<path d="M12 2.41113C8.6856 2.41113 6 5.08593 6 8.39913C6 14.1279 12 21.5991 12 21.5991C12 21.5991 18 14.1267 18 8.39913C18 5.08713 15.3144 2.41113 12 2.41113ZM12 11.7123C11.1407 11.7123 10.3166 11.371 9.70897 10.7634C9.10136 10.1557 8.76 9.33163 8.76 8.47233C8.76 7.61303 9.10136 6.78892 9.70897 6.18131C10.3166 5.57369 11.1407 5.23233 12 5.23233C12.8593 5.23233 13.6834 5.57369 14.291 6.18131C14.8986 6.78892 15.24 7.61303 15.24 8.47233C15.24 9.33163 14.8986 10.1557 14.291 10.7634C13.6834 11.371 12.8593 11.7123 12 11.7123Z" fill="#0F206C"/>
</svg>
