<svg width="60" height="60" viewBox="0 0 60 60" fill="none" xmlns="http://www.w3.org/2000/svg">
<path d="M59 52H0.999961C0.448008 52 0 52.447 0 53V57C0 57.553 0.448008 58 0.999961 58H58.9999C59.5529 58 59.9999 57.553 59.9999 57V53.0001C60 52.4471 59.553 52 59 52ZM58 56.0001H2.00004V54H58.0001V56.0001H58Z" fill="#0F206C"/>
<path d="M58.9701 18.757L55.9701 6.75703C55.858 6.31301 55.459 6 55.0001 6H5.00006C4.54104 6 4.14108 6.31301 4.0301 6.75703L1.0301 18.757C0.955099 19.056 1.02307 19.372 1.21209 19.6151C1.40111 19.8581 1.69209 20 2.00006 20H58.0001C58.3081 20 58.5981 19.858 58.7881 19.6151C58.978 19.3721 59.0451 19.056 58.9701 18.757ZM3.28104 18L5.781 8.00004H54.219L56.719 18H3.28104Z" fill="#0F206C"/>
<path d="M33 19V21C33 22.654 31.654 24 30 24C28.346 24 27 22.654 27 21V19H24.9999V21C24.9999 23.757 27.2429 26.0001 30 26.0001C32.7569 26.0001 35 23.7571 35 21V19H33Z" fill="#0F206C"/>
<path d="M24.9999 19V21C24.9999 22.654 23.6539 24 21.9999 24C20.3459 24 18.9999 22.654 18.9999 21V19H16.9999V21C16.9999 23.757 19.2428 26.0001 21.9999 26.0001C24.7569 26.0001 27 23.7571 27 21V19H24.9999Z" fill="#0F206C"/>
<path d="M17 19V21C17 22.654 15.654 24 14 24C12.346 24 11 22.654 11 21V19H8.99994V21C8.99994 23.757 11.2429 26.0001 14 26.0001C16.757 26.0001 19 23.7571 19 21V19H17Z" fill="#0F206C"/>
<path d="M9.00004 19V21C9.00004 22.654 7.65402 24 6.00004 24C4.34605 24 3.00004 22.654 3.00004 21V19H1V21C1 23.757 3.24297 26.0001 6.00004 26.0001C8.75699 26.0001 11.0001 23.7571 11.0001 21V19H9.00004Z" fill="#0F206C"/>
<path d="M56.9999 19V21C56.9999 22.654 55.6539 24 53.9999 24C52.3459 24 50.9999 22.654 50.9999 21V19H48.9999V21C48.9999 23.757 51.2428 26.0001 53.9999 26.0001C56.7569 26.0001 59 23.7571 59 21V19H56.9999Z" fill="#0F206C"/>
<path d="M49 19V21C49 22.654 47.654 24 46 24C44.346 24 43 22.654 43 21V19H40.9999V21C40.9999 23.757 43.2429 26.0001 46 26.0001C48.7569 26.0001 51 23.7571 51 21V19H49Z" fill="#0F206C"/>
<path d="M41 19V21C41 22.654 39.654 24 38 24C36.3461 24 35 22.654 35 21V19H33V21C33 23.757 35.243 26.0001 38 26.0001C40.757 26.0001 43.0001 23.7571 43.0001 21V19H41Z" fill="#0F206C"/>
<path d="M27 7H24.9999V19H27V7Z" fill="#0F206C"/>
<path d="M35 7H33V19H35V7Z" fill="#0F206C"/>
<path d="M18.0023 6.92171L17.0031 18.9189L18.996 19.0849L19.9952 7.0877L18.0023 6.92171Z" fill="#0F206C"/>
<path d="M11.0162 6.83488L9.01361 18.8359L10.9864 19.1651L12.9891 7.16409L11.0162 6.83488Z" fill="#0F206C"/>
<path d="M41.9914 6.91808L39.9995 7.08398L40.9988 19.0812L42.9907 18.9153L41.9914 6.91808Z" fill="#0F206C"/>
<path d="M48.9876 6.83526L47.0147 7.16406L49.0148 19.1647L50.9877 18.8359L48.9876 6.83526Z" fill="#0F206C"/>
<path d="M54.9999 2H5.00002C4.44807 2 4.00006 2.44801 4.00006 2.99996V6.99992H5.99998V3.99992H54V6.99992H56V2.99996C56 2.44801 55.553 2 54.9999 2Z" fill="#0F206C"/>
<path d="M5.99998 25H3.99994V52H5.99998V25Z" fill="#0F206C"/>
<path d="M56 25H53.9999V53H56V25Z" fill="#0F206C"/>
<path d="M37 30H9.00002C8.44807 30 8.00006 30.447 8.00006 31V46.9999C8.00006 47.5529 8.44807 47.9999 9.00002 47.9999H37C37.553 47.9999 37.9999 47.5529 37.9999 46.9999V31C38.0001 30.447 37.553 30 37 30ZM36 46H9.99998V32H36V46Z" fill="#EE8F21"/>
<path d="M51 30H41.0001C40.4471 30 40.0001 30.447 40.0001 31V52.9999C40.0001 53.5529 40.4471 53.9999 41.0001 53.9999H51C51.5531 53.9999 52 53.5529 52 52.9999V31C52 30.447 51.5531 30 51 30ZM50.0001 52H42V32H50.0001V52Z" fill="#0F206C"/>
<path d="M18.2963 34.2919L14.2963 38.292L15.7105 39.7062L19.7106 35.7062L18.2963 34.2919Z" fill="#EE8F21"/>
<path d="M25.2952 33.2902L16.2953 42.29L17.7096 43.7043L26.7094 34.7044L25.2952 33.2902Z" fill="#EE8F21"/>
<path d="M27.2911 38.2929L23.2911 42.293L24.7053 43.7072L28.7054 39.7071L27.2911 38.2929Z" fill="#EE8F21"/>
</svg>
