<svg width="49" height="65" viewBox="0 0 49 65" fill="none" xmlns="http://www.w3.org/2000/svg">
<path d="M47.1889 63.9144C47.4672 63.8119 47.7028 63.6184 47.8575 63.3653C48.0121 63.1123 48.0768 62.8144 48.0411 62.5199V5.50051C48.0722 4.80225 47.9641 4.10477 47.723 3.44871C47.4819 2.79266 47.1126 2.19114 46.6367 1.6792C46.1608 1.16727 45.5878 0.755149 44.9511 0.466857C44.3144 0.178566 43.6266 0.0198646 42.9279 0H5.1216C4.42292 0.0198646 3.73518 0.178566 3.09845 0.466857C2.46171 0.755149 1.88871 1.16727 1.41283 1.6792C0.936942 2.19114 0.567689 2.79266 0.32658 3.44871C0.0854701 4.10477 -0.0226753 4.80225 0.00844348 5.50051V62.5199C-0.0245068 62.8343 0.0394727 63.1512 0.191798 63.4282C0.344123 63.7051 0.577506 63.9289 0.860636 64.0694C1.14649 64.1748 1.45538 64.2016 1.75513 64.1471C2.05489 64.0926 2.33456 63.9588 2.56502 63.7595L8.22048 58.4914H8.29795L15.1155 64.5342C15.2426 64.6765 15.3976 64.7911 15.5709 64.8711C15.7441 64.951 15.9319 64.9946 16.1226 64.999C16.338 65.0066 16.5526 64.9692 16.7527 64.8892C16.9528 64.8091 17.134 64.6882 17.2847 64.5342L23.9473 58.4914H24.1022L30.7648 64.5342C31.0824 64.7921 31.4791 64.9329 31.8882 64.9329C32.2973 64.9329 32.694 64.7921 33.0115 64.5342L39.7516 58.4914C39.8291 58.4914 39.8291 58.3364 39.9065 58.4139L45.562 63.5271H45.4845C45.5633 63.6726 45.6722 63.7996 45.8041 63.8996C45.9359 63.9996 46.0876 64.0703 46.2489 64.107C46.4103 64.1437 46.5776 64.1455 46.7397 64.1123C46.9018 64.0791 47.055 64.0116 47.1889 63.9144ZM40.9137 57.3293C40.6154 57.0625 40.2293 56.915 39.8291 56.915C39.4289 56.915 39.0427 57.0625 38.7445 57.3293L31.9269 63.3721C31.9269 63.4496 31.8494 63.4496 31.8494 63.3721L25.1094 57.3293C24.8111 57.0625 24.425 56.915 24.0248 56.915C23.6246 56.915 23.2384 57.0625 22.9402 57.3293L16.2001 63.3721C16.2001 63.4496 16.1226 63.4496 16.1226 63.3721L9.30509 57.3293C9.15962 57.1951 8.9886 57.0917 8.80224 57.0251C8.61588 56.9586 8.41802 56.9303 8.22048 56.9419C7.82706 56.953 7.4473 57.0886 7.13587 57.3293L1.40294 62.5974H1.55788V5.50051C1.52651 5.00576 1.59438 4.50973 1.7575 4.04159C1.92061 3.57346 2.17569 3.14266 2.50773 2.77453C2.83976 2.40641 3.24205 2.10839 3.69093 1.898C4.13982 1.68761 4.62624 1.5691 5.1216 1.54944H42.9279C43.4233 1.5691 43.9097 1.68761 44.3586 1.898C44.8075 2.10839 45.2098 2.40641 45.5418 2.77453C45.8739 3.14266 46.1289 3.57346 46.292 4.04159C46.4552 4.50973 46.523 5.00576 46.4917 5.50051V62.5199C46.4917 62.5974 46.6466 62.5974 46.5691 62.5974L40.9137 57.3293Z" fill="#0F206C"/>
<path d="M10.0023 37.1866H24.3346C24.5401 37.1866 24.7371 37.105 24.8824 36.9597C25.0277 36.8144 25.1093 36.6174 25.1093 36.4119C25.1093 36.2065 25.0277 36.0094 24.8824 35.8641C24.7371 35.7188 24.5401 35.6372 24.3346 35.6372H10.0023C9.79679 35.6372 9.59974 35.7188 9.45445 35.8641C9.30916 36.0094 9.22754 36.2065 9.22754 36.4119C9.22754 36.6174 9.30916 36.8144 9.45445 36.9597C9.59974 37.105 9.79679 37.1866 10.0023 37.1866Z" fill="#0F206C"/>
<path d="M38.0471 42.6094H10.0023C9.79679 42.6094 9.59974 42.691 9.45445 42.8363C9.30916 42.9816 9.22754 43.1786 9.22754 43.3841C9.22754 43.5896 9.30916 43.7866 9.45445 43.9319C9.59974 44.0772 9.79679 44.1588 10.0023 44.1588H38.0471C38.2526 44.1588 38.4497 44.0772 38.5949 43.9319C38.7402 43.7866 38.8219 43.5896 38.8219 43.3841C38.8219 43.1786 38.7402 42.9816 38.5949 42.8363C38.4497 42.691 38.2526 42.6094 38.0471 42.6094Z" fill="#0F206C"/>
<path d="M38.0471 48.8076H10.0023C9.79679 48.8076 9.59974 48.8892 9.45445 49.0345C9.30916 49.1798 9.22754 49.3769 9.22754 49.5823C9.22754 49.7878 9.30916 49.9849 9.45445 50.1301C9.59974 50.2754 9.79679 50.3571 10.0023 50.3571H38.0471C38.2526 50.3571 38.4497 50.2754 38.5949 50.1301C38.7402 49.9849 38.8219 49.7878 38.8219 49.5823C38.8219 49.3769 38.7402 49.1798 38.5949 49.0345C38.4497 48.8892 38.2526 48.8076 38.0471 48.8076Z" fill="#0F206C"/>
<path d="M18.2145 17.2761C19.0879 17.2761 19.9416 17.0172 20.6678 16.5319C21.394 16.0467 21.96 15.357 22.2943 14.5501C22.6285 13.7432 22.7159 12.8553 22.5455 11.9987C22.3752 11.1421 21.9546 10.3553 21.337 9.73773C20.7194 9.12015 19.9326 8.69958 19.076 8.52919C18.2194 8.3588 17.3315 8.44625 16.5246 8.78048C15.7177 9.11471 15.028 9.68071 14.5428 10.4069C14.0576 11.1331 13.7986 11.9869 13.7986 12.8602C13.8185 14.0252 14.2901 15.1369 15.114 15.9607C15.9379 16.7846 17.0495 17.2562 18.2145 17.2761ZM18.2145 9.99378C18.7814 9.99378 19.3356 10.1619 19.807 10.4769C20.2784 10.7918 20.6458 11.2395 20.8628 11.7633C21.0797 12.2871 21.1365 12.8634 21.0259 13.4195C20.9153 13.9755 20.6423 14.4863 20.2414 14.8871C19.8405 15.288 19.3298 15.561 18.7737 15.6716C18.2177 15.7822 17.6413 15.7255 17.1175 15.5085C16.5938 15.2916 16.1461 14.9242 15.8311 14.4528C15.5161 13.9814 15.348 13.4272 15.348 12.8602C15.3676 12.1062 15.6759 11.3884 16.2093 10.855C16.7427 10.3217 17.4604 10.0134 18.2145 9.99378Z" fill="#EE8F21"/>
<path d="M29.8351 20.0649C28.9617 20.0649 28.1079 20.3239 27.3818 20.8092C26.6556 21.2944 26.0896 21.9841 25.7553 22.791C25.4211 23.5979 25.3337 24.4857 25.504 25.3423C25.6744 26.1989 26.095 26.9858 26.7126 27.6034C27.3302 28.2209 28.117 28.6415 28.9736 28.8119C29.8302 28.9823 30.7181 28.8948 31.525 28.5606C32.3319 28.2264 33.0216 27.6604 33.5068 26.9342C33.992 26.208 34.251 25.3542 34.251 24.4808C34.2311 23.3159 33.7594 22.2042 32.9356 21.3804C32.1117 20.5565 31 20.0849 29.8351 20.0649ZM29.8351 27.3473C29.2682 27.3473 28.714 27.1792 28.2426 26.8642C27.7712 26.5493 27.4038 26.1016 27.1868 25.5778C26.9699 25.054 26.9131 24.4777 27.0237 23.9216C27.1343 23.3656 27.4073 22.8548 27.8082 22.4539C28.2091 22.0531 28.7198 21.7801 29.2759 21.6695C29.8319 21.5589 30.4083 21.6156 30.932 21.8326C31.4558 22.0495 31.9035 22.4169 32.2185 22.8883C32.5334 23.3597 32.7016 23.9139 32.7016 24.4808C32.682 25.2349 32.3737 25.9527 31.8403 26.486C31.3069 27.0194 30.5892 27.3277 29.8351 27.3473Z" fill="#EE8F21"/>
<path d="M15.4253 27.2702C15.5726 27.4098 15.7649 27.4922 15.9676 27.5026C16.0695 27.5059 16.1709 27.4868 16.2646 27.4466C16.3583 27.4065 16.442 27.3463 16.5099 27.2702L33.0889 10.6912C33.2008 10.542 33.2552 10.3575 33.2419 10.1715C33.2287 9.98544 33.1488 9.81044 33.017 9.67857C32.8851 9.5467 32.7101 9.46683 32.5241 9.45361C32.3381 9.44039 32.1535 9.49471 32.0043 9.6066L15.4253 26.1856C15.2834 26.3304 15.2039 26.5251 15.2039 26.7279C15.2039 26.9307 15.2834 27.1254 15.4253 27.2702Z" fill="#EE8F21"/>
</svg>
