<svg width="137" height="100" viewBox="0 0 137 100" fill="none" xmlns="http://www.w3.org/2000/svg">
<path d="M126.78 0H9.58409C4.3 0 0 4.3 0 9.58409V90.4159C0 95.7 4.3 100 9.58409 100H126.78C132.064 100 136.364 95.7 136.364 90.4159V9.58409C136.364 4.3 132.064 0 126.78 0ZM131.818 90.4159C131.818 93.1955 129.559 95.4545 126.78 95.4545H9.58409C6.80455 95.4545 4.54545 93.1955 4.54545 90.4159V9.58409C4.54545 6.80455 6.80455 4.54545 9.58409 4.54545H126.78C129.559 4.54545 131.818 6.80455 131.818 9.58409V90.4159Z" fill="#736F6F"/>
<path d="M51.45 64.195L43.1818 59.9723V59.0927C46.8818 57.0723 49.4841 53.745 50.9364 49.1746C53.1386 48.0064 54.5455 45.7314 54.5455 43.1814V40.9086C54.5455 38.8041 53.5659 36.8518 51.9296 35.57C50.5114 26.9791 44.5159 22.6246 34.0909 22.6246C33.5977 22.6246 33.1159 22.6427 32.6455 22.6791C30.6818 22.8405 27.8068 22.67 25.3182 20.9973C24.3886 20.37 23.6864 19.7609 23.2386 19.195C22.475 18.22 21.1909 17.8791 20.0523 18.3473C18.9114 18.8155 18.2409 19.9564 18.3841 21.1814C18.4796 22.0314 18.6227 23.02 18.8386 24.1041C19.2773 26.32 19.2773 26.32 18.6614 27.645C18.4296 28.1473 18.1432 28.7586 17.8068 29.5836C17.0546 31.4268 16.5205 33.445 16.2136 35.5996C14.6 36.8836 13.6364 38.8246 13.6364 40.9086V43.1814C13.6364 45.7314 15.0432 48.0064 17.2455 49.1746C18.6977 53.7473 21.3 57.0746 25 59.0927V59.9473L16.4341 64.17C13.3068 65.8746 11.3636 69.1473 11.3636 72.7109V75.7223C11.3636 77.5473 11.3636 81.8177 34.0909 81.8177C56.8182 81.8177 56.8182 77.5473 56.8182 75.7223V72.8927C56.8182 69.1859 54.7614 65.8564 51.45 64.195ZM52.2727 75.2086C50.8546 76.0723 45.0864 77.2723 34.0909 77.2723C23.0955 77.2723 17.3273 76.0723 15.9091 75.2086V72.7109C15.9091 70.8132 16.9432 69.0677 18.5273 68.2064L27.2932 63.8859C28.6614 63.2177 29.5432 61.8018 29.5432 60.2768V56.1791L28.1705 55.5882C24.7227 54.1018 22.4818 51.2677 21.3182 46.92L20.9932 45.7086L19.7977 45.3359C18.8477 45.0382 18.1818 44.1541 18.1818 43.1814V40.9086C18.1818 40.0859 18.6523 39.3223 19.4114 38.9177L20.4773 38.3496L20.6023 37.1473C20.8273 35.0155 21.3023 33.0496 22.0159 31.3064C22.3182 30.5677 22.575 30.0155 22.7841 29.5632C23.5546 27.9086 23.8341 27.0541 23.6409 25.3018C26.3136 26.8291 29.525 27.4791 33.0091 27.2132C33.3614 27.1837 33.7227 27.17 34.0932 27.17C42.6023 27.17 46.7568 30.2518 47.5682 37.1655L47.7091 38.3518L48.7659 38.9109C49.525 39.3155 50 40.0814 50 40.9086V43.1814C50 44.1541 49.3341 45.0382 48.3818 45.3337L47.1864 45.7064L46.8614 46.9177C45.6977 51.2655 43.4568 54.0996 40.0091 55.5859L38.6364 56.1791V60.295C38.6364 61.8155 39.4773 63.1859 40.8273 63.8746L49.4068 68.2586C51.175 69.1405 52.2727 70.9177 52.2727 72.8927V75.2086Z" fill="#EE8F21"/>
<path d="M68.1818 34.0914H90.9091C92.1659 34.0914 93.1818 33.0754 93.1818 31.8186C93.1818 30.5618 92.1659 29.5459 90.9091 29.5459H68.1818C66.925 29.5459 65.9091 30.5618 65.9091 31.8186C65.9091 33.0754 66.925 34.0914 68.1818 34.0914Z" fill="#EE8F21"/>
<path d="M100 34.0914H102.273C103.53 34.0914 104.545 33.0754 104.545 31.8186C104.545 30.5618 103.53 29.5459 102.273 29.5459H100C98.7432 29.5459 97.7273 30.5618 97.7273 31.8186C97.7273 33.0754 98.7432 34.0914 100 34.0914Z" fill="#EE8F21"/>
<path d="M70.4545 68.1816H68.1818C66.925 68.1816 65.9091 69.1975 65.9091 70.4544C65.9091 71.7112 66.925 72.7271 68.1818 72.7271H70.4545C71.7113 72.7271 72.7272 71.7112 72.7272 70.4544C72.7272 69.1975 71.7113 68.1816 70.4545 68.1816Z" fill="#EE8F21"/>
<path d="M84.0909 68.1816H79.5454C78.2886 68.1816 77.2727 69.1975 77.2727 70.4544C77.2727 71.7112 78.2886 72.7271 79.5454 72.7271H84.0909C85.3477 72.7271 86.3636 71.7112 86.3636 70.4544C86.3636 69.1975 85.3477 68.1816 84.0909 68.1816Z" fill="#EE8F21"/>
<path d="M95.4545 68.1816H93.1818C91.925 68.1816 90.9091 69.1975 90.9091 70.4544C90.9091 71.7112 91.925 72.7271 93.1818 72.7271H95.4545C96.7113 72.7271 97.7272 71.7112 97.7272 70.4544C97.7272 69.1975 96.7113 68.1816 95.4545 68.1816Z" fill="#EE8F21"/>
<path d="M109.091 68.1816H104.545C103.289 68.1816 102.273 69.1975 102.273 70.4544C102.273 71.7112 103.289 72.7271 104.545 72.7271H109.091C110.348 72.7271 111.364 71.7112 111.364 70.4544C111.364 69.1975 110.348 68.1816 109.091 68.1816Z" fill="#EE8F21"/>
<path d="M116.568 68.8416C116.157 69.2712 115.909 69.8643 115.909 70.4553C115.909 71.0462 116.157 71.6371 116.568 72.0689C116.998 72.478 117.591 72.728 118.182 72.728C118.773 72.728 119.364 72.478 119.795 72.0689C120.205 71.6371 120.455 71.0462 120.455 70.4553C120.455 69.8643 120.205 69.2712 119.795 68.8416C118.932 68.0007 117.409 68.0007 116.568 68.8416Z" fill="#EE8F21"/>
<path d="M118.182 43.1816H68.1818C66.925 43.1816 65.9091 44.1975 65.9091 45.4544C65.9091 46.7112 66.925 47.7271 68.1818 47.7271H118.182C119.439 47.7271 120.455 46.7112 120.455 45.4544C120.455 44.1975 119.439 43.1816 118.182 43.1816Z" fill="#EE8F21"/>
<path d="M118.182 56.8184H68.1818C66.925 56.8184 65.9091 57.8343 65.9091 59.0911C65.9091 60.3479 66.925 61.3638 68.1818 61.3638H118.182C119.439 61.3638 120.455 60.3479 120.455 59.0911C120.455 57.8343 119.439 56.8184 118.182 56.8184Z" fill="#EE8F21"/>
</svg>
