<svg width="70" height="65" viewBox="0 0 70 65" fill="none" xmlns="http://www.w3.org/2000/svg">
<path d="M20.1989 54.8985C14.6643 54.8985 11.0733 57.2109 10.3455 61.2427C10.2339 61.8638 10.2066 63.5427 10.2066 63.7594C10.2066 64.4451 10.7623 65 11.4471 65C12.1319 65 12.6877 64.4451 12.6877 63.7594C12.6877 63.2012 12.7373 61.9631 12.7878 61.6819C13.4287 58.1256 17.1719 57.3788 20.1989 57.3788C22.2914 57.3788 27.209 57.8403 27.6754 62.1103C27.6928 62.2757 27.7069 63.0631 27.7069 63.4898C27.7069 64.1754 28.2626 64.7304 28.9474 64.7304C29.6322 64.7304 30.188 64.1754 30.188 63.4898C30.188 63.4774 30.1855 62.241 30.1417 61.8415C29.6678 57.4946 25.9494 54.8985 20.1989 54.8985ZM25.9932 46.6503C25.9932 43.0345 23.6105 40.5087 20.1989 40.5087C16.7907 40.5087 14.4096 43.0345 14.4096 46.6503C14.4096 50.4233 17.0074 53.4917 20.1989 53.4917C23.3946 53.4925 25.9932 50.4233 25.9932 46.6503ZM16.8908 46.6503C16.8908 44.4272 18.1892 42.9898 20.1989 42.9898C22.212 42.9898 23.5121 44.4264 23.5121 46.6503C23.5121 49.0546 22.0259 51.0105 20.1989 51.0105C18.3745 51.0114 16.8908 49.0554 16.8908 46.6503ZM66.6806 23.6916H64.096V14.2632C64.096 10.8426 61.3139 8.06039 57.8932 8.06039H5.26994C3.73246 8.06039 2.48114 6.80907 2.48114 5.27076C2.48114 3.73246 3.73246 2.48114 5.26994 2.48114H56.6543C57.3391 2.48114 57.8949 1.92619 57.8949 1.24057C57.8949 0.554948 57.3391 0 56.6543 0H5.26994C2.3637 0 0 2.36452 0 5.27076V50.798C0 54.2186 2.78218 57.0008 6.20284 57.0008H8.01242C8.69721 57.0008 9.25299 56.4459 9.25299 55.7603C9.25299 55.0746 8.69721 54.5197 8.01242 54.5197H6.20284C4.15094 54.5197 2.48114 52.8499 2.48114 50.798V9.73433C3.29081 10.2421 4.24523 10.5415 5.26994 10.5415H57.8932C59.9451 10.5415 61.6149 12.2113 61.6149 14.2632V23.6916H50.7599C49.1637 23.6916 47.8653 24.99 47.8653 26.5862V38.475C47.8653 40.0712 49.1637 41.3697 50.7599 41.3697H61.6149V50.798C61.6149 52.8499 59.9451 54.5197 57.8932 54.5197H32.8238C32.139 54.5197 31.5832 55.0746 31.5832 55.7603C31.5832 56.4459 32.139 57.0008 32.8238 57.0008H57.8932C61.3139 57.0008 64.096 54.2186 64.096 50.798V41.3697H66.6806C68.2768 41.3697 69.5752 40.0712 69.5752 38.475V26.5862C69.5752 24.99 68.2759 23.6916 66.6806 23.6916ZM67.0941 38.475C67.0941 38.7033 66.908 38.8885 66.6806 38.8885H50.7599C50.5325 38.8885 50.3464 38.7033 50.3464 38.475V26.5862C50.3464 26.3579 50.5325 26.1727 50.7599 26.1727H66.6806C66.908 26.1727 67.0941 26.3579 67.0941 26.5862V38.475ZM54.4295 28.3693C53.7447 28.3693 53.189 28.9243 53.189 29.6099V35.4513C53.189 36.1369 53.7447 36.6919 54.4295 36.6919C55.1143 36.6919 55.6701 36.1369 55.6701 35.4513V29.6099C55.6701 28.9243 55.1143 28.3693 54.4295 28.3693ZM56.6543 4.03019H6.20284C5.51805 4.03019 4.96227 4.58514 4.96227 5.27076C4.96227 5.95638 5.51805 6.51133 6.20284 6.51133H56.6543C57.3391 6.51133 57.8949 5.95638 57.8949 5.27076C57.8949 4.58514 57.3399 4.03019 56.6543 4.03019Z" fill="#0F206C"/>
<path d="M20.1989 54.8985C14.6643 54.8985 11.0733 57.2109 10.3455 61.2427C10.2339 61.8638 10.2066 63.5427 10.2066 63.7594C10.2066 64.4451 10.7623 65 11.4471 65C12.1319 65 12.6877 64.4451 12.6877 63.7594C12.6877 63.2012 12.7373 61.9631 12.7878 61.6819C13.4287 58.1256 17.1719 57.3788 20.1989 57.3788C22.2914 57.3788 27.209 57.8403 27.6754 62.1103C27.6928 62.2757 27.7069 63.0631 27.7069 63.4898C27.7069 64.1754 28.2626 64.7304 28.9474 64.7304C29.6322 64.7304 30.188 64.1754 30.188 63.4898C30.188 63.4774 30.1855 62.241 30.1417 61.8415C29.6678 57.4946 25.9494 54.8985 20.1989 54.8985ZM25.9932 46.6503C25.9932 43.0345 23.6105 40.5087 20.1989 40.5087C16.7907 40.5087 14.4096 43.0345 14.4096 46.6503C14.4096 50.4233 17.0074 53.4917 20.1989 53.4917C23.3946 53.4925 25.9932 50.4233 25.9932 46.6503ZM16.8908 46.6503C16.8908 44.4272 18.1892 42.9898 20.1989 42.9898C22.212 42.9898 23.5121 44.4264 23.5121 46.6503C23.5121 49.0546 22.0259 51.0105 20.1989 51.0105C18.3745 51.0114 16.8908 49.0554 16.8908 46.6503ZM56.6543 4.03019H6.20284C5.51805 4.03019 4.96227 4.58514 4.96227 5.27076C4.96227 5.95638 5.51805 6.51133 6.20284 6.51133H56.6543C57.3391 6.51133 57.8949 5.95638 57.8949 5.27076C57.8949 4.58514 57.3399 4.03019 56.6543 4.03019Z" fill="#EE8F21"/>
</svg>
