<svg width="44" height="51" viewBox="0 0 44 51" fill="none" xmlns="http://www.w3.org/2000/svg">
<path d="M22.8822 28.3796C22.8822 31.6334 22.8822 34.8872 22.8822 38.141C22.8822 38.5991 22.8822 39.069 22.8822 39.5271C23.2698 39.1394 23.6692 38.7401 24.0568 38.3524C21.6606 38.3524 19.2643 38.3524 16.8797 38.3524C15.3644 38.3524 15.3644 40.7017 16.8797 40.7017C19.276 40.7017 21.6723 40.7017 24.0568 40.7017C24.6912 40.7017 25.2315 40.1614 25.2315 39.5271C25.2315 36.2733 25.2315 33.0195 25.2315 29.7657C25.2315 29.3076 25.2315 28.8378 25.2315 28.3796C25.2315 26.8643 22.8822 26.8643 22.8822 28.3796Z" fill="#0F206C"/>
<path d="M2.3493 39.5157C2.3493 35.193 2.3493 30.8821 2.3493 26.5594C2.3493 19.7346 2.3493 12.8982 2.3493 6.07345C2.3493 4.51116 2.3493 2.93713 2.3493 1.37485C1.96167 1.76248 1.56228 2.16186 1.17465 2.5495C3.77063 2.5495 6.35486 2.5495 8.95084 2.5495C13.0856 2.5495 17.2204 2.5495 21.3551 2.5495C22.3066 2.5495 23.2581 2.5495 24.2213 2.5495C23.8337 2.16186 23.4343 1.76248 23.0466 1.37485C23.0466 4.62863 23.0466 7.88241 23.0466 11.1362C23.0466 11.5943 23.0466 12.0642 23.0466 12.5223C23.0466 14.0376 25.3959 14.0376 25.3959 12.5223C25.3959 9.2685 25.3959 6.01471 25.3959 2.76093C25.3959 2.30282 25.3959 1.83296 25.3959 1.37485C25.3959 0.740534 24.8556 0.200195 24.2213 0.200195C21.6253 0.200195 19.0411 0.200195 16.4451 0.200195C12.3103 0.200195 8.17557 0.200195 4.0408 0.200195C3.08933 0.200195 2.13786 0.200195 1.17465 0.200195C0.540339 0.200195 0 0.740534 0 1.37485C0 5.69756 0 10.0085 0 14.3312C0 21.156 0 27.9924 0 34.8171C0 36.3794 0 37.9535 0 39.5157C0 41.031 2.3493 41.031 2.3493 39.5157Z" fill="#0F206C"/>
<path d="M0.622564 2.40819C5.2037 4.68701 9.78484 6.96584 14.366 9.24466C15.0003 9.56181 15.6463 9.87897 16.2807 10.1961C16.081 9.85548 15.893 9.51483 15.6933 9.18592C15.6933 13.6848 15.6933 18.1955 15.6933 22.6944C15.6933 29.8245 15.6933 36.9547 15.6933 44.0848C15.6933 45.7293 15.6933 47.3738 15.6933 49.0183C16.2807 48.6777 16.868 48.337 17.4553 48.0081C12.8742 45.2359 8.29303 42.4638 3.7119 39.7033C3.05409 39.304 2.39629 38.9046 1.75023 38.5169C0.458113 37.7299 -0.728284 39.7621 0.563832 40.5491C5.14497 43.3213 9.72611 46.0934 14.3072 48.8539C14.965 49.2533 15.6228 49.6526 16.2689 50.0403C17.0324 50.4984 18.0309 49.9111 18.0309 49.0301C18.0309 44.5312 18.0309 40.0205 18.0309 35.5216C18.0309 28.3915 18.0309 21.2613 18.0309 14.1312C18.0309 12.4867 18.0309 10.8422 18.0309 9.19767C18.0309 8.81004 17.8077 8.36367 17.4436 8.18747C12.8624 5.90865 8.28129 3.62983 3.70015 1.35101C3.06584 1.03385 2.41978 0.716696 1.78547 0.399541C0.458113 -0.293503 -0.728284 1.7269 0.622564 2.40819Z" fill="#0F206C"/>
<path d="M32.7845 16.2126C35.4509 17.8806 38.1174 19.5486 40.7839 21.2166C41.1598 21.4516 41.5474 21.6982 41.9233 21.9332C42.123 21.2049 42.3227 20.4766 42.5106 19.7483C37.1777 19.7483 31.833 19.7483 26.5001 19.7483C25.7483 19.7483 24.9848 19.7483 24.233 19.7483C22.7177 19.7483 22.7177 22.0976 24.233 22.0976C29.566 22.0976 34.9106 22.0976 40.2435 22.0976C40.9953 22.0976 41.7588 22.0976 42.5106 22.0976C43.697 22.0976 44.0729 20.5236 43.0979 19.9128C40.4315 18.2448 37.765 16.5768 35.0986 14.9088C34.7227 14.6738 34.335 14.4271 33.9591 14.1922C32.6905 13.37 31.5041 15.4021 32.7845 16.2126Z" fill="#EE8F21"/>
<path d="M41.9233 19.9106C39.2568 21.79 36.5904 23.6577 33.9122 25.5372C33.5363 25.8073 33.1604 26.0658 32.7727 26.3359C32.2559 26.7001 32.0092 27.3579 32.3499 27.9452C32.6553 28.462 33.4305 28.7322 33.9591 28.3681C36.6256 26.4886 39.2921 24.6209 41.9703 22.7415C42.3461 22.4713 42.722 22.2129 43.1097 21.9427C43.6265 21.5786 43.8732 20.9208 43.5325 20.3335C43.2389 19.8166 42.4519 19.5464 41.9233 19.9106Z" fill="#EE8F21"/>
</svg>
