<svg width="162" height="43" viewBox="0 0 162 43" fill="none" xmlns="http://www.w3.org/2000/svg">
<path fill-rule="evenodd" clip-rule="evenodd" d="M43.8639 7.2101C29.5379 7.2101 27.5195 22.7176 27.5687 24.8837C27.7164 34.2374 36.8732 33.8436 37.7594 33.8436C52.6761 33.7944 53.5622 16.9577 53.5622 16.4654C53.4146 7.06241 44.5531 7.2101 43.8639 7.2101ZM38.4978 27.6898C38.2024 27.6898 34.9533 27.1975 35.2486 23.4068C35.3963 21.8314 36.9717 13.5608 43.027 13.5608C44.5039 13.5608 46.5223 14.3485 46.5716 17.253C46.5716 17.8438 45.3408 27.3945 38.4978 27.6898Z" fill="#0F206C"/>
<path d="M112.245 21.4371L111.014 26.5078C111.014 26.5078 109.193 28.3293 106.583 28.3293C105.894 28.3293 103.679 28.3293 103.63 26.2616C103.58 20.7971 112.245 21.4371 112.245 21.4371ZM113.377 16.7602C113.377 16.7602 107.273 16.2679 102.251 18.3848C98.5588 19.9602 95.5558 23.1109 95.5558 28.1816C95.5558 29.6093 97.3281 33.5477 102.645 33.7938C102.842 33.7938 107.223 34.04 109.636 32.4154L109.291 33.8431H116.823C116.823 33.8431 119.531 23.997 121.648 13.9049C121.697 13.6095 122.78 6.86495 111.309 7.30802C109.882 7.35725 105.106 7.25879 102.694 7.25879L101.119 13.6587H108.946C115.149 13.6095 113.869 16.7602 113.377 16.7602Z" fill="#0F206C"/>
<path d="M30.7687 7.20969L32.5409 0.0220903C32.5409 0.0220903 31.6056 0.0220903 25.1564 0.0220903C23.0888 0.0220903 5.31667 -1.60251 3.98745 23.0126C3.88899 24.5387 3.79053 33.8924 16.5411 33.8924C17.5257 33.8924 22.9903 33.8432 24.3195 33.8432L26.1903 26.6556C26.1903 26.6556 24.2703 26.7541 19.938 26.7048C15.4088 26.6556 11.5689 27.6894 12.1597 21.0434C12.3073 19.5172 14.1289 7.25892 24.0734 7.25892H30.7687V7.20969Z" fill="#0F206C"/>
<path d="M51.9872 33.843H59.7655C59.7655 33.843 63.9993 16.4156 64.0978 15.9725C64.1963 15.5294 65.0824 13.6587 68.4793 13.6587C69.4639 13.6587 71.6792 13.9541 71.4823 16.711C71.4331 17.6463 67.3962 33.8923 67.3962 33.8923H74.9777C74.9777 33.8923 79.2607 17.1048 79.4576 15.9725C79.5068 15.6279 81.4268 8.04645 73.9931 7.35722C73.0577 7.25876 70.8423 6.86492 65.9193 8.68644L66.2147 7.30799H58.6825L51.9872 33.843Z" fill="#0F206C"/>
<path d="M85.2172 3.22168H92.7987L91.9125 7.20932L99.1986 7.16009L97.6232 13.56H90.1895C90.1895 13.56 87.6787 23.9476 87.531 24.3906C87.3341 25.0799 86.448 27.5906 89.9925 27.5906C91.371 27.5906 94.0786 27.5414 94.0786 27.5414L92.6017 33.7444C92.6017 33.7444 90.0418 33.7444 86.891 33.7444C85.9557 33.7444 78.6204 34.089 79.1127 28.2306C79.3096 27.1475 85.2172 3.22168 85.2172 3.22168Z" fill="#0F206C"/>
<path d="M147.69 3.22168H155.272L154.386 7.20932H157.143H161.672L161.229 9.1293L160.146 13.6092H153.893H152.761C152.761 13.6092 150.25 23.9968 150.103 24.4399C149.906 25.1291 149.02 27.6398 152.564 27.6398C153.943 27.6398 156.65 27.5906 156.65 27.5906L155.173 33.7936C155.173 33.7936 152.613 33.7936 149.463 33.7936C148.527 33.7936 141.192 34.1382 141.684 28.2798C141.783 27.1475 147.69 3.22168 147.69 3.22168Z" fill="#0F206C"/>
<path d="M142.177 13.6095C142.177 13.6095 142.472 13.6095 137.352 13.6095C129.525 13.6095 128.835 22.1264 128.835 23.5048C128.934 27.8371 132.281 27.6401 133.758 27.6401C138.681 27.6401 138.829 27.6401 138.829 27.6401L137.352 33.8924C136.171 33.8924 133.266 33.8924 131.691 33.8924C120.565 33.8924 120.663 25.7202 120.762 24.6863C122.485 6.37271 138.041 7.25885 138.534 7.25885C143.851 7.25885 143.801 7.25885 143.801 7.25885L142.177 13.6095Z" fill="#0F206C"/>
<path d="M21.2674 37.9297L20.2335 43.0004H152.859L154.287 37.9297H21.2674Z" fill="#EE8F21"/>
<path d="M21.2673 37.9297L20.2335 43.0004H7.67981L8.61518 37.9297H21.2673Z" fill="#F4B938"/>
<path d="M8.61527 37.9297L7.6799 43.0004H0L1.13229 37.9297H8.61527Z" fill="#EEE433"/>
</svg>
