<svg width="157" height="50" viewBox="0 0 157 50" fill="none" xmlns="http://www.w3.org/2000/svg">
<g clip-path="url(#clip0)">
<path d="M153.81 49.8417C153.3 49.9056 152.792 49.9999 152.277 49.9999C102.921 49.9999 53.5347 49.9999 4.17906 49.9999C4.0469 49.9999 3.91384 49.9791 3.78684 49.9425C3.70362 49.9185 3.62007 49.9008 3.53432 49.8887C1.8913 49.6568 0.620453 48.5332 0.189532 46.8986C0.0652163 46.525 0.0316162 46.1311 0.0316162 45.7373C0.0316162 31.7941 0.0316162 17.8509 0.0316162 3.90766C0.0316162 3.70885 0.0636083 3.51134 0.126366 3.32269C0.505364 1.61383 1.54761 0.537882 3.22152 0.12649C3.72046 0.00150786 4.2396 -0.0317383 4.75396 -0.0317383C54.11 -0.0317383 103.497 -0.0317383 152.853 -0.0317383C152.985 -0.0317383 153.118 -0.0108864 153.245 0.0257023C153.328 0.0496762 153.412 0.0674176 153.497 0.0795174C155.14 0.311357 156.411 1.43496 156.842 3.06953C156.966 3.44321 157 3.83706 157 4.23088C157 18.1741 157 32.1173 157 46.0605C157 46.2593 156.968 46.4568 156.905 46.6455C156.526 48.3543 155.484 49.4303 153.81 49.8417ZM95.304 25.9236C95.2936 25.9577 95.2738 25.9809 95.2382 25.9809C95.1996 25.9809 95.1549 25.9536 95.1452 25.9162C95.1115 25.7867 95.061 25.674 95.0338 25.5379C94.3074 23.0695 93.581 20.6012 92.823 18.1328C92.5387 17.2467 91.9071 16.7088 90.9596 16.6771C89.9489 16.6455 88.9698 16.6771 87.9592 16.6771C87.517 16.6771 87.3275 16.8986 87.2959 17.3417C87.2959 17.5632 87.3275 17.7847 87.3907 18.0062C87.517 18.4493 87.6434 18.8607 87.8013 19.3037C89.1593 23.5126 90.4858 27.6898 91.8439 31.8986C92.1598 32.848 92.8546 33.3543 93.8337 33.3543C94.4653 33.3543 95.0654 33.3543 95.6971 33.3543C96.8025 33.3543 97.4657 32.8797 97.8131 31.8354C98.6975 29.0822 99.5502 26.2974 100.435 23.5442C100.48 23.3626 100.756 23.3672 100.8 23.5489C100.805 23.5686 100.81 23.588 100.814 23.6075C101.666 26.3607 102.551 29.1138 103.403 31.867C103.719 32.8797 104.414 33.386 105.488 33.386C106.088 33.386 106.688 33.386 107.288 33.386C108.362 33.386 109.025 32.9113 109.373 31.867C110.636 28.0062 111.868 24.1138 113.099 20.2531C113.384 19.3986 113.668 18.5759 113.857 17.7214C114.015 17.0569 113.731 16.7404 113.036 16.7404C112.215 16.7404 111.394 16.7404 110.604 16.7404C109.309 16.7404 108.678 17.2151 108.299 18.4809C107.667 20.6328 107.035 22.8164 106.372 24.9683C106.34 25.0972 106.304 25.2224 106.266 25.3465C106.172 25.6518 105.797 25.6868 105.709 25.3797C105.014 22.9746 104.288 20.5379 103.593 18.1328C103.309 17.1835 102.74 16.7721 101.761 16.7721C101.003 16.7721 100.245 16.7721 99.4871 16.7721C98.4132 16.7721 97.8763 17.1835 97.5605 18.2278C97.1183 19.6835 96.7077 21.1708 96.2656 22.6581C95.9861 23.6538 95.6455 24.8025 95.304 25.9236ZM80.8838 32.1212C80.9948 32.0555 81.1372 32.1177 81.1372 32.2467C81.2004 33.0695 81.4531 33.3543 82.2742 33.3543C83.0954 33.3543 83.9165 33.3543 84.7061 33.3543C85.4641 33.3543 85.7484 33.0379 85.7484 32.31C85.7484 29.1455 85.7484 25.9809 85.7484 22.7847C85.7484 21.7404 85.5589 20.7278 85.0851 19.81C84.2008 18.0695 82.7164 17.1518 80.8846 16.7088C79.2106 16.2974 77.5052 16.329 75.7997 16.4556C74.5679 16.5505 73.3678 16.7721 72.2308 17.2784C70.8411 17.8797 70.0199 18.924 69.8936 20.4746C69.8304 21.2657 70.2094 21.6771 70.9674 21.6771C71.6307 21.6771 72.2939 21.6771 72.9572 21.6771C73.652 21.6771 74.2205 21.424 74.6943 20.886C74.8838 20.6645 75.1364 20.4429 75.4207 20.3164C76.1155 19.9366 76.8735 19.81 77.6631 19.8417C79.6212 19.8417 80.4108 20.6012 80.6319 22.5316C80.6635 22.9429 80.5687 23.0379 80.1581 23.0379C78.6106 23.0062 77.0314 23.0379 75.4838 23.0379C74.2837 23.0379 73.1151 23.2278 72.0097 23.6708C69.9568 24.4936 68.7882 25.9809 68.6935 28.2594C68.6303 30.2847 69.7357 31.9936 71.7254 32.9113C72.8308 33.4176 73.9678 33.6075 75.168 33.6708C76.9998 33.7657 78.7369 33.4176 80.3476 32.4366C80.5518 32.323 80.7071 32.2256 80.8838 32.1212ZM137.355 31.9303C138.129 31.9787 138.665 32.7693 138.324 33.4649C138.167 33.7829 137.977 34.0836 137.734 34.367C137.103 35.0632 136.345 35.3164 135.429 35.1581C134.797 35.0632 134.134 34.9683 133.502 34.9683C132.902 34.9366 132.555 35.3164 132.555 35.9176C132.555 36.424 132.555 36.8986 132.555 37.405C132.555 38.0695 132.839 38.4493 133.502 38.5126C134.829 38.6391 136.155 38.7974 137.482 38.829C139.661 38.8607 141.335 37.848 142.345 35.9176C142.914 34.8733 143.388 33.7657 143.704 32.6265C145.093 27.6898 146.42 22.7531 147.778 17.7847C147.967 17.0885 147.683 16.7404 146.957 16.7404C146.009 16.7404 145.062 16.7404 144.114 16.7404C143.419 16.7404 142.946 17.0885 142.756 17.7531C142.661 18.0695 142.567 18.4176 142.472 18.7341C141.619 21.8354 140.766 24.9366 139.914 28.0379C139.819 28.386 139.661 28.4493 139.345 28.386C138.808 28.2594 138.398 27.9746 138.05 27.5632C137.418 26.7721 137.071 25.8543 136.755 24.905C136.029 22.5632 135.334 20.2214 134.608 17.8797C134.386 17.1518 133.881 16.7721 133.123 16.7404C132.176 16.7404 131.197 16.7404 130.249 16.7404C129.586 16.7404 129.302 17.1202 129.491 17.7531C130.281 20.3797 131.07 23.0062 131.86 25.6328C132.334 27.1202 132.934 28.5759 133.913 29.81C134.797 30.9493 135.902 31.7088 137.355 31.9303ZM56.0602 24.9543C56.0602 24.962 56.0561 24.9683 56.0484 24.9683C56.0406 24.9683 56.0601 24.9746 56.06 24.9824C56.0286 27.3827 56.0286 29.7831 56.0286 32.1835C56.0286 33.0379 56.3128 33.3227 57.1656 33.3227C58.0815 33.3227 59.029 33.3227 59.9449 33.3227C60.8292 33.3227 61.1135 33.0379 61.1135 32.1518C61.1135 29.2404 61.1135 26.329 61.1135 23.386C61.1135 23.0062 61.2398 22.8797 61.6188 22.8797C63.198 22.9113 64.8087 22.8797 66.3879 22.8797C67.0511 22.8797 67.3985 22.5316 67.4301 21.867C67.4301 21.3607 67.4301 20.8543 67.4301 20.348C67.4301 19.5252 67.1459 19.2404 66.2931 19.2404C64.7456 19.2404 63.1664 19.2404 61.6188 19.2404C61.2082 19.2404 61.0819 19.1138 61.1135 18.7341C61.1451 18.3227 61.1451 17.8797 61.2082 17.4683C61.3977 16.0759 61.9346 15.3164 63.1348 15.0632C64.3666 14.7784 65.6299 14.6835 66.8932 14.905C67.367 14.9999 67.8407 15.0316 68.3145 15.0316C68.9777 15.0316 69.3251 14.6835 69.3567 14.0189C69.3567 13.5442 69.3567 13.1012 69.3567 12.6265C69.3567 11.9619 69.0724 11.6138 68.4092 11.4872C67.8723 11.3923 67.367 11.329 66.83 11.2657C64.7456 11.1075 62.6611 11.0759 60.6082 11.5505C58.7447 11.9936 57.2603 12.9746 56.6287 14.8733C56.3128 15.791 56.1233 16.7721 56.0918 17.7214C55.9972 20.1534 56.0599 22.5539 56.0602 24.9543ZM121.948 18.0131C121.643 18.2229 121.216 17.9972 121.216 17.6265C121.185 16.9936 120.869 16.6771 120.237 16.6455C119.195 16.6455 118.153 16.6455 117.11 16.6455C116.447 16.6455 116.1 16.9936 116.1 17.6581C116.1 22.5316 116.1 27.405 116.1 32.2784C116.1 32.9429 116.447 33.291 117.11 33.291C118.09 33.291 119.037 33.291 120.016 33.291C120.932 33.291 121.216 33.0062 121.216 32.1202C121.216 29.3354 121.248 26.5505 121.185 23.7341C121.153 22.848 121.437 22.2467 122.069 21.6771C123.111 20.7594 124.248 20.2531 125.638 20.3797C126.333 20.4429 127.028 20.4746 127.754 20.4429C128.354 20.4429 128.67 20.1265 128.701 19.5252C128.733 18.7657 128.733 17.9746 128.701 17.2151C128.701 16.6455 128.354 16.2974 127.786 16.2974C125.859 16.2657 124.027 16.6138 122.385 17.6898C122.245 17.8044 122.1 17.9087 121.948 18.0131Z" fill="#FFD328"/>
<path d="M95.1917 25.8545C95.2166 25.9544 95.307 25.9138 95.3368 25.8152C95.6646 24.7312 95.9666 23.6458 96.2971 22.5317C96.7393 21.0444 97.1499 19.5887 97.592 18.1013C97.9079 17.057 98.4448 16.6456 99.5186 16.6456C100.277 16.6456 101.035 16.6456 101.793 16.6456C102.772 16.6456 103.34 17.057 103.624 18.0064C104.351 20.4114 105.046 22.8482 105.74 25.2532C105.828 25.5604 106.191 25.5213 106.285 25.216C106.322 25.0932 106.361 24.9693 106.404 24.8418C107.035 22.6899 107.667 20.5064 108.33 18.3545C108.709 17.0887 109.341 16.614 110.636 16.614C111.457 16.614 112.278 16.614 113.068 16.614C113.763 16.614 114.047 16.9304 113.889 17.595C113.668 18.4494 113.384 19.3038 113.131 20.1266C111.899 23.9874 110.636 27.8798 109.404 31.7406C109.057 32.7849 108.393 33.2279 107.32 33.2595C106.72 33.2595 106.119 33.2595 105.519 33.2595C104.446 33.2595 103.751 32.7532 103.435 31.7406C102.582 28.9874 101.698 26.2342 100.845 23.4811C100.84 23.4565 100.835 23.4327 100.828 23.409C100.782 23.2396 100.548 23.25 100.471 23.4078C100.467 23.4163 100.465 23.4223 100.462 23.4313C99.579 26.18 98.7276 28.9602 97.8447 31.7089C97.5289 32.7532 96.834 33.2279 95.7286 33.2279C95.097 33.2279 94.4969 33.2279 93.8652 33.2279C92.8546 33.2279 92.1913 32.7216 91.8755 31.7722C90.5174 27.5633 89.1909 23.3861 87.8328 19.1773C87.7065 18.7342 87.5486 18.3228 87.4223 17.8798C87.3591 17.6583 87.3275 17.4368 87.3275 17.2152C87.3275 16.7722 87.5486 16.5507 87.9908 16.5507C89.0014 16.5507 89.9805 16.519 90.9912 16.5507C91.9071 16.5823 92.5703 17.1203 92.8546 18.0064C93.581 20.4747 94.3074 22.9431 95.0654 25.4114C95.097 25.5697 95.1601 25.6962 95.1917 25.8545Z" fill="#006E96"/>
<path d="M81.1593 32.1852C81.1012 32.1252 81.0135 32.0508 80.9421 32.0942C80.755 32.2077 80.5829 32.3063 80.4107 32.4048C78.8316 33.3858 77.0629 33.7023 75.2311 33.639C74.0309 33.5757 72.8939 33.3858 71.7885 32.8795C69.7988 31.9618 68.6934 30.2529 68.7565 28.2276C68.8197 25.9491 69.9883 24.4618 72.0728 23.639C73.1782 23.196 74.3468 23.0061 75.5469 23.0061C77.0945 23.0061 78.6737 23.0061 80.2212 23.0061C80.6318 23.0061 80.7266 22.8795 80.695 22.4998C80.4739 20.5694 79.6843 19.8099 77.7262 19.8099C76.9366 19.8099 76.1786 19.9048 75.4838 20.2846C75.2311 20.4428 74.9784 20.6327 74.7573 20.8542C74.2836 21.3922 73.7151 21.6453 73.0203 21.6453C72.357 21.6453 71.6938 21.6453 71.0305 21.6453C70.2409 21.6453 69.8935 21.2339 69.9567 20.4428C70.083 18.8922 70.9042 17.8795 72.2938 17.2466C73.4308 16.7403 74.631 16.5504 75.8627 16.4238C77.5682 16.2972 79.2737 16.2339 80.9476 16.677C82.7795 17.12 84.2639 18.0377 85.1482 19.7782C85.622 20.7276 85.8115 21.7086 85.8115 22.7529C85.8115 25.9175 85.8115 29.082 85.8115 32.2782C85.8115 33.0377 85.4956 33.3225 84.7692 33.3225C83.948 33.3225 83.1269 33.3225 82.3373 33.3225C81.5367 33.3225 81.2465 33.0819 81.2032 32.2781C81.2011 32.2393 81.1863 32.2132 81.1593 32.1852ZM78.0736 26.4555C77.3156 26.4871 76.526 26.4555 75.768 26.4871C75.01 26.5187 74.3783 26.8668 74.0309 27.5947C73.5256 28.6706 74.1573 29.8415 75.389 30.0947C77.2524 30.4744 78.9263 29.8732 80.5055 28.9238C80.6002 28.8605 80.6634 28.6706 80.6634 28.5124C80.695 27.9744 80.6634 27.4048 80.6634 26.8668C80.6634 26.5504 80.5371 26.4555 80.2528 26.4555C79.5264 26.4555 78.8 26.4555 78.0736 26.4555Z" fill="#006E96"/>
<path d="M138.373 33.3885C138.666 32.7226 138.159 32.0627 137.45 31.8989C136.029 31.6457 134.892 30.9178 134.008 29.7786C133.028 28.5128 132.428 27.0887 131.955 25.6014C131.133 22.9748 130.344 20.3482 129.586 17.7216C129.396 17.0887 129.681 16.709 130.344 16.709C131.291 16.709 132.27 16.709 133.218 16.709C133.976 16.709 134.481 17.0887 134.702 17.8482C135.429 20.19 136.124 22.5318 136.85 24.8735C137.134 25.8229 137.513 26.7406 138.145 27.5318C138.492 27.9432 138.903 28.2596 139.44 28.3546C139.756 28.4178 139.914 28.3546 140.008 28.0065C140.861 24.9052 141.714 21.8039 142.567 18.7027C142.661 18.3862 142.756 18.0381 142.851 17.7216C143.04 17.0571 143.514 16.709 144.209 16.709C145.156 16.709 146.104 16.709 147.051 16.709C147.778 16.709 148.062 17.0887 147.873 17.7533C146.514 22.69 145.188 27.6584 143.798 32.5951C143.482 33.7343 142.977 34.8419 142.44 35.8862C141.43 37.8166 139.756 38.8292 137.576 38.7976C136.25 38.7976 134.923 38.6394 133.597 38.4811C132.934 38.4178 132.649 38.0381 132.649 37.3735C132.649 36.8672 132.649 36.3925 132.649 35.8862C132.649 35.2849 132.997 34.9368 133.597 34.9368C134.229 34.9685 134.892 35.0318 135.524 35.1267C136.439 35.2849 137.229 35.0318 137.829 34.3356C138.046 34.0454 138.224 33.7287 138.373 33.3885Z" fill="#006E96"/>
<path d="M56.0602 24.9685C56.0602 22.5634 55.997 20.19 56.0918 17.785C56.1234 16.8356 56.3445 15.8546 56.6287 14.9369C57.2604 13.0381 58.7448 12.0571 60.6082 11.6141C62.6611 11.1078 64.7456 11.1394 66.8301 11.3293C67.367 11.3609 67.9039 11.4559 68.4092 11.5508C69.0725 11.6774 69.3567 12.0255 69.3567 12.69C69.3567 13.1647 69.3567 13.6078 69.3567 14.0824C69.3252 14.747 69.0093 15.0951 68.3145 15.0951C67.8407 15.0951 67.367 15.0634 66.8932 14.9685C65.6299 14.7153 64.3666 14.8103 63.1348 15.1267C61.9347 15.4115 61.3662 16.1394 61.2083 17.5318C61.1451 17.9432 61.1451 18.3862 61.1135 18.7976C61.0819 19.1774 61.2083 19.304 61.6189 19.304C63.1664 19.2723 64.7456 19.304 66.2932 19.304C67.1143 19.304 67.3986 19.5888 67.4302 20.4115C67.4302 20.9179 67.4302 21.4242 67.4302 21.9305C67.4302 22.5951 67.0827 22.9432 66.3879 22.9432C64.8088 22.9432 63.198 22.9432 61.6189 22.9432C61.2399 22.9432 61.1135 23.0698 61.1135 23.4495C61.1135 26.3609 61.1135 29.2723 61.1135 32.2153C61.1135 33.1014 60.8293 33.3862 59.9449 33.3862C59.029 33.3862 58.0815 33.3862 57.1656 33.3862C56.3129 33.3862 56.0286 33.1014 56.0286 32.247C56.0286 29.7786 56.0286 27.3736 56.0602 24.9685C56.0286 24.9685 56.0602 24.9685 56.0602 24.9685Z" fill="#006E96"/>
<path d="M121.216 17.6577C121.216 18.0227 121.621 18.2368 121.922 18.0302C122.083 17.9194 122.234 17.8172 122.385 17.721C124.027 16.6451 125.859 16.3286 127.786 16.3286C128.322 16.3286 128.67 16.6767 128.701 17.2463C128.733 18.0058 128.733 18.797 128.701 19.5565C128.67 20.1577 128.354 20.4742 127.754 20.4742C127.059 20.4742 126.333 20.4742 125.638 20.4109C124.248 20.2843 123.111 20.7906 122.069 21.7084C121.437 22.278 121.153 22.8792 121.185 23.7653C121.248 26.5501 121.216 29.3349 121.216 32.1514C121.216 33.0375 120.932 33.3223 120.016 33.3223C119.037 33.3223 118.09 33.3223 117.11 33.3223C116.447 33.3223 116.1 32.9742 116.1 32.3096C116.1 27.4362 116.1 22.5628 116.1 17.6894C116.1 17.0248 116.447 16.6767 117.11 16.6767C118.153 16.6767 119.195 16.6767 120.237 16.6767C120.869 16.6767 121.185 17.0248 121.216 17.6577Z" fill="#006E96"/>
<path d="M78.0736 26.4557C78.8 26.4557 79.5265 26.4557 80.2529 26.4557C80.5687 26.4557 80.695 26.5506 80.6635 26.8671C80.6319 27.405 80.6635 27.9747 80.6635 28.5126C80.6635 28.6392 80.6003 28.8607 80.5055 28.924C78.9264 29.8734 77.2525 30.4746 75.3891 30.0949C74.1573 29.8417 73.5257 28.6709 74.031 27.5949C74.3784 26.8671 75.0101 26.5506 75.7681 26.4873C76.5261 26.424 77.3156 26.4557 78.0736 26.4557Z" fill="#FFD328"/>
<path d="M48.1012 24.8416C48.1012 35.7593 39.2895 44.5884 28.3933 44.5884C26.3088 44.5884 24.319 44.2719 22.4556 43.6707C19.6447 42.7846 17.0865 41.2656 14.9704 39.2719C11.1173 35.6643 8.68536 30.5378 8.68536 24.8416C8.71695 13.9238 17.5287 5.09473 28.4249 5.09473C30.7936 5.09473 33.036 5.50612 35.1205 6.26561C37.8366 7.24662 40.3001 8.8289 42.2899 10.8226C45.8904 14.3985 48.1012 19.3669 48.1012 24.8416Z" fill="white"/>
<path d="M37.5524 33.2275C36.072 32.4859 34.2528 33.04 33.2829 34.3819C31.4735 36.8851 28.1918 40.7082 23.673 43.0815C22.9017 43.4865 21.9826 43.5355 21.1724 43.2155C18.3887 42.1159 19.2708 38.0267 21.5371 36.0717C21.8412 35.8094 22.1477 35.5264 22.4556 35.2212C24.7484 32.9836 26.206 31.2171 27.1063 29.9748C27.9603 28.7965 27.5505 27.2637 26.3403 26.4554C25.6139 25.9807 25.7718 24.9048 26.5614 24.6199L35.6574 21.4554C36.289 21.2339 36.9523 21.6453 37.0155 22.3098L38.3735 32.6263C38.4683 33.101 37.963 33.4174 37.5524 33.2275Z" fill="#006E96"/>
<path d="M40.3001 21.8037C40.079 22.3733 39.2579 22.2784 39.1631 21.6771C38.8451 19.8325 36.9772 18.6885 35.1895 19.2435L34.0782 19.5885C33.5729 19.7467 33.1307 19.2404 33.3518 18.7657C33.9519 17.4999 34.8046 15.3796 35.4995 12.6581C36.1071 10.1619 38.7562 7.84069 40.7582 9.45076C40.979 9.62837 41.1957 9.81054 41.4079 9.9971C42.0157 10.5313 42.3723 11.2966 42.3749 12.1058C42.3869 15.8358 41.152 19.6128 40.3001 21.8037Z" fill="#006E96"/>
</g>
<defs>
<clipPath id="clip0">
<rect width="157" height="50" rx="25" fill="white"/>
</clipPath>
</defs>
</svg>
