<svg width="65" height="65" viewBox="0 0 65 65" fill="none" xmlns="http://www.w3.org/2000/svg">
<path d="M34.7414 0H3.36207C1.50525 0 0 1.50525 0 3.36207V61.6379C0 63.4948 1.50525 65 3.36207 65H34.7414C36.5982 65 38.1035 63.4948 38.1035 61.6379V3.36207C38.1035 1.50525 36.5982 0 34.7414 0Z" fill="#B0D3F0"/>
<path d="M38.1035 3.36207V61.6379C38.1035 63.4947 36.5982 65 34.7414 65H3.36207C1.50525 65 0 63.4947 0 61.6379V61.4922C29.1379 53.7931 30.2586 12.3276 15.3198 0H34.7414C36.5982 0 38.1035 1.50525 38.1035 3.36207Z" fill="#90BAE1"/>
<path d="M30.2586 0L27.0523 3.42034C26.4166 4.09835 25.5286 4.48293 24.5992 4.48276H13.5043C12.5749 4.48293 11.6869 4.09835 11.0511 3.42034L7.84485 0H30.2586Z" fill="#0F206C"/>
<path d="M17.931 23.5344H13.4483C12.8293 23.5344 12.3276 23.0326 12.3276 22.4137C12.3276 21.7947 12.8293 21.293 13.4483 21.293H17.931C18.55 21.293 19.0517 21.7947 19.0517 22.4137C19.0517 23.0326 18.55 23.5344 17.931 23.5344Z" fill="#0F206C"/>
<path d="M8.96553 23.5344H7.84484C7.2259 23.5344 6.72415 23.0326 6.72415 22.4137C6.72415 21.7947 7.2259 21.293 7.84484 21.293H8.96553C9.58447 21.293 10.0862 21.7947 10.0862 22.4137C10.0862 23.0326 9.58447 23.5344 8.96553 23.5344Z" fill="#0F206C"/>
<path d="M17.931 39.2238H13.4483C12.8293 39.2238 12.3276 38.722 12.3276 38.1031C12.3276 37.4842 12.8293 36.9824 13.4483 36.9824H17.931C18.55 36.9824 19.0517 37.4842 19.0517 38.1031C19.0517 38.722 18.55 39.2238 17.931 39.2238Z" fill="#0F206C"/>
<path d="M8.96553 39.2238H7.84484C7.2259 39.2238 6.72415 38.722 6.72415 38.1031C6.72415 37.4842 7.2259 36.9824 7.84484 36.9824H8.96553C9.58447 36.9824 10.0862 37.4842 10.0862 38.1031C10.0862 38.722 9.58447 39.2238 8.96553 39.2238Z" fill="#0F206C"/>
<path d="M17.9311 31.3796H11.2069C10.588 31.3796 10.0862 30.8778 10.0862 30.2589C10.0862 29.6399 10.588 29.1382 11.2069 29.1382H17.9311C18.55 29.1382 19.0518 29.6399 19.0518 30.2589C19.0518 30.8778 18.55 31.3796 17.9311 31.3796Z" fill="#0F206C"/>
<path d="M6.7241 31.3796H4.48272C3.86378 31.3796 3.36203 30.8778 3.36203 30.2589C3.36203 29.6399 3.86378 29.1382 4.48272 29.1382H6.7241C7.34304 29.1382 7.84479 29.6399 7.84479 30.2589C7.84479 30.8778 7.34304 31.3796 6.7241 31.3796Z" fill="#0F206C"/>
<path d="M38.1035 56.0342V61.6376C38.1035 63.4945 36.5982 64.9997 34.7414 64.9997H3.36207C1.50525 64.9997 0 63.4945 0 61.6376V56.0342C0 57.891 1.50525 59.3963 3.36207 59.3963H34.7414C36.5982 59.3963 38.1035 57.891 38.1035 56.0342Z" fill="#0F206C"/>
<path d="M60.5172 14.5688H22.4138C19.938 14.5688 17.931 16.5758 17.931 19.0516V41.4654C17.931 43.9411 19.938 45.9481 22.4138 45.9481H60.5172C62.993 45.9481 65 43.9411 65 41.4654V19.0516C65 16.5758 62.993 14.5688 60.5172 14.5688Z" fill="#EE8F21"/>
<path d="M32.5 33.6206H65V40.3447H17.931V33.6206H24.6552H32.5Z" fill="#0F206C"/>
<path d="M53.7931 23.5345C55.031 23.5345 56.0345 22.531 56.0345 21.2931C56.0345 20.0553 55.031 19.0518 53.7931 19.0518C52.5552 19.0518 51.5517 20.0553 51.5517 21.2931C51.5517 22.531 52.5552 23.5345 53.7931 23.5345Z" fill="white"/>
<path d="M58.2759 23.5345C59.5138 23.5345 60.5173 22.531 60.5173 21.2931C60.5173 20.0553 59.5138 19.0518 58.2759 19.0518C57.038 19.0518 56.0345 20.0553 56.0345 21.2931C56.0345 22.531 57.038 23.5345 58.2759 23.5345Z" fill="#E64C3C"/>
<path d="M24.6551 24.655H23.5344C22.9155 24.655 22.4138 24.1532 22.4138 23.5343C22.4138 22.9153 22.9155 22.4136 23.5344 22.4136H24.6551C25.2741 22.4136 25.7758 22.9153 25.7758 23.5343C25.7758 24.1532 25.2741 24.655 24.6551 24.655Z" fill="#3F5C6C"/>
<path d="M32.5 24.655H29.1379C28.519 24.655 28.0172 24.1532 28.0172 23.5343C28.0172 22.9153 28.519 22.4136 29.1379 22.4136H32.5C33.1189 22.4136 33.6207 22.9153 33.6207 23.5343C33.6207 24.1532 33.1189 24.655 32.5 24.655Z" fill="#3F5C6C"/>
<path d="M35.862 29.1379H23.5344C22.9155 29.1379 22.4138 28.6361 22.4138 28.0172C22.4138 27.3982 22.9155 26.8965 23.5344 26.8965H35.862C36.481 26.8965 36.9827 27.3982 36.9827 28.0172C36.9827 28.6361 36.481 29.1379 35.862 29.1379Z" fill="#3F5C6C"/>
</svg>
